<svg width="550" height="523" viewBox="0 0 550 523" fill="none" xmlns="http://www.w3.org/2000/svg">
<path opacity="0.5" d="M0 393.913H550L547.177 0L5.10878 4.97434L0 393.913Z" fill="url(#paint0_linear)"/>
<path d="M9.14209 370.655H542.471V7.125L9.14209 12.0993V370.655Z" fill="url(#paint1_linear)"/>
<path d="M9.14207 370.654L4.16772 376.166L545.295 375.36L542.471 370.654H9.14207Z" fill="url(#paint2_linear)"/>
<path d="M9.14209 12.0993L14.5197 15.7293L538.304 10.486L542.471 7.125L9.14209 12.0993Z" fill="url(#paint3_linear)"/>
<path d="M538.303 10.486L542.471 370.655L545.294 375.36L542.471 7.125L538.303 10.486Z" fill="url(#paint4_linear)"/>
<path d="M4.16772 376.167L9.14207 12.0996L14.5197 15.7295L9.14207 370.655L4.16772 376.167Z" fill="url(#paint5_linear)"/>
<path opacity="0.2" d="M265.791 15.7295L92.2268 360.572H108.36L381.948 12.0996L265.791 15.7295Z" fill="url(#paint6_linear)"/>
<path opacity="0.2" d="M400.098 12.0996L120.191 360.572H134.173L538.304 10.4863L400.098 12.0996Z" fill="url(#paint7_linear)"/>
<path opacity="0.2" d="M14.3853 20.7051L25.5439 326.156L531.716 341.213L538.304 59.4242L542.471 370.656H9.14209L14.3853 20.7051Z" fill="url(#paint8_linear)"/>
<path d="M114.141 376.032L127.451 370.654H351.833L355.329 375.629L114.141 376.032Z" fill="#00DBBD"/>
<path d="M369.983 370.654L374.285 375.629H408.702L404.131 370.654H369.983Z" fill="#00DBBD"/>
<path d="M547.177 0L542.471 4.30213L9.14213 7.12539L5.10889 4.97434L547.177 0Z" fill="url(#paint9_linear)"/>
<path d="M63.9943 44.9023V71.2529H79.3206V77.4372H57.6755V44.9023H63.9943Z" fill="white"/>
<path d="M85.2359 52.9682C86.7148 50.4138 88.7314 48.3972 91.2858 46.9183C93.8402 45.4395 96.529 44.6328 99.6212 44.6328C102.579 44.6328 105.402 45.4395 107.957 46.9183C110.511 48.3972 112.528 50.4138 114.006 52.9682C115.485 55.5226 116.292 58.2114 116.292 61.1691C116.292 64.1268 115.485 66.9501 114.006 69.5045C112.528 72.0589 110.511 74.0755 107.957 75.5543C105.402 77.0332 102.713 77.8398 99.6212 77.8398C96.6635 77.8398 93.8402 77.0332 91.2858 75.5543C88.7314 74.0755 86.7148 72.0589 85.2359 69.5045C83.7571 66.9501 82.9504 64.2613 82.9504 61.1691C82.9504 58.2114 83.7571 55.5226 85.2359 52.9682ZM90.8825 66.4123C91.8236 68.0256 93.0336 69.2356 94.5124 70.1767C95.9913 71.1178 97.739 71.5211 99.6212 71.5211C101.503 71.5211 103.117 71.1178 104.596 70.1767C106.074 69.2356 107.284 68.0256 108.091 66.4123C108.898 64.799 109.435 63.0513 109.435 61.1691C109.435 59.2869 109.032 57.4047 108.091 55.9259C107.15 54.3126 106.074 53.1026 104.461 52.1615C102.982 51.2204 101.234 50.8171 99.3523 50.8171C97.4701 50.8171 95.8568 51.2204 94.2435 52.1615C92.7647 53.1026 91.5547 54.3126 90.6136 55.9259C89.6725 57.5392 89.2692 59.2869 89.2692 61.1691C89.5381 63.0513 90.0758 64.799 90.8825 66.4123Z" fill="white"/>
<path d="M140.088 77.4372L133.232 67.0852H128.93V77.4372H122.476V44.9023H132.291C136.324 44.9023 139.416 45.8434 141.701 47.8601C143.987 49.8767 145.063 52.4311 145.063 55.9265C145.063 57.9432 144.659 59.8253 143.853 61.5731C143.046 63.3208 141.701 64.6652 139.954 65.7408L147.482 77.5716H140.088V77.4372ZM128.93 60.9009H133.501C135.248 60.9009 136.458 60.3631 137.265 59.422C138.072 58.3465 138.475 57.2709 138.475 56.1954C138.475 55.1199 138.072 53.9099 137.399 52.8344C136.727 51.7588 135.383 51.2211 133.501 51.2211H128.93V60.9009Z" fill="white"/>
<path d="M174.908 44.9023V51.0867H159.179V58.0776H173.161V64.2619H159.179V71.2529H175.581V77.4372H152.86V44.9023H174.908Z" fill="white"/>
<path d="M215.644 43.5586V77.3034H209.191V61.8426L198.57 76.9001L188.353 62.7837V77.3034H182.168V43.5586L198.57 66.9514L215.644 43.5586Z" fill="white"/>
<path d="M63.9942 97.873V130.408H57.541V97.873H63.9942Z" fill="white"/>
<path d="M91.4202 100.831C93.5713 102.847 94.6469 105.402 94.6469 108.897C94.6469 110.779 94.2435 112.662 93.5713 114.409C92.7647 116.157 91.5547 117.502 89.9414 118.577C88.1937 119.653 86.0426 120.19 83.3538 120.19H78.7828V130.408H72.3296V97.873H82.1438C86.177 97.873 89.2692 98.8142 91.4202 100.831ZM86.177 113.065C86.8492 112.527 87.387 111.855 87.7904 111.183C88.0592 110.511 88.3281 109.704 88.3281 109.032C88.3281 107.822 87.9248 106.746 87.2526 105.671C86.5804 104.595 85.236 104.057 83.3538 104.057H78.7828V113.872H83.3538C84.4293 113.872 85.5048 113.603 86.177 113.065Z" fill="white"/>
<path d="M110.376 103.385C108.898 103.385 107.822 103.654 107.15 104.191C106.343 104.729 105.94 105.536 105.94 106.746C105.94 107.821 106.478 108.628 107.688 109.435C108.763 110.241 110.376 110.914 112.259 111.72C113.737 112.258 115.082 112.93 116.157 113.602C117.233 114.275 118.174 115.35 118.846 116.56C119.518 117.77 119.922 119.383 119.922 121.4C119.922 123.013 119.518 124.627 118.577 126.105C117.771 127.584 116.426 128.66 114.813 129.466C113.2 130.273 111.183 130.676 108.763 130.676C106.881 130.676 104.864 130.408 102.982 129.87C101.1 129.332 99.3522 128.391 97.6045 127.181L100.428 122.207C101.503 123.013 102.848 123.685 104.327 124.223C105.805 124.761 107.015 125.03 108.225 125.03C109.57 125.03 110.78 124.761 111.721 124.223C112.662 123.685 113.2 122.744 113.2 121.4C113.2 119.787 111.586 118.308 108.494 117.098C106.612 116.426 105.133 115.619 103.923 114.947C102.713 114.275 101.638 113.333 100.697 111.989C99.7556 110.779 99.3523 109.166 99.3523 107.284C99.3523 104.46 100.293 102.175 102.175 100.562C104.058 98.8138 106.478 97.8727 109.57 97.7383C111.99 97.7383 114.006 98.0072 115.62 98.5449C117.233 99.0827 118.846 99.8893 120.325 100.83L117.905 105.67C114.947 104.191 112.393 103.385 110.376 103.385Z" fill="white"/>
<path d="M132.828 121.266C133.501 122.207 134.307 123.014 135.248 123.551C136.324 124.089 137.399 124.492 138.609 124.492C139.819 124.492 141.029 124.224 142.105 123.551C143.18 123.014 143.987 122.207 144.659 121.266C145.197 120.325 145.6 119.384 145.6 118.308V97.873H151.919V118.443C151.919 120.728 151.381 122.879 150.171 124.761C148.961 126.644 147.348 128.122 145.331 129.063C143.315 130.139 141.164 130.677 138.744 130.677C136.324 130.677 134.173 130.139 132.156 129.063C130.139 127.988 128.526 126.509 127.451 124.761C126.241 122.879 125.703 120.863 125.703 118.443V97.873H132.156V118.308C131.887 119.384 132.156 120.325 132.828 121.266Z" fill="white"/>
<path d="M192.924 96.5293V130.274H186.47V114.813L175.85 129.871H175.715L165.498 115.754V130.274H159.313V96.5293L175.715 119.922L192.924 96.5293Z" fill="white"/>
<g opacity="0.3">
<path opacity="0.3" d="M408.836 57.1387H283.268C281.924 57.1387 280.848 56.0632 280.848 54.7188C280.848 53.3744 281.924 52.2988 283.268 52.2988H408.836C410.181 52.2988 411.256 53.3744 411.256 54.7188C411.256 56.0632 410.181 57.1387 408.836 57.1387Z" fill="#5400FF"/>
<path opacity="0.3" d="M408.836 107.016H283.268C281.924 107.016 280.848 105.94 280.848 104.596C280.848 103.251 281.924 102.176 283.268 102.176H408.836C410.181 102.176 411.256 103.251 411.256 104.596C411.256 105.94 410.181 107.016 408.836 107.016Z" fill="#5400FF"/>
<path opacity="0.3" d="M495.551 84.1602H283.268C281.924 84.1602 280.848 83.0847 280.848 81.7402C280.848 80.3958 281.924 79.3203 283.268 79.3203H495.686C497.03 79.3203 498.105 80.3958 498.105 81.7402C497.971 83.0847 496.896 84.1602 495.551 84.1602Z" fill="#5400FF"/>
<path opacity="0.3" d="M495.551 123.418H283.268C281.924 123.418 280.848 122.342 280.848 120.998C280.848 119.654 281.924 118.578 283.268 118.578H495.686C497.03 118.578 498.105 119.654 498.105 120.998C497.971 122.342 496.896 123.418 495.551 123.418Z" fill="#5400FF"/>
<path opacity="0.3" d="M496.089 146.543H356.001C354.925 146.543 353.984 145.602 353.984 144.526V143.585C353.984 142.509 354.925 141.568 356.001 141.568H495.955C497.03 141.568 497.971 142.509 497.971 143.585V144.526C497.971 145.736 497.164 146.543 496.089 146.543Z" fill="#5400FF"/>
<path opacity="0.3" d="M357.749 69.6426H282.73C281.655 69.6426 280.848 68.836 280.848 67.7604V66.6849C280.848 65.6094 281.655 64.8027 282.73 64.8027H357.749C358.824 64.8027 359.631 65.6094 359.631 66.6849V67.7604C359.631 68.836 358.824 69.6426 357.749 69.6426Z" fill="#5400FF"/>
<path opacity="0.3" d="M411.391 69.6423H368.235C367.429 69.6423 366.756 68.9701 366.756 68.1635V66.1468C366.756 65.3402 367.429 64.668 368.235 64.668H411.391C412.198 64.668 412.87 65.3402 412.87 66.1468V68.1635C412.87 69.1045 412.198 69.6423 411.391 69.6423Z" fill="#5400FF"/>
<path opacity="0.3" d="M466.646 69.6423H423.491C422.684 69.6423 422.012 68.9701 422.012 68.1635V66.1468C422.012 65.3402 422.684 64.668 423.491 64.668H466.646C467.453 64.668 468.125 65.3402 468.125 66.1468V68.1635C467.991 69.1045 467.453 69.6423 466.646 69.6423Z" fill="#5400FF"/>
<path opacity="0.3" d="M411.391 94.7829H368.235C367.429 94.7829 366.756 94.1107 366.756 93.3041V91.2875C366.756 90.4808 367.429 89.8086 368.235 89.8086H411.391C412.198 89.8086 412.87 90.4808 412.87 91.2875V93.3041C412.87 94.1107 412.198 94.7829 411.391 94.7829Z" fill="#5400FF"/>
<path opacity="0.3" d="M327.634 146.543H284.478C283.671 146.543 282.999 145.87 282.999 145.064V143.047C282.999 142.241 283.671 141.568 284.478 141.568H327.634C328.44 141.568 329.113 142.241 329.113 143.047V145.064C328.978 145.87 328.306 146.543 327.634 146.543Z" fill="#5400FF"/>
<path opacity="0.3" d="M488.023 134.98H444.867C444.06 134.98 443.388 134.308 443.388 133.501V131.485C443.388 130.678 444.06 130.006 444.867 130.006H488.023C488.829 130.006 489.501 130.678 489.501 131.485V133.501C489.501 134.308 488.829 134.98 488.023 134.98Z" fill="#5400FF"/>
<path opacity="0.3" d="M408.836 174.236H283.268C281.924 174.236 280.848 173.161 280.848 171.816C280.848 170.472 281.924 169.396 283.268 169.396H408.836C410.181 169.396 411.256 170.472 411.256 171.816C411.256 173.161 410.181 174.236 408.836 174.236Z" fill="#5400FF"/>
<path opacity="0.3" d="M495.551 190.773H283.268C281.924 190.773 280.848 189.698 280.848 188.354C280.848 187.009 281.924 185.934 283.268 185.934H495.686C497.03 185.934 498.105 187.009 498.105 188.354C497.971 189.698 496.896 190.773 495.551 190.773Z" fill="#5400FF"/>
<path opacity="0.3" d="M496.089 213.898H356.001C354.925 213.898 353.984 212.957 353.984 211.882V210.94C353.984 209.865 354.925 208.924 356.001 208.924H495.955C497.03 208.924 497.971 209.865 497.971 210.94V211.882C497.971 212.957 497.164 213.898 496.089 213.898Z" fill="#5400FF"/>
<path opacity="0.3" d="M411.391 162.136H368.235C367.429 162.136 366.756 161.464 366.756 160.658V158.641C366.756 157.834 367.429 157.162 368.235 157.162H411.391C412.198 157.162 412.87 157.834 412.87 158.641V160.658C412.87 161.464 412.198 162.136 411.391 162.136Z" fill="#5400FF"/>
<path opacity="0.3" d="M327.634 213.898H284.478C283.671 213.898 282.999 213.226 282.999 212.419V210.403C282.999 209.596 283.671 208.924 284.478 208.924H327.634C328.44 208.924 329.113 209.596 329.113 210.403V212.419C328.978 213.226 328.306 213.898 327.634 213.898Z" fill="#5400FF"/>
<path opacity="0.3" d="M488.023 202.336H444.867C444.06 202.336 443.388 201.663 443.388 200.857V198.84C443.388 198.034 444.06 197.361 444.867 197.361H488.023C488.829 197.361 489.501 198.034 489.501 198.84V200.857C489.501 201.663 488.829 202.336 488.023 202.336Z" fill="#5400FF"/>
<path opacity="0.3" d="M488.023 57.1384H444.867C444.06 57.1384 443.388 56.4662 443.388 55.6595V53.6429C443.388 52.8363 444.06 52.1641 444.867 52.1641H488.023C488.829 52.1641 489.501 52.8363 489.501 53.6429V55.6595C489.501 56.4662 488.829 57.1384 488.023 57.1384Z" fill="#5400FF"/>
<path opacity="0.3" d="M408.836 228.148H283.268C281.924 228.148 280.848 227.073 280.848 225.729C280.848 224.384 281.924 223.309 283.268 223.309H408.836C410.181 223.309 411.256 224.384 411.256 225.729C411.256 227.073 410.181 228.148 408.836 228.148Z" fill="#5400FF"/>
<path opacity="0.3" d="M357.749 240.65H282.73C281.655 240.65 280.848 239.844 280.848 238.768V237.693C280.848 236.617 281.655 235.811 282.73 235.811H357.749C358.824 235.811 359.631 236.617 359.631 237.693V238.768C359.631 239.844 358.824 240.65 357.749 240.65Z" fill="#5400FF"/>
<path opacity="0.3" d="M411.391 240.652H368.235C367.429 240.652 366.756 239.98 366.756 239.173V237.157C366.756 236.35 367.429 235.678 368.235 235.678H411.391C412.198 235.678 412.87 236.35 412.87 237.157V239.173C412.87 239.98 412.198 240.652 411.391 240.652Z" fill="#5400FF"/>
<path opacity="0.3" d="M466.646 240.652H423.491C422.684 240.652 422.012 239.98 422.012 239.173V237.157C422.012 236.35 422.684 235.678 423.491 235.678H466.646C467.453 235.678 468.125 236.35 468.125 237.157V239.173C467.991 239.98 467.453 240.652 466.646 240.652Z" fill="#5400FF"/>
<path opacity="0.3" d="M488.023 228.148H444.867C444.06 228.148 443.388 227.476 443.388 226.669V224.653C443.388 223.846 444.06 223.174 444.867 223.174H488.023C488.829 223.174 489.501 223.846 489.501 224.653V226.669C489.501 227.476 488.829 228.148 488.023 228.148Z" fill="#5400FF"/>
</g>
<path d="M11.4275 16.4121L540.455 16.4121V15.471L11.4275 15.471V16.4121Z" fill="#E7A7EA"/>
<path d="M11.4275 26.5645L540.455 26.5645V25.6234L11.4275 25.6234V26.5645Z" fill="#E7A7EA"/>
<path d="M11.4275 36.7187L540.455 36.7188V35.7777L11.4275 35.7777V36.7187Z" fill="#E7A7EA"/>
<path d="M11.4276 46.8711L540.455 46.8711V45.93L11.4276 45.93V46.8711Z" fill="#E7A7EA"/>
<path d="M11.4275 56.8906L540.455 56.8906V55.9495L11.4275 55.9495V56.8906Z" fill="#E7A7EA"/>
<path d="M11.4275 67.043L540.455 67.043V66.1019L11.4275 66.1019V67.043Z" fill="#E7A7EA"/>
<path d="M11.4275 77.1953L540.455 77.1953V76.2542L11.4275 76.2542V77.1953Z" fill="#E7A7EA"/>
<path d="M11.4275 87.3496L540.455 87.3496V86.4085L11.4275 86.4085V87.3496Z" fill="#E7A7EA"/>
<path d="M11.4275 97.3691L540.455 97.3691V96.428L11.4275 96.428V97.3691Z" fill="#E7A7EA"/>
<path d="M11.4275 107.521L540.455 107.521V106.58L11.4275 106.58V107.521Z" fill="#E7A7EA"/>
<path d="M11.4275 117.674L540.455 117.674V116.733L11.4275 116.733V117.674Z" fill="#E7A7EA"/>
<path d="M11.4275 127.693L540.455 127.693V126.752L11.4275 126.752V127.693Z" fill="#E7A7EA"/>
<path d="M11.4275 137.846L540.455 137.846V136.905L11.4275 136.905V137.846Z" fill="#E7A7EA"/>
<path d="M11.4275 148L540.455 148V147.059L11.4275 147.059V148Z" fill="#E7A7EA"/>
<path d="M11.4275 158.152L540.455 158.152V157.211L11.4275 157.211V158.152Z" fill="#E7A7EA"/>
<path d="M11.4275 168.172L540.455 168.172V167.231L11.4275 167.231V168.172Z" fill="#E7A7EA"/>
<path d="M11.4275 178.324L540.455 178.324V177.383L11.4275 177.383V178.324Z" fill="#E7A7EA"/>
<path d="M11.4275 188.477L540.455 188.477V187.535L11.4275 187.535V188.477Z" fill="#E7A7EA"/>
<path d="M11.4275 198.631L540.455 198.631V197.69L11.4275 197.69V198.631Z" fill="#E7A7EA"/>
<path d="M11.4275 208.648L540.455 208.648V207.707L11.4275 207.707V208.648Z" fill="#E7A7EA"/>
<path d="M11.4275 218.801L540.455 218.801V217.86L11.4275 217.86V218.801Z" fill="#E7A7EA"/>
<path d="M11.4275 228.955L540.455 228.955V228.014L11.4275 228.014V228.955Z" fill="#E7A7EA"/>
<path d="M11.4275 239.107L540.455 239.107V238.166L11.4275 238.166V239.107Z" fill="#E7A7EA"/>
<path d="M11.4275 249.127L540.455 249.127V248.186L11.4275 248.186V249.127Z" fill="#E7A7EA"/>
<path d="M11.4275 259.279L540.455 259.279V258.338L11.4275 258.338V259.279Z" fill="#E7A7EA"/>
<path d="M11.4275 269.432L540.455 269.432V268.491L11.4275 268.491V269.432Z" fill="#E7A7EA"/>
<path d="M11.4275 279.586L540.455 279.586V278.645L11.4275 278.645V279.586Z" fill="#E7A7EA"/>
<path d="M11.4275 289.605L540.455 289.605V288.664L11.4275 288.664V289.605Z" fill="#E7A7EA"/>
<path d="M11.4275 299.758L540.455 299.758V298.817L11.4275 298.817V299.758Z" fill="#E7A7EA"/>
<path d="M11.4275 309.91L540.455 309.91V308.969L11.4275 308.969V309.91Z" fill="#E7A7EA"/>
<path d="M11.4275 320.064L540.455 320.064V319.123L11.4275 319.123V320.064Z" fill="#E7A7EA"/>
<path d="M11.4275 330.082L540.455 330.082V329.141L11.4275 329.141V330.082Z" fill="#E7A7EA"/>
<path d="M11.4275 340.236L540.455 340.236V339.295L11.4275 339.295V340.236Z" fill="#E7A7EA"/>
<path d="M11.4275 350.389L540.455 350.389V349.448L11.4275 349.448V350.389Z" fill="#E7A7EA"/>
<path d="M11.4275 360.541L540.455 360.541V359.6L11.4275 359.6V360.541Z" fill="#E7A7EA"/>
<path d="M11.4275 370.561L540.455 370.561V369.619L11.4275 369.619V370.561Z" fill="#E7A7EA"/>
<path opacity="0.8" d="M520.692 269.016H296.847V351.832H520.692V269.016Z" fill="#E7A7EA"/>
<path d="M283.268 137.803H17.7463V180.555H283.268V137.803Z" fill="#FF86DD"/>
<g clip-path="url(#clip0)">
<path d="M338.862 252.831C338.862 252.831 333.368 266.368 329.248 283.829C325.128 301.291 309.923 352.596 309.923 352.596C309.923 352.596 331.21 354.067 335.722 352.596C340.333 351.124 355.44 295.797 355.44 295.797L346.611 252.732L338.862 252.831Z" fill="#2E638A"/>
<path d="M403.41 378.984C403.802 381.142 405.47 381.829 405.47 381.829C408.217 379.671 410.571 377.218 412.435 374.962C411.846 374.57 411.356 374.177 411.356 373.883C411.159 373.294 412.337 372.608 414.2 372.706C415.28 371.333 416.162 369.959 416.947 368.782C418.713 366.035 419.596 364.27 419.596 364.27L416.653 365.349C416.457 365.643 416.261 365.937 415.966 366.231C414.887 367.507 413.219 369.371 411.356 371.234C410.08 372.51 408.707 373.883 407.53 375.06C405.274 377.316 403.41 378.984 403.41 378.984Z" fill="#36295C"/>
<path d="M425.482 347.005C425.482 347.005 422.441 351.713 414.2 351.125C414.2 351.125 418.222 346.808 425.482 347.005Z" fill="#000003"/>
<path d="M294.423 519.067C295.012 519.95 309.04 519.852 314.533 519.558C315.122 519.558 315.612 519.558 315.907 519.46C319.732 519.165 330.229 516.026 330.229 516.026L330.425 518.479L347.004 518.185C347.004 517.204 347.102 515.928 347.004 514.653C347.004 512.004 347.004 509.356 347.004 509.356C347.004 509.356 347.004 502.685 341.804 499.154C341.51 498.957 341.118 498.761 340.725 498.565C335.526 495.622 327.973 495.916 327.973 495.916C327.973 495.916 327.875 496.014 327.776 496.113C327.09 496.701 325.52 498.271 323.853 499.644C323.068 500.331 322.185 501.017 321.498 501.508C316.397 504.843 307.765 507.59 304.135 509.65C299.721 512.102 295.208 516.517 294.325 518.381C294.423 518.675 294.325 518.871 294.423 519.067Z" fill="#3B0E21"/>
<path d="M294.423 519.067C295.012 519.95 309.04 519.852 314.533 519.558C315.122 519.558 315.612 519.46 315.907 519.46C319.732 519.165 330.229 516.026 330.229 516.026L330.425 518.479L347.004 518.184C347.004 517.203 347.004 515.928 347.004 514.653L346.709 513.672C346.709 513.672 332.387 514.555 326.011 516.026C323.166 516.713 320.027 517.301 316.888 517.694H316.79C316.201 517.792 315.612 517.89 315.122 517.89C314.926 517.89 314.729 517.988 314.533 517.988C311.296 518.381 308.157 518.675 305.508 518.675C299.721 518.773 295.012 518.184 294.619 518.184C294.423 518.675 294.325 518.871 294.423 519.067Z" fill="#310E00"/>
<path opacity="0.5" d="M314.435 518.086L314.533 519.459C315.122 519.459 315.612 519.459 315.907 519.361C319.732 519.067 330.229 515.928 330.229 515.928L330.425 518.38L347.004 518.086C347.004 517.105 347.102 515.829 347.004 514.554C347.004 511.905 347.004 509.257 347.004 509.257C347.004 509.257 347.004 502.586 341.804 499.055C341.51 498.859 341.118 498.662 340.725 498.466C336.899 496.406 331.112 496.014 327.776 496.014C327.09 496.602 325.52 498.172 323.853 499.545C326.109 500.232 328.757 501.605 330.817 504.352C334.545 509.453 325.226 516.124 316.691 517.791H316.593C316.005 517.889 315.416 517.988 314.828 517.988C314.828 518.086 314.631 518.086 314.435 518.086Z" fill="#280815"/>
<path d="M355.44 520.637C357.206 521.814 365.544 522.599 372.803 522.207C374.177 522.207 375.55 522.01 376.825 521.912C380.357 521.422 383.202 520.637 384.182 519.264C384.182 519.264 384.379 519.264 384.771 519.264C387.224 519.166 397.229 518.773 397.72 518.381C397.72 518.381 397.818 518.283 397.818 518.185C397.818 518.086 397.818 517.988 397.916 517.89C397.916 517.694 397.916 517.498 397.916 517.302C397.916 516.909 397.916 516.419 397.818 515.928C397.818 515.34 397.72 514.751 397.622 514.064C397.524 513.28 397.426 512.495 397.328 511.71C397.328 511.71 397.328 511.612 397.328 511.514C397.328 511.122 397.229 510.827 397.229 510.435C397.033 509.454 396.837 508.375 396.641 507.198C396.543 506.707 396.445 506.217 396.248 505.628C395.562 502.979 394.679 499.742 393.404 495.524C392.913 493.954 392.619 492.875 392.619 492.875C392.325 492.777 392.128 492.581 391.834 492.483C384.182 489.442 378.395 496.897 378.395 496.897C378.395 496.897 377.61 498.075 376.629 499.644C374.961 502.097 372.607 505.432 371.234 506.217C360.345 513.083 353.674 519.558 355.44 520.637Z" fill="#3B0E21"/>
<path d="M384.281 519.264C384.281 519.264 396.739 519.264 397.818 518.381L397.916 515.83C397.916 515.83 385.458 517.694 384.869 517.988C384.281 518.283 384.281 519.264 384.281 519.264Z" fill="#310E00"/>
<path opacity="0.5" d="M371.234 522.501C372.509 522.501 373.784 522.403 374.961 522.207C375.648 522.108 376.237 522.01 376.825 521.912C382.613 520.931 384.084 519.46 384.182 519.264C384.182 519.264 384.379 519.264 384.771 519.264C387.224 519.264 396.837 519.166 397.72 518.381C397.72 518.381 397.818 518.283 397.818 518.185C397.818 518.086 397.818 517.988 397.916 517.89C397.916 517.694 397.916 517.498 397.916 517.302C397.916 516.909 397.916 516.419 397.818 515.928C397.818 515.34 397.72 514.751 397.622 514.064C397.524 513.182 397.426 512.397 397.328 511.71C397.328 511.71 397.328 511.612 397.328 511.514C397.229 510.925 397.229 510.435 397.229 510.435C397.131 509.65 396.935 508.473 396.641 507.198C396.543 506.707 396.445 506.217 396.248 505.628C395.366 502.195 394.188 498.075 393.404 495.524C392.913 493.954 392.619 492.875 392.619 492.875C392.325 492.777 392.128 492.581 391.834 492.483C384.182 489.442 378.395 496.897 378.395 496.897C378.395 496.897 377.61 498.075 376.629 499.644C379.474 499.938 383.202 500.821 385.948 502.685C390.853 506.217 383.398 513.574 383.398 513.574L383.202 518.185C383.202 518.185 378.395 521.422 372.901 522.207C372.313 522.403 371.822 522.403 371.234 522.501Z" fill="#280815"/>
<path d="M324.343 496.799C324.343 496.799 332.289 496.603 338.469 500.527C344.649 504.451 346.415 509.748 346.415 509.748L351.418 506.609C351.418 506.609 358.677 452.165 357.206 445.887C356.323 442.061 350.829 431.761 350.437 429.112C350.143 427.15 353.576 403.018 356.421 387.715C357.402 382.418 358.383 378.2 359.07 376.336C361.816 368.88 354.95 331.113 354.95 331.113L345.14 312.965L339.254 311.689C339.254 311.689 337.881 316.104 335.919 323.363C335.919 323.363 335.919 323.461 335.821 323.755C333.172 333.859 329.542 349.261 327.58 365.741C325.128 385.459 327.286 408.316 328.856 420.676C328.954 421.264 329.052 421.951 329.052 422.54C329.64 426.954 330.131 429.505 330.131 429.505L330.229 429.701C330.719 430.486 332.485 433.919 332.583 434.606V434.704C332.681 436.568 330.818 476.493 330.327 479.044C330.033 480.417 328.365 485.518 326.796 489.933C325.52 493.562 324.343 496.799 324.343 496.799Z" fill="#003363"/>
<path d="M353.184 349.85L353.674 350.144C353.674 350.144 351.418 354.559 355.832 383.792C360.247 413.025 370.253 431.369 370.743 432.448C371.234 433.527 374.373 437.549 374.373 437.549C376.433 441.473 378.591 481.693 378.591 481.693L377.316 497.585C383.3 496.113 390.363 500.528 392.227 501.705C393.992 502.882 397.328 510.534 397.328 510.534C397.328 510.534 399.191 499.449 399.486 497.683C399.78 495.917 405.175 458.738 402.134 452.166C399.093 445.495 390.951 426.955 389.578 423.914C388.205 420.873 386.537 352.204 386.537 352.204C386.537 352.204 390.657 344.945 390.657 343.376C390.657 341.806 383.986 312.867 383.986 312.867C375.452 315.32 345.14 312.867 345.14 312.867C344.257 320.225 346.317 345.73 346.317 345.73L353.184 349.85Z" fill="#003363"/>
<path opacity="0.8" d="M366.721 341.02L353.772 347.593L353.086 358.089L347.69 346.612C347.69 346.612 342.197 342.295 334.153 340.039C334.153 340.039 344.257 342.982 350.633 343.276C356.813 343.669 366.721 341.02 366.721 341.02Z" fill="#001D48"/>
<path opacity="0.5" d="M324.343 496.8C324.343 496.8 332.289 496.604 338.469 500.527C344.649 504.451 346.415 509.749 346.415 509.749L351.418 506.609C351.418 506.609 358.677 452.165 357.206 445.887C356.323 442.061 350.829 431.761 350.339 429.112C350.045 427.15 353.478 403.019 356.421 387.715V387.617L353.086 358.09C353.086 358.09 347.985 417.635 344.845 423.521C341.706 429.309 330.033 429.407 330.033 429.407L330.131 429.603L332.485 434.508V434.606L330.229 478.946L339.646 471.589L326.599 489.835C325.52 493.562 324.343 496.8 324.343 496.8Z" fill="#001E41"/>
<path opacity="0.5" d="M378.493 497.093C385.065 496.406 390.461 500.527 392.227 501.704C393.992 502.881 397.328 510.532 397.328 510.532C397.328 510.532 399.191 499.447 399.486 497.682C399.78 495.916 405.175 458.737 402.134 452.164C399.093 445.494 390.951 426.953 389.578 423.912C388.205 420.871 386.537 352.203 386.537 352.203C386.537 352.203 384.673 411.356 381.436 419.596C378.199 427.836 370.743 432.447 370.743 432.447C371.234 433.526 374.373 437.548 374.373 437.548C376.433 441.472 378.395 479.828 378.395 479.828L383.3 471.097L377.414 497.584L378.493 497.093Z" fill="#001E41"/>
<path opacity="0.8" d="M355.832 383.792C360.247 413.025 370.253 431.369 370.743 432.448C357.99 401.155 353.772 347.594 353.772 347.594L353.184 349.85L353.674 350.144C353.674 350.144 351.418 354.559 355.832 383.792Z" fill="#001D48"/>
<path opacity="0.8" d="M328.856 420.479C325.03 387.322 334.938 328.66 335.82 323.559C333.172 333.663 329.542 349.064 327.58 365.544C325.128 385.36 327.286 408.217 328.856 420.479Z" fill="#001D48"/>
<path opacity="0.5" d="M280.788 235.761C280.788 235.761 284.221 228.11 295.699 228.698C295.601 228.698 289.518 235.173 280.788 235.761Z" fill="url(#paint10_linear)"/>
<path d="M293.639 235.173L293.835 228.992C293.835 228.992 301.683 223.99 301.094 219.968C300.505 215.847 296.876 212.61 296.189 211.139C295.6 209.765 294.62 203.88 293.246 203.291C291.873 202.702 290.303 206.136 290.401 208.882C290.598 211.727 292.658 212.512 292.952 213.003C293.246 213.493 293.05 215.553 293.05 215.553C293.05 215.553 289.028 212.12 288.636 211.237C288.145 210.354 286.183 204.762 285.987 203.88C285.791 202.997 284.319 195.836 282.063 195.639C281.573 196.718 281.278 197.699 281.376 199.171C281.376 199.171 280.395 195.247 279.807 194.756C279.218 194.266 278.335 196.228 278.335 196.228C278.335 196.228 276.962 196.817 276.177 200.74C276.177 200.74 274.215 208.588 275 212.414C275.785 216.24 282.161 224.578 285.202 227.227L282.455 238.508C282.652 238.41 289.813 238.214 293.639 235.173Z" fill="url(#paint11_linear)"/>
<path d="M280.788 235.762L280.984 241.06C280.984 241.06 276.57 260.581 286.674 272.745C286.674 272.745 306.784 280.691 319.634 279.71C322.577 279.514 331.995 281.378 336.017 279.416C349.26 272.647 359.462 255.578 359.462 255.578C359.462 255.578 354.851 247.534 349.848 245.376C345.042 243.316 339.941 247.043 338.077 246.749C338.077 246.749 323.46 251.556 316.299 254.793L302.664 253.125C302.664 253.125 303.546 250.379 303.056 249.594C302.565 248.809 300.505 251.654 300.505 251.654V251.556C300.407 250.575 299.23 242.629 299.328 239.882C299.328 237.822 299.721 236.253 299.917 235.076C300.015 234.585 300.015 234.193 299.917 233.898C299.524 233.016 295.993 233.506 295.993 233.506L295.797 228.699C295.601 228.699 286.674 235.762 280.788 235.762Z" fill="url(#paint12_linear)"/>
<path d="M293.639 213.297C293.639 213.297 292.461 217.809 293.639 221.831C293.639 221.831 291.284 215.749 292.167 212.414L293.639 213.297Z" fill="#E28183"/>
<path d="M291.579 223.205C291.579 223.205 289.322 217.908 282.161 214.376C282.161 214.376 279.905 211.924 279.513 210.648C279.218 209.471 279.611 202.703 276.373 201.525C276.373 201.525 279.807 202.114 280.003 210.06L282.554 213.886C282.652 213.886 290.205 217.417 291.579 223.205Z" fill="#E28183"/>
<path d="M278.532 196.229C278.532 196.229 280.101 198.19 280.984 202.801C281.769 207.412 281.769 207.412 281.769 207.412L283.044 209.668L282.259 207.314C282.259 207.314 280.984 198.681 278.532 196.229Z" fill="#E28183"/>
<path d="M281.573 197.994C281.573 197.994 283.24 201.329 283.633 205.253C283.633 205.253 282.357 200.643 281.573 199.269V197.994Z" fill="#E28183"/>
<path d="M285.889 208.884C285.889 208.884 282.357 210.061 280.886 211.14C280.886 211.14 281.475 209.766 282.652 208.982C283.829 208.197 285.889 208.884 285.889 208.884Z" fill="#E28183"/>
<path opacity="0.2" d="M280.788 235.762L280.984 241.06C280.984 241.06 276.57 260.581 286.674 272.745C286.674 272.745 306.784 280.691 319.634 279.71C322.577 279.514 343.276 281.868 347.298 279.808L351.026 252.145L349.848 251.262C345.925 242.139 339.941 247.043 338.077 246.749C338.077 246.749 326.796 258.717 322.381 261.169L316.299 254.793L302.664 253.125L299.034 256.068L300.505 251.654V251.556C300.407 250.575 299.23 242.629 299.328 239.882C299.328 237.822 299.721 236.253 299.917 235.076V233.898C299.917 233.898 293.54 238.999 285.791 240.373L295.993 233.506L295.797 228.699C295.601 228.699 286.674 235.762 280.788 235.762Z" fill="#CA2485"/>
<path d="M400.761 252.732C400.761 252.732 384.085 240.961 374.079 236.252L378.101 246.65L400.761 252.732Z" fill="url(#paint13_linear)"/>
<path opacity="0.8" d="M335.232 270.684C335.232 270.684 329.444 280.69 328.169 302.271C326.796 323.852 331.995 331.602 331.995 331.602L344.061 324.441L339.45 297.17L335.232 270.684Z" fill="#243864"/>
<path d="M332.093 333.467C332.093 333.467 336.017 336.41 345.042 336.998C356.029 337.783 368.978 342.982 373.784 344.944C374.961 345.435 375.648 345.729 375.648 345.729L379.376 324.932C379.376 324.932 377.904 305.215 377.512 292.952C377.12 280.69 375.55 245.768 375.55 245.768C372.509 250.869 367.604 256.46 358.677 258.716C349.75 260.875 347.985 257.441 347.985 257.441L343.374 256.951C342.982 257.539 333.368 269.998 332.387 280.788C331.406 291.775 335.036 304.528 335.036 304.528C335.33 306.98 334.055 321.989 333.27 323.363C332.583 324.736 333.859 327.875 333.859 327.875L332.093 333.467Z" fill="url(#paint14_linear)"/>
<path opacity="0.5" d="M341.805 269.703L349.554 266.269C349.554 266.269 348.181 274.804 346.906 281.965L347.592 302.271L347.887 281.965L355.244 260.678L361.914 272.351L375.158 261.855L375.55 252.83L374.569 250.279L352.791 259.697L346.317 260.972L341.805 269.703Z" fill="url(#paint15_linear)"/>
<path d="M367.408 228.404C367.408 228.404 372.117 238.999 375.55 245.768C375.55 245.768 363.19 258.324 352.791 259.697C342.393 261.071 347.985 256.166 348.279 254.989C348.573 253.713 347.985 250.574 347.985 250.574L367.408 228.404Z" fill="#AF6273"/>
<path d="M352.889 259.697C352.889 259.697 359.07 265.386 361.816 272.449C361.816 272.449 373.98 258.716 375.746 247.336C375.746 247.336 375.746 240.96 371.528 237.232C371.528 237.232 368.389 244.001 363.876 250.279C359.364 256.558 352.889 259.697 352.889 259.697Z" fill="url(#paint16_linear)"/>
<path opacity="0.5" d="M332.093 333.467C332.093 333.467 335.036 336.41 345.042 336.999C356.029 337.685 368.977 342.983 373.784 344.945L374.471 339.942L375.844 279.317C375.746 281.966 374.667 294.326 369.468 295.798C362.797 297.564 335.33 296.19 334.741 285.792C334.055 273.824 344.649 257.54 344.649 257.54L343.374 256.951C342.982 257.54 333.368 269.998 332.387 280.789C331.406 291.776 335.036 304.528 335.036 304.528C335.33 306.981 334.055 321.99 333.27 323.363C332.583 324.737 333.859 327.876 333.859 327.876L332.093 333.467Z" fill="url(#paint17_linear)"/>
<path d="M373.294 355.736C384.967 358.875 391.54 365.251 391.54 365.251C394.679 363.387 397.916 359.071 397.916 359.071C397.033 354.755 393.894 345.337 393.11 343.277C392.717 342.296 392.913 334.743 393.208 326.699C393.6 317.379 394.09 307.57 394.09 307.57C396.151 302.763 397.916 297.564 399.486 292.463C402.919 280.887 405.077 269.606 406.156 262.837C406.843 258.815 407.137 256.363 407.137 256.363C407.137 256.363 407.039 256.363 406.941 256.265L406.843 256.167C406.745 256.068 406.549 255.97 406.451 255.97C402.429 253.42 398.309 251.262 394.581 249.594C383.3 244.493 374.275 243.021 374.275 243.021L375.648 245.768C375.648 245.768 375.746 269.606 375.648 283.045C375.648 287.362 375.354 296.583 375.06 307.079C374.863 313.161 374.667 319.636 374.471 325.816C374.079 337.686 373.686 348.476 373.49 353.185V354.264V355.049L373.294 355.736Z" fill="url(#paint18_linear)"/>
<path opacity="0.8" d="M373.294 355.736C384.967 358.875 391.54 365.251 391.54 365.251C394.581 363.387 397.916 359.071 397.916 359.071C397.033 354.755 393.894 345.337 393.11 343.277C392.325 341.217 394.09 307.668 394.09 307.668C396.151 302.763 398.014 297.662 399.486 292.561L383.496 282.064C383.496 282.064 376.433 292.953 375.06 302.371L373.294 353.283V354.362V355.147V355.736Z" fill="#226383"/>
<path d="M375.059 302.273C375.059 302.273 385.065 273.334 384.967 272.451C384.477 269.704 383.79 263.818 380.553 261.17C379.18 260.483 386.046 246.259 386.046 246.259C386.046 246.259 381.24 237.528 370.547 235.174L374.275 243.022C374.275 243.022 374.569 247.534 375.648 252.733C376.629 258.031 375.059 302.273 375.059 302.273Z" fill="url(#paint19_linear)"/>
<path d="M352.89 259.698C352.89 259.698 346.415 261.561 341.805 269.704C341.805 269.704 341.903 254.989 346.807 246.16L348.769 249.103C348.769 249.103 348.181 257.834 352.89 259.698Z" fill="url(#paint20_linear)"/>
<path d="M299.721 233.997C299.721 233.997 292.854 239 285.595 240.471C285.595 240.471 294.129 235.174 295.797 233.604C295.797 233.604 299.132 232.525 299.721 233.997Z" fill="#112F3F"/>
<path d="M295.601 228.699L295.797 233.506C295.797 233.506 288.439 241.746 280.886 241.06L280.69 235.762C280.788 235.762 290.794 232.623 295.601 228.699Z" fill="url(#paint21_linear)"/>
<path d="M322.774 307.765C322.774 307.765 326.796 278.532 328.071 276.276L333.368 267.447L334.055 259.894L338.96 252.732L322.774 307.765Z" fill="url(#paint22_linear)"/>
<path d="M370.253 234.583C369.958 235.172 369.762 235.859 369.37 236.643C368.487 238.507 366.819 240.862 362.111 244.393C355.538 249.298 348.966 250.377 347.69 249.102C347.298 248.709 346.611 247.728 345.826 246.453C344.159 243.608 342.099 238.802 341.51 232.818C340.922 227.422 341.314 223.106 341.706 220.261C341.903 218.593 342.001 217.416 341.903 217.024C341.608 215.945 340.039 211.825 340.039 211.825C340.039 211.432 340.039 210.942 340.039 210.549C340.431 203.683 343.374 201.525 343.374 201.525C360.639 188.87 370.253 201.426 372.117 207.901C374.079 214.277 371.234 232.425 370.253 234.583Z" fill="url(#paint23_linear)"/>
<path d="M371.234 221.437C371.234 221.437 374.863 217.611 378.885 219.083C382.907 220.554 381.436 226.244 377.708 229.383C373.98 232.522 370.351 232.032 369.566 229.874C368.781 227.814 370.056 223.497 371.234 221.437Z" fill="url(#paint24_linear)"/>
<path opacity="0.8" d="M371.626 224.576C371.626 224.576 373.882 222.908 375.746 222.516C378.002 222.025 379.474 223.791 379.474 223.791C379.474 223.791 377.61 222.81 376.139 223.987C376.139 223.987 376.139 227.028 373.882 228.107C373.882 228.107 374.667 226.44 374.373 225.557C373.98 224.674 371.626 224.576 371.626 224.576Z" fill="url(#paint25_linear)"/>
<path opacity="0.6" d="M369.37 236.643C368.487 238.506 366.819 240.861 362.111 244.392C355.538 249.297 348.965 250.376 347.69 249.101C347.298 248.709 346.611 247.728 345.826 246.452C345.826 246.452 347.985 247.826 354.361 246.649C360.247 245.373 366.329 240.959 369.37 236.643Z" fill="url(#paint26_linear)"/>
<path d="M377.12 207.117C375.942 211.041 373.49 217.025 372.803 220.36C372.803 220.36 370.449 221.243 369.958 224.088C369.958 224.088 369.86 218.3 368.095 214.769C366.329 211.237 365.348 211.531 365.348 208.687C365.348 207.215 366.133 203.585 366.133 203.585C366.133 203.585 355.538 206.921 348.475 206.234C342.001 205.646 341.804 205.057 341.804 204.959L340.627 207.313C340.627 207.313 338.077 206.136 337.488 200.839C337.488 200.839 336.213 203.684 337.488 207.313C337.292 207.117 334.055 203.193 335.82 197.7C335.82 197.7 341.903 198.19 349.26 195.64C356.617 193.089 364.367 191.519 366.819 192.697C367.604 193.089 368.193 193.874 368.683 194.757C369.664 196.817 370.155 199.563 370.939 200.348C372.018 201.525 377.316 201.525 377.904 203.389C377.904 204.174 377.61 205.449 377.12 207.117Z" fill="url(#paint27_linear)"/>
<path opacity="0.5" d="M377.12 207.117C375.942 211.041 373.49 217.025 372.803 220.36C372.803 220.36 370.449 221.243 369.958 224.088C369.958 224.088 369.86 218.3 368.095 214.769C366.329 211.237 365.348 211.532 365.348 208.687C365.348 207.215 366.133 203.586 366.133 203.586C366.133 203.586 355.538 206.921 348.475 206.234C342.001 205.646 341.804 205.057 341.804 204.959L340.627 207.313C340.627 207.313 338.077 206.136 337.488 200.839C337.488 200.839 342.197 203.39 351.124 201.624C360.051 199.76 366.623 199.76 366.623 199.76C366.623 199.76 368.781 198.092 368.585 194.953C369.566 197.013 370.056 199.76 370.841 200.545C370.841 200.545 369.664 200.741 368.389 202.703C366.721 205.155 367.212 206.332 367.212 206.332C367.212 206.332 373.588 207.51 377.12 207.117Z" fill="url(#paint28_linear)"/>
<path d="M357.696 235.172C357.696 235.172 355.244 236.35 351.418 236.448C347.592 236.448 341.412 234.191 341.412 234.191L345.532 233.309C345.532 233.309 356.029 234.29 357.696 235.172Z" fill="#EE7F6B"/>
<path d="M351.516 234.584C351.516 234.584 346.807 234.878 345.336 234.584C345.336 234.584 345.434 236.644 345.925 237.625C345.925 237.625 343.865 235.467 344.159 233.897C344.257 233.799 349.064 233.308 351.516 234.584Z" fill="#C65659"/>
<path d="M358.187 235.171C358.187 235.171 355.538 235.073 354.067 234.779C352.595 234.485 345.728 234.092 344.061 233.994C342.393 233.896 340.137 234.288 340.137 234.288C340.137 234.288 340.824 232.523 342.393 232.228C343.963 231.934 348.181 231.64 348.181 231.64L351.222 230.07L358.187 235.171Z" fill="url(#paint29_linear)"/>
<path d="M346.023 218.593C346.023 218.593 345.434 221.438 344.453 222.222C343.472 223.007 342.295 222.713 342.001 222.419C342.001 222.419 341.706 219.868 342.197 217.906C342.197 217.906 343.374 217.416 346.023 218.593Z" fill="#FFE6DD"/>
<path d="M359.953 219.869C359.953 219.869 359.658 221.733 359.07 222.321C358.481 222.91 354.95 223.498 353.674 222.714C353.674 222.714 353.086 221.438 353.38 218.201C353.282 218.201 355.244 217.122 359.953 219.869Z" fill="#FFE6DD"/>
<path d="M359.953 219.868C359.953 219.868 359.756 221.634 358.873 222.125C358.089 222.713 356.617 222.517 356.029 222.125C355.244 221.634 355.244 219.672 355.734 218.299C355.734 218.397 358.187 218.593 359.953 219.868Z" fill="#702A25"/>
<path d="M351.32 228.796C351.32 228.796 355.44 230.562 358.187 235.27L353.282 234.191L350.928 230.954L352.105 233.701C352.105 233.701 344.257 233.309 342.589 233.21C342.589 233.21 340.333 233.505 340.039 234.388C340.039 234.388 341.118 229.875 343.865 228.109L351.32 228.796Z" fill="url(#paint30_linear)"/>
<path d="M359.952 219.869C359.952 219.869 360.051 219.281 359.952 218.888C359.952 218.888 357.794 215.455 353.87 216.534C353.87 216.534 353.38 217.221 353.38 218.202C353.38 218.202 354.753 218.006 356.911 218.594C358.972 219.183 359.952 219.869 359.952 219.869Z" fill="#C65659"/>
<path d="M346.023 218.593C346.023 218.593 345.434 221.438 344.453 222.223C344.453 222.223 343.766 221.928 343.57 220.653C343.374 219.378 343.864 217.906 343.864 217.906C343.864 217.906 345.63 218.201 346.023 218.593Z" fill="#702A25"/>
<path d="M342.197 217.907C342.197 217.907 342.785 216.24 343.57 215.945C343.57 215.945 345.238 215.945 345.925 217.711C345.925 217.711 346.121 218.3 346.121 218.496C346.023 218.594 343.472 217.515 342.197 217.907Z" fill="#C65659"/>
<path d="M356.323 220.064C356.323 220.064 355.146 220.064 354.655 220.555C354.655 220.555 355.636 220.751 356.323 220.064Z" fill="white"/>
<path d="M344.257 219.869C344.257 219.869 343.08 219.869 342.589 220.36C342.687 220.262 343.668 220.458 344.257 219.869Z" fill="white"/>
<path d="M361.718 216.533C361.816 216.141 359.364 214.964 356.617 214.375C353.87 213.787 349.848 213.689 349.848 213.983C349.848 214.375 352.203 216.828 353.87 217.024C355.44 217.22 359.364 216.435 359.952 216.337C360.443 216.435 361.718 216.533 361.718 216.533Z" fill="url(#paint31_linear)"/>
<path d="M352.105 228.012C352.105 228.012 350.045 227.913 348.671 227.717C347.298 227.521 344.747 226.932 343.178 227.423C343.178 227.423 343.57 229.189 347.592 229.973C347.592 229.973 349.456 229.483 350.731 229.091C352.007 228.6 352.105 228.012 352.105 228.012Z" fill="url(#paint32_linear)"/>
<path d="M351.32 228.796C351.32 228.796 350.437 228.306 349.75 228.6C348.966 228.894 348.769 229.581 348.769 229.581C348.769 229.581 351.026 228.992 351.32 228.796Z" fill="#A53137"/>
<path d="M346.513 216.239C346.513 216.239 343.178 213.002 340.235 213.394C340.235 213.394 339.45 214.866 341.118 216.239C341.118 216.239 342.982 215.454 346.513 216.632C346.513 216.632 346.807 216.533 346.513 216.239Z" fill="url(#paint33_linear)"/>
<path d="M374.177 219.377L372.509 217.317L363.19 216.238V217.808C363.19 217.808 371.136 218.004 371.822 218.396C372.509 218.789 373.098 219.966 373.098 219.966L374.177 219.377Z" fill="url(#paint34_linear)"/>
<path opacity="0.47" d="M362.797 215.454C363.582 215.846 364.073 223.302 361.424 225.558C361.424 225.558 355.832 227.225 351.32 224.675C351.32 224.675 349.162 221.634 350.535 214.571C350.633 214.473 357.206 212.217 362.797 215.454Z" fill="url(#paint35_linear)"/>
<path d="M362.797 215.455L364.661 216.338C364.661 216.338 364.857 222.322 362.503 225.461L360.541 225.657C360.541 225.755 364.367 223.499 362.797 215.455Z" fill="url(#paint36_linear)"/>
<path opacity="0.47" d="M344.355 214.671C344.845 214.965 345.042 222.518 343.668 224.775C343.668 224.775 340.431 226.344 338.077 224.088C338.077 224.088 336.998 221.341 337.979 213.984C337.881 213.984 341.02 213.003 344.355 214.671Z" fill="url(#paint37_linear)"/>
<path d="M344.355 214.67L345.238 216.043C345.238 216.043 345.728 221.439 343.963 224.578L343.178 224.97C343.178 224.97 345.14 222.714 344.355 214.67Z" fill="url(#paint38_linear)"/>
<path d="M346.513 216.238C346.513 216.238 347.298 218.298 346.513 220.555C346.513 220.555 344.159 223.301 343.57 226.44C343.57 226.44 343.963 222.418 346.121 220.064C346.121 220.064 346.709 217.317 346.121 216.533L346.513 216.238Z" fill="url(#paint39_linear)"/>
<path d="M351.418 216.534C351.418 216.534 347.2 215.455 343.864 216.534V217.515C343.864 217.515 347.985 216.73 351.418 217.711C351.418 217.613 351.908 217.319 351.418 216.534Z" fill="url(#paint40_linear)"/>
<path opacity="0.5" d="M362.797 222.223C362.797 222.223 358.481 218.103 350.143 218.593C350.143 218.593 349.947 222.615 351.32 224.577C351.32 224.577 354.361 226.932 360.541 225.754C360.541 225.754 361.816 224.479 362.797 222.223Z" fill="url(#paint41_linear)"/>
<path d="M356.519 225.754C355.327 225.754 354.361 225.447 354.361 225.068C354.361 224.688 355.327 224.381 356.519 224.381C357.711 224.381 358.677 224.688 358.677 225.068C358.677 225.447 357.711 225.754 356.519 225.754Z" fill="#FFE6DD"/>
<path d="M340.393 224.772C339.691 224.709 339.142 224.439 339.167 224.169C339.191 223.899 339.78 223.732 340.481 223.795C341.182 223.859 341.731 224.129 341.707 224.399C341.682 224.668 341.094 224.836 340.393 224.772Z" fill="#FFE6DD"/>
<path opacity="0.82" d="M354.263 243.805C354.263 243.805 348.966 241.745 346.807 243.118C346.807 243.118 346.317 239.194 350.143 239.488C354.067 239.783 354.263 243.805 354.263 243.805Z" fill="url(#paint42_linear)"/>
<path opacity="0.82" d="M349.162 227.717C349.162 227.717 347.592 222.812 346.023 222.518C344.453 222.224 343.178 227.325 343.178 227.325C343.178 227.325 345.728 226.736 349.162 227.717Z" fill="url(#paint43_linear)"/>
<path d="M349.162 227.717C349.358 228.306 346.906 228.012 346.807 227.325C346.709 226.835 349.064 227.227 349.162 227.717Z" fill="#FFE6DD"/>
<path d="M411.454 373.882C411.552 374.176 411.944 374.569 412.533 374.961C413.121 374.176 413.808 373.49 414.299 372.705C412.435 372.607 411.258 373.293 411.454 373.882Z" fill="#36295C"/>
<path d="M405.764 374.374C405.96 374.57 406.647 374.962 407.53 375.06C408.707 375.158 410.277 374.766 410.963 372.804C411.159 372.314 411.257 371.725 411.356 371.333C411.846 368.684 411.356 366.918 411.356 366.33C411.356 365.545 412.631 362.406 413.121 362.406C413.416 362.406 414.887 364.368 415.966 366.33C416.457 367.311 416.849 368.193 416.947 368.88V368.978C417.045 370.94 416.653 373.196 416.653 373.196C415.77 372.902 414.985 372.804 414.299 372.706C413.71 373.393 413.121 374.177 412.533 374.962C413.71 375.747 415.672 376.532 417.045 376.532C419.105 376.63 421.656 375.355 421.656 375.355C424.795 375.845 425.089 374.864 425.089 374.864C425.089 374.864 427.738 374.57 428.326 374.275C428.817 373.981 429.307 372.215 429.307 372.215C429.307 372.215 432.643 371.725 432.839 371.136C433.035 370.548 431.956 364.466 431.956 363.387C431.858 362.308 423.716 349.359 423.716 349.359V349.261C423.716 349.163 423.716 349.064 423.814 348.966C423.814 348.966 423.814 348.868 423.814 348.77C426.953 336.508 427.345 325.619 427.149 319.831C427.051 317.085 426.953 315.515 426.953 315.515C426.168 309.825 422.735 309.924 420.086 310.022H407.334C407.334 310.022 406.843 310.414 406.451 311.689C406.255 312.474 406.058 313.455 406.058 314.927C406.058 316.398 406.156 318.066 406.549 320.028C407.236 323.167 408.511 327.091 410.669 332.388C414.299 340.922 415.476 351.223 415.476 351.223C410.375 353.675 408.903 356.226 408.609 357.501C408.315 358.776 408.216 361.523 407.824 365.839C407.53 370.253 405.47 373.785 405.764 374.374Z" fill="url(#paint44_linear)"/>
<path d="M405.666 305.019V305.313V305.411L406.745 320.126L427.247 320.812C427.247 317.085 427.247 317.869 427.247 313.553V313.455C427.247 311.984 427.149 310.218 427.149 308.452C427.051 304.724 426.953 302.174 426.953 301.389C426.855 301.095 426.757 300.604 426.463 300.016C426.266 302.959 424.991 307.765 424.01 308.354C421.95 309.727 412.14 308.452 411.061 308.354H410.963C410.963 308.354 410.375 307.962 409.296 307.079C409.001 306.981 408.707 306.882 408.315 306.686C408.118 306.588 407.824 306.49 407.628 306.392H407.53C407.432 306.294 407.236 306.294 407.137 306.196C406.156 305.509 405.666 305.019 405.666 305.019Z" fill="url(#paint45_linear)"/>
<path d="M429.307 372.214L430.092 366.721C430.092 366.721 430.288 369.958 430.387 370.546C430.485 371.233 432.839 371.037 432.839 371.037C432.839 371.037 432.643 371.92 429.307 372.214Z" fill="#E28183"/>
<path d="M425.089 374.864C425.089 374.864 426.168 372.117 426.364 369.959L426.07 374.275C426.07 374.275 427.149 374.471 428.326 374.275C428.326 374.275 425.776 374.962 425.089 374.864Z" fill="#E28183"/>
<path d="M421.656 375.353L422.244 371.037C422.244 371.037 420.871 374.471 419.596 375.648C418.419 376.727 416.947 376.531 416.947 376.531C416.947 376.531 418.713 377.021 421.656 375.353Z" fill="#E28183"/>
<path d="M405.372 305.117L405.666 314.142L405.862 320.126L408.707 344.258L413.612 346.22L414.593 351.124C414.593 351.124 417.536 349.162 420.479 348.181C423.422 347.201 425.384 347.201 425.384 347.201L426.364 338.372L427.345 327.581C427.345 327.581 427.345 324.638 427.345 320.812V315.809C427.345 313.945 427.345 315.417 427.345 313.553V313.455C427.345 311.984 427.247 310.218 427.247 308.452C427.149 304.724 427.051 302.174 427.051 301.389C426.953 301.095 426.855 300.604 426.561 300.016C426.364 302.959 425.089 307.765 424.108 308.354C422.048 309.727 412.238 308.452 411.159 308.354H411.061C411.061 308.354 410.473 307.962 409.394 307.079C409.099 306.981 408.805 306.882 408.413 306.686C408.216 306.588 407.922 306.49 407.726 306.392H407.628C407.53 306.294 407.334 306.294 407.235 306.196C407.137 306.196 407.039 306.098 406.941 306.098C406.843 306.098 406.745 306 406.647 306C406.353 305.803 405.96 305.607 405.666 305.411C405.568 305.215 405.47 305.117 405.372 305.117Z" fill="url(#paint46_linear)"/>
<path d="M427.149 308.354C427.149 310.217 427.149 311.983 427.247 313.356C427.149 311.591 427.149 309.923 427.149 308.354Z" fill="url(#paint47_linear)"/>
<path d="M392.717 284.811C395.268 291.776 399.584 297.465 403.41 301.487L405.372 304.823V305.019C405.47 305.117 405.568 305.117 405.764 305.215C406.058 305.411 411.061 308.256 411.061 308.256H411.159C412.238 308.452 422.048 309.727 424.108 308.256C425.089 307.569 426.364 302.762 426.561 299.918C426.561 299.82 426.463 299.721 426.463 299.623C425.678 297.465 424.108 293.738 422.146 289.323C419.105 281.475 413.71 268.625 412.729 266.368V266.27V266.172C412.729 266.074 412.631 266.074 412.631 266.074C410.963 262.837 409.688 260.581 408.805 259.207C408.216 257.932 407.922 257.245 407.922 257.245C406.058 256.264 404.391 256.264 402.821 256.853C401.644 256.853 400.467 257.049 399.388 257.245C397.524 257.638 395.856 258.226 394.777 259.207C391.736 261.758 387.518 270.292 392.717 284.811Z" fill="url(#paint48_linear)"/>
</g>
<defs>
<linearGradient id="paint0_linear" x1="275.022" y1="393.869" x2="275.022" y2="-0.00417885" gradientUnits="userSpaceOnUse">
<stop stop-color="#04092E"/>
<stop offset="1" stop-color="#14204D"/>
</linearGradient>
<linearGradient id="paint1_linear" x1="275.78" y1="370.595" x2="275.78" y2="7.13804" gradientUnits="userSpaceOnUse">
<stop stop-color="#048CFF"/>
<stop offset="1" stop-color="#00D1FF"/>
</linearGradient>
<linearGradient id="paint2_linear" x1="4.10212" y1="373.372" x2="545.236" y2="373.372" gradientUnits="userSpaceOnUse">
<stop offset="0.00396825" stop-color="#006395"/>
<stop offset="1" stop-color="#00729D"/>
</linearGradient>
<linearGradient id="paint3_linear" x1="9.10149" y1="11.4394" x2="542.458" y2="11.4394" gradientUnits="userSpaceOnUse">
<stop offset="0.00396825" stop-color="#006395"/>
<stop offset="1" stop-color="#00729D"/>
</linearGradient>
<linearGradient id="paint4_linear" x1="541.741" y1="375.344" x2="541.741" y2="7.13804" gradientUnits="userSpaceOnUse">
<stop offset="0.00396825" stop-color="#004595"/>
<stop offset="1" stop-color="#00729D"/>
</linearGradient>
<linearGradient id="paint5_linear" x1="9.29009" y1="376.15" x2="9.29009" y2="12.1565" gradientUnits="userSpaceOnUse">
<stop offset="0.00396825" stop-color="#004595"/>
<stop offset="1" stop-color="#00729D"/>
</linearGradient>
<linearGradient id="paint6_linear" x1="237.07" y1="360.559" x2="237.07" y2="12.1565" gradientUnits="userSpaceOnUse">
<stop stop-color="#E0E0E0"/>
<stop offset="1" stop-color="white"/>
</linearGradient>
<linearGradient id="paint7_linear" x1="329.232" y1="360.559" x2="329.232" y2="10.5436" gradientUnits="userSpaceOnUse">
<stop stop-color="#E0E0E0"/>
<stop offset="1" stop-color="white"/>
</linearGradient>
<linearGradient id="paint8_linear" x1="9.10149" y1="195.68" x2="542.458" y2="195.68" gradientUnits="userSpaceOnUse">
<stop offset="0.00396825" stop-color="#120D4A"/>
<stop offset="0.1731" stop-color="#423E6F"/>
<stop offset="0.4748" stop-color="#9290AC"/>
<stop offset="0.7228" stop-color="#CDCCD9"/>
<stop offset="0.9042" stop-color="#F1F1F4"/>
<stop offset="1" stop-color="white"/>
</linearGradient>
<linearGradient id="paint9_linear" x1="5.09356" y1="3.56713" x2="547.111" y2="3.56713" gradientUnits="userSpaceOnUse">
<stop stop-color="#38546E"/>
<stop offset="1" stop-color="#63BEC4"/>
</linearGradient>
<linearGradient id="paint10_linear" x1="295.621" y1="232.248" x2="280.743" y2="232.248" gradientUnits="userSpaceOnUse">
<stop stop-color="#CCEDFF"/>
<stop offset="1" stop-color="#9D68C2"/>
</linearGradient>
<linearGradient id="paint11_linear" x1="298.554" y1="227.987" x2="269.935" y2="208.429" gradientUnits="userSpaceOnUse">
<stop offset="0.0159875" stop-color="#FFC2A9"/>
<stop offset="1" stop-color="#FF9595"/>
</linearGradient>
<linearGradient id="paint12_linear" x1="296.829" y1="279.824" x2="329.778" y2="231.609" gradientUnits="userSpaceOnUse">
<stop stop-color="#63CEAE"/>
<stop offset="1" stop-color="#0098BA"/>
</linearGradient>
<linearGradient id="paint13_linear" x1="400.757" y1="244.484" x2="374.102" y2="244.484" gradientUnits="userSpaceOnUse">
<stop stop-color="#63CEAE"/>
<stop offset="1" stop-color="#0098BA"/>
</linearGradient>
<linearGradient id="paint14_linear" x1="355.75" y1="345.78" x2="355.75" y2="245.796" gradientUnits="userSpaceOnUse">
<stop stop-color="#CAD1FF"/>
<stop offset="1" stop-color="#E3FFFF"/>
</linearGradient>
<linearGradient id="paint15_linear" x1="375.579" y1="276.293" x2="341.79" y2="276.293" gradientUnits="userSpaceOnUse">
<stop stop-color="#CCEDFF"/>
<stop offset="1" stop-color="#9D68C2"/>
</linearGradient>
<linearGradient id="paint16_linear" x1="364.283" y1="272.46" x2="364.283" y2="237.235" gradientUnits="userSpaceOnUse">
<stop stop-color="white"/>
<stop offset="1" stop-color="#E3FFFF"/>
</linearGradient>
<linearGradient id="paint17_linear" x1="375.722" y1="300.944" x2="332.086" y2="300.944" gradientUnits="userSpaceOnUse">
<stop stop-color="#CCEDFF"/>
<stop offset="1" stop-color="#9D68C2"/>
</linearGradient>
<linearGradient id="paint18_linear" x1="390.166" y1="365.294" x2="390.166" y2="243.086" gradientUnits="userSpaceOnUse">
<stop stop-color="#63CEAE"/>
<stop offset="1" stop-color="#0098BA"/>
</linearGradient>
<linearGradient id="paint19_linear" x1="378.267" y1="302.314" x2="378.267" y2="235.202" gradientUnits="userSpaceOnUse">
<stop stop-color="#63CEAE"/>
<stop offset="1" stop-color="#0098BA"/>
</linearGradient>
<linearGradient id="paint20_linear" x1="347.317" y1="269.695" x2="347.317" y2="246.156" gradientUnits="userSpaceOnUse">
<stop stop-color="white"/>
<stop offset="1" stop-color="#E3FFFF"/>
</linearGradient>
<linearGradient id="paint21_linear" x1="295.791" y1="234.948" x2="280.743" y2="234.948" gradientUnits="userSpaceOnUse">
<stop stop-color="#CAD1FF"/>
<stop offset="1" stop-color="#E3FFFF"/>
</linearGradient>
<linearGradient id="paint22_linear" x1="330.816" y1="307.802" x2="330.816" y2="252.796" gradientUnits="userSpaceOnUse">
<stop stop-color="#63CEAE"/>
<stop offset="1" stop-color="#0098BA"/>
</linearGradient>
<linearGradient id="paint23_linear" x1="347.876" y1="249.094" x2="362.012" y2="196.662" gradientUnits="userSpaceOnUse">
<stop offset="0.0159875" stop-color="#FFC2A9"/>
<stop offset="1" stop-color="#FF9595"/>
</linearGradient>
<linearGradient id="paint24_linear" x1="374.153" y1="231.861" x2="376.811" y2="218.479" gradientUnits="userSpaceOnUse">
<stop offset="0.0159875" stop-color="#FFC2A9"/>
<stop offset="1" stop-color="#FF9595"/>
</linearGradient>
<linearGradient id="paint25_linear" x1="374.836" y1="228.217" x2="376.049" y2="222.107" gradientUnits="userSpaceOnUse">
<stop stop-color="#EE9791"/>
<stop offset="0.9944" stop-color="#C85B95"/>
</linearGradient>
<linearGradient id="paint26_linear" x1="347.638" y1="239.801" x2="367.153" y2="245.063" gradientUnits="userSpaceOnUse">
<stop stop-color="#F9AF9C"/>
<stop offset="0.9944" stop-color="#E28183"/>
</linearGradient>
<linearGradient id="paint27_linear" x1="353.004" y1="220.843" x2="358.636" y2="191.221" gradientUnits="userSpaceOnUse">
<stop stop-color="#AFD1DF"/>
<stop offset="1" stop-color="#E8FFF7"/>
</linearGradient>
<linearGradient id="paint28_linear" x1="337.014" y1="203.374" x2="376.374" y2="210.858" gradientUnits="userSpaceOnUse">
<stop stop-color="#CCEDFF"/>
<stop offset="1" stop-color="#9D68C2"/>
</linearGradient>
<linearGradient id="paint29_linear" x1="358.202" y1="232.625" x2="340.163" y2="232.625" gradientUnits="userSpaceOnUse">
<stop stop-color="#778BC0"/>
<stop offset="1" stop-color="#9D90CC"/>
</linearGradient>
<linearGradient id="paint30_linear" x1="349.182" y1="235.187" x2="349.182" y2="228.02" gradientUnits="userSpaceOnUse">
<stop stop-color="#AFD1DF"/>
<stop offset="1" stop-color="#E8FFF7"/>
</linearGradient>
<linearGradient id="paint31_linear" x1="361.68" y1="215.455" x2="349.747" y2="215.455" gradientUnits="userSpaceOnUse">
<stop stop-color="#778BC0"/>
<stop offset="1" stop-color="#9D90CC"/>
</linearGradient>
<linearGradient id="paint32_linear" x1="352.136" y1="228.55" x2="343.145" y2="228.55" gradientUnits="userSpaceOnUse">
<stop stop-color="#C55E5E"/>
<stop offset="1" stop-color="#D86872"/>
</linearGradient>
<linearGradient id="paint33_linear" x1="346.606" y1="214.974" x2="339.992" y2="214.974" gradientUnits="userSpaceOnUse">
<stop stop-color="#778BC0"/>
<stop offset="1" stop-color="#9D90CC"/>
</linearGradient>
<linearGradient id="paint34_linear" x1="374.208" y1="218.071" x2="363.197" y2="218.071" gradientUnits="userSpaceOnUse">
<stop offset="0.00396825" stop-color="#9A90B2"/>
<stop offset="1" stop-color="#DBFCDB"/>
</linearGradient>
<linearGradient id="paint35_linear" x1="356.802" y1="226.057" x2="356.802" y2="213.737" gradientUnits="userSpaceOnUse">
<stop offset="0.00396825" stop-color="#FFE5C0"/>
<stop offset="1" stop-color="#FFFFF2"/>
</linearGradient>
<linearGradient id="paint36_linear" x1="362.625" y1="225.733" x2="362.625" y2="215.456" gradientUnits="userSpaceOnUse">
<stop offset="0.00396825" stop-color="#FFE5C0"/>
<stop offset="1" stop-color="#FFFFF2"/>
</linearGradient>
<linearGradient id="paint37_linear" x1="341.124" y1="225.283" x2="341.124" y2="213.663" gradientUnits="userSpaceOnUse">
<stop offset="0.00396825" stop-color="#FFE5C0"/>
<stop offset="1" stop-color="#FFFFF2"/>
</linearGradient>
<linearGradient id="paint38_linear" x1="344.242" y1="224.954" x2="344.242" y2="214.677" gradientUnits="userSpaceOnUse">
<stop offset="0.00396825" stop-color="#FFE5C0"/>
<stop offset="1" stop-color="#FFFFF2"/>
</linearGradient>
<linearGradient id="paint39_linear" x1="346.815" y1="221.338" x2="343.484" y2="221.338" gradientUnits="userSpaceOnUse">
<stop stop-color="#C55E5E"/>
<stop offset="1" stop-color="#D86872"/>
</linearGradient>
<linearGradient id="paint40_linear" x1="351.652" y1="216.834" x2="343.872" y2="216.834" gradientUnits="userSpaceOnUse">
<stop offset="0.00396825" stop-color="#9A90B2"/>
<stop offset="1" stop-color="#DBFCDB"/>
</linearGradient>
<linearGradient id="paint41_linear" x1="362.837" y1="222.314" x2="350.155" y2="222.314" gradientUnits="userSpaceOnUse">
<stop stop-color="white" stop-opacity="0"/>
<stop offset="1" stop-color="white" stop-opacity="0.8"/>
</linearGradient>
<linearGradient id="paint42_linear" x1="354.302" y1="241.629" x2="346.79" y2="241.629" gradientUnits="userSpaceOnUse">
<stop stop-color="white" stop-opacity="0"/>
<stop offset="1" stop-color="white" stop-opacity="0.5"/>
</linearGradient>
<linearGradient id="paint43_linear" x1="346.164" y1="227.756" x2="346.164" y2="222.531" gradientUnits="userSpaceOnUse">
<stop stop-color="#FFCAB5"/>
<stop offset="1" stop-color="#FFB0A1"/>
</linearGradient>
<linearGradient id="paint44_linear" x1="419.35" y1="376.559" x2="419.35" y2="310.012" gradientUnits="userSpaceOnUse">
<stop offset="0.0159875" stop-color="#FFC2A9"/>
<stop offset="1" stop-color="#FF9595"/>
</linearGradient>
<linearGradient id="paint45_linear" x1="427.245" y1="310.376" x2="405.663" y2="310.376" gradientUnits="userSpaceOnUse">
<stop stop-color="#63CEAE"/>
<stop offset="1" stop-color="#0098BA"/>
</linearGradient>
<linearGradient id="paint46_linear" x1="427.245" y1="325.546" x2="405.339" y2="325.546" gradientUnits="userSpaceOnUse">
<stop stop-color="#63CEAE"/>
<stop offset="1" stop-color="#0098BA"/>
</linearGradient>
<linearGradient id="paint47_linear" x1="427.205" y1="310.915" x2="427.127" y2="310.915" gradientUnits="userSpaceOnUse">
<stop stop-color="#63CEAE"/>
<stop offset="1" stop-color="#0098BA"/>
</linearGradient>
<linearGradient id="paint48_linear" x1="426.47" y1="282.694" x2="390.282" y2="282.694" gradientUnits="userSpaceOnUse">
<stop stop-color="#63CEAE"/>
<stop offset="1" stop-color="#0098BA"/>
</linearGradient>
<clipPath id="clip0">
<rect width="157.937" height="330" fill="white" transform="matrix(-1 0 0 1 432.937 192.5)"/>
</clipPath>
</defs>
</svg>
