<svg width="580" height="415" viewBox="0 0 580 415" fill="none" xmlns="http://www.w3.org/2000/svg">
<g clip-path="url(#clip0)">
<path d="M571.184 191.471L567.959 242.214L537.427 281.992L495.715 281.132L495.07 191.471H571.184Z" fill="#1D0422"/>
<path d="M495.715 281.132L493.779 278.444L491.307 191.471H495.069L495.715 281.132Z" fill="#290C34"/>
<path d="M448.949 175.344V242.643L470.235 234.258L480.879 206.736L480.556 160.508L448.949 175.344Z" fill="#1D0422"/>
<path d="M448.949 242.642L447.444 241.89L445.939 174.16L448.949 175.343V242.642Z" fill="#290C34"/>
<path d="M297.257 240.279H294.461L293.924 171.797L297.794 172.657L297.257 240.279Z" fill="#1D0422"/>
<path d="M120.73 175.344V242.643L99.444 234.258L88.8008 206.736L89.1233 160.508L120.73 175.344Z" fill="#1D0422"/>
<path d="M120.73 242.642L122.235 241.89L123.74 174.16L120.73 175.343V242.642Z" fill="#290C34"/>
<path d="M0 183.085V187.707H88.8007L103.422 179.644L121.16 175.774L443.896 174.162L455.507 176.742L484.211 192.115L578.495 192.438L580 187.815L498.295 178.569L451.314 167.496H97.8313L51.0658 178.139L0 183.085Z" fill="#361B41"/>
<path d="M480.556 160.508H88.6932L0 183.084H87.0806L102.562 176.956L122.343 173.731L444.111 171.904L457.55 174.376L484.211 187.815H580L480.556 160.508Z" fill="url(#paint0_radial)"/>
<path d="M484.211 192.115V187.814H580L578.495 192.437L484.211 192.115Z" fill="#290C34"/>
<path d="M88.8007 187.707L87.0806 183.084H0V187.707H88.8007Z" fill="#290C34"/>
<path d="M5.91284 187.707L9.13805 243.288L36.6598 276.508H81.4902L82.1353 187.707H5.91284Z" fill="#1D0422"/>
<path d="M81.4902 276.508L83.3178 273.82L85.898 187.707H82.1353L81.4902 276.508Z" fill="#290C34"/>
<path opacity="0.5" d="M491.414 197.598L495.07 199.211L570.539 201.576L571.184 192.438L491.307 192.115L491.414 197.598Z" fill="#290C34"/>
<path opacity="0.5" d="M85.898 187.707L85.7905 191.792L6.45038 196.953L5.91284 187.707H85.898Z" fill="#290C34"/>
<path d="M135.646 163.41C133.496 163.41 114.574 162.765 112.962 158.895C112.747 158.357 112.747 157.497 113.714 156.53C118.982 151.262 172.843 87.4029 173.381 86.7578L174.241 87.4029C171.983 89.983 119.842 151.907 114.574 157.175C113.929 157.82 114.037 158.25 114.037 158.357C115.005 160.83 127.905 162.013 135.753 162.228L135.646 163.41Z" fill="#1D0422"/>
<path d="M249.711 163.624C243.368 163.624 239.067 163.517 238.207 163.302C236.81 162.979 235.197 160.399 234.015 158.249C229.392 149.326 224.447 130.942 229.822 116.751C236.917 98.1526 254.764 87.9395 254.979 87.9395L255.516 88.907C255.301 89.0145 237.777 99.0127 230.897 117.181C225.629 131.05 230.467 149.111 234.982 157.819C236.595 160.937 237.885 162.119 238.422 162.334C241.433 163.087 299.916 162.012 330.448 161.367V162.442C327.761 162.442 273.9 163.624 249.711 163.624Z" fill="#1D0422"/>
<path d="M429.14 165.238L428.387 164.485C428.495 164.378 441.396 151.154 438.601 135.888C435.805 120.407 410.971 87.7254 410.649 87.4029L411.509 86.7578C412.584 88.1554 436.773 119.977 439.676 135.673C442.578 151.477 429.355 165.13 429.14 165.238Z" fill="#1D0422"/>
<path d="M408.498 166.205C408.391 166.205 399.683 161.475 400.758 153.52L401.833 153.627C400.758 160.938 408.821 165.238 408.928 165.238L408.498 166.205Z" fill="#1D0422"/>
<path d="M319.16 164.486C316.473 163.948 302.819 160.83 302.819 156.853C302.819 152.767 320.45 150.94 323.998 150.617L324.106 151.692C315.72 152.445 303.894 154.487 303.894 156.853C303.894 159.325 313.355 162.228 319.375 163.518L319.16 164.486Z" fill="#1D0422"/>
<path d="M149.192 164.486V163.411C149.407 163.411 167.253 162.658 181.659 159.54C195.957 156.53 211.546 145.779 211.653 145.672L212.298 146.532C212.191 146.639 196.495 157.39 181.874 160.508C176.284 161.69 170.263 162.55 164.888 163.088L224.984 162.335V163.411L149.192 164.486Z" fill="#1D0422"/>
<path opacity="0.3" d="M435.16 167.818L489.559 163.088L480.743 151.692L457.307 118.902L396.35 134.706L395.275 160.83L353.563 160.508L360.12 151.799L352.057 129.331L313.462 126.965L297.659 138.791L295.724 151.692L302.389 160.508L255.086 159.97L253.796 155.562L269.17 148.897L258.634 122.45L205.203 116.215L199.828 142.661L195.742 153.627L199.828 159.647L165.963 160.508H154.352L158.222 147.177L105.974 111.484L100.276 113.742L82 162.228L100.276 167.496L128.551 167.818L255.409 165.775H311.312H358.615L435.16 167.818Z" fill="#290C54"/>
<path opacity="0.3" d="M475.69 92.6709L341.092 89.5532L169.833 92.9934L92.3206 97.6162V14.8359L99.3085 7.52539L375.064 14.8359L463.112 7.52539L472.573 14.8359L475.69 92.6709Z" fill="#290C54"/>
<path d="M117.692 163.948L127.798 166.636L163.383 165.453L152.309 162.873L117.692 163.948Z" fill="#1D0422"/>
<path d="M152.525 164.701L131.668 165.454L124.573 163.841L126.185 152.338H151.664L152.525 164.701Z" fill="#1D0422"/>
<path d="M102.534 102.992L109.414 155.563L179.186 152.768L168.22 104.712L102.534 102.992Z" fill="#290C34"/>
<path d="M131.668 165.455L132.636 158.897L151.987 156.209L152.525 164.702L131.668 165.455Z" fill="#290C34"/>
<path d="M163.383 165.453V166.636L128.55 167.818L127.798 166.636L163.383 165.453Z" fill="#290C34"/>
<path d="M117.8 163.949L116.832 165.454L128.55 167.819L127.905 166.637L117.8 163.949Z" fill="#1D0422"/>
<path d="M102.534 102.992L101.889 104.605L108.769 156.423L177.896 153.628L179.186 152.768L110.059 154.811L102.534 102.992Z" fill="#1D0422"/>
<path d="M110.919 151.693L175.961 150.833L167.145 106.325L104.469 104.82L110.919 151.693Z" fill="url(#paint1_radial)"/>
<path d="M445.911 163.948L435.805 166.636L400.328 165.453L411.401 162.873L445.911 163.948Z" fill="#1D0422"/>
<path d="M411.186 164.701L432.043 165.454L439.138 163.841L437.525 152.338H412.046L411.186 164.701Z" fill="#1D0422"/>
<path d="M461.177 102.992L454.297 155.563L384.525 152.768L395.49 104.712L461.177 102.992Z" fill="#290C34"/>
<path d="M432.043 165.455L430.968 158.897L411.724 156.209L411.186 164.702L432.043 165.455Z" fill="#290C34"/>
<path d="M400.328 165.453V166.636L435.16 167.818L435.805 166.636L400.328 165.453Z" fill="#290C34"/>
<path d="M445.911 163.949L446.771 165.454L435.16 167.819L435.805 166.637L445.911 163.949Z" fill="#1D0422"/>
<path d="M461.177 102.992L461.822 104.605L454.942 156.423L385.815 153.628L384.525 152.768L453.652 154.811L461.177 102.992Z" fill="#1D0422"/>
<path d="M452.791 151.693L387.75 150.833L396.565 106.325L459.242 104.82L452.791 151.693Z" fill="url(#paint2_radial)"/>
<path d="M101.244 0V89.0158H215.309V7.31047L101.244 0Z" fill="#290C34"/>
<path d="M464.94 1.39844V87.619H350.875V7.74135L464.94 1.39844Z" fill="#290C34"/>
<path d="M221.221 89.0163L222.189 9.13867H343.994L345.93 87.8338L221.221 89.0163Z" fill="#290C34"/>
<path d="M464.94 87.619H466.552L467.305 2.47351L464.94 1.39844V87.619Z" fill="#1D0422"/>
<path d="M101.244 0L99.3086 1.82762V89.0158H101.244V0Z" fill="#1D0422"/>
<path d="M103.501 84.931L212.944 86.5436V9.1386L103.501 1.82812V84.931Z" fill="url(#paint3_radial)"/>
<path d="M223.479 86.5438L343.564 85.1462L341.952 11.5039H223.479V86.5438Z" fill="url(#paint4_radial)"/>
<path d="M353.563 83.6396H463.112V3.43945L352.488 9.13732L353.563 83.6396Z" fill="url(#paint5_radial)"/>
<path d="M212.943 163.732L211.546 166.098L255.409 165.775L253.796 163.732H212.943Z" fill="#1D0422"/>
<path d="M212.943 163.734L220.254 161.799H244.766L253.796 163.734H212.943Z" fill="#290C34"/>
<path d="M222.942 150.617V163.088H244.013L242.83 151.262L222.942 150.617Z" fill="#1D0422"/>
<path d="M352.057 163.732L353.563 166.098L309.7 165.775L311.312 163.732H352.057Z" fill="#1D0422"/>
<path d="M352.057 163.734L344.747 161.799H320.343L311.312 163.734H352.057Z" fill="#290C34"/>
<path d="M342.167 150.617V163.088H320.988L322.278 151.262L342.167 150.617Z" fill="#1D0422"/>
<path d="M321.848 155.562L341.092 158.25V162.765L320.988 163.088L321.848 155.562Z" fill="#290C34"/>
<path d="M224.554 157.39L243.368 156.207L244.013 163.087H222.942L224.554 157.39Z" fill="#290C34"/>
<path d="M193.055 151.691V104.818H275.405L278.738 151.691H193.055Z" fill="#290C34"/>
<path d="M276.695 149.22H194.237V106.002H274.222L276.695 149.22Z" fill="url(#paint6_radial)"/>
<path d="M278.738 151.691L276.695 152.874H194.237L193.055 151.691H278.738Z" fill="#1D0422"/>
<path d="M289.811 150.616L291.424 104.818H370.656L371.301 151.691L289.811 150.616Z" fill="#290C34"/>
<path d="M292.284 148.467L369.044 149.219V106.646H292.284V148.467Z" fill="url(#paint7_radial)"/>
<path d="M289.811 150.617L290.778 151.8L370.334 152.875L371.301 151.692L289.811 150.617Z" fill="#1D0422"/>
<path opacity="0.5" d="M273.147 14.8359L230.145 83.4254L234.337 83.6404L310.345 15.481L273.147 14.8359Z" fill="url(#paint8_linear)"/>
<path opacity="0.5" d="M315.398 15.4805L333.351 15.588L244.228 80.7372L239.498 80.3072L315.398 15.4805Z" fill="url(#paint9_linear)"/>
<path opacity="0.5" d="M399.683 9.88969L360.12 80.5218H364.313L436.773 8.59961L399.683 9.88969Z" fill="url(#paint10_linear)"/>
<path opacity="0.5" d="M441.826 8.38545L459.779 7.52539L374.096 77.1899L369.366 76.8674L441.826 8.38545Z" fill="url(#paint11_linear)"/>
<path opacity="0.5" d="M153.707 7.20312L108.554 79.1253L112.747 79.3403L189.829 10.2133L153.707 7.20312Z" fill="url(#paint12_linear)"/>
<path opacity="0.5" d="M193.807 11.1816L211.761 11.2891L122.638 76.4384L117.907 76.0083L193.807 11.1816Z" fill="url(#paint13_linear)"/>
<path opacity="0.5" d="M138.334 108.367L113.07 148.682L115.542 148.897L158.222 108.69L138.334 108.367Z" fill="url(#paint14_linear)"/>
<path opacity="0.5" d="M159.942 108.689H167.038L121.347 147.177L118.552 146.854L159.942 108.689Z" fill="url(#paint15_linear)"/>
<path opacity="0.5" d="M234.015 107.615L205.74 148.038L208.536 148.253L256.161 107.938L234.015 107.615Z" fill="url(#paint16_linear)"/>
<path opacity="0.5" d="M258.096 108.045H265.944L214.986 146.532L211.868 146.21L258.096 108.045Z" fill="url(#paint17_linear)"/>
<path opacity="0.5" d="M328.836 107.4L300.562 147.715L303.249 147.931L350.982 107.723L328.836 107.4Z" fill="url(#paint18_linear)"/>
<path opacity="0.5" d="M352.917 107.723H360.765L309.807 146.21L306.689 145.888L352.917 107.723Z" fill="url(#paint19_linear)"/>
<path opacity="0.5" d="M420.754 107.4L389.577 149.328L392.588 149.543L445.158 107.723L420.754 107.4Z" fill="url(#paint20_linear)"/>
<path opacity="0.5" d="M447.309 107.723H456.017L399.791 147.715L396.35 147.393L447.309 107.723Z" fill="url(#paint21_linear)"/>
<path d="M108.554 86.1133H103.501V87.9409H108.554V86.1133Z" fill="#FF1717"/>
<path d="M462.36 84.3926H457.307V86.2202H462.36V84.3926Z" fill="#FF1717"/>
<path d="M113.07 86.1133H109.952V87.9409H113.07V86.1133Z" fill="#FFC217"/>
<path d="M113.999 152.381L112.068 152.506L112.145 153.686L114.076 153.561L113.999 152.381Z" fill="#FFC217"/>
<path d="M449.74 152.277L447.809 152.402L447.885 153.582L449.816 153.457L449.74 152.277Z" fill="#FF1717"/>
<path d="M406.241 166.85L408.714 165.775L425.377 166.313L425.162 167.496L406.241 166.85Z" fill="#584278"/>
<path d="M319.268 165.883L320.235 163.732H328.836L328.191 165.883H319.268Z" fill="#584278"/>
<path d="M329.803 165.883L330.556 163.732H331.631L331.094 165.883H329.803Z" fill="#584278"/>
<path d="M217.351 166.098L218.641 163.732H231.865L232.402 166.098H217.351Z" fill="#584278"/>
<path d="M137.151 167.495L136.614 166.313L146.397 165.99L146.934 167.173L137.151 167.495Z" fill="#584278"/>
<path d="M110.382 103.207L113.07 104.82L139.731 105.357L138.656 103.96L110.382 103.207Z" fill="#584278"/>
<path d="M139.731 103.959L140.914 105.357H143.494L141.881 104.066L139.731 103.959Z" fill="#584278"/>
<path d="M213.696 104.818V105.356L247.238 105.678V104.818H213.696Z" fill="#584278"/>
<path d="M321.31 106.108L343.887 106.001L344.747 104.818H322.278L321.31 106.108Z" fill="#584278"/>
<path d="M435.268 104.82L458.704 104.067L459.779 103.1L436.343 103.637L435.268 104.82Z" fill="#584278"/>
<path d="M352.488 86.5428L353.563 84.2852H383.987L381.837 86.5428H352.488Z" fill="#584278"/>
<path d="M172.843 88.3702L173.703 87.0801H208.643L207.031 88.3702H172.843Z" fill="#584278"/>
<path d="M171.661 88.3702L172.198 87.0801H168.221L167.468 88.3702H171.661Z" fill="#584278"/>
<path d="M333.029 87.2963L333.351 85.6837L342.382 85.5762L342.489 87.2963H333.029Z" fill="#73FFE5"/>
<path d="M282.07 18.2754H230.145V45.1521H282.07V18.2754Z" fill="#1C13BF"/>
<path d="M314.43 52.5703H303.464V76.1143H314.43V52.5703Z" fill="#1C13BF"/>
<path d="M360.766 109.764H297.121V133.308H360.766V109.764Z" fill="#1C13BF"/>
<path opacity="0.5" d="M272.395 109.764H199.075V133.308H272.395V109.764Z" fill="#1C13BF"/>
<path d="M418.712 131.159H393.018L399.253 107.615H424.947L418.712 131.159Z" fill="#1C13BF"/>
<path d="M446.556 146.103H420.862L426.99 122.559H452.792L446.556 146.103Z" fill="#1C13BF"/>
<path opacity="0.5" d="M115.865 144.274H150.805L145.429 123.525H112.102L115.865 144.274Z" fill="#1C13BF"/>
<path d="M360.766 135.996H297.121V142.877H360.766V135.996Z" fill="#1C13BF"/>
<path d="M282.07 51.1738H229.607V59.2369H282.07V51.1738Z" fill="#1C13BF"/>
<path d="M337.652 42.3574H315.398V72.1368H337.652V42.3574Z" fill="#1C13BF"/>
<path opacity="0.5" d="M375.601 11.5039H357.863V78.8033H375.601V11.5039Z" fill="#1C13BF"/>
<path opacity="0.5" d="M453.007 76.9749H391.62V9.67553L453.007 7.52539V76.9749Z" fill="#1C13BF"/>
<path opacity="0.5" d="M113.07 57.6243H158.115V8.17111L113.07 6.66602V57.6243Z" fill="#1C13BF"/>
<path d="M179.294 78.0494H206.171V48.5925L179.294 47.7324V78.0494Z" fill="#0000FF"/>
<path opacity="0.5" d="M113.07 80.7375H158.33V60.0962L113.07 59.4512V80.7375Z" fill="#1C13BF"/>
<path opacity="0.5" d="M179.294 43.3249H206.171V13.868L179.294 12.9004V43.3249Z" fill="#1C13BF"/>
<path d="M321.096 44.0781H317.44V45.0457H321.096V44.0781Z" fill="#61FFE5"/>
<path d="M321.096 58.6992H317.44V59.6668H321.096V58.6992Z" fill="#61FFE5"/>
<path d="M325.181 44.0781H322.063V45.0457H325.181V44.0781Z" fill="#61FFE5"/>
<path d="M319.053 51.9258H317.44V52.8933H319.053V51.9258Z" fill="#61FFE5"/>
<path d="M322.171 51.9258H320.558V52.8933H322.171V51.9258Z" fill="#61FFE5"/>
<path d="M318.3 56.0117H316.688V56.9793H318.3V56.0117Z" fill="#61FFE5"/>
<path d="M329.374 51.9258H324.213V52.8933H329.374V51.9258Z" fill="#61FFE5"/>
<path d="M328.191 45.6914H317.44V46.659H328.191V45.6914Z" fill="#61FFE5"/>
<path d="M328.191 53.6465H317.44V54.614H328.191V53.6465Z" fill="#61FFE5"/>
<path d="M321.096 68.0527H317.44V69.0203H321.096V68.0527Z" fill="#61FFE5"/>
<path d="M319.053 61.2793H317.44V62.2469H319.053V61.2793Z" fill="#61FFE5"/>
<path d="M322.171 61.2793H320.558V62.2469H322.171V61.2793Z" fill="#61FFE5"/>
<path d="M318.3 65.3652H316.688V66.3328H318.3V65.3652Z" fill="#61FFE5"/>
<path d="M324.643 56.0117H319.483V56.9793H324.643V56.0117Z" fill="#61FFE5"/>
<path d="M328.191 63H317.44V63.9676H328.191V63Z" fill="#61FFE5"/>
<path d="M214.126 141.586H210.471V142.554H214.126V141.586Z" fill="#61FFE5"/>
<path d="M208.751 121.482H205.095V122.45H208.751V121.482Z" fill="#61FFE5"/>
<path d="M218.211 141.586H215.094V142.554H218.211V141.586Z" fill="#61FFE5"/>
<path d="M206.708 114.709H205.095V115.677H206.708V114.709Z" fill="#61FFE5"/>
<path d="M209.826 114.709H208.213V115.677H209.826V114.709Z" fill="#61FFE5"/>
<path d="M205.955 118.795H204.343V119.762H205.955V118.795Z" fill="#61FFE5"/>
<path d="M217.029 114.709H211.868V115.677H217.029V114.709Z" fill="#61FFE5"/>
<path d="M221.222 143.092H210.471V144.059H221.222V143.092Z" fill="#61FFE5"/>
<path d="M215.846 116.43H205.095V117.397H215.846V116.43Z" fill="#61FFE5"/>
<path d="M208.751 130.836H205.095V131.804H208.751V130.836Z" fill="#61FFE5"/>
<path d="M206.708 124.062H205.095V125.03H206.708V124.062Z" fill="#61FFE5"/>
<path d="M209.826 124.062H208.213V125.03H209.826V124.062Z" fill="#61FFE5"/>
<path d="M205.955 128.146H204.343V129.114H205.955V128.146Z" fill="#61FFE5"/>
<path d="M212.298 118.795H207.138V119.762H212.298V118.795Z" fill="#61FFE5"/>
<path d="M215.846 125.783H205.095V126.751H215.846V125.783Z" fill="#61FFE5"/>
<path d="M411.814 13.4686L399.13 13.623L399.141 14.5905L411.826 14.436L411.814 13.4686Z" fill="#61FFE5"/>
<path d="M412.029 28.0898L399.344 28.2441L399.356 29.2116L412.041 29.0572L412.029 28.0898Z" fill="#61FFE5"/>
<path d="M425.898 13.373L415.149 13.5039L415.16 14.4714L425.91 14.3405L425.898 13.373Z" fill="#61FFE5"/>
<path d="M404.612 21.4698L399.238 21.5352L399.249 22.5026L404.624 22.4372L404.612 21.4698Z" fill="#61FFE5"/>
<path d="M415.147 21.2548L409.772 21.3203L409.784 22.2878L415.159 22.2223L415.147 21.2548Z" fill="#61FFE5"/>
<path d="M401.925 25.5556L396.55 25.6211L396.562 26.5886L401.937 26.5231L401.925 25.5556Z" fill="#61FFE5"/>
<path d="M440.088 20.965L422.458 21.1797L422.47 22.1472L440.099 21.9324L440.088 20.965Z" fill="#61FFE5"/>
<path d="M436.002 14.8264L399.131 15.2754L399.143 16.2429L436.014 15.7939L436.002 14.8264Z" fill="#61FFE5"/>
<path d="M436.11 22.7834L399.238 23.2324L399.25 24.1999L436.121 23.7509L436.11 22.7834Z" fill="#61FFE5"/>
<path d="M412.137 37.4433L399.452 37.5977L399.464 38.5651L412.148 38.4108L412.137 37.4433Z" fill="#61FFE5"/>
<path d="M404.719 30.7139L399.344 30.7793L399.356 31.7468L404.731 31.6814L404.719 30.7139Z" fill="#61FFE5"/>
<path d="M415.254 30.6064L409.88 30.6719L409.891 31.6393L415.266 31.5738L415.254 30.6064Z" fill="#61FFE5"/>
<path d="M402.031 34.7997L396.656 34.8652L396.668 35.8327L402.043 35.7672L402.031 34.7997Z" fill="#61FFE5"/>
<path d="M424.07 25.2638L406.441 25.4785L406.452 26.446L424.082 26.2313L424.07 25.2638Z" fill="#61FFE5"/>
<path d="M436.217 32.135L399.346 32.584L399.358 33.5514L436.229 33.1025L436.217 32.135Z" fill="#61FFE5"/>
<path d="M411.814 45.8261L399.129 45.9805L399.141 46.9479L411.826 46.7936L411.814 45.8261Z" fill="#61FFE5"/>
<path d="M412.03 60.5545L399.345 60.709L399.357 61.6764L412.042 61.522L412.03 60.5545Z" fill="#61FFE5"/>
<path d="M425.898 45.7304L415.148 45.8613L415.16 46.8288L425.91 46.6979L425.898 45.7304Z" fill="#61FFE5"/>
<path d="M404.612 53.8252L399.237 53.8906L399.249 54.8581L404.624 54.7927L404.612 53.8252Z" fill="#61FFE5"/>
<path d="M415.148 53.7198L409.773 53.7852L409.785 54.7526L415.16 54.6872L415.148 53.7198Z" fill="#61FFE5"/>
<path d="M401.925 57.9111L396.55 57.9766L396.562 58.944L401.936 58.8785L401.925 57.9111Z" fill="#61FFE5"/>
<path d="M427.725 53.5042L422.458 53.5684L422.47 54.5358L427.737 54.4717L427.725 53.5042Z" fill="#61FFE5"/>
<path d="M440.088 69.5238L434.821 69.5879L434.833 70.5553L440.1 70.4912L440.088 69.5238Z" fill="#61FFE5"/>
<path d="M436.002 47.1838L399.131 47.6328L399.143 48.6003L436.014 48.1513L436.002 47.1838Z" fill="#61FFE5"/>
<path d="M436.109 55.1389L399.238 55.5879L399.25 56.5554L436.121 56.1064L436.109 55.1389Z" fill="#61FFE5"/>
<path d="M412.136 69.8006L399.452 69.9551L399.464 70.9225L412.148 70.7681L412.136 69.8006Z" fill="#61FFE5"/>
<path d="M404.72 63.1787L399.345 63.2441L399.357 64.2116L404.732 64.1462L404.72 63.1787Z" fill="#61FFE5"/>
<path d="M415.255 63.0713L409.881 63.1367L409.892 64.1042L415.267 64.0388L415.255 63.0713Z" fill="#61FFE5"/>
<path d="M416.975 63.0977L416.008 63.1094L416.019 64.0768L416.987 64.0651L416.975 63.0977Z" fill="#61FFE5"/>
<path d="M446 62.668L445.033 62.6797L445.044 63.6472L446.012 63.6355L446 62.668Z" fill="#61FFE5"/>
<path d="M419.341 37.4042L418.373 37.416L418.385 38.3835L419.352 38.3717L419.341 37.4042Z" fill="#61FFE5"/>
<path d="M442.346 62.7753L441.379 62.7871L441.391 63.7546L442.358 63.7428L442.346 62.7753Z" fill="#61FFE5"/>
<path d="M415.469 37.4043L414.502 37.416L414.514 38.3835L415.481 38.3718L415.469 37.4043Z" fill="#61FFE5"/>
<path d="M402.032 67.2646L396.657 67.3301L396.669 68.2975L402.044 68.232L402.032 67.2646Z" fill="#61FFE5"/>
<path d="M424.07 57.6212L406.44 57.8359L406.452 58.8034L424.082 58.5887L424.07 57.6212Z" fill="#61FFE5"/>
<path d="M411.278 64.8586L399.346 65.0039L399.357 65.9714L411.289 65.8261L411.278 64.8586Z" fill="#61FFE5"/>
<path d="M131.147 13.733L118.466 13.3594L118.438 14.3266L131.118 14.7001L131.147 13.733Z" fill="#61FFE5"/>
<path d="M130.717 28.3541L118.036 27.9805L118.008 28.9476L130.688 29.3212L130.717 28.3541Z" fill="#61FFE5"/>
<path d="M145.124 14.133L134.377 13.8164L134.349 14.7836L145.095 15.1001L145.124 14.133Z" fill="#61FFE5"/>
<path d="M129.211 9.72682L118.465 9.41016L118.437 10.3773L129.183 10.694L129.211 9.72682Z" fill="#61FFE5"/>
<path d="M123.622 21.3673L118.249 21.209L118.221 22.1762L123.594 22.3345L123.622 21.3673Z" fill="#61FFE5"/>
<path d="M134.158 21.6896L128.785 21.5312L128.756 22.4984L134.13 22.6568L134.158 21.6896Z" fill="#61FFE5"/>
<path d="M120.827 25.3457L115.454 25.1875L115.425 26.1547L120.798 26.3129L120.827 25.3457Z" fill="#61FFE5"/>
<path d="M146.631 22.0086L141.365 21.8535L141.337 22.8207L146.602 22.9758L146.631 22.0086Z" fill="#61FFE5"/>
<path d="M141.683 38.5652L136.417 38.4102L136.389 39.3773L141.655 39.5324L141.683 38.5652Z" fill="#61FFE5"/>
<path d="M123.192 51.6805L117.927 51.5254L117.898 52.4926L123.164 52.6476L123.192 51.6805Z" fill="#61FFE5"/>
<path d="M155.225 16.0234L118.365 14.9375L118.336 15.9047L155.196 16.9906L155.225 16.0234Z" fill="#61FFE5"/>
<path d="M155.007 24.0879L118.147 23.002L118.118 23.9691L154.978 25.0551L155.007 24.0879Z" fill="#61FFE5"/>
<path d="M130.394 37.7056L117.713 37.332L117.685 38.2992L130.366 38.6728L130.394 37.7056Z" fill="#61FFE5"/>
<path d="M123.299 30.7189L117.926 30.5605L117.898 31.5277L123.271 31.6861L123.299 30.7189Z" fill="#61FFE5"/>
<path d="M133.835 31.0411L128.462 30.8828L128.433 31.85L133.807 32.0083L133.835 31.0411Z" fill="#61FFE5"/>
<path d="M135.555 31.1945L134.588 31.166L134.56 32.1332L135.527 32.1617L135.555 31.1945Z" fill="#61FFE5"/>
<path d="M151.575 49.0402L150.608 49.0117L150.58 49.9789L151.547 50.0074L151.575 49.0402Z" fill="#61FFE5"/>
<path d="M119.109 43.9875L118.142 43.959L118.113 44.9262L119.08 44.9546L119.109 43.9875Z" fill="#61FFE5"/>
<path d="M138.996 5.60661L138.029 5.57812L138 6.5453L138.967 6.57378L138.996 5.60661Z" fill="#61FFE5"/>
<path d="M147.812 48.9308L146.845 48.9023L146.817 49.8695L147.784 49.898L147.812 48.9308Z" fill="#61FFE5"/>
<path d="M131.041 51.6183L130.074 51.5898L130.046 52.557L131.013 52.5855L131.041 51.6183Z" fill="#61FFE5"/>
<path d="M135.126 5.49723L134.158 5.46875L134.13 6.43593L135.097 6.46441L135.126 5.49723Z" fill="#61FFE5"/>
<path d="M120.504 34.6974L115.131 34.5391L115.102 35.5062L120.476 35.6646L120.504 34.6974Z" fill="#61FFE5"/>
<path d="M142.865 25.9548L125.241 25.4355L125.212 26.4027L142.837 26.922L142.865 25.9548Z" fill="#61FFE5"/>
<path d="M129.856 32.6443L117.928 32.293L117.899 33.2601L129.828 33.6115L129.856 32.6443Z" fill="#61FFE5"/>
<path d="M363.561 14.6211H359.906V15.5887H363.561V14.6211Z" fill="#A9FFE5"/>
<path d="M363.561 29.2422H359.906V30.2097H363.561V29.2422Z" fill="#A9FFE5"/>
<path d="M367.646 14.6211H364.528V15.5887H367.646V14.6211Z" fill="#A9FFE5"/>
<path d="M361.518 22.4688H359.906V23.4363H361.518V22.4688Z" fill="#A9FFE5"/>
<path d="M364.528 22.4688H362.916V23.4363H364.528V22.4688Z" fill="#A9FFE5"/>
<path d="M360.658 26.4473H359.045V27.4148H360.658V26.4473Z" fill="#A9FFE5"/>
<path d="M371.731 22.4688H366.571V23.4363H371.731V22.4688Z" fill="#A9FFE5"/>
<path d="M370.656 16.2344H359.906V17.2019H370.656V16.2344Z" fill="#A9FFE5"/>
<path d="M370.656 24.1895H359.906V25.157H370.656V24.1895Z" fill="#A9FFE5"/>
<path d="M363.561 38.5957H359.906V39.5633H363.561V38.5957Z" fill="#A9FFE5"/>
<path d="M361.518 31.8223H359.906V32.7898H361.518V31.8223Z" fill="#A9FFE5"/>
<path d="M364.528 31.8223H362.916V32.7898H364.528V31.8223Z" fill="#A9FFE5"/>
<path d="M360.658 35.8008H359.045V36.7683H360.658V35.8008Z" fill="#A9FFE5"/>
<path d="M367.108 26.4473H361.948V27.4148H367.108V26.4473Z" fill="#A9FFE5"/>
<path d="M370.656 33.543H359.906V34.5105H370.656V33.543Z" fill="#A9FFE5"/>
<path d="M363.561 49.5605H359.906V50.5281H363.561V49.5605Z" fill="#A9FFE5"/>
<path d="M361.518 42.7871H359.906V43.7547H361.518V42.7871Z" fill="#A9FFE5"/>
<path d="M364.528 42.7871H362.916V43.7547H364.528V42.7871Z" fill="#A9FFE5"/>
<path d="M360.658 46.7656H359.045V47.7332H360.658V46.7656Z" fill="#A9FFE5"/>
<path d="M371.731 42.7871H366.571V43.7547H371.731V42.7871Z" fill="#A9FFE5"/>
<path d="M370.656 44.5078H359.906V45.4754H370.656V44.5078Z" fill="#A9FFE5"/>
<path d="M363.561 58.9141H359.906V59.8816H363.561V58.9141Z" fill="#A9FFE5"/>
<path d="M361.518 52.1406H359.906V53.1082H361.518V52.1406Z" fill="#A9FFE5"/>
<path d="M364.528 52.1406H362.916V53.1082H364.528V52.1406Z" fill="#A9FFE5"/>
<path d="M360.658 56.1191H359.045V57.0867H360.658V56.1191Z" fill="#A9FFE5"/>
<path d="M367.108 46.7656H361.948V47.7332H367.108V46.7656Z" fill="#A9FFE5"/>
<path d="M370.656 53.8613H359.906V54.8289H370.656V53.8613Z" fill="#A9FFE5"/>
<path d="M244.013 19.3516H234.767V20.3191H244.013V19.3516Z" fill="#61FFE5"/>
<path d="M244.013 33.9727H234.767V34.9402H244.013V33.9727Z" fill="#61FFE5"/>
<path d="M254.119 19.3516H246.271V20.3191H254.119V19.3516Z" fill="#61FFE5"/>
<path d="M238.638 27.0918H234.767V28.0594H238.638V27.0918Z" fill="#61FFE5"/>
<path d="M246.271 27.0918H242.4V28.0594H246.271V27.0918Z" fill="#61FFE5"/>
<path d="M236.703 31.1777H232.832V32.1453H236.703V31.1777Z" fill="#61FFE5"/>
<path d="M264.332 27.0918H251.538V28.0594H264.332V27.0918Z" fill="#61FFE5"/>
<path d="M261.537 20.8574H234.767V21.825H261.537V20.8574Z" fill="#61FFE5"/>
<path d="M261.537 28.9199H234.767V29.8875H261.537V28.9199Z" fill="#61FFE5"/>
<path d="M191.765 18.3828H186.282V19.3504H191.765V18.3828Z" fill="#61FFE5"/>
<path d="M191.765 33.1113H186.282V34.0789H191.765V33.1113Z" fill="#61FFE5"/>
<path d="M197.785 18.3828H193.162V19.3504H197.785V18.3828Z" fill="#61FFE5"/>
<path d="M188.647 26.2305H186.282V27.198H188.647V26.2305Z" fill="#61FFE5"/>
<path d="M193.162 26.2305H190.797V27.198H193.162V26.2305Z" fill="#61FFE5"/>
<path d="M187.464 30.3164H185.099V31.284H187.464V30.3164Z" fill="#61FFE5"/>
<path d="M203.913 26.2305H196.28V27.198H203.913V26.2305Z" fill="#61FFE5"/>
<path d="M202.193 19.9961H186.282V20.9637H202.193V19.9961Z" fill="#61FFE5"/>
<path d="M202.193 27.9512H186.282V28.9187H202.193V27.9512Z" fill="#61FFE5"/>
<path d="M190.797 53.3242H185.314V54.2918H190.797V53.3242Z" fill="#61FFE5"/>
<path d="M190.797 67.9453H185.314V68.9129H190.797V67.9453Z" fill="#61FFE5"/>
<path d="M196.817 53.3242H192.195V54.2918H196.817V53.3242Z" fill="#61FFE5"/>
<path d="M187.679 61.1719H185.314V62.1394H187.679V61.1719Z" fill="#61FFE5"/>
<path d="M192.195 61.1719H189.829V62.1394H192.195V61.1719Z" fill="#61FFE5"/>
<path d="M186.497 65.1504H184.132V66.118H186.497V65.1504Z" fill="#61FFE5"/>
<path d="M202.945 61.1719H195.312V62.1394H202.945V61.1719Z" fill="#61FFE5"/>
<path d="M201.225 54.9375H185.314V55.9051H201.225V54.9375Z" fill="#61FFE5"/>
<path d="M201.225 62.8926H185.314V63.8601H201.225V62.8926Z" fill="#61FFE5"/>
<path d="M129.518 62.2461H118.122V63.2137H129.518V62.2461Z" fill="#61FFE5"/>
<path d="M129.518 76.8672H118.122V77.8348H129.518V76.8672Z" fill="#61FFE5"/>
<path d="M142.096 62.2461H132.421V63.2137H142.096V62.2461Z" fill="#61FFE5"/>
<path d="M122.96 70.0938H118.122V71.0613H122.96V70.0938Z" fill="#61FFE5"/>
<path d="M132.421 70.0938H127.583V71.0613H132.421V70.0938Z" fill="#61FFE5"/>
<path d="M120.487 74.1797H115.65V75.1472H120.487V74.1797Z" fill="#61FFE5"/>
<path d="M154.675 70.0938H138.871V71.0613H154.675V70.0938Z" fill="#61FFE5"/>
<path d="M151.127 63.8594H118.122V64.8269H151.127V63.8594Z" fill="#61FFE5"/>
<path d="M151.127 71.8145H118.122V72.782H151.127V71.8145Z" fill="#61FFE5"/>
<path d="M241.755 41.7129H232.51V42.6805H241.755V41.7129Z" fill="#61FFE5"/>
<path d="M250.893 56.7637H241.648V57.7312H250.893V56.7637Z" fill="#61FFE5"/>
<path d="M251.861 41.7129H244.013V42.6805H251.861V41.7129Z" fill="#61FFE5"/>
<path d="M238.1 51.2812H234.23V52.2488H238.1V51.2812Z" fill="#61FFE5"/>
<path d="M245.841 51.2812H241.97V52.2488H245.841V51.2812Z" fill="#61FFE5"/>
<path d="M236.165 55.3672H232.295V56.3348H236.165V55.3672Z" fill="#61FFE5"/>
<path d="M270.245 56.7637H257.451V57.7312H270.245V56.7637Z" fill="#61FFE5"/>
<path d="M259.279 43.3262H232.51V44.2937H259.279V43.3262Z" fill="#61FFE5"/>
<path d="M260.999 53.002H234.23V53.9695H260.999V53.002Z" fill="#61FFE5"/>
<path d="M242.293 63.752H233.047V64.7195H242.293V63.752Z" fill="#61FFE5"/>
<path d="M251.431 78.8027H242.185V79.7703H251.431V78.8027Z" fill="#61FFE5"/>
<path d="M252.399 63.752H244.551V64.7195H252.399V63.752Z" fill="#61FFE5"/>
<path d="M238.638 73.3203H234.767V74.2879H238.638V73.3203Z" fill="#61FFE5"/>
<path d="M246.378 73.3203H242.508V74.2879H246.378V73.3203Z" fill="#61FFE5"/>
<path d="M236.703 77.4062H232.832V78.3738H236.703V77.4062Z" fill="#61FFE5"/>
<path d="M270.782 78.8027H257.989V79.7703H270.782V78.8027Z" fill="#61FFE5"/>
<path d="M259.816 65.3652H233.047V66.3328H259.816V65.3652Z" fill="#61FFE5"/>
<path d="M261.537 75.041H234.767V76.0086H261.537V75.041Z" fill="#61FFE5"/>
<path d="M240.895 113.527H231.65V114.495H240.895V113.527Z" fill="#61FFE5"/>
<path d="M250.141 128.578H240.895V129.546H250.141V128.578Z" fill="#61FFE5"/>
<path d="M251.108 113.527H243.26V114.495H251.108V113.527Z" fill="#61FFE5"/>
<path d="M237.348 123.096H233.477V124.063H237.348V123.096Z" fill="#61FFE5"/>
<path d="M244.981 123.096H241.11V124.063H244.981V123.096Z" fill="#61FFE5"/>
<path d="M235.412 127.182H231.542V128.149H235.412V127.182Z" fill="#61FFE5"/>
<path d="M269.492 128.578H256.699V129.546H269.492V128.578Z" fill="#61FFE5"/>
<path d="M258.419 115.141H231.65V116.108H258.419V115.141Z" fill="#61FFE5"/>
<path d="M260.247 124.816H233.477V125.784H260.247V124.816Z" fill="#61FFE5"/>
<path d="M309.915 114.709H300.669V115.677H309.915V114.709Z" fill="#61FFE5"/>
<path d="M319.16 129.76H309.915V130.727H319.16V129.76Z" fill="#61FFE5"/>
<path d="M320.128 114.709H312.28V115.677H320.128V114.709Z" fill="#61FFE5"/>
<path d="M306.367 124.277H302.497V125.245H306.367V124.277Z" fill="#61FFE5"/>
<path d="M314 124.277H310.13V125.245H314V124.277Z" fill="#61FFE5"/>
<path d="M304.432 128.363H300.562V129.331H304.432V128.363Z" fill="#61FFE5"/>
<path d="M338.512 129.76H325.718V130.727H338.512V129.76Z" fill="#61FFE5"/>
<path d="M327.438 116.322H300.669V117.29H327.438V116.322Z" fill="#61FFE5"/>
<path d="M329.266 126.105H302.497V127.073H329.266V126.105Z" fill="#61FFE5"/>
<path d="M334.534 111.484H327.008V112.452H334.534V111.484Z" fill="#61FFE5"/>
<path d="M342.059 126.428H334.534V127.395H342.059V126.428Z" fill="#61FFE5"/>
<path d="M342.812 111.484H336.469V112.452H342.812V111.484Z" fill="#61FFE5"/>
<path d="M331.739 121.053H328.513V122.02H331.739V121.053Z" fill="#61FFE5"/>
<path d="M337.974 121.053H334.749V122.02H337.974V121.053Z" fill="#61FFE5"/>
<path d="M330.126 125.029H326.901V125.997H330.126V125.029Z" fill="#61FFE5"/>
<path d="M357.863 126.428H347.435V127.395H357.863V126.428Z" fill="#61FFE5"/>
<path d="M348.832 113.098H327.008V114.065H348.832V113.098Z" fill="#61FFE5"/>
<path d="M350.337 122.773H328.513V123.741H350.337V122.773Z" fill="#61FFE5"/>
<path d="M406.779 112.882H398.823L399.038 111.914H406.994L406.779 112.882Z" fill="#61FFE5"/>
<path d="M410.219 127.395H402.693L402.908 126.535H410.434L410.219 127.395Z" fill="#61FFE5"/>
<path d="M415.487 112.882H408.821L409.036 111.914H415.809L415.487 112.882Z" fill="#61FFE5"/>
<path d="M401.188 122.128H397.963L398.178 121.16H401.511L401.188 122.128Z" fill="#61FFE5"/>
<path d="M407.639 122.128H404.306L404.628 121.16H407.854L407.639 122.128Z" fill="#61FFE5"/>
<path d="M398.608 125.997H395.383L395.598 125.137H398.823L398.608 125.997Z" fill="#61FFE5"/>
<path d="M412.476 118.686H402.048L402.371 117.719H412.799L412.476 118.686Z" fill="#61FFE5"/>
<path d="M421.292 114.387H398.393L398.608 113.42H421.615L421.292 114.387Z" fill="#61FFE5"/>
<path d="M419.679 123.846H397.533L397.748 122.879H420.002L419.679 123.846Z" fill="#61FFE5"/>
<path d="M440.106 126.751H432.15L432.365 125.783H440.428L440.106 126.751Z" fill="#61FFE5"/>
<path d="M443.546 141.372H436.02L436.343 140.404H443.868L443.546 141.372Z" fill="#61FFE5"/>
<path d="M448.921 126.751H442.148L442.471 125.783H449.244L448.921 126.751Z" fill="#61FFE5"/>
<path d="M434.623 135.997H431.398L431.613 135.137H434.838L434.623 135.997Z" fill="#61FFE5"/>
<path d="M440.966 135.997H437.74L437.956 135.137H441.288L440.966 135.997Z" fill="#61FFE5"/>
<path d="M431.935 139.973H428.71L428.925 139.006H432.15L431.935 139.973Z" fill="#61FFE5"/>
<path d="M438.278 131.159H427.85L428.065 130.299H438.601L438.278 131.159Z" fill="#61FFE5"/>
<path d="M454.727 128.257H431.828L432.043 127.396H455.049L454.727 128.257Z" fill="#61FFE5"/>
<path d="M446.556 133.846H424.517L424.732 132.986H446.879L446.556 133.846Z" fill="#61FFE5"/>
<path d="M128.55 125.03H136.506L136.291 124.062H128.228L128.55 125.03Z" fill="#61FFE5"/>
<path d="M125.11 139.544H132.636L132.313 138.684H124.788L125.11 139.544Z" fill="#61FFE5"/>
<path d="M119.735 125.03H126.508L126.185 124.062H119.412L119.735 125.03Z" fill="#61FFE5"/>
<path d="M134.033 134.276H137.259L137.044 133.309H133.818L134.033 134.276Z" fill="#61FFE5"/>
<path d="M127.69 134.276H130.916L130.701 133.309H127.368L127.69 134.276Z" fill="#61FFE5"/>
<path d="M136.721 138.253H139.946L139.731 137.285H136.506L136.721 138.253Z" fill="#61FFE5"/>
<path d="M130.378 129.438H140.806L140.591 128.471H130.055L130.378 129.438Z" fill="#61FFE5"/>
<path d="M113.929 126.536H136.828L136.613 125.676H113.607L113.929 126.536Z" fill="#61FFE5"/>
<path d="M122.1 132.126H144.139L143.924 131.158H121.777L122.1 132.126Z" fill="#61FFE5"/>
<path d="M310.452 137.393H302.927V138.36H310.452V137.393Z" fill="#61FFE5"/>
<path d="M318.73 137.393H312.387V138.36H318.73V137.393Z" fill="#61FFE5"/>
<path d="M335.609 136.533H332.384V137.501H335.609V136.533Z" fill="#61FFE5"/>
<path d="M341.844 136.533H338.619V137.501H341.844V136.533Z" fill="#61FFE5"/>
<path d="M333.996 140.512H330.771V141.479H333.996V140.512Z" fill="#61FFE5"/>
<path d="M324.751 139.006H302.927V139.973H324.751V139.006Z" fill="#61FFE5"/>
<path d="M354.208 138.254H332.384V139.221H354.208V138.254Z" fill="#61FFE5"/>
<path d="M294.111 20.8555H290.026V21.823H294.111V20.8555Z" fill="#61FFE5"/>
<path d="M298.196 35.9062H294.111V36.8738H298.196V35.9062Z" fill="#61FFE5"/>
<path d="M298.519 20.8555H295.079V21.823H298.519V20.8555Z" fill="#61FFE5"/>
<path d="M292.499 30.4238H290.779V31.3914H292.499V30.4238Z" fill="#61FFE5"/>
<path d="M295.939 30.4238H294.219V31.3914H295.939V30.4238Z" fill="#61FFE5"/>
<path d="M291.639 34.5098H289.918V35.4773H291.639V34.5098Z" fill="#61FFE5"/>
<path d="M306.69 35.9062H300.992V36.8738H306.69V35.9062Z" fill="#61FFE5"/>
<path d="M301.852 22.4688H290.026V23.4363H301.852V22.4688Z" fill="#61FFE5"/>
<path d="M302.604 32.252H290.779V33.2195H302.604V32.252Z" fill="#61FFE5"/>
<path opacity="0.3" d="M276.83 171.795C287.28 171.795 295.752 171.121 295.752 170.29C295.752 169.459 287.28 168.785 276.83 168.785C266.381 168.785 257.909 169.459 257.909 170.29C257.909 171.121 266.381 171.795 276.83 171.795Z" fill="#290C46"/>
<path d="M283.388 170.722C277.798 172.119 270.38 170.722 270.38 170.722L262.747 169.431L262.855 169.324C263.93 168.356 269.95 162.766 275.97 163.411C279.411 163.734 281.238 165.776 282.313 167.604C283.173 169.216 283.388 170.722 283.388 170.722Z" fill="#290C34"/>
<path d="M264.145 168.142C264.145 168.142 268.445 166.53 271.348 167.282C274.25 168.035 275.325 171.26 275.325 171.26L272.745 171.045C272.745 171.045 269.412 166.96 263.93 168.357L264.145 168.142Z" fill="#584278"/>
<path opacity="0.5" d="M282.206 167.496C277.69 168.141 273.068 164.916 269.52 165.561C266.402 166.099 263.5 168.571 262.854 169.217C263.93 168.249 269.95 162.659 275.97 163.304C279.303 163.734 281.238 165.669 282.206 167.496Z" fill="url(#paint22_linear)"/>
<path d="M278.013 171.367L278.551 170.291L282.206 169.754L283.388 170.721C283.388 170.721 281.991 171.474 278.013 171.367Z" fill="url(#paint23_linear)"/>
<path d="M183.299 168.57L182.009 170.935L249.524 170.72L245.438 168.785L183.299 168.57Z" fill="#1D0422"/>
<path d="M254.254 166.312L245.438 168.785L249.524 170.72L255.867 167.603L254.254 166.312Z" fill="#1D0422"/>
<path d="M254.254 166.312H195.233L183.299 168.57L245.438 168.785L254.254 166.312Z" fill="#290C34"/>
<path d="M79.5552 167.279L96.0037 165.129L117.075 167.279L106.969 169.322L79.5552 167.279Z" fill="#270B32"/>
<path d="M98.5839 166.634C97.6164 165.344 96.0038 164.161 93.9611 163.194C93.4236 162.979 92.8861 162.764 92.3485 162.549C89.9834 161.796 87.8332 161.796 86.5431 162.549C86.1131 162.764 85.6831 163.194 85.4681 163.624C84.608 165.559 86.9732 168.569 90.8434 170.289C94.7137 172.009 98.4764 171.794 99.3365 169.859V169.752C99.7665 168.784 99.444 167.709 98.5839 166.634ZM93.2086 164.484C95.1437 165.344 96.4338 166.742 96.3263 167.817C95.5737 167.817 94.6062 167.602 93.7461 167.172C91.811 166.312 90.5209 164.914 90.6284 163.839C91.381 163.839 92.241 164.054 93.2086 164.484Z" fill="#490637"/>
<path d="M95.0361 162.012C91.1659 160.292 87.4031 160.507 86.5431 162.442V162.55C86.3281 163.087 86.4356 163.625 86.5431 164.162C86.9731 165.56 88.4782 167.065 90.5208 168.355C90.5208 168.355 90.6283 168.462 90.7359 168.462C91.0584 168.677 91.4884 168.892 91.9184 169C92.7785 169.43 93.6385 169.645 94.4986 169.86C96.5412 170.29 98.2613 170.29 99.4439 169.645C99.8739 169.43 100.304 169 100.411 168.57C101.272 166.635 98.9064 163.732 95.0361 162.012ZM93.6385 167.172C91.7034 166.312 90.4133 164.915 90.5208 163.84C91.2734 163.84 92.241 164.055 93.101 164.485C95.0361 165.345 96.3262 166.742 96.2187 167.817C95.5737 167.817 94.6061 167.602 93.6385 167.172Z" fill="#53154A"/>
<path d="M97.2938 163.41C95.5737 162.55 93.2086 161.26 90.3059 161.475C87.4032 161.69 86.9732 163.518 86.8657 163.733C86.7582 163.84 86.6506 164.055 86.5431 164.055C86.4356 164.163 86.3281 164.163 86.3281 164.163C86.3281 164.163 86.7582 166.098 87.5107 166.743C88.1557 167.495 90.1984 167.925 90.5209 168.14C90.5209 168.14 90.6284 168.248 90.7359 168.248C91.3809 168.678 93.2086 169.861 93.8536 169.861C93.9611 169.861 94.2836 169.861 94.4986 169.753C95.6812 169.43 97.6163 168.678 98.2614 168.678C99.1214 168.678 99.9815 168.355 100.089 167.28C100.197 166.313 99.1214 164.27 97.2938 163.41ZM93.6386 167.173C91.7035 166.313 90.4134 164.915 90.5209 163.84C91.2734 163.84 92.241 164.055 93.1011 164.485C95.0362 165.345 96.3263 166.743 96.2188 167.818C95.5737 167.818 94.6062 167.603 93.6386 167.173Z" fill="#630090"/>
<path d="M97.4013 163.303C95.6811 162.443 93.316 161.153 90.4133 161.368C87.5106 161.583 87.0806 163.41 86.9731 163.625C86.8656 163.733 86.7581 163.948 86.6506 163.948C86.5431 164.055 86.4355 164.055 86.4355 164.055C86.4355 164.055 86.8656 165.99 87.6181 166.635C88.2632 167.388 90.3058 167.818 90.6283 168.033C90.6283 168.033 90.7358 168.14 90.8433 168.14C91.4884 168.57 93.316 169.753 93.961 169.753C94.0685 169.753 94.3911 169.753 94.6061 169.646C95.7887 169.323 97.7238 168.571 98.3688 168.571C99.2289 168.571 100.089 168.248 100.196 167.173C100.304 166.205 99.2289 164.055 97.4013 163.303ZM93.746 166.958C91.8109 166.098 90.5208 164.7 90.6283 163.625C91.3809 163.625 92.3484 163.84 93.2085 164.27C95.1436 165.13 96.4337 166.528 96.3262 167.603C95.6811 167.603 94.7136 167.388 93.746 166.958Z" fill="#6D1FA4"/>
<path d="M98.5839 166.636C98.5839 166.743 98.5839 166.851 98.4764 166.958C98.1539 167.603 97.4014 167.926 96.3263 167.818C96.4338 166.743 95.1437 165.345 93.2086 164.485C92.241 164.055 91.381 163.84 90.6284 163.84C90.6284 163.733 90.6284 163.625 90.7359 163.41C90.9509 162.873 91.596 162.55 92.456 162.55C93.3161 162.443 94.4987 162.658 95.5737 163.195C97.4014 164.055 98.6914 165.561 98.5839 166.636Z" fill="#490637"/>
<path d="M88.9168 165.505C89.1225 165.386 89.0486 164.873 88.7518 164.359C88.455 163.844 88.0476 163.524 87.8419 163.642C87.6362 163.761 87.7101 164.274 88.0069 164.789C88.3037 165.303 88.7111 165.623 88.9168 165.505Z" fill="#5B95D6"/>
<path d="M99.5763 166.515C99.6912 166.485 99.7235 166.228 99.6485 165.941C99.5736 165.654 99.4196 165.445 99.3047 165.475C99.1898 165.505 99.1575 165.762 99.2325 166.049C99.3074 166.337 99.4614 166.545 99.5763 166.515Z" fill="#5B95D6"/>
<path d="M89.3805 166.307C89.4833 166.247 89.4945 166.074 89.4055 165.92C89.3164 165.766 89.1609 165.689 89.058 165.748C88.9552 165.807 88.944 165.981 89.033 166.135C89.1221 166.289 89.2776 166.366 89.3805 166.307Z" fill="#5B95D6"/>
<path d="M107.937 165.99C106.539 165.237 104.497 164.915 102.239 165.022C101.594 165.022 101.056 165.13 100.519 165.237C98.0463 165.667 96.1111 166.635 95.2511 167.817C94.9286 168.247 94.821 168.677 94.821 169.215C94.9286 171.365 98.3688 172.87 102.669 172.655C106.862 172.44 110.195 170.612 110.087 168.462V168.355C109.98 167.387 109.227 166.635 107.937 165.99ZM102.132 166.527C104.282 166.42 106.002 167.172 106.432 168.14C105.679 168.462 104.819 168.677 103.744 168.677C101.594 168.785 99.8739 168.032 99.4438 167.065C100.196 166.85 101.164 166.635 102.132 166.527Z" fill="#490637"/>
<path d="M102.669 163.517C98.4763 163.732 95.1436 165.56 95.2511 167.71V167.818C95.3586 168.355 95.5736 168.785 96.0036 169.215C97.0787 170.29 99.0138 170.935 101.486 171.15C101.486 171.15 101.594 171.15 101.701 171.15C102.132 171.15 102.562 171.15 102.992 171.15C103.959 171.15 104.927 170.935 105.679 170.72C107.722 170.29 109.227 169.323 109.98 168.355C110.302 167.925 110.41 167.495 110.41 166.958C110.41 164.915 106.969 163.302 102.669 163.517ZM103.852 168.785C101.701 168.893 99.9814 168.14 99.5513 167.173C100.304 166.85 101.164 166.635 102.239 166.527C104.389 166.42 106.109 167.173 106.539 168.14C105.787 168.463 104.819 168.678 103.852 168.785Z" fill="#53154A"/>
<path d="M105.357 163.732C103.421 163.732 100.734 163.625 98.1536 165.13C95.5735 166.635 96.0035 168.462 96.111 168.785C96.111 169 96.111 169.107 96.0035 169.215C96.0035 169.322 95.896 169.43 95.896 169.43C95.896 169.43 97.1861 170.935 98.0461 171.258C99.0137 171.58 100.949 171.15 101.379 171.15C101.379 171.15 101.486 171.15 101.594 171.15C102.346 171.258 104.497 171.473 105.034 171.15C105.142 171.043 105.357 170.935 105.572 170.72C106.432 169.968 107.829 168.355 108.474 168.032C109.227 167.602 109.872 167.065 109.442 165.99C109.334 165.022 107.292 163.732 105.357 163.732ZM103.852 168.785C101.701 168.892 99.9813 168.14 99.5512 167.172C100.304 166.85 101.164 166.635 102.239 166.527C104.389 166.42 106.109 167.172 106.539 168.14C105.787 168.462 104.819 168.677 103.852 168.785Z" fill="#430090"/>
<path d="M105.464 163.625C103.529 163.625 100.841 163.518 98.2613 165.023C95.6811 166.528 96.1112 168.356 96.2187 168.678C96.2187 168.893 96.2187 169.001 96.1112 169.108C96.1112 169.216 96.0037 169.323 96.0037 169.323C96.0037 169.323 97.2937 170.828 98.1538 171.151C99.1214 171.473 101.056 171.043 101.487 171.043C101.487 171.043 101.594 171.043 101.702 171.043C102.454 171.151 104.604 171.366 105.142 171.043C105.249 170.936 105.464 170.828 105.679 170.613C106.539 169.861 107.937 168.248 108.582 167.926C109.335 167.496 109.98 166.958 109.55 165.883C109.335 164.808 107.399 163.518 105.464 163.625ZM103.852 168.571C101.702 168.678 99.9814 167.926 99.5514 166.958C100.304 166.636 101.164 166.421 102.239 166.421C104.389 166.313 106.109 167.066 106.539 168.033C105.787 168.248 104.819 168.463 103.852 168.571Z" fill="#431FA4"/>
<path d="M107.937 165.989C107.937 166.097 108.044 166.204 108.044 166.312C108.044 166.957 107.507 167.602 106.432 168.139C106.002 167.172 104.282 166.419 102.132 166.527C101.164 166.527 100.196 166.742 99.4439 167.172C99.3364 167.064 99.3364 166.957 99.3364 166.849C99.3364 166.312 99.7665 165.667 100.411 165.344C101.164 164.914 102.239 164.592 103.529 164.484C105.787 164.269 107.614 165.022 107.937 165.989Z" fill="#490637"/>
<path d="M98.7145 169.417C98.845 169.219 98.5485 168.794 98.0524 168.468C97.5563 168.141 97.0483 168.038 96.9179 168.236C96.7874 168.435 97.0838 168.86 97.58 169.186C98.0761 169.512 98.5841 169.616 98.7145 169.417Z" fill="#5B95D6"/>
<path d="M108.831 165.511C108.92 165.433 108.834 165.189 108.638 164.966C108.442 164.743 108.21 164.625 108.121 164.704C108.032 164.782 108.119 165.026 108.315 165.249C108.511 165.472 108.742 165.59 108.831 165.511Z" fill="#5B95D6"/>
<path d="M99.5773 169.868C99.6425 169.769 99.5747 169.609 99.4259 169.511C99.277 169.413 99.1035 169.414 99.0383 169.514C98.973 169.613 99.0408 169.773 99.1897 169.871C99.3385 169.968 99.5121 169.967 99.5773 169.868Z" fill="#5B95D6"/>
<path d="M81.0603 172.977L79.5552 167.279L106.969 169.322L105.572 173.407L81.0603 172.977Z" fill="#88527E"/>
<path d="M79.5551 167.279L74.0723 168.569L102.562 170.289L106.969 169.322L79.5551 167.279Z" fill="#8B81DD"/>
<path d="M117.075 167.279L106.969 169.322L105.572 173.407L116.107 170.289L117.075 167.279Z" fill="#A76583"/>
<path d="M123.526 169.322L117.075 167.279L106.969 169.322L112.237 171.902L123.526 169.322Z" fill="#8B81DD"/>
<path opacity="0.3" d="M106.969 169.323L102.132 171.903H80.7377L79.9851 169L102.562 170.29L106.969 169.323Z" fill="#5E0C54"/>
<path d="M300.697 189.643H319.188L322.091 238.773H297.579L300.697 189.643Z" fill="#1D0422"/>
<path d="M316.5 188.137L320.156 238.773H322.091L319.296 188.137H316.5Z" fill="#290C34"/>
<path d="M299.192 188.137L297.579 238.773H299.084L301.879 188.137H299.192Z" fill="#290C34"/>
<path d="M299.192 188.137L300.912 185.879H314.243L319.296 188.137H316.5L313.598 186.309L302.524 186.201L301.879 188.137H299.192Z" fill="#11001E"/>
<path d="M316.608 189.641L312.953 187.061H302.739L301.879 189.641H316.608Z" fill="#11001E"/>
<path d="M316.608 189.641L312.953 187.061H302.739L301.879 189.641V188.136L302.524 186.201L313.598 186.309L316.5 188.136L316.608 189.641Z" fill="#1D0422"/>
<path d="M301.879 188.137L299.084 238.773H300.697L302.417 189.642L301.879 188.137Z" fill="url(#paint24_linear)"/>
<path d="M301.234 199.209L317.361 199.532V199.854L301.234 199.532V199.209Z" fill="url(#paint25_linear)"/>
<path d="M300.697 209.852L317.038 219.42L318.221 238.772H319.296L317.36 219.205L300.697 208.885V209.852Z" fill="url(#paint26_linear)"/>
<path d="M301.664 210.498L317.038 219.421L318.221 238.772H317.468L316.715 219.421L301.664 210.498Z" fill="#00E7D8"/>
<path d="M301.879 199.533L317.36 199.856V200.178L301.879 199.856V199.533Z" fill="#361B41"/>
<path d="M304.567 192.221L304.997 193.189H313.49L314.028 192.221H311.34L310.588 191.469H307.685L307.147 192.221H304.567Z" fill="#73FFE5"/>
<path d="M304.997 193.189L304.675 193.404H313.705L313.49 193.189H304.997Z" fill="url(#paint27_linear)"/>
<path d="M300.912 206.09L318.543 216.303L318.22 211.25L301.127 201.359L300.912 206.09Z" fill="#290C34"/>
<path d="M300.912 206.09L301.664 207.38L318.543 217.593V216.303L300.912 206.09Z" fill="url(#paint28_linear)"/>
<path d="M301.879 188.137L300.697 201.683L318.221 211.896V211.251L301.127 201.36L301.879 188.137Z" fill="#361B41"/>
<path d="M313.598 186.309L316.5 188.136L318.221 211.895L317.038 188.136L313.598 186.309Z" fill="#1D0422"/>
<path d="M304.46 236.838L305.32 237.805H314.135L314.673 236.838H304.46Z" fill="#73FFE5"/>
<path d="M297.579 238.772V238.127L322.091 238.449V238.772H297.579Z" fill="url(#paint29_linear)"/>
<path d="M280.593 175.021C275.54 174.914 271.455 172.656 271.455 170.076C271.563 167.496 275.648 165.453 280.808 165.561C285.861 165.668 289.946 167.926 289.946 170.506C289.839 173.194 285.646 175.129 280.593 175.021Z" fill="url(#paint30_radial)"/>
</g>
<g clip-path="url(#clip1)">
<path d="M148.305 367.119L148.41 367.434C148.515 368.064 148.83 369.534 149.25 371.319C149.565 372.579 149.775 373.944 150.09 375.414C151.035 379.929 152.085 384.864 152.085 385.704C152.085 386.649 151.245 387.594 150.405 388.749C149.775 389.694 149.25 390.744 149.145 392.004C149.04 394.839 153.45 405.549 154.395 413.844C154.395 413.844 163.32 416.469 174.66 413.844C174.66 413.844 174.66 411.534 166.575 406.074C166.575 406.074 158.385 390.954 157.02 384.969C156.39 382.344 156.6 378.459 156.915 375.099C157.125 372.894 157.44 370.794 157.755 369.324C157.965 367.959 158.175 367.119 158.175 367.119H148.305Z" fill="#FFA665"/>
<path d="M174.66 413.843C163.32 416.468 154.395 413.843 154.395 413.843C153.345 405.653 149.04 394.944 149.145 392.109C149.145 390.849 149.775 389.799 150.405 388.854C150.405 388.854 151.98 398.514 154.71 403.659C157.44 408.804 164.16 407.124 166.575 406.284C174.66 411.534 174.66 413.843 174.66 413.843Z" fill="#3B0E21"/>
<path d="M148.305 367.119L148.41 367.434C148.515 368.064 148.83 369.534 149.25 371.319C149.25 371.319 150.405 373.209 153.03 374.259C155.655 375.309 157.02 375.204 157.02 375.204C157.23 372.999 157.545 370.899 157.86 369.429L158.07 367.224H148.305V367.119Z" fill="#F88755"/>
<path d="M183.9 391.479C184.32 391.689 189.255 394.839 192.405 398.514C193.245 399.354 193.875 400.299 194.4 401.244C196.92 405.969 197.76 410.799 197.76 410.799C197.76 410.799 205.95 411.324 212.565 411.114C212.775 411.114 213.09 411.114 213.3 411.114C213.72 411.114 214.14 411.114 214.455 411.114C214.56 411.114 214.665 411.114 214.665 411.114C214.875 411.114 214.98 411.114 215.19 411.114H215.295C215.715 411.114 216.03 411.009 216.45 411.009C216.66 411.009 216.765 411.009 216.975 411.009C217.185 411.009 217.29 411.009 217.5 410.904C217.5 410.904 215.505 407.754 206.16 401.349C206.16 401.349 195.975 387.279 194.085 380.874C193.035 377.304 193.245 371.004 193.665 366.174C193.77 364.389 193.98 362.919 194.085 361.764C194.19 360.399 194.4 359.664 194.4 359.664C194.4 359.664 188.52 361.029 186.525 364.074C186.315 364.389 186.105 364.809 186 365.124C186 365.124 186.21 367.329 186.525 370.269C187.05 375.729 187.785 383.814 187.47 384.234C186.735 385.179 185.79 386.334 185.055 387.804L185.685 387.699C185.055 388.539 184.32 389.799 183.9 391.479Z" fill="#FFA665"/>
<path d="M217.605 410.799C216.975 410.904 216.24 410.904 215.505 411.009C208.68 411.534 197.865 410.799 197.865 410.799C197.865 410.799 197.025 405.969 194.505 401.244C193.98 400.299 193.35 399.459 192.51 398.514V398.409V398.514L192.3 411.219H190.41C190.41 411.219 187.47 397.989 184.005 391.584C184.005 391.584 184.215 389.694 185.055 387.699C185.58 386.439 186.315 385.074 187.47 384.129C187.47 384.129 194.085 400.194 206.265 401.349C215.61 407.544 217.605 410.799 217.605 410.799Z" fill="#3B0E21"/>
<path d="M186 365.018L186.525 369.113C186.525 369.113 190.095 368.483 191.25 368.168C192.405 367.853 193.77 366.068 193.77 366.068L194.505 361.658C194.505 361.658 194.4 361.658 194.19 361.658C193.035 361.763 188.73 362.288 186.525 363.968C186.315 364.283 186.105 364.598 186 365.018Z" fill="#F88755"/>
<path opacity="0.5" d="M215.505 410.904C208.68 411.429 197.865 410.694 197.865 410.694C197.865 410.694 197.025 405.863 194.505 401.138C193.98 400.193 193.35 399.354 192.51 398.409V398.304V398.409L192.3 411.113H190.41C190.41 411.113 187.47 397.884 184.005 391.479C184.005 391.479 190.62 394.524 194.61 398.829C198.6 403.134 200.07 408.909 200.07 408.909C200.07 408.909 209.94 411.114 215.505 410.904Z" fill="url(#paint31_linear)"/>
<path fill-rule="evenodd" clip-rule="evenodd" d="M195.975 363.549C195.555 363.654 188.835 365.964 187.575 366.174C186.315 366.279 184.005 363.234 184.005 363.234C184.005 363.234 179.7 309.054 180.12 307.269C180.54 305.484 183.06 300.864 183.06 300.864L182.01 271.359C182.01 271.359 171.09 305.379 166.155 322.074C161.22 338.664 158.28 367.329 158.28 367.329C158.28 367.329 157.335 371.109 156.495 371.214C156.285 371.214 155.76 371.109 155.13 370.794C152.82 369.954 148.305 367.749 146.31 365.439C146.31 365.439 143.475 344.124 144.21 326.484C144.315 321.969 144.735 317.769 145.47 314.199C145.47 314.199 150.195 308.214 150.72 306.954C151.035 306.324 153.03 291.309 155.55 274.719C155.655 274.299 155.655 273.774 155.76 273.354C158.28 256.554 161.115 238.704 162.9 232.824C166.26 221.064 178.65 201.429 178.65 201.429L182.01 195.969C182.01 195.969 182.22 197.544 184.11 198.174C189.675 200.169 200.7 200.799 202.275 199.119L203.325 205.734C203.325 205.734 207 234.714 207.735 244.584C208.47 254.454 202.275 340.449 195.975 363.549Z" fill="url(#paint32_linear)"/>
<path fill-rule="evenodd" clip-rule="evenodd" d="M202.275 199.119L203.325 205.734C203.325 205.734 201.225 207.309 199.335 207.204C197.445 207.099 192.195 208.884 192.195 208.884C192.195 208.884 184.845 241.014 182.745 247.944C180.645 254.874 167.31 306.429 167.31 306.429L164.265 307.899C164.265 307.899 158.595 333.624 157.965 340.239C157.23 346.854 156.495 371.109 156.495 371.109L155.13 370.689C152.82 369.849 148.305 367.644 146.31 365.334C146.31 365.334 141.9 331.839 145.47 314.094C145.47 314.094 150.195 308.109 150.72 306.849C151.035 306.219 153.03 291.204 155.55 274.614L163.635 253.614L184.215 199.119C189.675 201.219 200.7 200.799 202.275 199.119Z" fill="#1186A5"/>
<path fill-rule="evenodd" clip-rule="evenodd" d="M187.89 207.414L189.885 209.514L182.745 247.944L192.195 208.779L188.205 206.469L187.89 207.414Z" fill="#095083"/>
<path fill-rule="evenodd" clip-rule="evenodd" d="M161.745 292.778C161.85 298.973 161.43 305.798 161.535 306.218L158.28 298.973L144.105 326.378C144.21 321.863 144.63 317.663 145.365 314.093C145.365 314.093 150.09 308.108 150.615 306.848C150.93 306.218 152.925 291.203 155.445 274.613C155.55 274.193 155.55 273.668 155.655 273.248L174.87 247.838C174.87 247.943 161.64 286.373 161.745 292.778Z" fill="#1D336B"/>
<path opacity="0.5" fill-rule="evenodd" clip-rule="evenodd" d="M155.025 370.688C155.025 370.688 156.285 342.968 156.495 338.978C156.705 334.988 144.735 320.498 144.735 320.498C144.735 320.498 144 348.953 146.31 365.333C146.205 365.333 150.93 369.848 155.025 370.688Z" fill="url(#paint33_linear)"/>
<path opacity="0.4" fill-rule="evenodd" clip-rule="evenodd" d="M201.33 317.665L199.545 319.345L195.87 363.55C195.45 363.655 188.73 365.965 187.575 366.07C186.315 366.175 184.005 363.13 184.005 363.13C184.005 363.13 179.7 308.95 180.12 307.165C180.54 305.38 183.06 300.76 183.06 300.76L182.01 271.255L193.875 243.43L200.385 271.255L201.33 317.665Z" fill="#1C4070"/>
<path fill-rule="evenodd" clip-rule="evenodd" d="M164.265 307.795L170.145 307.375L167.31 306.43H163.53L164.265 307.795Z" fill="#375F7F"/>
<path fill-rule="evenodd" clip-rule="evenodd" d="M156.495 371.004C156.495 371.004 157.335 345.069 157.86 341.289C158.385 337.509 161.115 322.914 161.115 322.914L160.38 350.634L158.28 367.224L156.495 371.004Z" fill="#75D1C1"/>
<path opacity="0.8" fill-rule="evenodd" clip-rule="evenodd" d="M199.335 207.203C199.335 207.203 196.815 228.308 193.875 239.438L198.285 235.448C198.285 235.448 202.38 215.918 201.54 206.783L199.335 207.203Z" fill="#1FADC3"/>
<path fill-rule="evenodd" clip-rule="evenodd" d="M200.91 295.298L197.235 277.238C197.235 277.238 189.36 279.758 186.105 288.998L182.745 306.428C182.745 306.428 184.845 321.338 189.99 331.208C189.465 330.368 180.435 315.983 180.12 307.268C180.54 305.483 183.06 300.863 183.06 300.863L182.01 271.358L193.875 243.533L200.385 271.358L200.91 295.298Z" fill="#1C4070"/>
<path fill-rule="evenodd" clip-rule="evenodd" d="M194.505 313.779L199.545 319.344L202.59 318.504L202.8 316.614L201.33 317.664C201.33 317.664 198.39 316.929 194.505 313.779Z" fill="#2D365F"/>
<path opacity="0.8" fill-rule="evenodd" clip-rule="evenodd" d="M196.395 362.603C196.395 362.603 193.455 331.208 180.12 309.158L184.005 363.128C184.005 363.128 185.79 366.488 187.575 366.068C189.465 365.648 196.395 362.603 196.395 362.603Z" fill="url(#paint34_linear)"/>
<path fill-rule="evenodd" clip-rule="evenodd" d="M198.285 206.994C198.285 206.994 196.395 229.254 193.875 239.334C193.875 239.334 198.075 221.064 199.335 207.099L198.285 206.994Z" fill="#0A6091"/>
<path d="M237.87 185.575C239.445 187.045 236.82 174.235 233.88 173.395C233.88 173.395 233.145 181.27 237.87 185.575Z" fill="#7A007A"/>
<path d="M176.025 139.584C176.13 140.424 176.55 141.054 176.55 141.054L177.075 140.634L181.17 137.379L181.59 133.704L181.695 132.654H180.75C180.75 132.654 180.645 132.759 180.435 132.864C180.12 133.074 179.7 133.389 179.175 133.809C178.23 134.544 177.18 135.594 176.55 136.749C175.92 137.694 175.92 138.744 176.025 139.584Z" fill="#112F3F"/>
<path d="M203.955 142.84C203.955 142.84 209.94 150.295 212.145 159.43C214.455 168.565 218.13 180.22 219.495 182.53C219.495 182.53 230.94 175.915 233.88 173.5C233.88 173.5 233.775 181.06 237.87 185.68C237.87 185.68 221.805 202.165 217.29 202.48C217.29 202.48 209.31 193.66 205.005 183.055C200.7 172.45 203.955 142.84 203.955 142.84Z" fill="url(#paint35_linear)"/>
<path d="M203.955 142.839C203.955 142.839 199.965 138.849 192.195 135.174L203.955 151.134V142.839Z" fill="#112F3F"/>
<path d="M176.55 141.054C176.55 141.264 176.55 141.474 176.55 141.684C176.655 142.524 176.76 143.679 177.075 144.729C177.075 144.834 177.075 144.939 177.18 145.044C177.39 145.884 177.705 146.724 178.02 147.564C178.965 149.769 180.54 151.974 183.165 153.654C183.27 153.759 183.375 153.759 183.375 153.759C183.9 154.074 184.53 154.389 185.055 154.599H185.16C192.51 157.854 200.91 155.229 201.855 151.239V151.134C201.96 150.609 201.855 150.084 201.75 149.454C201.75 149.244 201.645 149.139 201.645 148.929C201.435 148.194 201.12 147.459 200.7 146.619C200.28 145.884 199.86 145.149 199.44 144.414C199.44 144.414 199.335 144.309 199.335 144.204C199.23 143.994 199.125 143.889 199.02 143.679C198.81 143.364 198.6 143.154 198.39 142.839C198.285 142.734 198.285 142.629 198.18 142.629C197.97 142.419 197.865 142.209 197.76 141.999L197.655 141.894C197.235 141.264 196.815 140.739 196.29 140.109C196.185 140.004 196.08 139.899 196.08 139.794L195.975 139.689C195.345 138.849 194.715 138.114 194.19 137.484L194.085 137.379C193.14 136.329 192.51 135.489 192.405 135.384C192.405 135.384 191.775 135.174 191.145 134.859C190.62 134.544 190.095 134.334 189.99 134.019C189.885 133.809 189.78 133.284 189.57 132.759L189.36 131.814C189.36 131.709 189.36 131.709 189.36 131.604C189.36 131.499 189.36 131.394 189.255 131.289C189.15 130.974 189.15 130.764 189.15 130.554C189.15 130.344 189.045 130.239 189.045 130.239L187.785 129.924L178.965 127.719V127.824L179.07 128.139L179.175 128.349L179.28 128.559C179.385 128.979 179.595 129.399 179.7 130.029C180.015 130.974 180.33 132.129 180.54 133.074V133.179L180.645 133.494C180.855 134.229 180.96 134.754 180.96 134.859C180.96 135.384 178.335 138.009 177.18 139.059C176.865 139.374 176.655 139.479 176.655 139.479C176.655 139.479 176.655 139.584 176.655 139.689C176.55 139.689 176.445 140.214 176.55 141.054Z" fill="#F88755"/>
<path d="M178.86 127.51V127.615L178.965 127.93L179.07 128.14L179.175 128.35L179.595 129.82L180.435 132.865V132.97L180.54 133.285L180.645 133.495C180.96 133.6 181.275 133.705 181.59 133.81C186.84 135.175 189.57 132.76 189.57 132.76L189.36 131.815L189.255 131.605C189.255 131.5 189.255 131.395 189.15 131.29C189.045 130.975 189.045 130.765 189.045 130.555C189.045 130.345 188.94 130.24 188.94 130.24L187.68 129.925L178.86 127.51Z" fill="#D35950"/>
<path d="M199.545 146.724C199.545 146.724 201.855 151.344 200.595 152.919C198.915 154.809 187.575 153.969 183.06 150.714C178.545 147.459 176.55 143.994 176.55 143.994C176.55 143.994 194.295 171.189 198.915 171.714C203.535 172.239 206.16 163.524 206.475 159.219C206.79 154.914 199.545 146.724 199.545 146.724Z" fill="url(#paint36_linear)"/>
<path d="M164.055 149.455C164.055 149.455 168.15 161.11 170.25 168.145C170.775 169.93 171.615 172.03 172.56 174.235C174.345 178.54 176.55 183.37 178.335 187.36C179.805 190.51 180.96 193.135 181.485 194.605L181.59 194.71C181.695 195.13 181.8 195.445 181.8 195.55C181.8 195.865 181.59 196.6 181.065 197.65C181.065 197.755 202.905 199.435 202.905 199.435C202.275 198.595 201.855 198.07 201.855 197.965C201.855 197.86 202.065 197.23 202.275 196.285C203.535 191.77 207.315 179.905 207.315 179.905C209.1 178.54 212.145 173.92 212.88 172.45L212.985 172.24V172.135C213.09 171.505 213.615 167.515 210.36 161.005C209.205 158.59 206.58 154.705 203.85 150.715C203.64 150.4 203.325 149.98 203.115 149.665C201.855 147.88 200.49 145.99 199.335 144.415C199.335 144.31 199.23 144.31 199.23 144.31C199.125 144.205 199.02 143.995 198.915 143.89C198.915 143.89 198.915 143.89 198.915 143.785C199.02 143.47 199.65 141.79 199.65 141.79C198.6 140.425 197.55 140.74 196.815 139.9L196.71 139.795C196.71 139.795 196.29 139.9 196.08 139.9H195.975C195.135 138.745 194.61 138.01 194.295 137.695C194.4 137.905 194.61 138.22 194.925 138.85C195.03 139.06 195.24 139.375 195.45 139.69C195.45 139.69 195.45 139.69 195.45 139.795C195.555 139.9 195.66 140.11 195.66 140.215C195.765 140.32 195.87 140.53 195.975 140.74C197.025 142.525 198.39 144.835 199.755 147.25C200.595 148.72 201.33 150.19 202.065 151.66C203.745 154.915 204.9 157.855 204.9 159.325V159.43C204.795 160.9 203.955 162.79 203.01 164.575C201.435 167.41 199.335 169.93 198.915 170.455C198.915 170.455 198.915 170.56 198.81 170.56C198.705 170.56 198.81 170.56 198.81 170.56C198.81 170.56 198.81 170.455 198.705 170.455L198.6 170.35C198.495 170.245 198.39 170.14 198.285 170.035C196.605 168.25 191.04 162.16 185.475 155.335C185.37 155.23 185.265 155.125 185.16 154.915C183.27 152.71 181.275 150.715 179.7 148.825C179.385 148.51 179.175 148.09 178.86 147.775C178.545 147.25 178.23 146.83 178.02 146.305C177.915 146.2 177.915 145.99 177.81 145.885C177.705 145.78 177.705 145.57 177.6 145.465C177.495 145.36 177.495 145.255 177.495 145.045C177.075 143.89 176.865 142.945 176.76 142C176.76 141.79 176.76 141.58 176.655 141.37C176.55 140.53 176.655 140.005 176.655 139.69C176.655 139.48 176.655 139.48 176.655 139.48L176.13 139.9L172.98 142.525L170.145 144.94L164.055 149.455Z" fill="url(#paint37_linear)"/>
<path opacity="0.5" d="M173.82 164.154L176.55 183.264L172.56 174.234L173.82 164.154Z" fill="url(#paint38_linear)"/>
<path opacity="0.5" d="M200.28 168.145L200.91 171.715L198.075 193.87L199.335 177.7C199.335 177.7 199.545 171.505 198.6 170.35L200.28 168.145Z" fill="url(#paint39_linear)"/>
<path d="M181.275 197.649C191.25 203.109 203.115 199.434 203.115 199.434L202.8 196.284C202.695 196.284 202.59 196.284 202.485 196.284C193.77 197.544 181.695 194.604 181.695 194.604L181.275 197.649Z" fill="url(#paint40_linear)"/>
<path opacity="0.2" d="M198.075 201.429C198.075 201.429 203.535 217.389 204.48 230.409H208.26L209.415 228.624C209.415 228.624 202.8 205.419 198.18 200.379L198.075 201.429Z" fill="#CA2485"/>
<path d="M194.295 200.064L193.56 237.549H189.255L192.195 199.959L194.295 200.064Z" fill="url(#paint41_linear)"/>
<path d="M201.015 199.959C201.015 199.959 208.89 212.349 210.99 228.624H205.95C205.95 228.624 202.17 207.729 198.285 200.379L201.015 199.959Z" fill="url(#paint42_linear)"/>
<path d="M196.08 196.6L194.4 195.445H191.565C191.565 195.445 190.83 217.705 191.04 234.295H196.08C196.08 234.295 193.98 206.26 194.4 197.02L196.08 196.6Z" fill="url(#paint43_linear)"/>
<path opacity="0.43" d="M210.885 164.68C210.885 164.68 208.05 171.61 199.545 173.71L199.125 172.66L210.885 164.68Z" fill="#A7249B"/>
<path d="M198.6 173.709C198.6 173.709 180.225 169.089 176.55 164.154L177.6 155.019L170.04 151.764L171.72 148.299L181.695 153.654L196.08 170.664L198.915 171.714L198.6 173.709Z" fill="#2E638A"/>
<path d="M170.775 150.19L177.18 153.445L177.075 154.81L176.55 161.53C176.655 161.635 176.76 161.74 176.76 161.74C181.38 165.73 197.655 171.82 198.075 172.24C198.18 172.345 198.39 172.975 198.495 173.71C198.915 175.6 199.23 178.33 199.23 178.33C199.23 178.33 199.545 175.075 199.335 172.555C199.335 172.24 199.23 171.925 199.23 171.61C199.125 170.98 198.915 170.455 198.6 170.14C198.6 170.14 198.495 170.14 198.495 170.035L198.39 169.93C198.285 169.825 198.18 169.72 198.075 169.615C196.29 167.515 190.2 160.585 185.055 154.6C182.535 151.66 180.225 149.035 178.86 147.25C178.44 146.725 178.125 146.305 177.81 145.99C177.81 145.99 177.81 145.885 177.705 145.885C177.495 145.57 177.39 145.36 177.285 145.36V145.255C177.285 145.15 177.285 145.15 177.285 145.045C177.285 144.94 177.18 144.835 177.18 144.625C176.97 143.68 176.865 142.105 176.865 140.635C176.865 140.005 176.865 139.27 176.865 138.64C176.865 137.485 177.075 136.54 177.18 136.12C177.705 134.965 178.65 133.915 178.965 133.705C178.86 133.81 176.76 134.965 175.5 136.225C174.975 136.75 173.82 139.375 172.665 142.21C172.35 143.05 171.93 143.995 171.615 144.835C171.195 145.99 170.775 147.145 170.46 147.985C170.04 149.14 169.83 149.77 169.83 149.77L170.775 150.19Z" fill="url(#paint44_linear)"/>
<path d="M191.04 134.648C191.04 134.648 192.51 136.013 194.19 137.798C194.19 137.798 194.19 137.798 194.295 137.903C194.505 138.113 194.61 138.323 194.82 138.533C195.135 138.848 195.555 139.268 195.87 139.688C195.975 139.793 196.08 139.898 196.185 140.003C196.71 140.633 197.13 141.158 197.55 141.683L197.655 141.788C197.76 141.998 197.97 142.208 198.075 142.418C198.18 142.523 198.18 142.628 198.285 142.628C198.495 142.838 198.6 143.153 198.81 143.468C198.81 143.468 198.81 143.468 198.81 143.573C199.125 144.203 199.545 144.833 199.965 145.673C200.49 146.618 201.015 147.773 201.645 148.823C201.75 149.138 201.96 149.453 202.065 149.663C203.955 153.653 205.425 157.853 205.11 159.533C204.9 160.688 203.955 162.263 202.905 164.048C201.225 166.778 199.125 169.508 198.705 169.928V170.033L198.915 171.398L199.125 172.343C199.23 172.343 199.335 172.343 199.44 172.343C206.475 171.608 210.885 164.468 210.885 164.468C210.255 159.428 203.535 151.448 203.325 150.503C203.325 150.398 203.22 150.188 203.22 149.873C203.22 149.768 203.22 149.663 203.22 149.453C203.115 147.563 202.905 143.888 202.905 141.683C202.905 140.633 202.905 139.793 202.905 139.793C201.855 138.953 200.805 138.218 199.86 137.588C199.545 137.378 199.23 137.168 198.915 137.063C194.295 134.753 191.04 134.648 191.04 134.648Z" fill="url(#paint45_linear)"/>
<path d="M170.775 126.774C170.775 126.774 168.36 131.184 164.16 131.709C159.96 132.234 158.91 130.239 158.91 130.239C158.91 130.239 154.29 131.604 151.035 125.304C147.78 119.004 151.245 113.124 158.07 112.494C165 111.969 171.615 122.154 170.775 126.774Z" fill="#23328D"/>
<path d="M184.005 82.8848C184.005 82.8848 193.14 85.8248 195.555 90.0248C197.97 94.2248 196.395 107.455 196.815 109.135C197.235 110.71 199.44 113.23 199.755 116.065C200.28 120.79 192.825 127.93 191.88 129.085C190.935 130.24 186.21 130.66 179.595 128.77C172.98 126.88 169.2 124.045 166.365 120.58C163.425 117.115 158.91 103.57 161.85 94.0148C164.265 85.9298 173.715 83.4098 184.005 82.8848Z" fill="#FFA665"/>
<path d="M167.205 113.02C167.205 113.02 170.145 114.91 175.185 114.595C180.33 114.28 184.215 111.655 184.215 111.655C183.795 108.505 180.645 99.7905 179.07 99.1605C177.495 98.5305 169.2 98.6355 169.2 98.6355L167.205 113.02Z" fill="#F88755"/>
<path d="M191.985 110.606C195.03 111.341 197.34 110.081 197.34 110.081C197.13 109.556 196.92 108.926 196.815 108.296C196.71 107.141 196.815 102.311 196.395 97.1655L196.29 97.0605L191.46 98.2155C188.94 107.246 191.985 110.606 191.985 110.606Z" fill="#F88755"/>
<path d="M190.83 100.315L191.46 97.3751C191.46 97.3751 192.93 94.9601 195.87 94.3301C195.87 94.3301 196.5 95.8001 196.395 97.1651C196.395 97.1651 193.875 97.5851 193.14 98.1101C192.195 98.8451 190.83 100.315 190.83 100.315Z" fill="#38368E"/>
<path d="M197.13 109.344C197.13 109.344 196.395 109.659 194.82 109.974C193.245 110.184 191.88 109.764 191.88 109.764C191.88 109.764 193.665 105.669 195.345 105.564C197.025 105.564 196.92 108.819 197.13 109.344Z" fill="#FFDFB7"/>
<path d="M191.775 109.765C191.775 109.765 191.46 105.985 192.405 103.78C193.35 101.575 194.82 101.68 194.82 101.68C194.82 101.68 195.45 101.89 196.815 105.88C196.815 105.88 196.08 105.04 194.4 105.775C192.72 106.615 191.775 109.765 191.775 109.765Z" fill="#E36A50"/>
<path d="M182.64 111.445C182.64 111.445 180.435 113.335 176.97 113.755C173.505 114.175 168.675 110.815 168.675 110.815C168.675 110.815 176.655 108.085 178.86 108.4C180.96 108.61 182.64 111.445 182.64 111.445Z" fill="#FFDFB7"/>
<path d="M182.115 110.185C182.115 110.185 181.275 106.825 178.02 104.095C178.02 104.095 174.03 103.99 172.035 105.88C169.935 107.77 168.675 110.815 168.675 110.815C168.675 110.815 175.71 107.875 178.44 108.4C181.17 108.715 182.115 110.185 182.115 110.185Z" fill="#E36A50"/>
<path d="M181.38 109.764C181.38 109.764 181.38 111.444 180.75 112.599C180.75 112.599 177.6 114.174 175.185 113.649C175.185 113.649 173.715 111.024 174.45 108.924C174.345 108.819 178.125 106.404 181.38 109.764Z" fill="#5F2808"/>
<path d="M182.64 111.445C182.64 111.445 181.695 108.085 179.805 107.455C177.075 106.405 170.775 109.66 168.15 110.92C168.15 110.92 177.075 108.295 179.49 108.925C181.17 109.345 182.64 111.445 182.64 111.445Z" fill="#131163"/>
<path d="M193.56 106.196C193.56 106.196 192.72 108.506 193.77 109.976C193.77 109.976 195.45 109.976 196.71 109.451C196.71 109.451 197.235 107.561 196.71 106.406C196.08 105.356 194.085 105.986 193.56 106.196Z" fill="#5F2808"/>
<path d="M191.775 109.765C191.775 109.765 192.405 106.51 194.505 105.145C196.605 103.78 197.13 107.14 197.13 107.14C197.13 107.14 196.395 105.565 194.715 106.09C193.035 106.615 191.775 109.765 191.775 109.765Z" fill="#131163"/>
<path d="M197.025 106.3L198.81 106.195L197.025 107.875C197.025 107.875 196.815 106.72 196.395 106.09L197.025 106.3Z" fill="#131163"/>
<path d="M162.165 115.539C164.16 118.269 166.89 121.629 168.255 122.889C171.09 125.514 182.745 130.449 186.105 129.924C186.105 129.924 181.485 128.979 178.335 127.404C174.765 125.619 165.105 111.969 168.255 103.989C170.88 97.5844 196.08 91.9144 196.08 91.9144L195.87 91.3894L193.35 88.5544L187.68 84.9844C184.53 85.9294 177.915 85.9294 174.24 87.1894C167.73 89.2894 160.8 92.3344 160.8 92.3344L160.59 109.449L161.01 111.969L162.165 115.539Z" fill="#F88755"/>
<path d="M193.455 119.634C191.985 121.209 190.515 123.309 189.675 123.624C187.365 124.464 183.06 120.684 181.38 118.584C181.38 118.584 186.21 120.579 187.785 120.579C189.36 120.474 193.455 119.634 193.455 119.634Z" fill="#DB3C36"/>
<path d="M191.775 120.473L194.715 119.108C194.715 119.108 192.51 119.318 191.46 119.738C190.41 120.158 189.99 119.738 188.835 119.528C187.68 119.423 182.43 118.898 182.43 118.898C182.43 118.898 187.785 121.313 189.15 121.208C190.515 121.103 191.775 120.473 191.775 120.473Z" fill="#AE3E40"/>
<path d="M191.565 99.2637C191.565 99.2637 190.305 105.354 191.145 107.874C191.985 110.394 194.715 113.124 194.715 113.124C194.715 113.124 191.355 110.499 190.515 107.874C189.675 105.249 191.04 99.8937 191.04 99.8937L191.565 99.2637Z" fill="#E36A50"/>
<path d="M187.995 114.384C187.995 114.384 187.365 115.959 187.89 115.959C188.415 115.959 189.36 115.959 190.62 116.379C191.88 116.904 194.295 115.539 194.82 113.859C194.82 113.859 194.295 115.224 191.67 115.119C189.15 115.014 187.995 115.329 187.995 115.329V114.384Z" fill="#F88755"/>
<path d="M189.045 115.854C189.045 115.854 189.36 115.539 190.095 115.539C190.725 115.539 191.04 116.064 191.04 116.064L190.305 115.749C190.305 115.749 190.2 116.064 189.78 116.064C189.36 116.064 189.045 115.854 189.045 115.854Z" fill="#A15150"/>
<path d="M188.415 113.648V114.383C188.415 114.383 190.095 114.068 191.25 114.383C192.405 114.698 194.085 113.858 194.085 113.858C194.085 113.858 192.195 114.068 191.25 113.963C190.305 113.963 188.835 114.068 188.835 114.068L188.415 113.648Z" fill="#FFDFB7"/>
<path d="M194.715 119.11C194.715 119.11 191.04 121.105 189.465 121.42C187.785 121.735 181.485 118.48 181.485 118.48L181.8 118.375C181.8 118.375 187.89 121.105 189.36 121C191.04 121 194.715 119.11 194.715 119.11Z" fill="#681422"/>
<path d="M182.535 117.744C182.535 117.744 181.17 118.794 180.645 119.739C180.54 119.739 180.54 117.849 182.535 117.744Z" fill="#F88755"/>
<path d="M180.645 100.419C180.645 100.419 179.49 98.2142 178.755 97.8992C178.02 97.5842 173.4 97.6892 171.51 98.0042C169.62 98.3192 167.31 99.5792 167.205 99.7892C167.1 100.104 171.72 99.5792 174.135 99.6842C176.55 99.7892 180.645 100.419 180.645 100.419Z" fill="#38368E"/>
<path d="M157.23 118.794L165.315 117.849C165.315 117.849 168.78 116.694 170.145 109.029C171.3 102.519 169.62 88.9743 170.775 83.5143C170.985 82.5693 171.3 81.8343 171.615 81.4143C174.24 78.8943 180.645 81.3093 181.275 81.5193C175.71 78.5793 171.51 78.9993 171.51 78.9993C158.91 80.4693 152.61 88.9743 152.61 88.9743C151.875 92.8593 151.77 96.6393 152.19 100.209C153.03 110.709 157.23 118.794 157.23 118.794Z" fill="url(#paint46_linear)"/>
<path d="M177.705 79.9453L183.48 86.1403C183.48 86.1403 194.82 86.2453 197.34 101.155C197.34 101.155 196.605 91.9153 195.03 88.3453C193.14 84.1453 186.525 81.2053 179.49 80.1553C178.86 80.1553 178.23 80.0503 177.705 79.9453Z" fill="url(#paint47_linear)"/>
<path d="M177.705 79.9453L183.48 86.1403C183.48 86.1403 194.82 86.2453 197.34 101.155C197.34 101.155 196.605 91.9153 195.03 88.3453C195.03 88.3453 188.1 85.8253 184.635 84.5653C182.325 83.7253 180.435 81.5203 179.49 80.1553C178.86 80.1553 178.23 80.0503 177.705 79.9453Z" fill="#23328D"/>
<path d="M183.48 86.1395C183.48 86.1395 179.805 86.2445 176.655 87.8195C172.665 89.8145 171.195 94.8545 170.565 98.6345C170.565 98.6345 169.2 83.1995 171.3 80.6795C173.4 78.1595 180.33 80.5745 181.38 81.5195C182.43 82.4645 183.48 86.1395 183.48 86.1395Z" fill="#23328D"/>
<path d="M171.3 80.6797C171.3 80.6797 166.575 92.7547 161.745 98.2147C158.175 102.31 152.715 104.935 152.715 104.935L152.925 105.775C152.925 105.775 159.645 103.255 164.685 95.0647C169.515 87.1897 171.3 80.6797 171.3 80.6797Z" fill="url(#paint48_linear)"/>
<path d="M171.3 80.6798C171.3 80.6798 156.075 88.1348 151.875 97.0598V95.7998C151.875 95.7998 156.81 87.1898 171.615 80.2598L171.3 80.6798Z" fill="#23328D"/>
<path d="M170.25 94.4336C170.25 94.4336 167.1 107.349 159.75 114.594L160.8 114.699C160.8 114.699 167.31 110.604 170.46 96.4286L170.25 94.4336Z" fill="url(#paint49_linear)"/>
<path d="M167.94 118.794C167.94 118.794 162.69 112.704 156.6 115.224C156.6 115.224 154.71 116.799 155.97 119.634C157.755 123.729 162.69 127.089 166.575 126.669C170.775 126.249 169.095 120.999 167.94 118.794Z" fill="#F88755"/>
<path d="M167.835 122.259C167.835 122.259 161.115 115.749 157.02 117.534C157.02 117.534 158.595 117.849 162.27 119.844C165.84 121.839 167.835 122.259 167.835 122.259Z" fill="#E36A50"/>
<path d="M161.43 118.795C161.43 118.795 161.22 121.105 162.585 123.1C162.585 123.1 160.065 120.475 159.855 118.69C159.855 118.69 160.8 118.48 161.43 118.795Z" fill="#E36A50"/>
<path d="M165.84 121.629C165.84 121.629 165.63 123.414 164.895 123.624C164.055 123.834 163.74 123.729 163.74 123.729C163.74 123.729 165.735 124.569 166.155 124.254C166.68 123.939 167.205 122.154 167.205 122.154L165.84 121.629Z" fill="#E36A50"/>
<path d="M196.605 184.104C198.285 181.899 197.34 177.594 195.555 173.604C195.555 173.604 195.03 173.919 194.295 174.444C194.715 175.704 194.82 176.964 194.505 177.804C193.35 180.849 195.765 185.154 196.605 184.104Z" fill="url(#paint50_linear)"/>
<path d="M192.93 184.838L201.96 174.863C201.96 174.863 205.425 175.073 206.58 174.023C208.05 172.658 208.47 169.298 208.47 169.298L209.94 158.588C209.94 158.588 207.525 159.218 206.265 160.478C205.005 161.738 199.65 171.398 199.335 171.713C199.02 172.133 197.025 173.078 197.025 173.078C197.025 173.078 192.93 177.488 192.93 184.838Z" fill="#FFA665"/>
<path d="M204.9 185.469C214.455 188.304 239.025 188.829 239.025 188.829C245.64 167.514 249 142.314 249 142.314C228.105 136.959 211.2 136.854 211.2 136.854C210.99 138.009 210.78 139.269 210.465 140.634C207.735 156.699 204.9 185.469 204.9 185.469Z" fill="url(#paint51_linear)"/>
<path opacity="0.59" d="M247.425 143.573C247.425 143.573 233.355 168.353 209.625 184.838L206.265 183.683C206.265 183.683 221.49 151.763 226.95 140.318C226.95 140.318 237.45 140.423 247.425 143.573Z" fill="url(#paint52_linear)"/>
<path d="M227.579 166.553C225.847 166.395 224.63 164.207 224.862 161.666C225.093 159.125 226.686 157.193 228.418 157.351C230.151 157.509 231.368 159.697 231.136 162.238C230.904 164.779 229.312 166.711 227.579 166.553Z" fill="white"/>
<path opacity="0.5" d="M218.025 161.634C217.815 167.409 222.435 172.239 228.315 172.449C234.195 172.659 239.13 168.144 239.34 162.369C239.55 156.594 234.93 151.764 229.05 151.554C223.065 151.344 218.235 155.859 218.025 161.634Z" fill="url(#paint53_radial)"/>
<path opacity="0.5" d="M218.025 161.634C217.815 167.409 222.435 172.239 228.315 172.449C234.195 172.659 239.13 168.144 239.34 162.369C239.55 156.594 234.93 151.764 229.05 151.554C223.065 151.344 218.235 155.859 218.025 161.634Z" fill="url(#paint54_radial)"/>
<path opacity="0.5" d="M218.025 161.634C217.815 167.409 222.435 172.239 228.315 172.449C234.195 172.659 239.13 168.144 239.34 162.369C239.55 156.594 234.93 151.764 229.05 151.554C223.065 151.344 218.235 155.859 218.025 161.634Z" fill="url(#paint55_radial)"/>
<path d="M239.025 188.828C239.025 188.828 213.72 187.463 207.105 183.893C207.105 183.893 208.68 153.128 210.465 140.633C207.735 156.698 204.9 185.468 204.9 185.468C214.455 188.303 239.025 188.828 239.025 188.828Z" fill="url(#paint56_linear)"/>
<path d="M244.275 167.514C244.275 167.514 247.53 168.669 248.055 169.824C248.58 170.979 247.74 172.029 247.32 172.344C246.9 172.554 241.125 174.234 240.18 173.814C239.235 173.394 239.97 171.819 240.81 171.189C241.755 170.559 243.75 169.824 243.75 169.824L244.275 167.514Z" fill="#FFA665"/>
<path d="M246.165 172.133C246.165 172.133 246.795 174.338 246.69 174.968C246.585 175.598 246.165 175.913 246.165 175.913C246.165 175.913 247.005 177.383 246.165 178.013C245.325 178.643 242.91 179.273 242.91 179.273C242.91 179.273 244.38 180.218 244.065 181.478C243.645 182.633 239.025 182.633 237.975 182.003C236.925 181.373 238.185 179.798 238.92 179.483C238.92 179.483 237.975 178.223 238.5 177.278C238.5 177.278 237.765 176.543 238.605 175.388C239.445 174.233 242.91 173.288 242.91 173.288L246.165 172.133Z" fill="#FFA665"/>
<path d="M246.27 172.658L246.48 173.498L239.445 174.653L241.23 173.813L246.27 172.658Z" fill="#F88755"/>
<path d="M246.165 175.914C246.165 175.914 240.81 177.594 238.815 177.699C238.815 177.699 244.275 177.069 246.375 176.334L246.165 175.914Z" fill="#F88755"/>
<path d="M242.91 179.273L240.18 179.483C240.18 179.483 243.015 179.798 243.96 180.638C244.065 180.638 244.065 180.323 242.91 179.273Z" fill="#F88755"/>
<path d="M161.745 167.409C161.85 172.134 162.585 180.324 162.585 180.324L163.005 194.709C163.005 194.709 163.425 196.599 163.95 198.699C164.475 200.589 165.105 202.479 165.735 203.109C165.945 203.424 172.35 202.479 174.345 201.534C178.23 199.749 181.59 196.494 185.055 194.604C192.195 190.509 196.395 184.629 196.71 184.209C196.71 184.209 193.56 181.059 195.66 173.709C195.66 173.709 195.135 174.024 194.4 174.549C192.825 175.599 190.305 177.384 189.885 177.804C189.255 178.539 182.325 180.429 182.325 180.429C182.325 180.429 178.23 183.054 174.45 185.889C174.24 186.099 174.03 186.204 173.82 186.414C173.82 185.679 173.925 184.944 173.925 184.314C173.925 181.059 173.505 178.644 174.135 177.279C174.45 176.544 174.66 176.124 174.66 176.124C175.185 163.419 164.37 149.559 164.37 149.559C164.16 149.769 162.9 153.024 162.69 153.969C161.955 157.119 161.64 163.734 161.745 167.409Z" fill="url(#paint57_linear)"/>
<path opacity="0.5" d="M172.56 196.074C172.14 191.874 174.03 186.624 174.345 185.889C174.135 186.099 173.925 186.204 173.715 186.414C173.715 185.679 173.82 184.944 173.82 184.314C171.72 190.719 172.56 196.074 172.56 196.074Z" fill="url(#paint58_linear)"/>
</g>
<defs>
<radialGradient id="paint0_radial" cx="0" cy="0" r="1" gradientUnits="userSpaceOnUse" gradientTransform="translate(290.026 174.161) scale(205.305 205.305)">
<stop offset="0.00790514" stop-color="#2969BB"/>
<stop offset="1" stop-color="#4D2D74"/>
</radialGradient>
<radialGradient id="paint1_radial" cx="0" cy="0" r="1" gradientUnits="userSpaceOnUse" gradientTransform="translate(140.242 128.258) scale(30.2071)">
<stop stop-color="#1FB8B4"/>
<stop offset="1" stop-color="#57F6C9"/>
</radialGradient>
<radialGradient id="paint2_radial" cx="0" cy="0" r="1" gradientUnits="userSpaceOnUse" gradientTransform="translate(423.461 128.258) rotate(180) scale(30.2071)">
<stop stop-color="#0077B4"/>
<stop offset="1" stop-color="#04A9C9"/>
</radialGradient>
<radialGradient id="paint3_radial" cx="0" cy="0" r="1" gradientUnits="userSpaceOnUse" gradientTransform="translate(158.221 44.1679) scale(48.9492)">
<stop stop-color="#1FB8B4"/>
<stop offset="1" stop-color="#57F6C9"/>
</radialGradient>
<radialGradient id="paint4_radial" cx="0" cy="0" r="1" gradientUnits="userSpaceOnUse" gradientTransform="translate(283.556 49.0059) scale(50.0603)">
<stop stop-color="#0077B4"/>
<stop offset="1" stop-color="#04A9C9"/>
</radialGradient>
<radialGradient id="paint5_radial" cx="0" cy="0" r="1" gradientUnits="userSpaceOnUse" gradientTransform="translate(407.817 43.5396) scale(48.3031)">
<stop stop-color="#1FB8B4"/>
<stop offset="1" stop-color="#57F6C9"/>
</radialGradient>
<radialGradient id="paint6_radial" cx="0" cy="0" r="1" gradientUnits="userSpaceOnUse" gradientTransform="translate(235.492 127.62) scale(32.9404)">
<stop stop-color="#1FB8B4"/>
<stop offset="1" stop-color="#57F6C9"/>
</radialGradient>
<radialGradient id="paint7_radial" cx="0" cy="0" r="1" gradientUnits="userSpaceOnUse" gradientTransform="translate(330.68 127.933) scale(31.0235)">
<stop stop-color="#0077B4"/>
<stop offset="1" stop-color="#04A9C9"/>
</radialGradient>
<linearGradient id="paint8_linear" x1="270.111" y1="83.426" x2="270.111" y2="14.5086" gradientUnits="userSpaceOnUse">
<stop stop-color="white" stop-opacity="0"/>
<stop offset="1" stop-color="white"/>
</linearGradient>
<linearGradient id="paint9_linear" x1="286.269" y1="80.5339" x2="286.269" y2="15.17" gradientUnits="userSpaceOnUse">
<stop stop-color="white" stop-opacity="0"/>
<stop offset="1" stop-color="white"/>
</linearGradient>
<linearGradient id="paint10_linear" x1="398.319" y1="80.2977" x2="398.319" y2="8.25741" gradientUnits="userSpaceOnUse">
<stop stop-color="white" stop-opacity="0"/>
<stop offset="1" stop-color="white"/>
</linearGradient>
<linearGradient id="paint11_linear" x1="414.423" y1="76.9728" x2="414.423" y2="7.19394" gradientUnits="userSpaceOnUse">
<stop stop-color="white" stop-opacity="0"/>
<stop offset="1" stop-color="white"/>
</linearGradient>
<linearGradient id="paint12_linear" x1="149.057" y1="79.1155" x2="149.057" y2="6.85991" gradientUnits="userSpaceOnUse">
<stop stop-color="white" stop-opacity="0"/>
<stop offset="1" stop-color="white"/>
</linearGradient>
<linearGradient id="paint13_linear" x1="164.678" y1="76.235" x2="164.678" y2="10.8712" gradientUnits="userSpaceOnUse">
<stop stop-color="white" stop-opacity="0"/>
<stop offset="1" stop-color="white"/>
</linearGradient>
<linearGradient id="paint14_linear" x1="135.571" y1="148.771" x2="135.571" y2="108.174" gradientUnits="userSpaceOnUse">
<stop stop-color="white" stop-opacity="0"/>
<stop offset="1" stop-color="white"/>
</linearGradient>
<linearGradient id="paint15_linear" x1="142.715" y1="147.057" x2="142.715" y2="108.506" gradientUnits="userSpaceOnUse">
<stop stop-color="white" stop-opacity="0"/>
<stop offset="1" stop-color="white"/>
</linearGradient>
<linearGradient id="paint16_linear" x1="230.867" y1="148.126" x2="230.867" y2="107.422" gradientUnits="userSpaceOnUse">
<stop stop-color="white" stop-opacity="0"/>
<stop offset="1" stop-color="white"/>
</linearGradient>
<linearGradient id="paint17_linear" x1="238.817" y1="146.412" x2="238.817" y2="107.862" gradientUnits="userSpaceOnUse">
<stop stop-color="white" stop-opacity="0"/>
<stop offset="1" stop-color="white"/>
</linearGradient>
<linearGradient id="paint18_linear" x1="325.688" y1="147.804" x2="325.688" y2="107.208" gradientUnits="userSpaceOnUse">
<stop stop-color="white" stop-opacity="0"/>
<stop offset="1" stop-color="white"/>
</linearGradient>
<linearGradient id="paint19_linear" x1="333.638" y1="146.09" x2="333.638" y2="107.54" gradientUnits="userSpaceOnUse">
<stop stop-color="white" stop-opacity="0"/>
<stop offset="1" stop-color="white"/>
</linearGradient>
<linearGradient id="paint20_linear" x1="417.276" y1="149.412" x2="417.276" y2="107.2" gradientUnits="userSpaceOnUse">
<stop stop-color="white" stop-opacity="0"/>
<stop offset="1" stop-color="white"/>
</linearGradient>
<linearGradient id="paint21_linear" x1="426.084" y1="147.591" x2="426.084" y2="107.532" gradientUnits="userSpaceOnUse">
<stop stop-color="white" stop-opacity="0"/>
<stop offset="1" stop-color="white"/>
</linearGradient>
<linearGradient id="paint22_linear" x1="272.522" y1="169.226" x2="272.522" y2="163.26" gradientUnits="userSpaceOnUse">
<stop/>
<stop offset="0.996" stop-opacity="0"/>
</linearGradient>
<linearGradient id="paint23_linear" x1="278.003" y1="170.575" x2="283.379" y2="170.575" gradientUnits="userSpaceOnUse">
<stop stop-color="#FFFFD1"/>
<stop offset="1" stop-color="#FFDAC0"/>
</linearGradient>
<linearGradient id="paint24_linear" x1="300.749" y1="238.852" x2="300.749" y2="188.202" gradientUnits="userSpaceOnUse">
<stop/>
<stop offset="0.996" stop-opacity="0"/>
</linearGradient>
<linearGradient id="paint25_linear" x1="309.291" y1="199.855" x2="309.291" y2="199.21" gradientUnits="userSpaceOnUse">
<stop/>
<stop offset="0.996" stop-opacity="0"/>
</linearGradient>
<linearGradient id="paint26_linear" x1="309.988" y1="238.818" x2="309.988" y2="208.923" gradientUnits="userSpaceOnUse">
<stop/>
<stop offset="0.996" stop-opacity="0"/>
</linearGradient>
<linearGradient id="paint27_linear" x1="309.186" y1="193.405" x2="309.186" y2="193.19" gradientUnits="userSpaceOnUse">
<stop/>
<stop offset="0.996" stop-opacity="0"/>
</linearGradient>
<linearGradient id="paint28_linear" x1="309.72" y1="217.611" x2="309.72" y2="206.105" gradientUnits="userSpaceOnUse">
<stop/>
<stop offset="0.996" stop-opacity="0"/>
</linearGradient>
<linearGradient id="paint29_linear" x1="309.842" y1="238.727" x2="309.842" y2="238.167" gradientUnits="userSpaceOnUse">
<stop stop-color="#005665"/>
<stop offset="0.5335" stop-color="#005074"/>
<stop offset="1" stop-color="#004D7B"/>
</linearGradient>
<radialGradient id="paint30_radial" cx="0" cy="0" r="1" gradientUnits="userSpaceOnUse" gradientTransform="translate(280.691 170.276) rotate(91.4505) scale(4.76625 9.20953)">
<stop stop-color="#FFDB3B"/>
<stop offset="1" stop-color="white" stop-opacity="0"/>
</radialGradient>
<linearGradient id="paint31_linear" x1="199.684" y1="411.123" x2="199.684" y2="391.479" gradientUnits="userSpaceOnUse">
<stop stop-color="#300B1F"/>
<stop offset="1" stop-color="#300B1F"/>
</linearGradient>
<linearGradient id="paint32_linear" x1="175.884" y1="371.032" x2="175.884" y2="195.958" gradientUnits="userSpaceOnUse">
<stop stop-color="#63CEAE"/>
<stop offset="1" stop-color="#0098BA"/>
</linearGradient>
<linearGradient id="paint33_linear" x1="140.054" y1="362.611" x2="159.446" y2="329.023" gradientUnits="userSpaceOnUse">
<stop offset="0.00558659" stop-color="#315E79"/>
<stop offset="1" stop-color="#32A6A6"/>
</linearGradient>
<linearGradient id="paint34_linear" x1="174.753" y1="359.205" x2="197.774" y2="319.331" gradientUnits="userSpaceOnUse">
<stop offset="0.00558659" stop-color="#3C5884"/>
<stop offset="1" stop-color="#38657E"/>
</linearGradient>
<linearGradient id="paint35_linear" x1="237.828" y1="172.627" x2="202.814" y2="172.627" gradientUnits="userSpaceOnUse">
<stop stop-color="#0098BA"/>
<stop offset="1" stop-color="#1D90AE"/>
</linearGradient>
<linearGradient id="paint36_linear" x1="206.471" y1="157.818" x2="176.534" y2="157.818" gradientUnits="userSpaceOnUse">
<stop stop-color="#CAD1FF"/>
<stop offset="1" stop-color="#E3FFFF"/>
</linearGradient>
<linearGradient id="paint37_linear" x1="213.283" y1="168.4" x2="164.072" y2="168.4" gradientUnits="userSpaceOnUse">
<stop stop-color="#63CEAE"/>
<stop offset="1" stop-color="#0098BA"/>
</linearGradient>
<linearGradient id="paint38_linear" x1="176.502" y1="173.698" x2="172.579" y2="173.698" gradientUnits="userSpaceOnUse">
<stop stop-color="#10789F"/>
<stop offset="1" stop-color="#10789F"/>
</linearGradient>
<linearGradient id="paint39_linear" x1="200.967" y1="180.98" x2="198.113" y2="180.98" gradientUnits="userSpaceOnUse">
<stop stop-color="#9D68C2"/>
<stop offset="1" stop-color="#A190B4"/>
</linearGradient>
<linearGradient id="paint40_linear" x1="203.104" y1="197.704" x2="181.226" y2="197.704" gradientUnits="userSpaceOnUse">
<stop stop-color="#63CEAE"/>
<stop offset="1" stop-color="#0098BA"/>
</linearGradient>
<linearGradient id="paint41_linear" x1="194.32" y1="218.788" x2="189.27" y2="218.788" gradientUnits="userSpaceOnUse">
<stop stop-color="#0E4889"/>
<stop offset="1" stop-color="#125682"/>
</linearGradient>
<linearGradient id="paint42_linear" x1="210.906" y1="214.309" x2="198.223" y2="214.309" gradientUnits="userSpaceOnUse">
<stop stop-color="#63CEAE"/>
<stop offset="1" stop-color="#0098BA"/>
</linearGradient>
<linearGradient id="paint43_linear" x1="196.052" y1="214.86" x2="190.986" y2="214.86" gradientUnits="userSpaceOnUse">
<stop stop-color="#63CEAE"/>
<stop offset="1" stop-color="#0098BA"/>
</linearGradient>
<linearGradient id="paint44_linear" x1="199.535" y1="156.02" x2="170.004" y2="156.02" gradientUnits="userSpaceOnUse">
<stop stop-color="#63CEAE"/>
<stop offset="1" stop-color="#0098BA"/>
</linearGradient>
<linearGradient id="paint45_linear" x1="210.902" y1="153.624" x2="191.036" y2="153.624" gradientUnits="userSpaceOnUse">
<stop stop-color="#63CEAE"/>
<stop offset="1" stop-color="#0098BA"/>
</linearGradient>
<linearGradient id="paint46_linear" x1="169.715" y1="117.42" x2="165.4" y2="79.7195" gradientUnits="userSpaceOnUse">
<stop stop-color="#2E33A0"/>
<stop offset="1" stop-color="#0665A5"/>
</linearGradient>
<linearGradient id="paint47_linear" x1="188.826" y1="102.193" x2="186.172" y2="79.0049" gradientUnits="userSpaceOnUse">
<stop stop-color="#2E33A0"/>
<stop offset="1" stop-color="#0665A5"/>
</linearGradient>
<linearGradient id="paint48_linear" x1="171.289" y1="93.2413" x2="152.715" y2="93.2413" gradientUnits="userSpaceOnUse">
<stop stop-color="#0D4A89"/>
<stop offset="1" stop-color="#182262"/>
</linearGradient>
<linearGradient id="paint49_linear" x1="170.478" y1="104.576" x2="159.764" y2="104.576" gradientUnits="userSpaceOnUse">
<stop stop-color="#184292"/>
<stop offset="1" stop-color="#182262"/>
</linearGradient>
<linearGradient id="paint50_linear" x1="197.484" y1="178.972" x2="194.219" y2="178.972" gradientUnits="userSpaceOnUse">
<stop stop-color="#2E587E"/>
<stop offset="1" stop-color="#255D80"/>
</linearGradient>
<linearGradient id="paint51_linear" x1="226.934" y1="188.835" x2="226.934" y2="136.889" gradientUnits="userSpaceOnUse">
<stop stop-color="#AFD1DF"/>
<stop offset="1" stop-color="#E8FFF7"/>
</linearGradient>
<linearGradient id="paint52_linear" x1="247.428" y1="162.558" x2="206.297" y2="162.558" gradientUnits="userSpaceOnUse">
<stop stop-color="white" stop-opacity="0.5"/>
<stop offset="1" stop-color="white" stop-opacity="0"/>
</linearGradient>
<radialGradient id="paint53_radial" cx="0" cy="0" r="1" gradientUnits="userSpaceOnUse" gradientTransform="translate(228.642 162.005) rotate(-178.064) scale(10.6554 10.4485)">
<stop stop-color="white"/>
<stop offset="1" stop-color="white" stop-opacity="0"/>
</radialGradient>
<radialGradient id="paint54_radial" cx="0" cy="0" r="1" gradientUnits="userSpaceOnUse" gradientTransform="translate(228.642 162.005) rotate(-178.064) scale(10.6554 10.4485)">
<stop stop-color="white"/>
<stop offset="1" stop-color="white" stop-opacity="0"/>
</radialGradient>
<radialGradient id="paint55_radial" cx="0" cy="0" r="1" gradientUnits="userSpaceOnUse" gradientTransform="translate(228.642 162.005) rotate(-178.064) scale(10.6554 10.4485)">
<stop stop-color="white"/>
<stop offset="1" stop-color="white" stop-opacity="0"/>
</radialGradient>
<linearGradient id="paint56_linear" x1="239.021" y1="164.758" x2="204.869" y2="164.758" gradientUnits="userSpaceOnUse">
<stop stop-color="#051B4F"/>
<stop offset="1" stop-color="#226685"/>
</linearGradient>
<linearGradient id="paint57_linear" x1="196.622" y1="176.277" x2="161.704" y2="176.277" gradientUnits="userSpaceOnUse">
<stop stop-color="#63CEAE"/>
<stop offset="1" stop-color="#0098BA"/>
</linearGradient>
<linearGradient id="paint58_linear" x1="174.288" y1="190.176" x2="172.37" y2="190.176" gradientUnits="userSpaceOnUse">
<stop stop-color="#1C7E9C"/>
<stop offset="1" stop-color="#1889A5"/>
</linearGradient>
<clipPath id="clip0">
<rect width="580" height="281.991" fill="white"/>
</clipPath>
<clipPath id="clip1">
<rect width="105" height="336" fill="white" transform="matrix(-1 0 0 1 249 79)"/>
</clipPath>
</defs>
</svg>
