<svg width="580" height="486" viewBox="0 0 580 486" fill="none" xmlns="http://www.w3.org/2000/svg">
<g clip-path="url(#clip0)">
<path d="M579.9 9.80078L172.9 75.7008L167.5 251.301L579.9 344.201V9.80078Z" fill="url(#paint0_linear)"/>
<path d="M159.6 245.999L160.1 211.499L159.2 209.199L158 247.099L159.6 245.999Z" fill="#722631"/>
<path d="M579.9 235.101L182.5 201.801V74.1008L579.9 9.80078V235.101Z" fill="#842B31"/>
<path d="M151.8 254L157 73.9004L184.8 74.2004L182.5 260.6L151.8 254Z" fill="#722631"/>
<path d="M579.9 241.801L153.3 201.801L151.8 254.001L579.9 361.701V241.801Z" fill="url(#paint1_linear)"/>
<path d="M579.9 241.801L153.3 201.801H182.5L579.9 235.101V241.801Z" fill="url(#paint2_linear)"/>
<path d="M153.3 201.8L157 73.9L158.7 73L156 202.1L153.3 201.8Z" fill="url(#paint3_linear)"/>
<path d="M157 73.9008V82.0008L579.9 26.4008V9.80078L157 73.9008Z" fill="url(#paint4_linear)"/>
<path d="M157 78.1992L154.9 73.6992L579.9 4.69922V15.6992L157 78.1992Z" fill="#842B31"/>
<path d="M158.7 81.8004L186.2 86.2004L579.9 40.2004V26.4004L158.7 81.8004Z" fill="#561A31"/>
<path d="M154.9 73.7V72.4L579.9 0V4.7L154.9 73.7Z" fill="#C95946"/>
<path d="M154.4 161.699L579.9 156.899V148.199L154.5 159.499L154.4 161.699Z" fill="url(#paint5_linear)"/>
<path d="M156 119.099L579.9 83.6992V78.1992L155.8 117.199L156 119.099Z" fill="url(#paint6_linear)"/>
<path opacity="0.5" d="M433 152.199L431.8 157.199H435.9V152.299L433 152.199Z" fill="#A77A9F"/>
<path opacity="0.5" d="M432.6 221.6L430.9 227.9H436.1V221.8L432.6 221.6Z" fill="#A77A9F"/>
<path opacity="0.5" d="M432 89L429.8 94L435.9 94.4V89.2L432 89Z" fill="#A77A9F"/>
<path d="M460 230.501L457.1 33.8008L442.6 36.0008L444.3 229.101L460 230.501Z" fill="#843031"/>
<path d="M460 230.5L516.3 229.7V47.6L457.2 42.5L460 230.5Z" fill="#722631"/>
<path opacity="0.3" d="M457.2 42.4992L518.6 60.2992L579.9 56.2992V40.1992L516.3 47.5992L457.2 42.4992Z" fill="black"/>
<path d="M462.2 151.299V156.899H579.9V148.199L462.2 151.299Z" fill="#933F39"/>
<path d="M579.9 87.6992L462.2 94.3992V88.9992L579.9 78.1992V87.6992Z" fill="#933F39"/>
<path opacity="0.3" d="M462.2 94.3992L516.3 104.299L579.9 102.199V87.6992L462.2 94.3992Z" fill="black"/>
<path opacity="0.3" d="M462.2 156.9L516.3 172.8L579.9 173.6V156.9H462.2Z" fill="black"/>
<path d="M451.3 236.6V320.5L579.9 347.9V248L451.3 236.6Z" fill="#792C31"/>
<path d="M579.9 262.399L462.2 249.699V311.299L579.9 331.499V262.399Z" fill="#843031"/>
<path d="M462.2 311.301L456.5 316.501L579.9 340.301V331.501L462.2 311.301Z" fill="#C95946"/>
<path d="M456.5 316.5L455.2 243L462.2 249.7V311.3L456.5 316.5Z" fill="#722631"/>
<path d="M455.2 243L579.9 253.7V263.8L462.2 249.7L455.2 243Z" fill="#561A31"/>
<path d="M579.9 248L451.3 236.6L455.2 243L579.9 254.9V248Z" fill="#A04731"/>
<path d="M445 317.5L579.9 347.9V359.3L449 328.7L445 317.5Z" fill="#943A32"/>
<path d="M579.9 365.799L449.7 331.499L449 328.699L579.9 359.299V365.799Z" fill="#722631"/>
<path d="M151.9 251L150 254.2L321.7 298.7V290.9L151.9 251Z" fill="#943A32"/>
<path d="M150 254.199V254.699L321.4 300.999L321.7 298.699L150 254.199Z" fill="#722631"/>
<path d="M158.7 207.699L314 224.499V284.299L157.1 248.299L158.7 207.699Z" fill="#792C31"/>
<path d="M312.9 229.8L160.1 211.5L159.6 246L314 277.6L312.9 229.8Z" fill="#843031"/>
<path d="M160.1 211.499L159.2 209.199L314 226.499V230.199L160.1 211.499Z" fill="#561A31"/>
<path d="M159.6 246L158 247.1L314 280.3V277.6L159.6 246Z" fill="#C95946"/>
<path opacity="0.3" d="M156.8 161.7L183.5 174.9L314 175.9V159.9L156.8 161.7Z" fill="black"/>
<path d="M156.8 161.7L182.5 167.3H314V159.9L156.8 161.7Z" fill="#561A31"/>
<path opacity="0.3" d="M156 119.1L184.1 131.8L314 126.3V105.9L156 119.1Z" fill="black"/>
<path d="M259 68.5996L263.8 77.0996V107.2L248.4 108.6V70.0996L259 68.5996Z" fill="#561A31"/>
<path d="M157.7 118.9L184.2 122.4L314 114.7V105.9L157.7 118.9Z" fill="#561A31"/>
<path d="M445 321.8L387.2 322L385.7 25.0996L442.6 35.9996L445 321.8Z" fill="#722631"/>
<path d="M362.9 320.499L314 304.799V40.1992L362.9 25.6992V320.499Z" fill="url(#paint7_linear)"/>
<path d="M442.6 36.0008L450.7 25.7008L387.8 14.3008H360.8L306.4 34.5008L314 40.2008L362.9 25.7008L385.7 25.1008L442.6 36.0008Z" fill="#842B31"/>
<path d="M385.7 25.1008L387.8 14.3008L450.7 25.7008L442.6 36.0008L385.7 25.1008Z" fill="#561A31"/>
<path d="M306.4 34.5008V32.7008L360.2 11.8008L360.8 14.3008L306.4 34.5008Z" fill="url(#paint8_linear)"/>
<path d="M314 304.801L308.6 311.101L360.9 331.401L389.7 331.501L449 328.701L442.6 317.601L387.2 320.501H362.9L314 304.801Z" fill="#EC7F46"/>
<path d="M308.6 311.1V312.8L360.9 335.3V331.4L308.6 311.1Z" fill="#842B31"/>
<path d="M387.2 320.5L389.7 332.2L449 328.7L445 317.5L387.2 320.5Z" fill="#842B31"/>
<path d="M389.7 335.299L449.7 331.499L449 328.699L389.7 332.199V335.299Z" fill="#561A31"/>
<path d="M362.9 25.6996L385.7 25.0996L387.2 320.5H362.9V25.6996Z" fill="#843031"/>
<path d="M450.7 25.7V22L389.1 11L387.8 14.3L450.7 25.7Z" fill="#8C2B31"/>
<path d="M362.9 25.7008L360.8 14.3008H387.8L385.7 25.1008L362.9 25.7008Z" fill="#722631"/>
<path d="M389.1 11L360.2 11.8L360.8 14.3H387.8L389.1 11Z" fill="url(#paint9_linear)"/>
<path d="M362.9 320.5L360.9 331.4L389.7 332.2L387.2 320.5H362.9Z" fill="#9B3431"/>
<path d="M360.9 331.4V335.3H389.7V332.2L360.9 331.4Z" fill="#722631"/>
<path d="M318.3 303.301L360.9 316.001L357.6 49.7008L347 33.8008L323.4 41.4008L318.3 58.1008V303.301Z" fill="#722631"/>
<path d="M348.5 36.0008L325.8 43.0008L320.8 58.2008L321.7 302.501L318.3 303.301V58.1008L323.4 41.4008L347 33.8008L348.5 36.0008Z" fill="#843031"/>
<path d="M360.9 316V312.5L321.7 302.5L318.3 303.3L360.9 316Z" fill="#C95946"/>
<path d="M320.9 95.4992L358.1 90.6992L358 86.1992L320.9 91.8992V95.4992Z" fill="#843031"/>
<path d="M389.7 316L440.7 313.4L437.9 56.4L429.9 40.2L398.2 34.5L389.7 48.3V316Z" fill="#561A31"/>
<path d="M389.7 313.8L436.2 311.3L435.8 57.1L427.8 41.4L397.3 36L398.2 34.5L429.9 40.2L437.9 56.4L440.7 313.4L389.7 316V313.8Z" fill="#662631"/>
<path d="M436.2 311.301L440.7 313.401L389.7 316.001V313.801L436.2 311.301Z" fill="#9B3431"/>
<path opacity="0.3" d="M403.1 304.3V45.9004L427.8 41.4004L397.3 35.9004L389.7 48.3004V304.3H403.1Z" fill="black"/>
<path d="M389.7 304.301L403.1 304.401L436.2 311.301L389.7 313.801V304.301Z" fill="#9B3431"/>
<path d="M435.9 89.2L389.7 86.5V91.4L435.9 94.4V89.2Z" fill="#722631"/>
<path d="M435.9 152.301L389.7 151.301V157.201H435.9V152.301Z" fill="#722631"/>
<path d="M436.1 221.801H389.7V227.901H436.1V221.801Z" fill="#722631"/>
<path d="M321.7 302.5H360.8L360.9 312.5L321.7 302.5Z" fill="#C95946"/>
<path opacity="0.3" d="M325.8 43L348.5 60.7L360.8 302.5L357.6 49.7L348.5 36L325.8 43Z" fill="black"/>
<path d="M358.9 151.301L321.1 152.901V157.201H358.9V151.301Z" fill="#843031"/>
<path d="M359.8 222.201L321.4 221.801V226.501L359.8 227.201V222.201Z" fill="#843031"/>
<path opacity="0.3" d="M320.9 95.4992L358.1 102.199V90.6992L320.9 95.4992Z" fill="black"/>
<path d="M408.7 109L389.7 111.5V151.3L407.4 151.7L408.7 109Z" fill="#721839"/>
<path opacity="0.3" d="M321.1 157.199L359.1 170.099L358.9 157.199H321.1Z" fill="black"/>
<path opacity="0.3" d="M321.4 226.5L360 243.6L359.8 227.2L321.4 226.5Z" fill="black"/>
<path opacity="0.3" d="M436.1 227.9L389.7 245.4V227.9H436.1Z" fill="black"/>
<path opacity="0.3" d="M435.9 157.199L389.7 170.099V157.199H435.9Z" fill="black"/>
<path opacity="0.3" d="M435.9 94.4004L389.7 104.3V91.4004L435.9 94.4004Z" fill="black"/>
<path d="M436.1 221.799L389.7 219.199V221.799H436.1Z" fill="#9B3431"/>
<path d="M389.7 50.1992L421.8 55.1992V88.3992L389.7 86.4992V50.1992Z" fill="#334A5C"/>
<path d="M435.9 152.3L407.4 151.7L408.7 109L435.9 110.2V152.3Z" fill="#BF244F"/>
<path d="M399.4 151.3L408.7 114.2L404.1 111.5L392.8 146.8L399.4 151.3Z" fill="#BF244F"/>
<path d="M389.7 172.801L415.2 173.601L416.6 220.701L389.7 220.501V172.801Z" fill="#334A5C"/>
<path d="M422.6 176.4L415.3 179.5L427.8 221.3L435.5 218.4L422.6 176.4Z" fill="#9A134F"/>
<path d="M435.5 257.199H408.7V312.499L436.2 311.299L435.5 257.199Z" fill="#9A134F"/>
<path d="M389.7 261.7L408.7 261V312.5L389.7 313.8V261.7Z" fill="#B2404C"/>
<path d="M400.4 220.5V173.1L405.8 173.6V220.7L400.4 220.5Z" fill="#A53139"/>
<path d="M404.1 111.5H389.7V148.2L392.8 146.8L404.1 111.5Z" fill="#90244F"/>
<path d="M392.8 146.801H389.7V151.301H399.4L392.8 146.801Z" fill="#6B1543"/>
<path d="M415.3 179.5L416.6 220.7L427.8 221.3L415.3 179.5Z" fill="#721839"/>
<path d="M422.5 109.6V152L430 152.2L429.8 109.9L422.5 109.6Z" fill="#90244F"/>
<path d="M408.7 260.999L389.7 257.199V261.699L408.7 260.999Z" fill="#9E2F4C"/>
<path d="M435.5 257.201L396.3 251.301H389.7V257.201L408.7 261.001V257.201H435.5Z" fill="#B32968"/>
<path d="M408.7 257.199L389.7 253.699V257.199L408.7 260.999V257.199Z" fill="#721839"/>
<path d="M408.7 260.999V312.499L410.5 257.399L408.7 257.199V260.999Z" fill="#721839"/>
<path d="M333.4 251.299L360.1 249.699L360.8 305.599H333.8L333.4 251.299Z" fill="#334A5C"/>
<path d="M321.4 221.8L321.7 174.9L341.3 173.6L343.3 222L321.4 221.8Z" fill="#33636E"/>
<path d="M341.3 173.6H358.9L359.8 222.2L343.3 222L341.3 173.6Z" fill="#334A5C"/>
<path d="M348.5 222L341.5 179.5L346.9 177L356.6 219.7L348.5 222Z" fill="#33636E"/>
<path d="M321.1 152.899L321.4 105.299L349 102.199L348.5 151.699L321.1 152.899Z" fill="#BF3B66"/>
<path d="M357.6 49.6992L331.6 56.2992L330.4 90.4992L358 86.1992L357.6 49.6992Z" fill="#33636E"/>
<path d="M323.6 58.2008V91.4008L330.4 90.5008L328.8 56.8008L323.6 58.2008Z" fill="#33636E"/>
<path d="M349 102.199H358.1L358.9 151.299L348.5 151.699L349 102.199Z" fill="#90244F"/>
<path d="M325.8 104.801L327 152.701L334.6 152.301L335.1 103.801L325.8 104.801Z" fill="#33636E"/>
<path d="M328.8 56.8008L331.5 57.9008L330.4 89.5008L328.8 56.8008Z" fill="#334A5C"/>
<path d="M321.7 249.699L333.4 251.299L333.8 305.599L321.7 302.499V249.699Z" fill="#33636E"/>
<path d="M344.5 251.2L333.7 297.3L340.7 305.7L347.3 277.6L348.5 307.5L360.9 312.5L360.1 251L344.5 251.2Z" fill="#DA722C"/>
<path d="M340.7 305.7L348.4 305.6L347.3 277.6L340.7 305.7Z" fill="#B5481B"/>
<path d="M344.5 251.2L348.5 256.1H360.2L360.1 251L344.5 251.2Z" fill="#DA9261"/>
<path d="M405.7 52.6992L407.4 87.5992L412.8 87.8992V53.7992L405.7 52.6992Z" fill="#B2404C"/>
<path d="M422.5 257.399V311.899L436.2 311.299L435.5 257.199L422.5 257.399Z" fill="#B2404C"/>
<path d="M321.7 249.7L360.1 248V249.7L333.4 251.3L321.7 249.7Z" fill="#456B7D"/>
<path d="M360.1 248.301L328 249.701L333.7 250.701L360.1 249.301V248.301Z" fill="#DA9261"/>
<path d="M321.7 174.9L326.8 174.6L328 221.8H321.4L321.7 174.9Z" fill="#DA722C"/>
<path d="M345.7 52.6992L353.7 50.6992V86.8992L347.4 87.7992L345.7 52.6992Z" fill="#DA722C"/>
<path d="M321.6 188.5V196.3H327.2L327 188.5H321.6Z" fill="#FF932C"/>
<path d="M327.6 207.1L342.6 206.5L343.1 216.8H327.9L327.6 207.1Z" fill="#FF932C"/>
<path d="M343.4 190.799L344 194.899L350.5 192.999L349.8 189.699L343.4 190.799Z" fill="#FF932C"/>
<path d="M326.7 142.301L326.9 149.001L334.7 148.201V142.301H326.7Z" fill="#FF932C"/>
<path d="M335.1 112.4L349 111L348.9 117.6L334.9 118.8L335.1 112.4Z" fill="#FF932C"/>
<path d="M401.6 119.1L400.4 122.9L405.8 126L406.8 121.9L401.6 119.1Z" fill="#E35448"/>
<path d="M407.6 144.9L422.5 145.7V150.4L407.4 149L407.6 144.9Z" fill="#E35448"/>
<path d="M430 116.9H422.5V120.2H430V116.9Z" fill="#E35448"/>
<path d="M424.9 211.699L427.1 219.199L434.6 215.399L432.7 209.199L424.9 211.699Z" fill="#E35448"/>
<path d="M412.8 61.1992L421.8 62.7992L421.6 69.2992L412.8 67.6992V61.1992Z" fill="#E35448"/>
<path d="M407.1 80.9L389.7 79.5V83.5L407.1 84.7V80.9Z" fill="#E35448"/>
<path d="M335.1 291.599L336.2 286.699L343.6 293.299L342.4 298.699L335.1 291.599Z" fill="#FF932C"/>
<path d="M321.7 259.4V268.9L333.5 271.4L333.4 260.9L321.7 259.4Z" fill="#FF932C"/>
<path d="M323.6 70.1008V73.7008L329.5 71.9008L329.4 69.3008L323.6 70.1008Z" fill="#FF932C"/>
<path d="M330.7 81.9992L347 78.6992L347.4 87.7992L330.4 90.4992L330.7 81.9992Z" fill="#FF932C"/>
<path d="M345.9 56.9004L346.1 60.9004L353.7 58.9004V55.9004L345.9 56.9004Z" fill="#FF932C"/>
<path d="M348.4 263.199V269.499L360.4 270.199L360.3 263.399L348.4 263.199Z" fill="#FF932C"/>
<path d="M540.4 104.301L545.2 106.001L540.4 106.301V104.301Z" fill="#B5481B"/>
<path opacity="0.3" d="M498.1 344.199L467.1 19.1992L450.7 21.9992L436.1 31.5992L445 328.999L498.1 344.199Z" fill="black"/>
<path d="M533.1 50.1992L537.7 52.8992L533.1 53.3992V50.1992Z" fill="#334A5C"/>
<path d="M546.9 105.9L567.9 107.4V148.5L546.9 149V105.9Z" fill="#334A5C"/>
<path d="M467.1 151.2V111L546.9 105.9V149L467.1 151.2Z" fill="#33636E"/>
<path d="M567.9 148.5L579.9 148.2V105.9H567.9V148.5Z" fill="#9A134F"/>
<path d="M486.7 150.601V105.901L509.7 104.301L508.8 150.001L486.7 150.601Z" fill="#9A134F"/>
<path d="M509.7 104.301L529.4 105.301V107.001L512.9 108.101L511.9 149.901L508.8 150.001L509.7 104.301Z" fill="#721839"/>
<path d="M534.7 149.401L535.1 104.301H540.4L540.8 149.201L534.7 149.401Z" fill="#DA722C"/>
<path d="M540.4 106.301L540.8 149.201L542.8 149.001L542.2 106.201L540.4 106.301Z" fill="#B5481B"/>
<path d="M552.5 111.5L567.9 112.7V148.5L557.8 148.2L552.5 111.5Z" fill="#B5481B"/>
<path d="M557.8 148.2L546.9 114.2L552.5 111.5L565 145.3L557.8 148.2Z" fill="#DA722C"/>
<path d="M522.2 149.602L521 107.602H522.2L522.9 149.602H522.2Z" fill="#334A5C"/>
<path d="M498.1 150.3H501.1V104.9H498.1V150.3Z" fill="#721839"/>
<path d="M478.9 110.301L479.6 150.801L486.7 150.601V110.301H478.9Z" fill="#334A5C"/>
<path d="M467.1 126.9L479.2 126L479.4 135.7H467.1V126.9Z" fill="#FF932C"/>
<path d="M555 139.5L562.1 137.4L563.8 141.9L556.4 143.6L555 139.5Z" fill="#FF932C"/>
<path d="M535 114.802H540.4V108.102L535.1 108.602L535 114.802Z" fill="#FF932C"/>
<path d="M509 137.4H501.1V145.8H508.9L509 137.4Z" fill="#FF932C"/>
<path d="M579.9 110.201H567.9V115.501H579.9V110.201Z" fill="#FF932C"/>
<path d="M232.2 130.9L245.3 131.9V157.4L232.2 157.8V130.9Z" fill="#334A5C"/>
<path d="M182.5 159.1V134.1L232.2 130.9V157.8L182.5 159.1Z" fill="#33636E"/>
<path d="M245.3 157.4L252.7 157.2V130.9H245.3V157.4Z" fill="#9A134F"/>
<path d="M194.8 158.8V130.9L209 129.9L208.5 158.4L194.8 158.8Z" fill="#9A134F"/>
<path d="M209 129.9L221.3 130.5V131.6L211 132.3L210.4 158.3L208.5 158.4L209 129.9Z" fill="#721839"/>
<path d="M224.6 158L224.9 129.9H228.1L228.4 157.9L224.6 158Z" fill="#DA722C"/>
<path d="M228.1 131.2L228.4 157.9L229.6 157.8L229.3 131.1L228.1 131.2Z" fill="#B5481B"/>
<path d="M235.7 134.4L245.3 135.1V157.4L239.1 157.7L235.7 134.4Z" fill="#B5481B"/>
<path d="M239.1 157.7L232.2 136L235.7 134.4L243.6 155.8L239.1 157.7Z" fill="#DA722C"/>
<path d="M216.8 158.1L216.1 131.9H216.8L217.2 158.1H216.8Z" fill="#334A5C"/>
<path d="M201.8 158.601L203.7 158.501V130.301H201.8V158.601Z" fill="#721839"/>
<path d="M189.9 133.6L190.3 158.9L194.8 158.8V133.6H189.9Z" fill="#334A5C"/>
<path d="M182.5 143.9L190.1 143.4L190.2 149.4H182.5V143.9Z" fill="#FF932C"/>
<path d="M237.3 151.8L241.6 150.5L242.7 153.3L238.1 154.4L237.3 151.8Z" fill="#FF932C"/>
<path d="M224.8 136.501H228.1V132.301L224.8 132.601V136.501Z" fill="#FF932C"/>
<path d="M208.6 150.5H203.7V155.8H208.5L208.6 150.5Z" fill="#FF932C"/>
<path d="M252.8 133.6H245.3V136.9H252.8V133.6Z" fill="#FF932C"/>
<path d="M182.5 136.501L179.2 134.701L168.3 156.801L172.2 159.101L182.5 136.501Z" fill="#33636E"/>
<path d="M172.2 159.1H182.5V136.5L172.2 159.1Z" fill="#334A5C"/>
<path d="M169.8 153.9L173.7 155.8L175.5 151.8L171.7 150L169.8 153.9Z" fill="#FF932C"/>
<path d="M303.4 129.199L314.1 130.299V155.699L303.4 155.999V129.199Z" fill="#334A5C"/>
<path d="M253.8 157.399V132.399L303.4 129.199V155.999L253.8 157.399Z" fill="#33636E"/>
<path d="M266 156.999V129.199L280.3 128.199L279.7 156.699L266 156.999Z" fill="#9A134F"/>
<path d="M280.3 128.199L292.5 128.799V129.899L282.3 130.499L281.7 156.599L279.7 156.699L280.3 128.199Z" fill="#721839"/>
<path d="M295.8 156.199L296.1 128.199H299.4L299.6 156.099L295.8 156.199Z" fill="#DA722C"/>
<path d="M299.4 129.398L299.6 156.098L300.9 155.998L300.5 129.398H299.4Z" fill="#B5481B"/>
<path d="M288.1 156.399L287.4 130.199H288.1L288.5 156.399H288.1Z" fill="#334A5C"/>
<path d="M273.1 156.8H274.9V128.6H273.1V156.8Z" fill="#721839"/>
<path d="M261.1 131.9L261.6 157.1L266 157V131.6L261.1 131.9Z" fill="#334A5C"/>
<path d="M253.8 142.199L261.3 141.699L261.4 147.699H253.8V142.199Z" fill="#FF932C"/>
<path d="M296 134.7H299.4V130.5L296.1 130.8L296 134.7Z" fill="#FF932C"/>
<path d="M467.1 230.2V187.5H579.9V238.7L467.1 230.2Z" fill="#B2404C"/>
<path d="M494.2 185.199V232.199L534.7 235.299L533.4 185.499L494.2 185.199Z" fill="#33636E"/>
<path d="M567.9 185.199L569.9 237.899L579.9 238.699V185.199H567.9Z" fill="#9A134F"/>
<path d="M534.7 235.299V187.499H553.1V185.199L533.4 185.499L534.7 235.299Z" fill="#334A5C"/>
<path d="M476.4 187.5V230.9L489.1 231.8L487.8 187.5H476.4Z" fill="#A53139"/>
<path d="M558.1 237V187.5H568L569.9 237.9L558.1 237Z" fill="#DA722C"/>
<path d="M549.7 187.5V236.4L544.3 236L544.1 187.5H549.7Z" fill="#9A134F"/>
<path d="M507 185.199V228.999L507.8 185.199H507Z" fill="#334A5C"/>
<path d="M521 234.199L521.4 185.199L522.2 234.299L521 234.199Z" fill="#334A5C"/>
<path d="M507 185.199L507.4 233.199L522.2 234.299L521.4 185.199H507Z" fill="#9A134F"/>
<path d="M507.4 231L522.2 231.8L522.1 225L507.4 224.5V231Z" fill="#FF932C"/>
<path d="M549.7 194.5H544.1L544.2 198.9H549.7V194.5Z" fill="#FF932C"/>
<path d="M476.4 196.699V200.399L488.2 201.799V196.699H476.4Z" fill="#FF932C"/>
<path d="M579.9 195.699H568.3L568.4 198.899L579.9 199.299V195.699Z" fill="#FF932C"/>
<path d="M507 200.1H494.2V202.5H507V200.1Z" fill="#FF932C"/>
<path d="M534.7 227.898L544.3 228.198V233.698L534.7 233.198V227.898Z" fill="#FF932C"/>
<path d="M218.9 205.599V175.299H299.1V211.599L218.9 205.599Z" fill="#B2404C"/>
<path d="M290.6 173.6L292 211.1L299.1 211.6V173.6H290.6Z" fill="#9A134F"/>
<path d="M283.6 210.399V175.299H290.6L292 211.099L283.6 210.399Z" fill="#33636E"/>
<path d="M277.6 175.299V209.999L273.8 209.699L273.7 175.299H277.6Z" fill="#9A134F"/>
<path d="M277.6 180.199H273.7V183.299H277.6V180.199Z" fill="#FF932C"/>
<path d="M179.2 203.4V175.9H252.1V208.9L179.2 203.4Z" fill="#B2404C"/>
<path d="M196.7 174.4V204.8L222.9 206.7L222.1 174.6L196.7 174.4Z" fill="#33636E"/>
<path d="M222.9 206.7V175.9H234.8V174.4L222.1 174.6L222.9 206.7Z" fill="#334A5C"/>
<path d="M185.3 175.9V203.9L193.5 204.5L192.6 175.9H185.3Z" fill="#A53139"/>
<path d="M238 207.9V175.9H244.4L245.7 208.4L238 207.9Z" fill="#DA722C"/>
<path d="M232.6 175.9V207.5L229.1 207.2L229 175.9H232.6Z" fill="#9A134F"/>
<path d="M205 174.4V202.7L205.6 174.4H205Z" fill="#334A5C"/>
<path d="M214.1 206.1L214.3 174.4L214.9 206.1H214.1Z" fill="#334A5C"/>
<path d="M205 174.4L205.3 205.4L214.9 206.1L214.3 174.4H205Z" fill="#9A134F"/>
<path d="M205.3 203.999L214.9 204.499L214.8 200.099L205.3 199.799V203.999Z" fill="#FF932C"/>
<path d="M232.6 180.4H229V183.2H232.6V180.4Z" fill="#FF932C"/>
<path d="M185.3 181.9V184.2L192.9 185.1V181.9H185.3Z" fill="#FF932C"/>
<path d="M205 184H196.7V185.6H205V184Z" fill="#FF932C"/>
<path d="M292.7 177.5V211.4L314 213V177.6L292.7 177.5Z" fill="#33636E"/>
<path d="M222.9 202L229.1 202.1V205.7L222.9 205.4V202Z" fill="#FF932C"/>
<path d="M302 177.5L302.2 212.1L308.7 212.5L308.5 177.6L302 177.5Z" fill="#9A134F"/>
<path d="M262.2 175.299L263.6 208.899L270.6 209.499L269.8 175.299H262.2Z" fill="#33636E"/>
<path d="M579.9 48.5L467.1 60.3V88.6L579.9 78.2V48.5Z" fill="#DA722C"/>
<path d="M557.4 48.3004V80.2004L579.9 78.2004V45.9004L557.4 48.3004Z" fill="#9A134F"/>
<path d="M478.9 87.5008V56.8008L499.6 53.8008V85.6008L478.9 87.5008Z" fill="#33636E"/>
<path d="M499.6 53.8008L509.7 55.9008L501.1 56.8008L499.6 85.6008V53.8008Z" fill="#334A5C"/>
<path d="M529.4 82.8012V50.8012L533.1 50.2012V82.5012L529.4 82.8012Z" fill="#33636E"/>
<path d="M541.6 52.5004V81.7004L557.4 80.2004V50.9004L541.6 52.5004Z" fill="#B2404C"/>
<path d="M514.4 84.2004V55.4004L519.1 54.9004V83.8004L514.4 84.2004Z" fill="#9A134F"/>
<path d="M507 84.8996V56.0996L501.1 56.7996L499.6 85.5996L507 84.8996Z" fill="#B2404C"/>
<path d="M478.9 81.7012L499.6 80.2012V82.8012L478.9 84.2012V81.7012Z" fill="#FF932C"/>
<path d="M557.4 53.4004L579.9 50.9004V53.4004L557.4 54.9004V53.4004Z" fill="#FF932C"/>
<path d="M507 61.2008L514.4 60.3008V62.3008L507 63.1008V61.2008Z" fill="#FF932C"/>
<path d="M529.4 78.2004V80.2004H533.1V77.4004L529.4 78.2004Z" fill="#FF932C"/>
<path d="M541.6 58.2008L557.4 56.8008V58.8008L541.6 60.3008V58.2008Z" fill="#FF932C"/>
<path d="M467.1 63.2012L478.9 62.2012V64.6012L467.1 65.4012V63.2012Z" fill="#FF932C"/>
<path d="M314 79.8008L227.4 88.9008V110.601L314 102.601V79.8008Z" fill="#DA722C"/>
<path d="M296.7 79.7008V104.201L314 102.601V77.8008L296.7 79.7008Z" fill="#9A134F"/>
<path d="M236.5 109.8V86.2004L252.4 83.9004V108.2L236.5 109.8Z" fill="#33636E"/>
<path d="M252.4 83.9004L260.1 85.5004L253.5 86.2004L252.4 108.2V83.9004Z" fill="#334A5C"/>
<path d="M275.2 106.101V81.6012L278.1 81.2012V105.901L275.2 106.101Z" fill="#33636E"/>
<path d="M284.6 82.9016V105.302L296.7 104.202V81.6016L284.6 82.9016Z" fill="#B2404C"/>
<path d="M263.8 107.201V85.1012L267.3 84.7012V106.901L263.8 107.201Z" fill="#9A134F"/>
<path d="M258.1 107.701V85.7012L253.5 86.2012L252.4 108.201L258.1 107.701Z" fill="#B2404C"/>
<path d="M296.7 83.6016L314 81.6016V83.6016L296.7 84.7016V83.6016Z" fill="#FF932C"/>
<path d="M258.1 89.5004L263.8 88.9004V90.4004L258.1 91.0004V89.5004Z" fill="#FF932C"/>
<path d="M275.2 102.6V104.2H278.1V102L275.2 102.6Z" fill="#FF932C"/>
<path d="M284.6 87.3012L296.7 86.2012V87.7012L284.6 88.9012V87.3012Z" fill="#FF932C"/>
<path d="M227.4 91.1008L236.5 90.3008V92.2008L227.4 92.8008V91.1008Z" fill="#FF932C"/>
<path d="M243.6 85.2V109.1L248.4 108.6V84.5L243.6 85.2Z" fill="#9A134F"/>
<path d="M227.4 89.9004L165.6 96.8004L164.5 116.4L227.4 110.6V89.9004Z" fill="#9A134F"/>
<path d="M189.9 114.001L190.2 92.8008L172.6 95.0008L172.2 115.701L189.9 114.001Z" fill="#DA722C"/>
<path d="M190.2 92.8008L195.7 93.5008L192.3 93.8008L191.8 113.901L189.9 114.001L190.2 92.8008Z" fill="#B2404C"/>
<path d="M199.8 93V113.1L216.1 111.6L216.7 91L199.8 93Z" fill="#33636E"/>
<path d="M177.3 94.4012V115.201L184 114.501V93.7012L177.3 94.4012Z" fill="#33636E"/>
<path d="M216.2 107.202L227.4 106.102V108.202L216.2 109.102V107.202Z" fill="#FF932C"/>
<path d="M177.3 98.6004V102.1L184 101.5V97.9004L177.3 98.6004Z" fill="#FF932C"/>
<path d="M204.2 92.5L204.8 112.7L199.8 113.1V93L204.2 92.5Z" fill="#DA722C"/>
<path d="M199.8 110.602L204.7 110.202L204.6 107.602L199.8 108.202V110.602Z" fill="#FF932C"/>
<path d="M204.3 95.2012L216.6 93.7012V94.9012L204.3 96.0012V95.2012Z" fill="#FF932C"/>
<path d="M226 276.401L230.8 65.1008L246 62.8008L244.4 280.801L226 276.401Z" fill="url(#paint10_linear)"/>
<path d="M246 62.8008L248.2 64.2008L248.1 281.201L244.4 280.801L246 62.8008Z" fill="#722631"/>
<path d="M239.6 279.6H234.8L238.7 61.5L241.7 63.5L239.6 279.6Z" fill="#722631"/>
<path d="M238.7 61.5L236 64.3L233.1 278.1L234.8 279.6L238.7 61.5Z" fill="url(#paint11_linear)"/>
<path d="M248.1 210.7L263.6 208.9L262.2 174.6L252.5 175.5L266 175.3L266.4 167.3L248.2 160.6L248.1 210.7Z" fill="#561A31"/>
<path d="M248.1 157.401L248.2 111.301L265.5 117.601L265.2 131.601L253.8 132.401V157.401H248.1Z" fill="#561A31"/>
</g>
<g clip-path="url(#clip1)">
<path d="M5.33271 448.357L0 462.702L5.11505 462.811L30.4726 448.575L5.33271 448.357Z" fill="#150923"/>
<path d="M334.328 448.792L339.226 463.354L334.111 463.245L303.312 448.031L334.328 448.792Z" fill="#150923"/>
<path d="M336.614 443.251C336.614 443.251 349.565 369.463 327.145 317.627C327.145 317.627 244.978 297.523 148.336 310.563L158.458 434.339L336.614 443.251Z" fill="#E0F3FF"/>
<path d="M5.33276 448.358L335.199 451.509C335.199 451.509 341.076 409.236 327.363 372.071L21.2221 368.811C21.2221 368.811 17.1953 378.7 13.2774 394.022C9.46834 408.475 5.65926 427.927 5.33276 448.358Z" fill="url(#paint12_linear)"/>
<path d="M21.3308 368.703L54.6331 363.812L324.425 367.181L327.472 372.071L21.3308 368.703Z" fill="#86A0BF"/>
<path d="M305.815 366.855C305.815 366.855 309.841 332.08 300.373 312.411C300.373 312.411 229.742 290.025 90.8737 306.977C90.8737 306.977 55.286 334.797 54.6331 363.812L305.815 366.855Z" fill="url(#paint13_linear)"/>
<path opacity="0.5" d="M285.028 366.529C285.028 366.529 265.438 336.101 259.997 306.542C259.997 306.542 202.316 287.525 120.693 304.26C120.693 304.26 113.402 341.426 82.0583 364.247L285.028 366.529Z" fill="url(#paint14_linear)"/>
<path d="M260.106 306.543C260.106 306.543 264.024 341.318 271.315 363.486C271.315 363.486 109.048 366.095 90.4384 357.51L82.1672 364.247L285.028 366.638C285.028 366.529 270.118 347.838 260.106 306.543Z" fill="url(#paint15_linear)"/>
<path opacity="0.5" d="M225.497 300.022C225.497 300.022 162.593 293.175 123.632 308.172C123.632 308.172 121.455 336.861 95.0093 352.836C95.0093 352.836 113.075 336.318 120.911 304.26C120.802 304.26 170.864 293.284 225.497 300.022Z" fill="url(#paint16_linear)"/>
<path opacity="0.3" d="M5.33276 448.357L335.199 451.509C335.199 451.509 341.076 409.236 327.363 372.07C327.363 372.07 336.396 427.818 321.378 444.88C321.378 444.88 205.473 446.945 20.0249 440.316C20.0249 440.316 13.9304 422.059 13.1686 394.022C9.46834 408.475 5.65926 427.927 5.33276 448.357Z" fill="url(#paint17_linear)"/>
<path opacity="0.5" d="M310.277 371.745C310.277 371.745 44.4029 372.397 15.5627 385.981L21.3308 368.811L310.277 371.745Z" fill="url(#paint18_linear)"/>
<path opacity="0.5" d="M159.546 370.441C159.546 370.441 152.69 424.233 164.008 445.532L102.954 447.706C102.954 447.706 73.2431 417.495 59.3127 368.811L159.546 370.441Z" fill="url(#paint19_linear)"/>
<path d="M21.3308 368.702L42.0087 368.919C42.0087 368.919 48.865 353.705 62.1424 337.296C65.8426 332.732 70.087 328.059 74.7667 323.603L59.8569 323.277C59.8569 323.277 44.2941 332.732 32.4316 347.946C27.7518 354.031 23.6163 361.095 21.3308 368.702Z" fill="url(#paint20_linear)"/>
<path opacity="0.5" d="M32.4316 347.946C41.8999 341.86 54.4155 342.186 54.4155 342.186L62.1425 337.296C65.8427 332.732 70.0871 328.059 74.7668 323.603L59.857 323.277C59.857 323.277 44.2942 332.84 32.4316 347.946Z" fill="url(#paint21_linear)"/>
<path d="M42.0088 368.919L69.8695 364.138C69.8695 364.138 65.2986 345.99 74.8757 323.604C74.7669 323.604 48.7563 338.057 42.0088 368.919Z" fill="url(#paint22_linear)"/>
<path d="M303.094 371.635L327.472 372.07C327.472 372.07 328.887 362.072 326.601 348.706C325.622 342.946 323.989 336.534 321.16 330.014L304.726 329.797C304.726 329.797 305.053 343.163 304.073 359.355C303.856 363.268 303.529 367.397 303.094 371.635Z" fill="url(#paint23_linear)"/>
<path opacity="0.5" d="M304.073 359.247L304.291 361.747C304.291 361.747 304.835 351.966 306.576 350.336C308.427 348.706 326.493 348.706 326.493 348.706C325.513 342.947 323.881 336.535 321.051 330.015L304.618 329.798C304.726 329.689 305.053 343.055 304.073 359.247Z" fill="url(#paint24_linear)"/>
<path d="M303.094 371.635L301.788 366.854L304.726 329.797C304.726 329.689 305.924 355.661 303.094 371.635Z" fill="url(#paint25_linear)"/>
<path d="M335.308 451.4L5.33266 448.357L3.7002 452.813L335.199 453.682L335.308 451.4Z" fill="#150923"/>
<path opacity="0.5" d="M304.509 353.597L303.094 368.376C303.094 368.376 284.593 373.81 274.798 373.81C265.003 373.81 204.058 370.549 204.058 370.549C204.058 370.549 198.616 377.07 195.351 382.503C192.086 387.937 184.468 400.977 184.468 400.977L194.263 412.931C194.263 412.931 185.012 422.385 181.421 427.493C177.938 432.492 171.409 443.359 171.409 443.359L153.125 430.644L175.762 416.191V397.717L184.142 369.354L208.411 353.162L252.379 360.986L282.416 366.203L304.509 353.597Z" fill="url(#paint26_linear)"/>
<path d="M291.231 263.292C291.231 263.292 293.081 262.748 295.802 261.77C295.802 261.77 289.708 247.1 294.932 242.209C294.932 242.209 295.04 256.663 295.802 261.77L297.87 261.227L297.652 248.512C297.652 248.512 298.305 258.293 298.632 260.14C298.632 260.14 330.737 259.814 336.07 261.661C341.402 263.509 347.17 249.382 347.17 249.382L340.423 223.518L320.833 209.717C320.833 209.717 303.747 219.606 300.373 227.213C296.999 234.82 293.843 240.036 293.843 240.036C293.843 240.036 289.817 258.075 291.231 263.292Z" fill="#23328D"/>
<path d="M318.33 261.879C318.33 261.879 314.63 268.291 308.971 271.877C304.618 274.594 299.502 277.202 294.714 278.071L294.605 272.638C294.605 272.529 294.714 272.312 294.823 271.986C295.149 271.008 295.911 269.16 296.782 267.313C297.108 266.661 297.435 266.009 297.761 265.357C298.197 264.487 298.632 263.835 299.067 263.183C299.394 262.749 299.72 262.423 299.938 262.205C299.938 262.205 300.591 262.097 301.461 261.879C303.203 261.553 305.706 261.01 305.924 260.792C306.25 260.466 307.338 257.858 307.338 257.858L307.882 257.532L320.289 250.469C320.289 250.469 318.004 255.033 316.915 257.206C316.589 257.858 316.371 258.402 316.371 258.402C316.807 258.728 318.33 261.879 318.33 261.879Z" fill="url(#paint27_linear)"/>
<path d="M306.685 259.924C306.685 259.924 314.956 260.25 317.568 256.772L320.616 250.578L307.012 257.75L306.685 259.924Z" fill="#D35950"/>
<path d="M247.917 283.722C247.917 283.722 245.631 281.657 243.89 280.788C241.822 279.701 240.19 279.049 240.19 279.049L238.557 280.57C238.557 280.57 240.19 281.44 240.952 282.526C241.496 283.178 240.625 284.048 240.625 284.048C240.625 284.048 239.428 284.482 237.904 284.374C236.381 284.374 234.095 284.482 234.095 284.482C234.095 284.482 235.619 288.938 236.054 292.741C236.163 293.611 238.557 293.611 240.081 293.393C241.496 293.176 248.896 289.807 248.896 289.807L250.311 291.763L252.27 287.742L250.202 286.221L247.917 283.722Z" fill="url(#paint28_linear)"/>
<path d="M246.067 282.2L242.257 283.612C242.257 283.612 243.019 286.547 244.325 287.633C244.325 287.633 241.169 286.221 240.407 283.938L245.631 281.982L246.067 282.2Z" fill="url(#paint29_linear)"/>
<path d="M251.29 243.405L242.366 223.301L218.423 242.862L224.518 245.687L251.29 243.405Z" fill="url(#paint30_linear)"/>
<path d="M247.917 227.864L251.29 243.404L226.259 243.73L226.151 241.774L240.734 230.364L244.761 225.908L247.917 227.864Z" fill="#BAD7E2"/>
<path d="M269.356 272.854L237.033 285.134L224.518 245.469L257.82 232.537L269.356 272.854Z" fill="url(#paint31_linear)"/>
<path d="M218.423 242.861L224.518 245.469L237.034 285.134L231.592 282.852L218.423 242.861Z" fill="url(#paint32_linear)"/>
<path d="M226.368 244.817L221.906 242.861L244.76 225.908L242.04 229.168L246.502 226.995L247.917 227.864L226.695 242.209L252.923 230.907L255.535 233.515L226.368 244.817Z" fill="#E0F3FF"/>
<path d="M254.555 236.885L228.109 246.122L238.448 280.57L264.568 271.985L254.555 236.885ZM230.395 247.426L253.576 238.623L262.391 268.834L238.884 276.115L230.395 247.426Z" fill="#E0F3FF"/>
<path d="M238.666 284.591C238.666 284.591 240.843 290.025 240.19 291.655C239.646 293.394 236.054 292.959 236.054 292.959L234.639 289.264L232.354 287.743L233.551 283.939C233.66 283.939 237.904 284.591 238.666 284.591Z" fill="url(#paint33_linear)"/>
<path d="M233.333 285.46C233.333 285.46 231.592 284.591 231.048 283.939C230.504 283.287 228.871 278.831 229.415 278.397C229.96 277.962 230.939 279.483 231.592 280.461C231.919 281.005 232.354 282.2 232.789 282.635C233.224 282.961 237.142 284.482 237.142 284.482C237.142 284.482 234.313 285.678 233.333 285.46Z" fill="url(#paint34_linear)"/>
<path d="M241.278 293.067C241.278 293.067 237.687 294.479 235.619 293.393C234.204 292.632 234.966 291.436 234.966 291.436C234.966 291.436 233.225 291.545 232.572 290.676C231.919 289.806 232.898 288.611 232.898 288.611C232.898 288.611 231.919 287.959 231.919 287.09C231.919 286.22 232.463 285.786 232.463 285.786L233.225 285.46C233.225 285.46 237.034 284.047 237.578 284.047C238.122 284.047 238.557 284.808 238.122 285.46C237.578 286.438 236.707 286.546 234.857 287.524C234.857 287.524 237.251 286.438 237.795 286.546C238.448 286.764 238.122 288.068 237.578 288.611C237.142 289.046 236.598 289.589 236.598 289.589C236.598 289.589 238.231 289.154 238.448 289.372C238.666 289.589 238.666 290.35 238.231 290.893C238.013 291.219 236.054 292.958 236.054 292.958C236.054 292.958 238.448 294.045 241.278 293.067Z" fill="url(#paint35_linear)"/>
<path d="M233.116 291.111C233.116 291.111 234.748 290.677 236.707 289.59C236.707 289.59 235.292 291.22 234.966 291.437C235.075 291.329 233.66 291.546 233.116 291.111Z" fill="url(#paint36_linear)"/>
<path d="M232.463 288.285L234.639 287.416L232.898 288.611L232.463 288.285Z" fill="url(#paint37_linear)"/>
<path d="M337.267 229.711C337.049 231.667 336.614 234.384 335.743 237.21C334.655 240.904 332.914 245.034 330.302 248.403C329.975 248.837 329.649 249.272 329.213 249.707C328.56 250.467 327.798 251.228 326.928 251.989C326.275 252.532 325.513 253.076 324.86 253.51C316.262 258.835 308.753 259.161 307.229 258.183C306.794 257.857 306.141 256.77 305.162 255.14C304.4 253.836 302.223 251.228 300.917 248.511C300.591 247.859 300.373 247.099 300.155 246.447C300.047 246.121 300.047 245.686 300.047 245.251C299.938 243.078 300.482 240.252 301.026 237.427C301.026 237.21 301.135 237.101 301.135 236.884C301.135 236.884 301.135 236.775 301.135 236.666C301.135 236.558 301.135 236.558 301.135 236.558C301.135 236.449 301.244 236.232 301.244 236.014C301.461 235.036 301.57 234.058 301.679 233.189C301.788 232.537 301.788 231.776 301.897 231.015C301.897 230.146 302.006 229.168 302.006 228.19C302.114 225.038 302.55 221.67 304.182 218.301C305.815 215.041 308.644 213.085 310.821 211.889C312.671 210.911 314.086 210.585 314.086 210.585C315.174 210.477 316.262 210.368 317.242 210.259H317.351C326.928 209.933 334.002 214.932 336.396 222.213C337.158 224.604 337.484 227.103 337.267 229.711Z" fill="url(#paint38_linear)"/>
<path opacity="0.91" d="M326.819 252.097C326.166 252.64 325.404 253.183 324.751 253.618C316.153 258.943 308.644 259.269 307.121 258.291C306.685 257.965 306.032 256.878 305.053 255.248C304.291 253.944 302.114 251.336 300.808 248.619C300.808 248.619 302.985 251.988 304.835 254.487C306.903 257.421 306.576 257.639 307.882 257.856C311.909 258.617 320.071 256.878 326.819 252.097Z" fill="url(#paint39_linear)"/>
<path d="M304.509 228.082C304.509 228.082 306.468 231.668 306.794 235.906C306.794 235.906 306.577 230.038 305.924 228.517L304.509 228.082Z" fill="#C44B4D"/>
<path d="M301.461 236.667C301.461 236.667 302.332 228.734 304.291 229.821C306.25 230.799 306.141 237.645 306.141 237.645C306.141 237.645 302.441 237.319 301.461 236.667Z" fill="#F78B7B"/>
<path d="M305.597 237.319C305.597 237.319 306.577 232.646 304.509 229.93C304.509 229.93 306.685 232.212 306.359 237.537L305.597 237.319Z" fill="#C44B4D"/>
<path d="M299.394 235.58C299.394 235.58 300.155 236.667 301.788 237.427C303.42 238.188 306.359 237.753 306.359 237.753L306.468 237.21C306.468 237.21 304.291 237.319 302.223 236.884C300.482 236.449 299.394 235.58 299.394 235.58Z" fill="#131163"/>
<path d="M316.045 238.948C316.045 238.948 318.221 230.689 322.139 231.233C326.057 231.776 326.275 240.144 326.275 240.144C326.275 240.144 319.963 241.556 316.045 238.948Z" fill="#F78B7B"/>
<path d="M327.037 239.926C327.037 239.926 326.819 233.623 323.445 231.885C323.445 231.885 325.84 233.406 325.948 240.252L327.037 239.926Z" fill="#C44B4D"/>
<path d="M314.086 237.971C314.086 237.971 315.392 239.709 319.854 240.687C324.751 241.883 327.472 239.818 327.472 239.818C327.472 239.818 324.969 240.361 321.269 239.927C317.568 239.383 314.086 237.971 314.086 237.971Z" fill="#131163"/>
<path d="M302.114 241.23C302.114 241.23 302.876 241.774 305.053 242.1C307.229 242.426 309.406 241.991 309.406 241.991C309.406 241.991 309.297 243.078 308.535 243.187C307.774 243.295 306.685 243.513 306.359 243.513C306.032 243.513 305.706 244.273 305.706 244.273C305.706 244.273 303.203 243.187 302.55 242.643C301.897 241.991 302.114 241.23 302.114 241.23Z" fill="url(#paint40_linear)"/>
<path d="M306.032 243.513C305.162 242.318 307.665 242.644 308.535 243.078L306.032 243.513Z" fill="#C8484A"/>
<path d="M306.141 244.491C306.141 244.491 303.529 243.948 302.332 242.752C301.026 241.666 301.353 240.796 301.57 240.688C301.788 240.579 302.985 239.601 305.053 239.71C305.053 239.71 303.312 239.818 302.114 240.688C302.114 240.688 302.114 241.557 302.876 242.426C303.638 243.404 306.141 244.491 306.141 244.491Z" fill="#C44B4D"/>
<path opacity="0.5" d="M308.133 241.653C308.174 241.355 307.532 241.021 306.698 240.905C305.865 240.789 305.156 240.936 305.114 241.233C305.073 241.531 305.715 241.865 306.548 241.981C307.382 242.097 308.091 241.95 308.133 241.653Z" fill="#FFFFD8"/>
<path opacity="0.5" d="M324.609 243.711C324.626 243.592 324.35 243.455 323.993 243.405C323.635 243.356 323.332 243.412 323.316 243.531C323.299 243.65 323.575 243.786 323.933 243.836C324.29 243.886 324.593 243.829 324.609 243.711Z" fill="#FFFFD8"/>
<path opacity="0.6" fill-rule="evenodd" clip-rule="evenodd" d="M305.706 250.902C305.706 250.902 306.794 251.989 308.318 252.532C309.841 253.076 311.692 252.858 312.998 252.315L311.256 251.772L305.706 250.902Z" fill="url(#paint41_linear)"/>
<path d="M305.706 248.295L305.162 247.752C305.162 247.752 304.835 247.861 304.944 248.295H305.706Z" fill="#594F87"/>
<path d="M313.433 250.142C313.433 250.142 311.909 251.772 310.277 251.99C308.644 252.207 305.271 251.12 305.162 250.468C304.944 249.925 305.379 248.621 305.379 248.512C305.379 248.404 305.379 248.404 305.379 248.404V248.295C305.379 248.295 305.379 248.295 305.488 248.295H305.597H306.032C306.032 248.295 306.032 248.295 306.141 248.295C306.685 248.404 309.515 248.838 310.821 249.273C312.236 249.708 313.433 250.142 313.433 250.142Z" fill="url(#paint42_linear)"/>
<path d="M313.542 249.924L313.433 250.141C313.433 250.141 312.344 249.815 311.583 249.598C310.93 249.381 309.733 249.381 308.535 249.163C308.427 249.163 308.427 249.163 308.318 249.163C308.1 249.163 307.991 249.055 307.774 249.055C307.121 248.837 306.576 248.729 306.25 248.62H306.141C305.923 248.511 305.815 248.511 305.706 248.403C305.706 248.403 305.706 248.403 305.597 248.403C305.488 248.403 305.488 248.403 305.379 248.403C305.271 248.403 305.271 248.403 305.271 248.403V248.185C305.271 248.185 305.706 248.185 305.815 248.185C305.923 248.077 305.815 247.099 306.25 246.99C306.685 246.773 309.406 247.425 310.277 248.077C311.147 248.729 311.583 249.272 311.909 249.489C312.236 249.598 313.542 249.924 313.542 249.924Z" fill="url(#paint43_linear)"/>
<path d="M312.78 249.815L313.651 249.598C313.651 249.598 313.977 249.706 313.542 250.358L312.78 249.815Z" fill="#594F87"/>
<path opacity="0.6" d="M311.801 249.273C311.474 249.055 311.039 248.512 310.168 247.86C309.298 247.208 306.577 246.556 306.141 246.773C305.706 246.99 305.815 247.968 305.706 247.968C305.597 248.077 305.162 247.968 305.162 247.968V248.186H305.271V248.294C305.271 248.403 304.835 249.707 305.053 250.251C305.271 250.794 308.536 251.881 310.168 251.772C311.801 251.555 313.324 249.925 313.324 249.925L313.433 249.707C313.542 249.925 312.236 249.599 311.801 249.273ZM308.862 251.772C306.686 251.446 305.38 250.794 305.271 250.251C305.162 249.816 305.815 248.512 306.577 248.621C306.577 248.621 306.468 248.621 306.359 248.512C306.359 248.512 306.25 248.512 306.25 248.403C306.25 248.403 306.25 248.294 306.141 248.186C306.033 247.968 305.924 247.425 306.033 247.099C306.141 246.556 308.971 247.208 310.059 247.968C310.821 248.512 310.821 248.947 310.712 249.055C310.712 249.164 310.604 249.164 310.604 249.164C310.604 249.164 309.406 249.164 308.536 248.947C308.427 248.947 308.427 248.947 308.318 248.947C308.209 248.947 308.1 248.947 307.992 248.838C307.992 248.838 309.189 249.273 310.712 249.49C312.236 249.707 312.345 249.816 312.345 249.816C312.345 249.816 311.039 252.098 308.862 251.772Z" fill="url(#paint44_linear)"/>
<path d="M305.706 248.295C305.706 248.295 306.359 248.838 307.229 249.164C309.08 249.816 311.147 249.599 311.147 249.599C311.147 249.599 309.188 249.382 308.535 249.164C307.774 249.056 305.706 248.295 305.706 248.295Z" fill="#2A003D"/>
<path d="M311.583 249.599C311.583 249.599 312.998 249.817 313.433 250.143L313.542 249.925C313.542 249.925 312.453 249.491 311.583 249.599Z" fill="#07003D"/>
<path d="M305.162 248.076C305.162 248.076 305.706 248.185 305.815 248.294C305.815 248.294 305.379 248.185 305.162 248.294C305.162 248.294 305.053 248.185 305.162 248.076Z" fill="#07003D"/>
<path d="M335.634 244.492C333.675 247.209 331.716 249.382 330.302 250.686C328.451 252.425 325.295 253.837 322.248 254.924H322.139H322.03C322.357 254.598 329.431 247.752 329.649 239.928C329.866 231.995 321.595 221.345 321.595 221.345C312.562 219.28 305.162 225.04 305.162 225.04C305.162 225.04 305.162 224.931 305.27 224.605C305.488 223.192 306.468 218.737 309.406 215.368C312.889 211.347 320.833 212.977 320.833 212.977L336.831 237.102C336.723 237.319 336.505 241.014 335.634 244.492Z" fill="url(#paint45_linear)"/>
<path d="M318.33 230.798L316.589 227.864L318.004 229.059V227.646C318.004 227.646 321.813 227.864 325.948 228.19C331.608 228.625 333.458 232.211 333.458 232.211C333.458 232.211 330.41 229.711 326.928 230.037C323.336 230.146 318.33 230.798 318.33 230.798Z" fill="#38368E"/>
<path d="M306.141 228.408L309.188 225.365L306.685 226.669L308.1 225.257C308.1 225.257 306.576 225.039 304.944 224.931C302.55 224.713 301.897 224.713 300.917 225.365C300.373 225.691 299.938 226.561 299.938 226.561C299.938 226.561 304.073 227.648 306.141 228.408Z" fill="#38368E"/>
<path d="M344.45 260.9C341.402 264.052 338.029 265.247 338.029 265.247C335.417 266.225 331.934 265.573 331.934 265.573C333.458 263.943 335.199 261.009 335.417 260.683C332.369 265.247 327.69 267.312 327.69 267.312L325.948 266.551C328.125 264.269 329.758 261.335 331.063 258.075C334.328 250.142 335.09 241.231 335.09 241.231C329.866 235.363 325.948 227.104 323.663 221.236C322.031 217.106 321.16 214.172 321.16 214.172C321.16 214.172 311.909 210.912 308.535 218.628C305.815 224.822 301.57 234.819 297.544 240.253C290.687 251.772 292.864 264.052 292.864 264.052L291.231 263.183C287.64 252.207 287.858 244.709 294.932 234.928C296.999 224.278 302.876 212.759 302.876 212.759C314.63 207.543 323.989 206.674 329.866 207C334.655 207.217 337.158 208.195 337.158 208.195C339.552 207.434 340.858 207.869 340.858 207.869C350.327 215.802 348.041 235.363 348.041 235.363C348.041 235.363 349.129 237.319 349.565 241.014C349.891 243.622 350 247.099 349.238 251.337C349.129 251.663 349.129 251.989 349.021 252.424C348.259 256.119 346.409 258.944 344.45 260.9Z" fill="url(#paint46_linear)"/>
<path d="M321.16 214.171C321.16 214.171 312.998 212.433 303.203 230.255C303.203 230.255 307.991 215.367 310.059 213.519C312.78 211.237 321.16 214.171 321.16 214.171Z" fill="#23328D"/>
<g opacity="0.6">
<path opacity="0.6" d="M344.667 234.385C327.254 226.887 321.051 214.39 320.942 214.281C320.833 214.173 320.942 213.955 321.051 213.955C321.16 213.846 321.377 213.955 321.377 214.064C321.486 214.173 328.451 228.191 348.15 235.255C348.259 235.363 348.368 235.472 348.368 235.581C348.368 235.689 348.15 235.798 348.041 235.798C346.844 235.363 345.756 234.82 344.667 234.385Z" fill="url(#paint47_linear)"/>
</g>
<path d="M331.825 265.791C331.608 265.682 331.608 265.465 331.716 265.356C331.825 265.247 343.253 252.968 340.314 243.948C337.376 234.82 323.01 217.65 322.901 217.432C322.792 217.324 322.792 217.106 322.901 216.998C323.01 216.889 323.228 216.889 323.337 216.998C323.445 217.215 337.92 234.494 340.858 243.622C343.906 252.968 332.587 265.03 332.152 265.573C332.043 265.791 331.934 265.899 331.825 265.791Z" fill="#23328D"/>
<g opacity="0.6">
<path opacity="0.6" d="M295.367 234.602C295.149 234.493 295.149 234.276 295.258 234.167C301.57 226.669 308.318 215.585 308.427 215.476C308.535 215.367 308.644 215.259 308.753 215.367C308.862 215.476 308.971 215.585 308.862 215.693C308.753 215.802 302.006 226.886 295.693 234.385C295.585 234.602 295.476 234.602 295.367 234.602Z" fill="url(#paint48_linear)"/>
</g>
<g opacity="0.6">
<path opacity="0.6" d="M299.176 222.323C299.176 222.323 299.067 222.323 299.176 222.323C298.958 222.214 298.958 221.997 299.067 221.888C299.285 221.562 303.965 214.498 309.188 213.738C309.297 213.738 309.841 213.629 309.841 213.738C309.841 213.846 309.406 214.172 309.188 214.281C304.182 215.042 299.502 222.214 299.394 222.214C299.394 222.323 299.285 222.323 299.176 222.323Z" fill="url(#paint49_linear)"/>
</g>
<path opacity="0.6" d="M337.267 208.304C337.267 208.304 328.56 209.391 319.31 214.172L312.344 212.651C312.344 212.651 323.663 211.238 327.581 207C327.581 207 333.131 206.891 337.267 208.304Z" fill="url(#paint50_linear)"/>
<path opacity="0.6" d="M344.45 260.901C341.402 264.053 338.029 265.248 338.029 265.248C335.417 266.226 331.934 265.574 331.934 265.574C333.458 263.944 335.199 261.01 335.417 260.684C332.369 265.248 327.69 267.313 327.69 267.313L325.948 266.552C328.125 264.27 329.758 261.336 331.063 258.076C334.328 250.143 335.09 241.232 335.09 241.232C329.866 235.364 325.948 227.105 323.663 221.236C323.663 221.236 331.825 233.842 349.674 241.123C350 243.731 350.109 247.209 349.347 251.447C349.238 251.773 349.238 252.099 349.129 252.534C348.259 256.12 346.409 258.836 344.45 260.901Z" fill="url(#paint51_linear)"/>
<path d="M331.608 242.534C331.608 242.534 336.723 236.449 342.6 238.948C342.6 238.948 344.45 240.47 343.253 243.295C341.511 247.316 336.723 250.685 332.914 250.25C328.887 249.815 330.519 244.708 331.608 242.534Z" fill="url(#paint52_linear)"/>
<path d="M331.825 245.902C331.825 245.902 338.355 239.382 342.382 241.121C342.382 241.121 340.858 241.447 337.267 243.403C333.675 245.468 331.825 245.902 331.825 245.902Z" fill="url(#paint53_linear)"/>
<path d="M338.029 242.426C338.029 242.426 338.246 244.599 336.94 246.664C336.94 246.664 339.444 244.056 339.661 242.317C339.661 242.317 338.573 242.1 338.029 242.426Z" fill="url(#paint54_linear)"/>
<path d="M333.675 245.143C333.675 245.143 333.893 246.881 334.655 247.099C335.417 247.316 335.852 247.207 335.852 247.207C335.852 247.207 333.893 248.077 333.458 247.751C332.914 247.425 332.369 245.686 332.369 245.686L333.675 245.143Z" fill="url(#paint55_linear)"/>
<path d="M345.647 214.607C345.647 214.607 324.207 215.042 319.963 213.738C319.963 213.738 329.104 208.522 340.967 207.979C340.967 207.979 343.688 210.369 345.647 214.607Z" fill="url(#paint56_linear)"/>
<path d="M191.542 322.951C191.542 322.951 174.347 389.784 169.667 404.563C164.988 419.451 162.485 423.798 162.485 423.798C162.485 423.798 155.519 425.319 153.125 428.579C153.125 428.579 163.138 430.209 168.361 429.557C168.361 429.557 178.374 416.625 187.624 410.431C187.624 410.431 184.686 404.128 178.7 399.129C180.333 395.869 196.766 369.571 199.161 352.618C201.772 334.253 191.542 322.951 191.542 322.951Z" fill="url(#paint57_linear)"/>
<path d="M173.585 390.979C173.585 390.979 179.789 391.957 183.598 390.545C183.598 390.545 189.366 379.895 190.998 375.222C192.631 370.549 194.807 355.77 194.807 355.77L185.557 343.164L173.585 390.979Z" fill="url(#paint58_linear)"/>
<path d="M181.639 358.596C181.639 358.596 142.242 393.696 126.788 403.368C111.334 413.04 93.268 414.452 86.5205 419.234L131.576 425.102C131.576 425.102 133.427 416.734 132.774 408.149C132.774 408.149 172.279 391.088 184.468 381.308C196.657 371.527 205.146 360.986 205.146 360.986C205.146 360.986 185.557 355.118 181.639 358.596Z" fill="url(#paint59_linear)"/>
<path d="M179.68 360.553C179.68 360.553 177.285 380.005 180.006 382.396C182.727 384.786 189.583 377.179 189.583 377.179L179.68 360.553Z" fill="url(#paint60_linear)"/>
<path d="M293.517 367.072C286.66 370.659 272.077 369.789 252.923 365.986C234.204 362.291 209.064 360.661 207.867 361.096C206.67 361.422 193.284 373.81 193.284 373.81C193.284 377.831 188.386 379.244 184.142 374.245C180.333 369.789 179.68 361.965 179.571 360.552V360.444V360.335C179.571 360.335 179.244 359.574 179.353 359.466C181.095 358.596 183.162 357.075 185.23 354.901C186.863 353.163 188.169 351.315 188.386 349.902C188.822 346.86 185.121 342.296 185.121 342.296C187.516 330.776 190.889 322.843 190.889 322.843C192.848 322.409 195.351 322.191 198.181 322.191C217.335 322.191 259.344 332.841 259.344 332.841C259.888 332.95 260.215 332.95 260.323 332.95C262.282 332.624 270.88 324.256 271.098 324.473C279.26 330.559 293.734 322.517 293.734 322.517C293.734 322.517 293.843 327.734 301.679 340.774C309.515 353.706 299.285 364.03 293.517 367.072Z" fill="#003363"/>
<path d="M293.517 367.072C286.66 370.658 272.077 369.789 252.923 365.985C234.204 362.29 209.064 360.66 207.867 361.095C206.67 361.421 193.284 373.81 193.284 373.81C193.284 377.83 188.386 379.243 184.142 374.244C180.333 369.789 179.68 361.964 179.571 360.552C179.68 361.53 180.224 365.551 183.271 371.093C186.754 377.396 193.066 374.896 193.066 374.896C188.93 373.592 187.189 369.028 186.971 368.376C188.06 371.31 193.392 372.831 193.392 372.831L209.391 357.509C248.243 358.487 268.595 354.466 268.595 354.466C268.595 354.466 279.586 347.294 276.757 336.318C274.58 327.842 270.989 326.972 270.989 326.972V326.864L270.227 324.364H270.554H271.098C279.26 330.45 293.734 322.408 293.734 322.408C293.734 322.408 293.843 327.624 301.679 340.665C309.515 353.705 299.285 364.029 293.517 367.072Z" fill="#001D32"/>
<path d="M185.013 374.679C184.468 374.57 184.033 374.353 184.033 374.353L184.251 373.918C184.251 373.918 185.448 374.57 186.863 374.027C187.951 373.592 188.93 372.614 189.583 370.984L189.692 370.876C190.454 370.115 208.194 353.38 211.132 351.206L211.241 351.098H211.35C211.894 351.206 263.262 365.007 270.662 356.205C277.845 347.62 277.41 325.777 277.301 325.56L277.845 325.451C278.172 326.429 278.498 347.837 271.098 356.64C263.588 365.551 214.941 352.728 211.35 351.75C208.194 354.14 191.107 370.332 190.128 371.31C189.366 373.049 188.386 374.136 187.189 374.679C186.319 374.896 185.557 374.788 185.013 374.679Z" fill="#2C567E"/>
<path d="M188.386 410.649C177.939 418.038 169.341 430.427 169.341 430.427C162.158 430.536 152.146 428.362 152.146 428.362C152.146 428.362 152.69 427.384 153.56 426.406C154.105 425.754 154.758 425.211 155.628 424.776C157.805 423.581 161.396 424.124 162.158 422.929C162.811 421.733 168.688 401.412 169.776 400.542C170.865 399.673 174.021 404.129 175.98 403.694C177.939 403.368 180.333 400.651 180.333 400.651C186.427 406.193 188.169 409.888 188.386 410.649C188.386 410.54 188.386 410.54 188.386 410.649Z" fill="#3B0E21"/>
<path d="M185.121 342.296C187.516 330.776 190.889 322.843 190.889 322.843C192.848 322.409 195.351 322.191 198.181 322.191C196.549 323.604 201.772 325.56 210.697 327.951C220.709 330.668 260.759 336.319 260.759 336.319C263.588 335.884 268.268 330.994 268.812 330.45C268.921 330.342 270.336 329.69 270.336 329.798C269.901 330.668 265.112 336.319 260.65 337.405C240.19 335.884 209.282 335.558 203.623 337.405C201.555 338.166 191.869 348.49 185.339 354.793C186.971 353.054 188.277 351.207 188.495 349.794C188.93 346.751 185.121 342.296 185.121 342.296Z" fill="#001D32"/>
<path d="M130.706 400.76C130.706 400.76 131.141 401.847 137.018 401.956C142.895 402.065 162.593 394.24 162.593 394.24C162.593 394.24 139.086 405.433 132.774 408.15L132.882 414.018C132.882 414.018 124.285 413.692 126.679 403.369L130.706 400.76Z" fill="url(#paint61_linear)"/>
<path d="M127.659 403.478C127.659 403.478 126.788 409.455 128.747 411.846C130.815 414.237 132.883 413.91 132.883 413.91C132.883 413.91 132.665 419.779 131.577 424.995L85.7588 419.018C85.7588 419.018 87.7177 415.975 90.8738 413.802C90.8738 413.802 114.49 408.586 119.388 405.652C124.394 402.717 125.373 401.305 125.373 401.305C125.373 401.305 127.332 401.522 127.659 403.478Z" fill="#3B0E21"/>
<path opacity="0.5" d="M90.8738 413.801C90.8738 413.801 100.669 418.365 115.687 420.212C130.706 422.06 132.338 420.43 132.338 420.43L131.577 424.994L85.7588 419.017C85.8676 419.126 88.6972 414.344 90.8738 413.801Z" fill="url(#paint62_linear)"/>
<path opacity="0.5" d="M188.386 410.65C177.939 418.04 169.341 430.428 169.341 430.428C162.158 430.537 152.146 428.363 152.146 428.363C152.146 428.363 152.69 427.385 153.56 426.407C153.56 426.407 165.532 428.689 168.906 426.407C172.279 424.125 185.121 406.086 185.121 406.086C185.121 406.086 187.298 407.933 188.386 410.65C188.386 410.541 188.386 410.541 188.386 410.65Z" fill="url(#paint63_linear)"/>
<path d="M279.586 362.726C279.151 362.618 278.498 358.271 278.716 357.293C278.933 356.315 280.022 353.707 280.022 353.707L277.41 356.967C275.995 360.118 274.58 363.378 273.601 364.03C272.621 364.574 272.512 363.487 272.512 363.487C272.512 363.487 271.206 365.117 270.662 364.791C270.118 364.465 269.356 359.249 270.009 357.401C270.662 355.554 273.057 350.012 273.057 350.012C273.057 350.012 269.574 351.316 268.595 351.968C267.615 352.62 266.636 354.25 265.112 354.902C263.588 355.663 260.541 355.771 260.215 354.685C260.106 354.25 270.989 346.1 275.777 343.926C278.389 342.731 283.287 341.101 286.987 339.905C289.925 338.927 292.32 338.275 292.32 338.275L294.932 340.666C294.932 340.666 292.102 346.752 290.578 348.599C289.055 350.447 281.11 356.206 281.11 358.162C281.437 360.01 280.022 362.835 279.586 362.726Z" fill="url(#paint64_linear)"/>
<path d="M272.077 363.921C272.077 363.921 272.404 359.683 272.73 358.923C273.057 358.162 275.233 353.598 275.233 353.598C275.233 353.598 273.274 358.597 273.057 359.031C272.839 359.575 272.621 363.269 272.621 363.269L272.077 363.921Z" fill="url(#paint65_linear)"/>
<path d="M290.687 348.381C290.687 348.381 291.993 344.143 291.558 343.817C291.122 343.382 287.096 339.796 287.096 339.796C290.034 338.818 292.428 338.166 292.428 338.166L295.04 340.557C295.04 340.557 292.32 346.534 290.687 348.381Z" fill="url(#paint66_linear)"/>
<path d="M303.856 261.117C303.856 261.117 300.482 264.051 297.652 268.615C294.823 273.18 295.911 276.005 295.911 276.005C295.911 276.005 290.47 274.375 293.517 268.941C296.673 263.399 303.856 261.117 303.856 261.117Z" fill="#D35950"/>
<path d="M291.667 264.703C291.667 264.703 287.966 267.203 284.484 272.962C281.437 278.07 276.975 288.611 275.451 291.001C273.927 293.392 270.445 297.413 270.445 297.413C270.445 297.413 269.356 296.761 266.2 295.892C263.044 295.022 252.379 286.437 252.379 286.437C252.379 286.437 251.617 289.371 247.481 290.784C247.481 290.784 251.943 297.413 257.167 302.738C262.282 308.063 268.812 311.866 270.662 312.084C273.274 312.41 280.784 305.02 283.287 303.064C285.79 301.108 293.517 268.941 293.517 268.941L291.667 264.703Z" fill="url(#paint67_linear)"/>
<path d="M325.622 272.854C325.622 272.854 318.221 286.873 314.303 292.958C312.889 295.132 311.038 297.414 309.188 299.37C306.032 302.956 302.985 305.89 302.55 306.325C302.006 306.977 295.258 316.866 294.823 317.518C294.605 317.953 294.279 319.8 294.061 321.104C293.952 321.756 293.843 322.299 293.843 322.299C293.843 322.299 292.102 323.712 288.946 325.234C288.946 325.234 288.946 325.234 288.837 325.234C286.225 326.538 282.742 327.842 278.498 328.385C269.139 329.58 270.662 322.082 270.662 322.082C270.662 322.082 276.757 315.453 277.192 314.475C277.519 313.497 278.933 296.762 278.933 296.762C278.933 296.762 278.933 296.762 278.825 296.653C278.389 296.218 276.43 293.936 275.56 291.111C275.233 289.916 275.015 288.503 275.342 287.09C275.342 287.09 279.913 280.352 287.313 272.963C287.313 272.963 289.925 266.117 291.775 264.487C291.775 264.487 298.305 262.096 303.964 260.9C303.964 260.9 303.856 261.009 303.638 261.118C303.529 261.118 303.42 261.226 303.312 261.335C301.57 262.422 296.673 266.008 294.496 271.659C291.775 278.614 304.4 276.223 309.08 273.18C313.542 270.355 318.874 263.508 318.874 263.508C318.874 263.508 324.425 271.007 325.622 272.854Z" fill="url(#paint68_linear)"/>
<path d="M323.881 331.102C323.881 331.102 310.168 338.927 303.856 341.861C297.87 344.578 293.952 345.447 293.408 345.556C293.408 345.556 294.823 340.991 291.776 337.949C291.776 337.949 301.244 332.298 304.726 329.364C308.1 326.43 310.386 323.604 311.039 323.278C311.692 322.843 313.651 322.735 313.651 322.735V322.626C313.651 322.517 313.651 322.409 313.651 322.3C313.759 320.779 314.195 315.454 314.303 310.564V310.455C314.412 307.412 314.412 304.587 314.086 303.283C313.433 299.479 311.147 297.958 311.147 297.958L309.297 299.37L308.427 299.044C308.427 299.044 315.936 279.266 325.731 272.746C325.731 272.746 327.146 275.572 327.907 280.027V280.244C328.125 282.092 328.343 284.265 328.125 286.547C327.69 293.068 325.84 305.673 325.622 306.869C325.404 308.281 325.84 324.473 323.881 331.102Z" fill="url(#paint69_linear)"/>
<path opacity="0.2" d="M309.188 299.37C305.923 302.956 302.876 305.891 302.55 306.325C302.006 306.977 295.258 316.866 294.823 317.518C294.605 317.953 294.279 319.8 294.061 321.105L289.055 325.343L288.946 325.451C288.946 325.451 288.946 325.451 288.946 325.343C289.272 324.691 292.646 317.084 293.408 314.693C294.17 312.194 295.258 302.63 290.034 300.566C284.701 298.501 279.042 296.871 279.042 296.871C279.042 296.871 279.042 296.871 278.933 296.762C278.498 296.328 276.539 294.045 275.668 291.22C275.342 290.025 275.124 288.612 275.451 287.199C275.451 287.199 275.342 289.916 284.81 293.502C294.387 297.088 309.95 295.567 309.95 295.567L308.535 299.044L309.188 299.37Z" fill="#CA2485"/>
<path d="M310.93 293.285L305.706 303.174C305.706 303.174 309.733 299.262 312.018 298.827C312.018 298.827 310.712 295.893 310.93 293.285Z" fill="#112F3F"/>
<path opacity="0.2" d="M323.881 331.102C323.881 331.102 310.168 338.926 303.856 341.861C297.87 344.577 293.952 345.447 293.408 345.555C303.312 341.861 313.215 333.602 314.956 329.907C316.589 326.212 313.542 322.734 313.542 322.734V322.626V322.3L314.195 310.563V310.455C314.195 310.455 320.398 307.195 323.772 300.566C327.146 294.045 327.69 280.896 327.799 280.244V280.461C328.016 282.309 328.234 284.482 328.016 286.764C327.581 293.285 325.731 305.89 325.513 307.086C325.404 308.281 325.84 324.473 323.881 331.102Z" fill="#CA2485"/>
<path d="M291.776 337.948L294.061 336.535C294.061 336.535 297.108 338.926 297.979 344.251L293.517 345.555C293.408 345.555 294.279 342.512 291.776 337.948Z" fill="url(#paint70_linear)"/>
<path d="M247.59 290.784C247.59 290.784 250.855 289.263 252.488 286.438L254.882 288.285C254.882 288.285 253.141 291.98 249.332 293.066L247.59 290.784Z" fill="url(#paint71_linear)"/>
<path d="M271.642 321.213C271.642 321.213 270.88 325.668 274.363 327.081C279.042 328.929 286.443 326.429 286.443 326.429C286.443 326.429 277.301 330.341 273.165 328.059C269.03 325.777 270.662 322.3 270.662 322.3L271.642 321.213Z" fill="#112F3F"/>
<path d="M289.055 283.722C289.055 283.722 285.246 287.743 282.09 292.416C282.09 292.416 288.728 281.005 294.932 275.463L298.197 276.224C298.197 276.332 293.19 281.983 289.055 283.722Z" fill="#112F3F"/>
<path d="M294.496 280.46C294.496 280.46 301.897 279.591 304.291 278.939C304.291 278.939 303.965 275.244 301.026 274.049C301.135 274.049 297.87 278.287 294.496 280.46Z" fill="#2E638A"/>
<path d="M289.055 283.722C289.055 283.722 296.999 278.723 301.026 272.854C301.026 272.854 308.427 271.55 313.215 267.638C318.004 263.835 317.677 260.031 317.677 260.031L319.092 260.466C319.092 260.466 321.051 264.487 321.595 267.204C321.595 267.204 315.718 279.375 305.597 282.961C305.597 282.961 303.856 274.484 301.135 273.941C301.135 274.05 296.455 280.461 289.055 283.722Z" fill="url(#paint72_linear)"/>
<path d="M291.231 279.7C291.231 279.7 291.231 271.332 292.32 269.05C292.32 269.05 287.858 273.94 285.572 277.744C285.572 277.744 292.646 264.595 304.726 260.248L307.774 259.922L304.618 261.552C304.618 261.552 299.394 265.464 295.585 270.354C295.585 270.354 294.061 274.049 295.04 275.679L291.231 279.7Z" fill="#2E638A"/>
<path d="M285.463 277.744C285.463 277.744 288.619 274.376 291.34 274.267L292.211 269.051C292.211 269.051 288.075 273.289 285.463 277.744Z" fill="#112F3F"/>
<path d="M318.983 260.575C318.983 260.575 317.568 266.118 311.474 268.943C311.474 268.943 316.698 265.031 317.677 260.141L318.983 260.575Z" fill="#112F3F"/>
<path d="M282.089 292.523L281.654 297.74C281.654 297.74 279.695 313.388 279.042 315.127C278.498 316.866 274.254 326.972 274.254 326.972C274.254 326.972 278.933 316.214 279.26 315.236C279.586 314.258 282.742 298.718 282.634 298.066C282.525 297.414 281.981 295.24 282.089 292.523Z" fill="#112F3F"/>
<path d="M293.952 286.438C293.952 286.438 299.829 287.416 306.685 291.436C306.685 291.436 304.835 296.435 303.203 299.369C303.203 299.369 294.605 297.305 290.252 295.131C290.361 295.022 291.993 289.372 293.952 286.438Z" fill="url(#paint73_linear)"/>
<path d="M293.408 288.611C293.408 288.611 302.006 291.111 305.162 293.067C305.162 293.067 303.42 298.174 302.876 298.826C302.876 298.826 295.04 296.762 291.34 295.023C291.449 294.914 291.558 292.197 293.408 288.611Z" fill="url(#paint74_linear)"/>
<path d="M252.379 286.438C252.379 286.438 258.909 292.74 263.262 295.566C263.262 295.566 269.139 297.087 272.404 300.13L270.445 297.522C270.445 297.522 266.527 295.457 264.132 295.023C264.132 295.023 258.909 291.98 252.379 286.438Z" fill="#34C7FF"/>
</g>
<g clip-path="url(#clip2)">
<path d="M361.1 486V474.7L410.3 474.1L410 486H361.1Z" fill="#7F134F"/>
<path d="M349 462.6L349.1 464.9L359.7 474.7V482.3L349.3 469.5V470.9L361.1 486V474.7L349 462.6Z" fill="#9A134F"/>
<path d="M410.3 474.1L386 461.9L349 462.6L361.1 474.7L410.3 474.1Z" fill="#9A134F"/>
<path d="M350.5 471.001L359.7 482.301V474.701L350.2 465.801L350.5 471.001Z" fill="#9DC2DA"/>
<path d="M349.3 469.5H350.4L350.5 471L349.3 469.5Z" fill="#7F134F"/>
<path d="M363.4 473.4V469.9L414.8 471V473.4H363.4Z" fill="#B8134F"/>
<path d="M363.4 469.9L351.5 460.1H396.2L414.8 471L363.4 469.9Z" fill="#EE6D4F"/>
<path d="M351.5 460.1L351.9 461.1L362.7 469.9V471.7L351.5 462.3V462.6L363.4 473.4V469.9L351.5 460.1Z" fill="#CA2F4F"/>
<path d="M352.3 461.5L352.9 463.4L362.7 472.1V469.9L352.3 461.5Z" fill="#9DC2DA"/>
<path d="M351.5 462.301H352.6L352.9 463.401L351.5 462.301Z" fill="#B8134F"/>
<path d="M351.9 457.7V450.9L390.9 451.6L393.2 456.4L351.9 457.7Z" fill="#145A64"/>
<path d="M351.9 457.7L365.1 468.3L409.3 469L383.1 455.5L351.9 457.7Z" fill="#337079"/>
<path d="M351.9 450.9L368.4 462.2L411.3 463.1L389.8 451.6L351.9 450.9Z" fill="#338488"/>
<path d="M411.3 463.099V464.099L369.2 463.599L368.4 462.199L411.3 463.099Z" fill="#145A64"/>
<path d="M365.1 468.301L365.8 467.301L408.9 467.601L409.3 469.001L365.1 468.301Z" fill="#145A64"/>
<path d="M408.9 464L407.8 467.5L365.8 467.3L353.2 457.6L353.8 452.9L369.2 463.6L408.9 464Z" fill="#9DC2DA"/>
<path d="M369.2 463.6L353.8 452.9L351.9 450.9L368.4 462.2L369.2 463.6Z" fill="#337079"/>
<path d="M366.4 467.3C366.4 467.3 367.6 466.3 368.3 465.6C369 464.9 369.1 463.6 369.1 463.6L408.9 464L407.8 467.5L366.4 467.3Z" fill="#6A93B4"/>
<path d="M354.6 450.301H356V451.501L354.6 450.301Z" fill="#B8134F"/>
<path d="M369.3 461.001V449.801L420.7 450.901L420 461.001H369.3Z" fill="#811343"/>
<path d="M369.3 449.8L354.6 440.5L402.1 440L420.7 450.9L369.3 449.8Z" fill="#D1314F"/>
<path d="M354.6 440.5L354.7 441.6L368.7 450.5V459.2L354.6 450.3V450.7L369.3 461V449.8L354.6 440.5Z" fill="#9A134F"/>
<path d="M356 442.4L355.9 451.1L368.7 459.2V450.5L356 442.4Z" fill="#9DC2DA"/>
<path d="M397.8 474.3V486H402.7L403.1 474.1L397.8 474.3Z" fill="#B5434C"/>
<path d="M367.3 476.9H390.6V483.5L367.2 484L367.3 476.9Z" fill="#B5434C"/>
<path d="M375.9 451.5L373.9 453.2V458L375.5 459.6L413.8 459.1L415.8 458.1L416.2 453.6L413.9 451.9L375.9 451.5Z" fill="#91224C"/>
<path d="M373.8 470.1V473.4H395.7L396.1 470.6L373.8 470.1Z" fill="#9A0041"/>
<path d="M355.9 444.9L366.8 452.9L368.7 459.2V450.5L356 442.4L355.9 444.9Z" fill="#6A93B4"/>
<path d="M353.6 454.3L368.8 465L369.3 464.6L369.2 463.6L353.8 452.9L353.6 454.3Z" fill="#6A93B4"/>
<path d="M350.2 466.501L358.8 475.701L359.7 482.301V474.701L350.2 465.801V466.501Z" fill="#6A93B4"/>
</g>
<defs>
<linearGradient id="paint0_linear" x1="228.894" y1="8.98918" x2="599.968" y2="320.357" gradientUnits="userSpaceOnUse">
<stop stop-color="#52A2D4"/>
<stop offset="0.996" stop-color="#1D72C2"/>
</linearGradient>
<linearGradient id="paint1_linear" x1="151.813" y1="281.751" x2="579.92" y2="281.751" gradientUnits="userSpaceOnUse">
<stop stop-color="#AB482C"/>
<stop offset="1" stop-color="#892A36"/>
</linearGradient>
<linearGradient id="paint2_linear" x1="366.621" y1="241.77" x2="366.621" y2="201.834" gradientUnits="userSpaceOnUse">
<stop offset="0.00395257" stop-color="#C86D52"/>
<stop offset="1" stop-color="#E0792F"/>
</linearGradient>
<linearGradient id="paint3_linear" x1="183.988" y1="185.922" x2="128.762" y2="90.2669" gradientUnits="userSpaceOnUse">
<stop stop-color="#AB482C"/>
<stop offset="1" stop-color="#AE4F36"/>
</linearGradient>
<linearGradient id="paint4_linear" x1="157.024" y1="45.8838" x2="579.92" y2="45.8838" gradientUnits="userSpaceOnUse">
<stop stop-color="#AB482C"/>
<stop offset="1" stop-color="#892A36"/>
</linearGradient>
<linearGradient id="paint5_linear" x1="154.42" y1="154.916" x2="579.92" y2="154.916" gradientUnits="userSpaceOnUse">
<stop stop-color="#AB482C"/>
<stop offset="1" stop-color="#892A36"/>
</linearGradient>
<linearGradient id="paint6_linear" x1="155.773" y1="98.6272" x2="579.92" y2="98.6272" gradientUnits="userSpaceOnUse">
<stop stop-color="#AB482C"/>
<stop offset="1" stop-color="#892A36"/>
</linearGradient>
<linearGradient id="paint7_linear" x1="338.456" y1="320.46" x2="338.456" y2="25.6659" gradientUnits="userSpaceOnUse">
<stop stop-color="#C25136"/>
<stop offset="1" stop-color="#E0761B"/>
</linearGradient>
<linearGradient id="paint8_linear" x1="306.42" y1="23.1258" x2="360.753" y2="23.1258" gradientUnits="userSpaceOnUse">
<stop stop-color="#C25136"/>
<stop offset="1" stop-color="#E0761B"/>
</linearGradient>
<linearGradient id="paint9_linear" x1="360.17" y1="12.6759" x2="389.086" y2="12.6759" gradientUnits="userSpaceOnUse">
<stop stop-color="#A84436"/>
<stop offset="1" stop-color="#B5502C"/>
</linearGradient>
<linearGradient id="paint10_linear" x1="236.006" y1="280.79" x2="236.006" y2="62.8342" gradientUnits="userSpaceOnUse">
<stop stop-color="#892A36"/>
<stop offset="1" stop-color="#AB482C"/>
</linearGradient>
<linearGradient id="paint11_linear" x1="235.897" y1="279.65" x2="235.897" y2="61.5486" gradientUnits="userSpaceOnUse">
<stop stop-color="#983436"/>
<stop offset="1" stop-color="#C75F2C"/>
</linearGradient>
<linearGradient id="paint12_linear" x1="171.037" y1="451.012" x2="172.369" y2="369.487" gradientUnits="userSpaceOnUse">
<stop offset="0.00558659" stop-color="#2F253C"/>
<stop offset="0.996" stop-color="#475874"/>
</linearGradient>
<linearGradient id="paint13_linear" x1="54.6449" y1="333.767" x2="306.666" y2="333.767" gradientUnits="userSpaceOnUse">
<stop offset="0.00558659" stop-color="#2F253C"/>
<stop offset="0.996" stop-color="#475874"/>
</linearGradient>
<linearGradient id="paint14_linear" x1="183.89" y1="365.841" x2="185.011" y2="297.242" gradientUnits="userSpaceOnUse">
<stop stop-color="#363254"/>
<stop offset="1" stop-color="#434E6A"/>
</linearGradient>
<linearGradient id="paint15_linear" x1="82.184" y1="336.523" x2="285.073" y2="336.523" gradientUnits="userSpaceOnUse">
<stop offset="0.00558659" stop-color="#150923"/>
<stop offset="0.996" stop-color="#1D2435"/>
</linearGradient>
<linearGradient id="paint16_linear" x1="160.06" y1="353.924" x2="160.983" y2="297.381" gradientUnits="userSpaceOnUse">
<stop stop-color="#332D45"/>
<stop offset="1" stop-color="#475372"/>
</linearGradient>
<linearGradient id="paint17_linear" x1="171.037" y1="451.011" x2="172.369" y2="369.487" gradientUnits="userSpaceOnUse">
<stop stop-color="#302539"/>
<stop offset="1" stop-color="#0A090E"/>
</linearGradient>
<linearGradient id="paint18_linear" x1="163.032" y1="388.34" x2="163.342" y2="369.34" gradientUnits="userSpaceOnUse">
<stop stop-color="#475774"/>
<stop offset="1" stop-color="#5A7492"/>
</linearGradient>
<linearGradient id="paint19_linear" x1="111.248" y1="447.822" x2="112.525" y2="369.627" gradientUnits="userSpaceOnUse">
<stop stop-color="#312746"/>
<stop offset="1" stop-color="#5C7695"/>
</linearGradient>
<linearGradient id="paint20_linear" x1="47.9155" y1="369.176" x2="48.6673" y2="323.136" gradientUnits="userSpaceOnUse">
<stop offset="0.00558659" stop-color="#313449"/>
<stop offset="0.996" stop-color="#475874"/>
</linearGradient>
<linearGradient id="paint21_linear" x1="32.462" y1="335.644" x2="74.7511" y2="335.644" gradientUnits="userSpaceOnUse">
<stop stop-color="#434E6F"/>
<stop offset="1" stop-color="#4F6480"/>
</linearGradient>
<linearGradient id="paint22_linear" x1="41.9614" y1="346.256" x2="74.7494" y2="346.256" gradientUnits="userSpaceOnUse">
<stop offset="0.00558659" stop-color="#150923"/>
<stop offset="0.996" stop-color="#1D2435"/>
</linearGradient>
<linearGradient id="paint23_linear" x1="315.738" y1="371.827" x2="316.423" y2="329.879" gradientUnits="userSpaceOnUse">
<stop offset="0.00558659" stop-color="#313449"/>
<stop offset="0.996" stop-color="#475874"/>
</linearGradient>
<linearGradient id="paint24_linear" x1="304.095" y1="345.703" x2="326.588" y2="345.703" gradientUnits="userSpaceOnUse">
<stop stop-color="#000020"/>
<stop offset="1" stop-color="#223929"/>
</linearGradient>
<linearGradient id="paint25_linear" x1="301.804" y1="350.657" x2="304.993" y2="350.657" gradientUnits="userSpaceOnUse">
<stop offset="0.00558659" stop-color="#150923"/>
<stop offset="0.996" stop-color="#1D2435"/>
</linearGradient>
<linearGradient id="paint26_linear" x1="153.162" y1="398.281" x2="304.483" y2="398.281" gradientUnits="userSpaceOnUse">
<stop stop-color="#26213B"/>
<stop offset="1" stop-color="#363F63"/>
</linearGradient>
<linearGradient id="paint27_linear" x1="294.691" y1="264.352" x2="320.627" y2="264.352" gradientUnits="userSpaceOnUse">
<stop stop-color="#FF937F"/>
<stop offset="1" stop-color="#E8868D"/>
</linearGradient>
<linearGradient id="paint28_linear" x1="234.02" y1="286.272" x2="252.154" y2="286.272" gradientUnits="userSpaceOnUse">
<stop stop-color="#FFA98E"/>
<stop offset="1" stop-color="#FFC5A4"/>
</linearGradient>
<linearGradient id="paint29_linear" x1="240.48" y1="284.714" x2="246.093" y2="284.714" gradientUnits="userSpaceOnUse">
<stop stop-color="#FF937F"/>
<stop offset="1" stop-color="#E8868D"/>
</linearGradient>
<linearGradient id="paint30_linear" x1="218.4" y1="234.541" x2="251.236" y2="234.541" gradientUnits="userSpaceOnUse">
<stop stop-color="#2E33A0"/>
<stop offset="1" stop-color="#0665A5"/>
</linearGradient>
<linearGradient id="paint31_linear" x1="224.513" y1="258.869" x2="269.382" y2="258.869" gradientUnits="userSpaceOnUse">
<stop stop-color="#1852A0"/>
<stop offset="1" stop-color="#067ED3"/>
</linearGradient>
<linearGradient id="paint32_linear" x1="218.4" y1="264.015" x2="237.029" y2="264.015" gradientUnits="userSpaceOnUse">
<stop stop-color="#2E33A0"/>
<stop offset="1" stop-color="#0665A5"/>
</linearGradient>
<linearGradient id="paint33_linear" x1="232.418" y1="288.495" x2="240.383" y2="288.495" gradientUnits="userSpaceOnUse">
<stop stop-color="#FF937F"/>
<stop offset="1" stop-color="#E8868D"/>
</linearGradient>
<linearGradient id="paint34_linear" x1="229.25" y1="281.914" x2="237.029" y2="281.914" gradientUnits="userSpaceOnUse">
<stop stop-color="#FF937F"/>
<stop offset="1" stop-color="#E8868D"/>
</linearGradient>
<linearGradient id="paint35_linear" x1="231.848" y1="288.868" x2="241.318" y2="288.868" gradientUnits="userSpaceOnUse">
<stop stop-color="#FFA98E"/>
<stop offset="1" stop-color="#FFC5A4"/>
</linearGradient>
<linearGradient id="paint36_linear" x1="233.14" y1="290.486" x2="236.713" y2="290.486" gradientUnits="userSpaceOnUse">
<stop stop-color="#FF937F"/>
<stop offset="1" stop-color="#E8868D"/>
</linearGradient>
<linearGradient id="paint37_linear" x1="232.467" y1="288.006" x2="234.641" y2="288.006" gradientUnits="userSpaceOnUse">
<stop stop-color="#FF937F"/>
<stop offset="1" stop-color="#E8868D"/>
</linearGradient>
<linearGradient id="paint38_linear" x1="318.67" y1="258.736" x2="318.67" y2="210.434" gradientUnits="userSpaceOnUse">
<stop stop-color="#FFA98E"/>
<stop offset="1" stop-color="#FFC5A4"/>
</linearGradient>
<linearGradient id="paint39_linear" x1="313.897" y1="258.735" x2="313.897" y2="248.677" gradientUnits="userSpaceOnUse">
<stop offset="0.0159875" stop-color="#FF937F"/>
<stop offset="0.9944" stop-color="#E8868D"/>
</linearGradient>
<linearGradient id="paint40_linear" x1="302.047" y1="242.728" x2="309.414" y2="242.728" gradientUnits="userSpaceOnUse">
<stop stop-color="#E87D81"/>
<stop offset="1" stop-color="#FF817F"/>
</linearGradient>
<linearGradient id="paint41_linear" x1="308.932" y1="252.724" x2="309.478" y2="251.126" gradientUnits="userSpaceOnUse">
<stop offset="0.00558661" stop-color="#E8868D"/>
<stop offset="1" stop-color="#E8868D" stop-opacity="0"/>
</linearGradient>
<linearGradient id="paint42_linear" x1="308.459" y1="251.963" x2="309.545" y2="248.784" gradientUnits="userSpaceOnUse">
<stop stop-color="#CA0000"/>
<stop offset="1" stop-color="#A80009"/>
</linearGradient>
<linearGradient id="paint43_linear" x1="309.147" y1="249.665" x2="309.846" y2="247.621" gradientUnits="userSpaceOnUse">
<stop stop-color="#8D0000"/>
<stop offset="1" stop-color="#A80009"/>
</linearGradient>
<linearGradient id="paint44_linear" x1="308.371" y1="251.933" x2="309.844" y2="247.621" gradientUnits="userSpaceOnUse">
<stop stop-opacity="0"/>
<stop offset="0.9944" stop-opacity="0.5"/>
</linearGradient>
<linearGradient id="paint45_linear" x1="305.176" y1="233.941" x2="336.714" y2="233.941" gradientUnits="userSpaceOnUse">
<stop stop-color="#FF937F"/>
<stop offset="1" stop-color="#E8868D"/>
</linearGradient>
<linearGradient id="paint46_linear" x1="288.959" y1="237.142" x2="349.986" y2="237.142" gradientUnits="userSpaceOnUse">
<stop stop-color="#2E33A0"/>
<stop offset="1" stop-color="#0665A5"/>
</linearGradient>
<linearGradient id="paint47_linear" x1="320.881" y1="224.806" x2="348.395" y2="224.806" gradientUnits="userSpaceOnUse">
<stop stop-color="#0C185A"/>
<stop offset="0.9944" stop-color="#084191"/>
</linearGradient>
<linearGradient id="paint48_linear" x1="295.2" y1="225.003" x2="308.895" y2="225.003" gradientUnits="userSpaceOnUse">
<stop stop-color="#182276"/>
<stop offset="0.9944" stop-color="#060E2D"/>
</linearGradient>
<linearGradient id="paint49_linear" x1="298.974" y1="218.011" x2="309.871" y2="218.011" gradientUnits="userSpaceOnUse">
<stop stop-color="#27369D"/>
<stop offset="0.9944" stop-color="#01020A"/>
</linearGradient>
<linearGradient id="paint50_linear" x1="312.326" y1="210.564" x2="337.215" y2="210.564" gradientUnits="userSpaceOnUse">
<stop stop-color="#22328D"/>
<stop offset="0.9944" stop-color="#123B90"/>
</linearGradient>
<linearGradient id="paint51_linear" x1="323.635" y1="244.239" x2="349.989" y2="244.239" gradientUnits="userSpaceOnUse">
<stop stop-color="#0E4394"/>
<stop offset="0.9944" stop-color="#084191"/>
</linearGradient>
<linearGradient id="paint52_linear" x1="330.38" y1="244.284" x2="343.784" y2="244.284" gradientUnits="userSpaceOnUse">
<stop stop-color="#FFA98E"/>
<stop offset="1" stop-color="#FFB19D"/>
</linearGradient>
<linearGradient id="paint53_linear" x1="331.795" y1="243.4" x2="342.397" y2="243.4" gradientUnits="userSpaceOnUse">
<stop stop-color="#FF937F"/>
<stop offset="1" stop-color="#E8868D"/>
</linearGradient>
<linearGradient id="paint54_linear" x1="336.946" y1="244.406" x2="339.615" y2="244.406" gradientUnits="userSpaceOnUse">
<stop stop-color="#FF937F"/>
<stop offset="1" stop-color="#E8868D"/>
</linearGradient>
<linearGradient id="paint55_linear" x1="332.328" y1="246.543" x2="335.846" y2="246.543" gradientUnits="userSpaceOnUse">
<stop stop-color="#FF937F"/>
<stop offset="1" stop-color="#E8868D"/>
</linearGradient>
<linearGradient id="paint56_linear" x1="319.982" y1="211.327" x2="345.682" y2="211.327" gradientUnits="userSpaceOnUse">
<stop stop-color="#1F77D1"/>
<stop offset="1" stop-color="#0686C9"/>
</linearGradient>
<linearGradient id="paint57_linear" x1="153.162" y1="376.282" x2="199.61" y2="376.282" gradientUnits="userSpaceOnUse">
<stop stop-color="#FFA98E"/>
<stop offset="1" stop-color="#FFC5A4"/>
</linearGradient>
<linearGradient id="paint58_linear" x1="178.32" y1="366.757" x2="192.372" y2="369.531" gradientUnits="userSpaceOnUse">
<stop stop-color="#FF937F"/>
<stop offset="1" stop-color="#E8868D"/>
</linearGradient>
<linearGradient id="paint59_linear" x1="94.3287" y1="379.741" x2="197.51" y2="400.11" gradientUnits="userSpaceOnUse">
<stop stop-color="#FFA98E"/>
<stop offset="1" stop-color="#FFC5A4"/>
</linearGradient>
<linearGradient id="paint60_linear" x1="178.723" y1="371.663" x2="189.581" y2="371.663" gradientUnits="userSpaceOnUse">
<stop stop-color="#FF937F"/>
<stop offset="1" stop-color="#E8868D"/>
</linearGradient>
<linearGradient id="paint61_linear" x1="126.339" y1="404.145" x2="162.641" y2="404.145" gradientUnits="userSpaceOnUse">
<stop stop-color="#FF937F"/>
<stop offset="1" stop-color="#E8868D"/>
</linearGradient>
<linearGradient id="paint62_linear" x1="108.438" y1="423.566" x2="109.906" y2="416.11" gradientUnits="userSpaceOnUse">
<stop stop-color="#320B1E"/>
<stop offset="1" stop-color="#360C1F"/>
</linearGradient>
<linearGradient id="paint63_linear" x1="167.931" y1="431.405" x2="173.368" y2="403.783" gradientUnits="userSpaceOnUse">
<stop stop-color="#3B0E21"/>
<stop offset="1" stop-color="#330B1E"/>
</linearGradient>
<linearGradient id="paint64_linear" x1="271.506" y1="342.208" x2="286.239" y2="355.576" gradientUnits="userSpaceOnUse">
<stop stop-color="#FFA98E"/>
<stop offset="1" stop-color="#FFC5A4"/>
</linearGradient>
<linearGradient id="paint65_linear" x1="271.979" y1="357.236" x2="275.397" y2="360.337" gradientUnits="userSpaceOnUse">
<stop stop-color="#FF937F"/>
<stop offset="1" stop-color="#E8868D"/>
</linearGradient>
<linearGradient id="paint66_linear" x1="287.418" y1="339.463" x2="293.711" y2="345.172" gradientUnits="userSpaceOnUse">
<stop stop-color="#FF937F"/>
<stop offset="1" stop-color="#E8868D"/>
</linearGradient>
<linearGradient id="paint67_linear" x1="252.021" y1="278.192" x2="288.185" y2="290.932" gradientUnits="userSpaceOnUse">
<stop stop-color="#0098BA"/>
<stop offset="1" stop-color="#1D90AE"/>
</linearGradient>
<linearGradient id="paint68_linear" x1="282.47" y1="331.274" x2="307.568" y2="259.816" gradientUnits="userSpaceOnUse">
<stop stop-color="#63CEAE"/>
<stop offset="1" stop-color="#0098BA"/>
</linearGradient>
<linearGradient id="paint69_linear" x1="302.752" y1="348.881" x2="329.042" y2="274.029" gradientUnits="userSpaceOnUse">
<stop stop-color="#63CEAE"/>
<stop offset="1" stop-color="#0098BA"/>
</linearGradient>
<linearGradient id="paint70_linear" x1="293.273" y1="345.523" x2="296.152" y2="337.324" gradientUnits="userSpaceOnUse">
<stop stop-color="#63CEAE"/>
<stop offset="1" stop-color="#0098BA"/>
</linearGradient>
<linearGradient id="paint71_linear" x1="249.868" y1="293.363" x2="252.296" y2="286.449" gradientUnits="userSpaceOnUse">
<stop stop-color="#63CEAE"/>
<stop offset="1" stop-color="#0098BA"/>
</linearGradient>
<linearGradient id="paint72_linear" x1="300.91" y1="287.931" x2="311.447" y2="257.928" gradientUnits="userSpaceOnUse">
<stop stop-color="#63CEAE"/>
<stop offset="1" stop-color="#0098BA"/>
</linearGradient>
<linearGradient id="paint73_linear" x1="297.233" y1="297.69" x2="299.988" y2="288.093" gradientUnits="userSpaceOnUse">
<stop stop-color="#051B4F"/>
<stop offset="1" stop-color="#226685"/>
</linearGradient>
<linearGradient id="paint74_linear" x1="297.027" y1="297.085" x2="299.336" y2="290.511" gradientUnits="userSpaceOnUse">
<stop stop-color="#AFD1DF"/>
<stop offset="1" stop-color="#E8FFF7"/>
</linearGradient>
<clipPath id="clip0">
<rect width="429.9" height="365.8" fill="white" transform="translate(150)"/>
</clipPath>
<clipPath id="clip1">
<rect width="350" height="256.355" fill="white" transform="translate(0 207)"/>
</clipPath>
<clipPath id="clip2">
<rect width="71.7" height="46" fill="white" transform="translate(349 440)"/>
</clipPath>
</defs>
</svg>
