<svg width="580" height="369" viewBox="0 0 580 369" fill="none" xmlns="http://www.w3.org/2000/svg">
<g clip-path="url(#clip0)">
<path opacity="0.6" d="M437.26 0.476562L461.111 36.9615L472.919 37.6769L473.273 47.4539L456.506 48.7654L422.619 62.954H418.368L429.585 39.4654L437.26 0.476562Z" fill="url(#paint0_linear)"/>
<path d="M211.738 47.2148L196.624 64.6227L188.949 64.5035L197.805 47.2148H211.738Z" fill="#982029"/>
<path d="M188.949 64.5035V47.2148H197.805L188.949 64.5035Z" fill="#FFB98B"/>
<path d="M435.607 45.5469L420.494 62.9547L412.819 62.8355L421.674 45.5469H435.607Z" fill="#982029"/>
<path d="M412.819 62.8355V45.5469H421.674L412.819 62.8355Z" fill="#FFB98B"/>
<path d="M191.311 39.4648H180.566V45.9034L191.311 47.4534V39.4648Z" fill="#FFB98B"/>
<path d="M197.805 0.476562H208.195V39.4654H197.805V0.476562Z" fill="#FFB98B"/>
<path d="M421.084 0.476562H431.475V39.4654H421.084V0.476562Z" fill="#FFB98B"/>
<path d="M213.863 39.4654V0.476562H204.889L203 39.4654H213.863Z" fill="#A74048"/>
<path d="M437.26 39.4654V0.476562H430.176L429.585 39.4654H437.26Z" fill="#A74048"/>
<path d="M454.381 37.6777L452.846 45.9047L191.311 47.4547V39.4662L454.381 37.6777Z" fill="#A74048"/>
<path d="M253.536 20.0312L338.314 22.0582L337.369 23.489V27.9005L332.292 28.139L342.564 29.8083L340.203 33.1467L333.709 35.0545L337.487 38.6314L340.203 50.4354L302.655 38.6314H266.997L266.524 33.1467L267.469 30.8813L266.524 27.5429L253.536 20.0312Z" fill="#D1D4EF"/>
<path d="M266.997 38.6314H254.245L252.001 20.0312H253.536L266.524 27.5429L267.469 30.8813L266.524 33.1468L266.997 38.6314Z" fill="#A9AFE1"/>
<path d="M267.469 30.8809L333.709 35.054L266.524 33.1463L267.469 30.8809Z" fill="#A9AFE1"/>
<path d="M337.369 27.9007L335.834 28.7353L266.524 27.543L337.369 27.9007Z" fill="#A9AFE1"/>
<path d="M337.369 23.4883L256.96 22.0576L255.071 20.8652L338.314 22.0576L337.369 23.4883Z" fill="#A9AFE1"/>
<path d="M213.627 4.53026L221.302 0.714844L242.555 35.5305L235.116 39.3459L213.627 4.53026Z" fill="#BD93C2"/>
<path d="M223.073 4.0537L230.63 0.238281L252.001 35.054L244.563 38.8694L223.073 4.0537Z" fill="#925B97"/>
<path d="M235.116 39.347L218.468 39.5854L213.627 28.9738V4.53125L235.116 39.347Z" fill="#A66EAD"/>
<path d="M244.562 38.8697L235.117 39.3467L242.555 35.5312L244.562 38.8697Z" fill="#793680"/>
<path d="M232.873 3.81542L240.43 0L261.801 34.8157L254.245 38.6311L232.873 3.81542Z" fill="#B6C0DB"/>
<path d="M254.245 38.6316L244.562 38.8701L252.001 35.0547L254.245 38.6316Z" fill="#9098E0"/>
<path opacity="0.6" d="M196.624 64.6227L242.555 47.2148H211.738L196.624 64.6227Z" fill="url(#paint1_linear)"/>
</g>
<g clip-path="url(#clip1)">
<path d="M424.804 297.65L368.19 265.119H356.962L408.376 297.65H424.804Z" fill="url(#paint2_linear)"/>
<path d="M175.655 212.713L148.117 230.93H143.153L165.018 213.541L175.655 212.713Z" fill="#1B2031"/>
<path d="M392.065 153.92L387.692 278.485H383.437V153.92H392.065Z" fill="#1B2031"/>
<path d="M372.445 111.334L440.997 193.55L161.709 196.507L123.533 112.517L372.445 111.334Z" fill="#FFAE16"/>
<path d="M123.533 112.518L122.469 117.368L159.109 205.498L161.709 196.508L123.533 112.518Z" fill="#FFFF16"/>
<path d="M440.997 193.549L436.269 201.238L159.109 205.497L161.709 196.506L440.997 193.549Z" fill="#FF9716"/>
<path d="M436.269 201.238V203.131L434.023 209.164L157.927 213.659L159.108 205.497L436.269 201.238Z" fill="url(#paint3_linear)"/>
<path d="M122.469 117.367L121.76 121.626L157.927 213.66L159.108 205.498L122.469 117.367Z" fill="url(#paint4_linear)"/>
<path d="M139.252 268.904L162.891 295.994L148.117 295.639L133.343 268.904H139.252Z" fill="url(#paint5_linear)"/>
<path d="M436.269 201.238V203.131L159.109 207.39V205.497L436.269 201.238Z" fill="url(#paint6_linear)"/>
<path d="M140.67 169.772L145.044 279.55L141.143 280.142L133.343 151.199L140.67 169.772Z" fill="#1B2031"/>
<path d="M141.143 231.05L383.437 228.803V232.588L141.38 236.374L141.143 231.05Z" fill="#1B2031"/>
<path d="M356.962 265.119L355.662 267.603L409.558 303.684H427.759L424.805 297.65H408.376L356.962 265.119Z" fill="#1B2031"/>
<path d="M133.343 268.904L132.397 270.679L147.171 302.382H166.2L162.891 295.994L145.044 295.639L133.343 268.904Z" fill="#1B2031"/>
<path d="M383.437 278.485L381.546 276.948L380.482 209.992H383.437V278.485Z" fill="#0A0A0A"/>
<path d="M133.343 151.2L141.143 280.142L140.08 276.948L131.097 145.285L133.343 151.2Z" fill="url(#paint7_linear)"/>
<path d="M147.171 302.382L148.117 295.639L133.343 268.904L132.397 270.679L147.171 302.382Z" fill="url(#paint8_linear)"/>
<path d="M408.376 297.65L409.558 303.684L355.662 267.603L356.962 265.119L408.376 297.65Z" fill="#0A0A0A"/>
<path d="M409.558 209.52L380.719 228.802L375.282 229.038L397.975 209.52H409.558Z" fill="#1B2031"/>
<path d="M373.982 204.314L380.482 190.355L226.833 193.549L219.268 206.562L373.982 204.314Z" fill="url(#paint9_linear)"/>
<path d="M380.482 190.356L378.591 188.582L226.596 190.356L226.833 193.55L380.482 190.356Z" fill="url(#paint10_linear)"/>
<path d="M226.596 190.355L218.559 204.551L219.268 206.562L226.833 193.549L226.596 190.355Z" fill="#0A0A0A"/>
<path d="M165.018 213.541H161.709L143.153 229.393V230.93L165.018 213.541Z" fill="#0A0A0A"/>
<path d="M375.282 229.038H373.155L394.547 209.874L397.975 209.52L375.282 229.038Z" fill="#0A0A0A"/>
<path opacity="0.74" d="M162.891 295.994L151.899 283.572L140.789 282.508L148.117 295.639L162.891 295.994Z" fill="url(#paint11_linear)"/>
<path opacity="0.74" d="M424.804 297.65L404.357 285.938L387.692 284.4L408.376 297.65H424.804Z" fill="url(#paint12_linear)"/>
<path opacity="0.2" d="M159.109 205.498L161.709 196.508L222.696 195.798L161.118 194.023L156.981 185.979L123.533 112.518L159.463 194.97L159.109 205.498Z" fill="white"/>
<path d="M135.115 115.594L166.909 190.357L419.013 187.163L166.909 182.076L155.681 148.007L135.115 115.594Z" fill="#FF9716"/>
<path d="M353.18 229.156L342.543 233.178L225.769 235.071L226.596 230.221L353.18 229.156Z" fill="url(#paint13_linear)"/>
<path opacity="0.39" d="M378.591 190.355L269.618 195.442L236.052 206.562H219.268L226.833 193.549L378.591 190.355Z" fill="url(#paint14_linear)"/>
<path opacity="0.39" d="M219.268 206.562L203.903 212.95L157.927 213.66L159.108 207.391L219.268 206.562Z" fill="url(#paint15_linear)"/>
<path d="M419.013 187.161L188.657 188.581L166.909 182.074L155.681 148.005L135.115 115.592L360.981 114.527L419.013 187.161Z" fill="url(#paint16_linear)"/>
<path opacity="0.2" d="M360.981 114.527L383.437 142.563L155.681 148.005L135.115 115.592L360.981 114.527Z" fill="url(#paint17_linear)"/>
<path opacity="0.2" d="M155.681 148.006L236.052 169.181L287.229 182.075L416.886 187.162L188.657 188.581L166.909 182.075L155.681 148.006Z" fill="url(#paint18_linear)"/>
<path d="M188.657 188.581L175.655 175.924L166.909 182.075L188.657 188.581Z" fill="url(#paint19_linear)"/>
<path opacity="0.3" d="M239.716 139.724C239.716 137.949 262.172 127.303 267.373 127.303C272.573 127.303 264.654 162.2 262.645 163.738C260.517 165.276 239.716 142.563 239.716 139.724Z" fill="#791640"/>
<path opacity="0.3" d="M232.624 163.501C231.678 162.792 234.515 151.672 236.524 150.016C238.534 148.36 254.371 164.211 254.371 165.512C254.49 166.695 234.161 164.566 232.624 163.501Z" fill="#791640"/>
<path d="M273.282 127.303C275.291 128.131 293.848 138.186 293.848 147.532C293.848 156.877 277.182 162.674 273.282 162.674C269.382 162.674 254.371 151.672 254.371 144.101C254.371 136.53 269.027 125.41 273.282 127.303Z" fill="url(#paint20_linear)"/>
<path d="M238.061 136.176C238.061 133.81 238.534 131.799 239.479 130.971C242.67 128.605 269.145 117.84 275.173 117.84C278.246 117.84 281.91 120.916 284.983 124.583C286.992 121.98 288.884 120.087 290.184 120.087C290.775 120.087 291.366 120.442 292.075 121.034C296.566 125.411 301.885 143.747 300.585 147.887C299.048 152.619 283.565 171.664 282.974 172.493L282.501 172.256C282.619 172.019 298.575 152.382 300.112 147.769C301.412 143.747 296.211 125.647 291.72 121.27C291.129 120.797 290.656 120.442 290.302 120.442C289.356 120.442 287.583 122.098 285.456 124.938C288.884 128.96 291.72 133.573 292.429 135.229C293.966 138.778 292.902 153.21 289.947 155.458C288.647 156.404 285.929 155.931 281.91 153.92C278.601 152.264 275.41 150.135 273.991 149.07C271.864 147.532 277.537 136.885 278.601 134.756C280.137 131.799 282.501 127.895 284.865 124.819C281.792 121.27 278.128 118.195 275.291 118.195C269.264 118.195 242.67 129.078 239.952 131.207C237.115 133.337 239.243 145.639 241.961 147.769L241.607 148.005C239.597 146.586 238.061 140.671 238.061 136.176ZM285.22 125.292C283.329 127.895 281.201 131.207 279.074 134.993C275.173 142.209 273.164 148.005 274.346 148.833C275.764 149.898 278.955 152.027 282.147 153.565C284.747 154.866 288.174 156.168 289.593 155.103C292.193 153.092 293.611 139.015 291.957 135.229C291.129 133.455 288.411 129.078 285.22 125.292Z" fill="#4B2337"/>
<path d="M292.075 159.836C292.075 159.836 290.065 160.427 289.711 160.901C289.356 161.374 284.983 164.449 284.983 164.804C284.983 165.159 287.347 164.449 288.293 164.331L286.401 166.106L290.893 166.579C290.893 166.579 292.311 163.976 292.784 163.858C293.257 163.858 297.393 166.106 297.393 166.106L300.466 164.331L296.802 159.954L292.075 159.836Z" fill="#672D2A"/>
<path d="M281.556 157.943C281.319 158.298 282.856 159.363 284.392 159.836C285.929 160.309 289.238 159.836 289.947 159.717C290.538 159.599 298.102 163.266 298.221 163.858C298.339 164.449 295.739 165.869 294.202 165.751C292.666 165.632 289.238 164.922 286.874 165.277C284.51 165.632 283.801 167.407 283.801 167.88C283.919 168.353 289.474 168.235 291.956 168.59C294.439 168.945 300.466 171.784 302.594 170.837C304.721 169.891 308.858 168.235 310.631 167.998C311.222 167.88 313.822 169.063 317.25 170.601C317.25 170.601 316.068 164.568 313.586 164.094C311.104 163.621 293.138 158.298 291.247 157.706C289.474 157.115 281.792 157.588 281.556 157.943Z" fill="url(#paint21_linear)"/>
<path d="M365.354 327.578C365.354 327.578 397.857 328.288 402.23 331.245C405.066 333.138 404.121 341.182 404.121 341.182L366.654 338.106L365.354 327.578Z" fill="url(#paint22_linear)"/>
<path d="M289.474 344.022L296.33 344.613C296.33 344.613 298.339 341.064 302.357 339.29C305.076 338.107 328.951 337.752 339.588 337.634C342.779 337.634 344.67 337.634 344.67 337.634C344.67 337.634 344.434 336.333 344.079 334.676C343.488 332.311 342.543 329.235 341.243 327.934C341.243 327.934 338.761 328.052 334.978 328.17C324.223 328.643 303.185 329.945 298.93 332.074C297.512 332.784 295.975 334.085 294.675 335.623C291.72 339.29 289.474 344.022 289.474 344.022Z" fill="url(#paint23_linear)"/>
<path d="M289.474 344.022L296.33 344.613C296.33 344.613 298.339 341.064 302.357 339.29C305.076 338.107 328.951 337.752 339.588 337.634L344.079 334.676C343.488 332.311 342.543 329.235 341.243 327.934C341.243 327.934 338.761 328.052 334.978 328.17C334.978 328.17 328.832 336.214 318.904 336.214C308.976 336.214 303.421 337.634 299.757 337.634C297.63 337.634 295.739 336.451 294.675 335.623C291.72 339.29 289.474 344.022 289.474 344.022Z" fill="#1B2031"/>
<path d="M290.302 341.656C290.302 341.656 286.283 343.312 284.156 347.926H301.057C301.057 347.926 300.466 344.259 297.393 342.366L290.302 341.656Z" fill="#603566"/>
<path d="M292.784 357.745C296.766 357.745 299.994 354.514 299.994 350.529C299.994 346.543 296.766 343.312 292.784 343.312C288.802 343.312 285.574 346.543 285.574 350.529C285.574 354.514 288.802 357.745 292.784 357.745Z" fill="#472345"/>
<path d="M397.502 353.368C401.484 353.368 404.712 350.137 404.712 346.152C404.712 342.166 401.484 338.936 397.502 338.936C393.52 338.936 390.292 342.166 390.292 346.152C390.292 350.137 393.52 353.368 397.502 353.368Z" fill="url(#paint24_linear)"/>
<path d="M376.346 327.934C376.346 327.934 385.21 337.634 388.874 338.817C392.538 340 381.546 340.592 381.546 340.592L363.936 335.032L366.89 327.461L376.346 327.934Z" fill="#1B2031"/>
<path d="M372.209 337.989C372.209 337.989 354.717 345.915 334.624 337.989C334.624 337.989 339.47 320.836 353.653 320.836C367.836 320.836 372.209 337.989 372.209 337.989Z" fill="#1B2031"/>
<path d="M361.572 283.336L359.681 322.492C359.681 322.492 352.825 324.503 349.516 322.019L347.98 283.336H361.572Z" fill="url(#paint25_linear)"/>
<path d="M361.335 340.946C361.335 340.946 403.057 348.281 406.603 349.7C409.321 350.883 408.494 356.325 408.494 356.325H415.467C415.467 356.325 416.058 350.883 415.231 347.098C414.995 345.796 414.522 344.732 413.931 344.14C411.331 341.538 369.491 329.945 368.427 329.59C368.427 329.59 362.635 331.009 361.335 340.946Z" fill="url(#paint26_linear)"/>
<path d="M361.335 340.946C361.335 340.946 403.057 348.281 406.603 349.7C409.321 350.883 408.494 356.325 408.494 356.325H415.467C415.467 356.325 416.058 350.883 415.231 347.098C413.34 347.807 411.331 348.399 409.558 348.044C405.657 347.216 397.148 344.495 384.856 340.828C373.036 337.279 368.663 330.063 368.427 329.59C368.427 329.59 362.635 331.009 361.335 340.946Z" fill="#1B2031"/>
<path d="M313.586 356.324L321.977 356.797C321.977 356.797 322.096 356.324 322.332 355.496C323.041 353.485 324.459 349.463 326.232 347.688C328.36 345.677 349.752 341.419 349.752 341.419C349.752 341.419 349.516 334.439 345.734 332.192C344.316 331.364 342.661 331.127 341.243 331.245C338.879 331.364 336.988 332.192 336.988 332.192C336.988 332.192 322.686 339.171 319.023 342.72C318.077 343.666 317.25 344.968 316.54 346.387C315.359 348.871 314.531 351.829 314.058 353.84C313.822 355.378 313.586 356.324 313.586 356.324Z" fill="url(#paint27_linear)"/>
<path d="M415.585 352.303C415.585 352.303 419.604 353.959 421.731 358.572H404.83C404.83 358.572 405.421 354.905 408.494 353.013L415.585 352.303Z" fill="#0A0A0A"/>
<path d="M413.104 368.391C417.085 368.391 420.313 365.16 420.313 361.175C420.313 357.19 417.085 353.959 413.104 353.959C409.122 353.959 405.894 357.19 405.894 361.175C405.894 365.16 409.122 368.391 413.104 368.391Z" fill="url(#paint28_linear)"/>
<path d="M361.335 289.724C361.335 289.724 358.262 294.337 352.944 295.402V323.202L350.462 322.492L349.752 295.402L348.452 291.617L348.098 283.336H361.69L361.335 289.724Z" fill="#1B2031"/>
<path d="M314.177 353.958L322.45 355.496C323.159 353.485 324.578 349.463 326.35 347.688C328.478 345.677 349.871 341.419 349.871 341.419C349.871 341.419 349.634 334.439 345.852 332.192C344.434 331.364 342.779 331.127 341.361 331.245C342.07 331.6 346.089 333.73 345.498 336.214C344.907 339.053 327.06 343.43 323.632 345.559C321.386 346.979 318.55 346.742 316.777 346.505C315.595 348.99 314.649 351.947 314.177 353.958Z" fill="#1B2031"/>
<path d="M315.359 352.303C315.359 352.303 311.34 353.959 309.213 358.572H326.232C326.232 358.572 325.641 354.905 322.568 353.013L315.359 352.303Z" fill="#0A0A0A"/>
<path d="M317.959 368.391C321.941 368.391 325.168 365.16 325.168 361.175C325.168 357.19 321.941 353.959 317.959 353.959C313.977 353.959 310.749 357.19 310.749 361.175C310.749 365.16 313.977 368.391 317.959 368.391Z" fill="url(#paint29_linear)"/>
<path d="M348.571 292.326C348.571 292.326 351.053 295.402 351.053 299.187C351.053 303.091 350.462 322.492 350.462 322.492L349.634 322.018L348.571 292.326Z" fill="url(#paint30_linear)"/>
<path opacity="0.5" d="M341.006 332.666C341.952 333.494 328.596 340.592 326.232 340.592C323.868 340.71 337.697 329.827 341.006 332.666Z" fill="url(#paint31_linear)"/>
<path opacity="0.5" d="M325.169 341.064C325.76 341.655 322.45 343.43 321.977 342.838C321.505 342.483 324.578 340.591 325.169 341.064Z" fill="url(#paint32_linear)"/>
<path opacity="0.5" d="M383.792 335.387C382.374 333.968 408.376 341.657 407.548 342.485C406.603 343.431 385.801 337.398 383.792 335.387Z" fill="url(#paint33_linear)"/>
<path d="M407.548 243.233L435.796 188.699L432.132 95.7183C432.132 95.7183 417.831 93.3524 404.475 96.5463C404.475 96.5463 400.221 109.322 395.847 128.959C393.484 139.251 391.12 151.436 389.347 164.685C388.047 173.793 387.219 182.784 386.747 190.946C385.683 207.981 386.037 222.295 386.51 230.339C347.507 228.564 322.214 228.919 285.338 241.222C282.383 245.126 280.61 251.396 281.201 258.966L298.221 269.258C299.757 267.72 379.773 266.419 406.13 255.654C412.513 253.052 411.212 248.556 407.312 244.061L407.548 243.233Z" fill="url(#paint34_linear)"/>
<path d="M404.594 116.066C405.303 118.669 406.603 120.443 408.849 120.443C416.649 120.443 432.132 95.7193 432.132 95.7193C414.285 93.1168 404.475 96.5473 404.475 96.5473C404.475 96.5473 402.584 109.087 404.594 116.066Z" fill="#A00031"/>
<path d="M397.857 245.482C397.029 246.074 396.202 246.547 396.084 246.547C396.202 246.547 397.029 246.311 397.857 245.482Z" fill="#E14A1F"/>
<path d="M377.291 269.496C377.291 269.496 370.909 281.917 359.799 284.401H348.925C348.925 284.401 337.933 282.627 331.787 272.927L377.291 269.496Z" fill="url(#paint35_linear)"/>
<path d="M432.132 95.7188C432.132 95.7188 431.896 154.039 418.777 182.43C405.894 210.347 404.357 234.125 404.357 243.47C372.682 243.47 297.866 253.052 297.866 253.052C296.802 259.085 296.211 263.344 297.984 269.495C306.494 271.151 315.359 272.098 323.987 272.571C369.372 275.292 412.631 265.592 412.631 265.592C416.295 260.15 419.604 254.235 422.559 248.084C441.588 208.455 446.788 157.233 448.207 132.272C448.679 123.045 448.679 117.367 448.679 117.367C444.188 106.01 432.132 95.7188 432.132 95.7188Z" fill="url(#paint36_linear)"/>
<path d="M400.693 267.84C400.693 267.84 382.492 255.773 356.489 255.773C330.487 255.773 309.094 271.152 309.094 271.152C309.094 271.152 346.325 276.357 400.693 267.84Z" fill="#A00031"/>
<path opacity="0.8" d="M400.693 267.84C400.693 267.84 379.891 256.72 355.189 257.903C330.487 259.086 316.422 266.539 316.422 266.539C316.422 266.539 335.097 255.655 355.189 255.064C379.655 254.473 400.693 267.84 400.693 267.84Z" fill="url(#paint37_linear)"/>
<path opacity="0.6" d="M297.748 253.052C296.448 259.085 296.33 263.225 297.866 269.495C306.376 271.151 315.24 272.097 323.868 272.571C323.868 272.571 336.633 256.128 345.498 251.987C354.362 247.965 404.239 243.352 404.239 243.352C372.682 243.352 297.748 253.052 297.748 253.052Z" fill="black" fill-opacity="0.2"/>
<path opacity="0.29" d="M397.857 245.482C397.029 246.074 396.202 246.547 396.084 246.547C396.202 246.547 397.029 246.311 397.857 245.482Z" fill="#901D40"/>
<path d="M348.57 59.4023C348.57 59.4023 339.942 114.528 341.006 121.389C342.07 127.659 343.606 137.596 343.606 137.596C343.606 137.596 338.406 120.68 338.051 118.432C337.697 116.184 345.025 66.3818 345.025 66.3818L348.57 59.4023Z" fill="url(#paint38_linear)"/>
<path d="M422.441 248.085C422.559 248.085 422.559 248.085 422.441 248.085C441.47 208.456 446.67 157.116 448.088 132.273C447.616 133.102 427.168 167.289 421.732 195.443C416.177 223.598 422.323 247.375 422.441 248.085Z" fill="#A00031"/>
<path opacity="0.8" d="M448.088 132.273L447.616 139.253C447.616 139.253 423.268 180.656 420.195 205.025C420.195 205.025 425.041 162.912 448.088 132.273Z" fill="url(#paint39_linear)"/>
<path opacity="0.8" d="M404.594 116.067C402.703 106.958 406.248 98.2043 406.248 98.2043C415.467 94.1823 432.014 95.8384 432.014 95.8384C414.167 93.2359 404.357 96.6665 404.357 96.6665C404.357 96.6665 402.584 109.088 404.594 116.067Z" fill="url(#paint40_linear)"/>
<path d="M336.87 103.882C336.16 106.366 332.615 120.443 332.615 120.443L322.923 109.678L322.45 109.205L319.495 106.011L318.195 104.473C318.195 104.473 319.377 101.397 321.15 96.7838C321.386 96.5472 321.623 96.3106 321.859 96.074C321.741 95.8374 321.741 95.6008 321.623 95.3642C321.859 94.6544 322.214 93.9447 322.45 93.1166C322.568 92.88 322.568 92.7617 322.687 92.5251C323.159 91.3422 323.632 90.1592 324.105 88.7396C324.223 88.5031 324.341 88.1482 324.459 87.7933C325.287 85.664 325.996 83.4163 326.823 81.1687C327.178 80.1041 327.532 79.0394 327.887 78.093C328.242 77.1467 328.596 76.2003 328.832 75.2539C329.069 74.6624 329.305 73.9527 329.542 73.3612C331.906 66.6183 333.915 60.2304 334.978 55.9717C334.978 55.8534 335.097 55.6168 335.097 55.4985C335.215 55.1436 335.215 54.7888 335.333 54.4339C335.688 52.6594 335.806 51.3582 335.569 51.0033C334.388 49.2288 331.905 49.8203 330.251 50.6484C330.251 50.6484 330.133 50.6484 330.133 50.7667C329.896 50.885 329.778 51.0033 329.542 51.0033C329.187 51.1216 328.951 51.3582 328.714 51.4765C328.478 51.5948 328.242 51.7131 328.242 51.7131L327.887 50.6484L327.769 50.4118L326.705 47.691L326.587 47.3361L326.232 46.8629V46.7446C326.232 46.7446 329.542 39.1737 335.097 38.9371C339.47 38.8188 344.67 45.4434 347.507 50.5301C348.216 51.9497 348.807 53.2509 349.162 54.1973C350.225 57.9827 340.297 92.1702 336.87 103.882Z" fill="url(#paint41_linear)"/>
<path d="M329.069 115.71C329.069 115.71 347.034 60.8211 345.852 54.0783C344.67 47.3354 336.515 43.4316 336.515 43.4316C336.515 43.4316 343.961 47.8086 344.197 53.96C344.316 60.1113 325.878 107.193 325.878 107.193L329.069 115.71Z" fill="#423E80"/>
<path opacity="0.2" d="M284.865 98.2031C285.101 99.0312 285.22 99.5044 285.22 99.5044C285.101 99.1495 284.983 98.6763 284.865 98.2031Z" fill="url(#paint42_linear)"/>
<path d="M319.85 90.0412C319.259 92.5254 317.486 97.967 313.349 100.806C313.231 99.978 312.995 99.1499 312.758 98.4402C312.758 98.3219 312.64 98.2036 312.64 97.967V97.8487C312.64 97.7304 312.522 97.6121 312.522 97.3755C312.404 96.9023 312.286 96.4291 312.049 96.0742C312.049 96.0742 313.704 83.0617 316.541 79.3945C316.541 79.3945 317.486 82.4702 318.786 86.4923C319.023 87.4386 319.377 88.385 319.732 89.3314C319.732 89.6863 319.732 89.9229 319.85 90.0412Z" fill="url(#paint43_linear)"/>
<path d="M325.641 107.549C325.641 107.549 324.578 108.14 323.159 108.85C322.923 108.968 322.686 109.087 322.45 109.205C320.795 110.033 318.904 111.098 317.368 111.808C317.959 110.033 318.786 108.022 319.495 106.011L318.195 104.473C318.195 104.473 319.377 101.398 321.15 96.784C321.386 96.5474 321.623 96.3108 321.859 96.0742C322.095 96.784 322.332 97.6121 322.568 98.3218C323.396 100.806 324.105 103.054 324.696 104.828C325.05 106.011 325.405 106.957 325.641 107.549Z" fill="url(#paint44_linear)"/>
<path d="M320.086 88.7405C320.086 88.7405 319.968 89.2137 319.85 90.1601C319.259 92.6443 317.486 98.0859 313.349 100.925L312.64 98.7957C312.64 98.7957 312.64 98.6774 312.758 98.5591C312.877 98.4408 312.877 98.2042 312.995 97.8493V97.731C313.113 97.3761 313.231 97.0213 313.231 96.5481C313.822 94.3004 314.531 90.7516 314.177 88.1491C314.177 88.1491 314.886 88.1491 315.713 87.6759C316.068 87.4393 316.422 87.2027 316.777 86.8478C317.131 86.3746 317.368 85.7831 317.486 84.9551L318.55 86.6112L319.85 88.504L320.086 88.7405Z" fill="url(#paint45_linear)"/>
<path d="M245.625 146.23C250.944 144.219 255.317 143.036 262.645 142.326C262.645 142.326 264.181 144.219 263.236 146.23C255.908 146.585 252.007 147.649 246.571 149.069L245.625 146.23Z" fill="#36295C"/>
<path d="M288.056 165.276C288.056 165.276 264.772 171.901 249.88 168.115C249.88 168.115 249.644 159.953 250.707 153.092C250.707 153.092 244.916 145.047 240.779 141.025C240.779 141.025 238.888 141.853 238.061 143.391C238.061 143.391 237.588 145.047 237.706 146.822C237.706 146.822 236.643 146.822 236.288 146.94C235.933 147.177 234.988 148.36 235.106 149.188C235.106 149.188 234.633 149.188 234.042 149.661C233.57 150.134 232.979 151.199 233.215 151.79C233.451 152.263 233.924 153.21 233.924 153.21C233.924 153.21 232.979 153.21 232.506 153.565C232.033 153.92 231.678 155.221 231.915 155.812C232.151 156.404 234.751 159.953 235.461 160.544C236.17 161.136 238.77 161.609 238.77 161.609C238.77 161.609 239.834 168.825 242.907 173.202C242.907 173.202 272.337 180.891 297.984 180.891C297.984 180.891 300.23 174.385 301.057 168.47C301.175 168.352 289.947 163.502 288.056 165.276Z" fill="url(#paint46_linear)"/>
<path d="M238.415 142.918L242.67 148.241C242.67 148.241 239.597 147.295 237.824 146.822C237.824 146.703 237.706 143.746 238.415 142.918Z" fill="url(#paint47_linear)"/>
<path d="M238.888 161.491L238.415 159.007L234.87 157.469C234.87 157.469 237.824 158.888 238.415 161.491H238.888Z" fill="url(#paint48_linear)"/>
<path d="M250.707 153.092C250.707 153.092 243.852 156.049 242.552 159.835C241.252 163.738 243.498 170.836 243.498 170.836C243.498 170.836 247.28 167.524 249.762 167.997C249.88 167.997 249.88 157.942 250.707 153.092Z" fill="url(#paint49_linear)"/>
<path d="M324.577 73.4803C324.459 74.4266 324.223 75.373 323.987 76.3194C323.987 76.4377 323.868 76.556 323.868 76.6743C323.277 79.0402 322.568 81.1695 321.977 83.0622C321.859 83.4171 321.741 83.8903 321.623 84.2452C320.795 86.6111 319.968 88.3855 319.613 89.4502C319.613 89.5685 319.495 89.6868 319.495 89.6868C318.786 91.9344 317.25 93.7089 314.413 96.1931C314.413 96.1931 314.413 96.1931 314.295 96.1931C313.349 97.0211 312.167 98.0858 310.867 99.1505C310.394 99.5054 309.922 99.8602 309.567 100.215L309.449 100.333C304.839 103.646 300.703 104.119 300.703 104.119C298.457 103.409 296.566 101.753 295.384 100.57C295.029 100.215 294.675 99.8602 294.438 99.6236C294.32 99.3871 294.32 99.2688 294.32 99.0322C295.975 97.1394 296.684 94.7735 296.802 93.7089C296.921 93.2357 296.802 92.9991 296.802 93.1174C293.966 95.365 291.484 95.8382 291.484 95.8382C290.065 94.3003 289.002 92.171 288.647 91.6978C288.647 91.5795 288.529 91.5795 288.529 91.5795C286.638 90.5149 285.219 89.4502 285.219 88.3855V88.2673C285.456 86.8477 289.474 83.1805 289.711 80.2231C289.829 78.2121 288.529 74.8998 287.347 71.3509C286.874 69.6948 286.401 67.9204 286.165 66.2642C286.165 65.6727 286.165 65.0813 286.283 64.3715C286.638 61.769 288.174 58.9299 289.474 56.8006C290.656 54.9078 291.72 53.6066 291.72 53.6066C296.093 48.7564 322.332 51.2407 324.459 62.7154C325.287 66.1459 325.168 69.9314 324.577 73.4803Z" fill="url(#paint50_radial)"/>
<path d="M286.402 64.2515C286.402 64.2515 292.547 61.8856 297.866 65.3161C303.185 68.7467 314.886 80.458 314.886 80.458L308.74 59.2831L293.138 56.444C293.138 56.444 291.011 55.1427 289.12 57.0354C287.347 58.9282 286.165 63.0685 286.402 64.2515Z" fill="url(#paint51_linear)"/>
<path d="M315.831 85.6641C315.831 85.6641 315.831 90.1593 314.886 93.4716C313.822 96.7839 309.567 100.333 309.567 100.333C309.567 100.333 316.54 95.6009 319.613 89.6861L315.831 85.6641Z" fill="url(#paint52_linear)"/>
<path d="M300.112 70.7594C300.112 70.7594 295.621 66.8557 291.129 65.791C291.129 65.791 290.893 68.2752 293.493 68.6301C295.739 68.985 298.221 70.168 300.112 70.7594Z" fill="url(#paint53_linear)"/>
<path d="M301.53 81.9972C301.53 81.9972 297.039 85.1912 295.62 87.2022C295.62 87.2022 294.202 84.5997 294.32 83.1802C294.32 81.7606 301.53 81.9972 301.53 81.9972Z" fill="url(#paint54_linear)"/>
<path d="M301.53 81.998C301.766 82.2346 297.748 83.7724 295.857 85.9018C295.857 85.9018 292.902 82.1163 293.138 76.793C293.138 76.793 298.339 77.3844 301.53 81.998Z" fill="#FFEBED"/>
<path d="M301.53 81.997C301.53 81.997 300.348 78.2115 294.202 74.1895C294.202 74.1895 293.611 74.8992 293.138 76.792C293.138 76.792 296.448 77.2651 301.53 81.997Z" fill="url(#paint55_linear)"/>
<path d="M301.53 81.9984C301.53 81.9984 299.048 78.2129 293.257 76.3202C292.075 76.2019 291.838 76.0836 290.775 76.3202L293.138 78.2129V77.5031C293.138 77.3849 296.684 77.6214 301.53 81.9984Z" fill="url(#paint56_linear)"/>
<path d="M297.748 84.3627C297.748 84.3627 294.793 80.5772 293.729 80.104C292.902 79.7492 294.202 83.7712 295.857 85.9005C295.857 85.9005 296.921 84.8359 297.748 84.3627Z" fill="url(#paint57_radial)"/>
<path d="M297.866 81.998C297.866 81.998 297.63 83.5359 296.093 83.5359C296.211 83.5359 296.211 82.2346 297.866 81.998Z" fill="white"/>
<path d="M291.366 90.6335L288.765 91.5798C288.765 91.4616 288.647 91.4616 288.647 91.4616C286.756 90.3969 285.338 89.3322 285.338 88.2676C285.929 88.5042 288.647 89.4505 291.366 90.6335Z" fill="url(#paint58_linear)"/>
<path d="M290.775 90.6334C290.775 90.6334 288.765 89.8054 287.465 89.9237C287.465 89.9237 289.12 91.2249 290.775 90.6334Z" fill="url(#paint59_linear)"/>
<path d="M298.339 93.3523C298.339 93.3523 297.157 92.051 295.502 91.8145C295.502 91.8145 294.439 92.8791 298.339 93.3523Z" fill="url(#paint60_linear)"/>
<path d="M295.857 100.569C295.857 100.569 295.739 100.569 295.502 100.569C295.266 100.45 294.911 100.332 294.675 99.7407V99.6224C294.557 99.3858 294.557 99.2675 294.557 99.0309C294.557 98.3211 295.148 97.8479 295.148 97.8479C295.975 97.493 297.039 93.2344 297.039 93.2344C297.039 93.3527 297.039 93.471 297.039 93.5893C297.275 97.493 295.857 100.569 295.857 100.569Z" fill="url(#paint61_linear)"/>
<path d="M296.566 93.2344C296.566 93.2344 293.138 94.7722 292.547 94.4173C292.547 94.4173 291.602 94.1807 291.129 95.1271C290.656 96.0735 291.247 96.4284 291.247 96.4284C291.247 96.4284 294.202 95.6003 296.566 93.2344Z" fill="url(#paint62_linear)"/>
<path d="M321.032 96.7839C319.259 101.397 318.077 104.473 318.077 104.473L319.377 106.011C318.55 108.14 317.841 110.033 317.25 111.807C315.95 112.399 315.004 112.754 314.649 112.754C314.649 112.754 314.531 106.721 313.231 100.806C317.368 97.9668 319.023 92.5252 319.732 90.041C320.323 91.8155 320.914 93.5899 321.386 95.4826C321.505 95.7192 321.505 95.9558 321.623 96.1924C321.505 96.3107 321.268 96.5473 321.032 96.7839Z" fill="url(#paint63_linear)"/>
<path d="M331.669 79.6305C331.433 80.1037 331.196 80.6951 330.96 81.2866C330.724 81.7598 330.605 82.233 330.369 82.7062C328.832 86.2551 327.178 89.6856 326.114 91.2235C325.641 91.9333 325.05 92.643 324.341 93.4711C323.514 94.4175 322.568 95.3638 321.623 96.1919C321.505 95.9553 321.505 95.7187 321.386 95.4821C321.623 94.7724 321.977 94.0626 322.214 93.2345C322.332 92.9979 322.332 92.8796 322.45 92.643C322.923 91.4601 323.396 90.2771 323.868 88.8576C323.987 88.621 324.105 88.2661 324.223 87.9112C325.05 85.7819 325.759 83.5342 326.587 81.2866C326.941 80.222 327.296 79.1573 327.651 78.2109V78.5658L331.669 79.6305Z" fill="url(#paint64_linear)"/>
<path d="M252.362 249.03C252.362 249.03 273.873 267.484 288.411 264.408C288.411 264.526 276.71 237.318 252.362 249.03Z" fill="#EB8816"/>
<path d="M260.99 248.558C260.99 248.558 287.702 314.449 289.829 321.665C291.956 328.881 291.129 349.228 289.829 350.884C288.529 352.54 278.364 358.1 278.837 359.519C279.31 361.057 295.975 359.046 299.166 355.024C299.166 355.024 301.294 334.204 307.794 323.203C307.794 323.203 305.194 318.944 295.266 314.33C295.266 314.33 290.656 286.176 286.874 261.807C283.21 237.556 260.99 248.558 260.99 248.558Z" fill="url(#paint65_linear)"/>
<path d="M297.866 315.748C297.866 315.748 297.039 340.945 289.829 348.279C289.829 348.279 282.501 354.431 280.61 357.033C278.719 359.636 278.719 359.636 278.719 359.636C278.719 359.636 286.992 363.066 299.875 355.732C299.875 355.732 300.821 343.311 303.776 335.267L304.012 334.557L312.64 348.871L314.058 347.451C314.058 347.451 308.385 332.901 307.912 323.319C307.794 323.319 304.248 318.232 297.866 315.748Z" fill="url(#paint66_radial)"/>
<path d="M285.574 310.426C285.574 310.426 290.42 295.402 290.538 285.229L286.992 262.752C286.992 262.752 271.509 246.427 260.872 248.557L285.574 310.426Z" fill="url(#paint67_linear)"/>
<path d="M297.866 338.226C290.065 342.366 283.683 355.26 281.083 361.53C280.846 362.003 280.728 362.358 280.492 362.713C280.255 363.186 280.019 363.777 279.901 364.251C279.901 364.251 267.373 367.681 259.808 365.907C261.227 364.842 270.209 361.057 271.627 358.927C271.982 358.454 272.691 356.798 273.519 354.432C276.001 347.098 279.665 332.784 278.483 322.611C276.828 309.243 259.808 229.512 259.808 229.512C259.808 229.512 285.456 242.524 286.874 260.269C288.293 278.131 281.556 316.459 286.401 323.439C287.583 325.095 288.765 326.751 289.947 328.289C293.966 333.73 297.866 338.226 297.866 338.226Z" fill="#8F4547"/>
<path d="M266.781 262.989C266.781 262.989 280.965 263.107 286.52 279.077C286.52 279.077 287.347 267.602 286.874 261.924C286.874 261.924 278.601 245.599 263.708 248.675L266.781 262.989Z" fill="url(#paint68_linear)"/>
<path d="M297.866 315.748C297.866 315.748 297.039 340.945 289.829 348.279C289.829 348.279 282.501 354.431 280.61 357.033C278.719 359.636 278.719 359.636 278.719 359.636C278.719 359.636 286.992 363.066 299.875 355.732C299.875 355.732 300.821 343.311 303.776 335.267L304.012 334.557L312.64 348.871L314.058 347.451C314.058 347.451 308.385 332.901 307.912 323.319C307.794 323.319 304.248 318.232 297.866 315.748Z" fill="url(#paint69_linear)"/>
<path d="M295.029 364.724H293.375C293.375 364.724 293.729 353.604 291.484 347.926C291.484 347.926 285.338 351.711 281.083 361.412C280.846 361.767 280.728 362.24 280.492 362.595C280.255 363.068 280.019 363.659 279.901 364.132C279.901 364.132 267.372 367.563 259.808 365.789C259.572 365.789 259.335 365.67 259.099 365.67C259.099 365.67 260.281 363.778 263.59 360.938C266.9 358.099 273.518 354.432 273.518 354.432C273.873 354.314 278.955 351.83 283.328 345.205C287.938 338.344 290.065 328.525 290.065 328.525C290.538 328.999 297.984 336.688 298.457 338.226C296.921 344.377 295.029 364.724 295.029 364.724Z" fill="url(#paint70_linear)"/>
<path d="M375.636 227.264C375.164 229.275 369.254 239.567 355.189 242.406C354.598 242.524 354.126 242.642 353.535 242.642C338.17 245.245 283.919 238.62 283.919 238.62C288.174 250.923 288.411 264.409 288.411 264.409C288.411 264.409 279.664 252.461 269.854 249.74C268.909 249.503 268.082 249.267 267.254 249.148C258.981 247.492 252.835 248.912 252.48 248.912C252.717 248.557 256.144 242.879 256.026 241.459C255.908 240.04 246.925 223.951 249.053 220.639C251.18 217.327 255.199 216.972 256.853 216.381C258.39 215.789 258.626 214.37 270.564 211.412C282.501 208.573 316.659 209.283 318.077 208.691C318.313 208.573 318.55 208.336 318.786 208.1C319.259 207.272 319.495 205.734 319.022 203.368C318.786 202.185 339.942 192.485 358.853 194.851C371.736 207.035 376.937 221.467 375.636 227.264Z" fill="#FFAE16"/>
<path opacity="0.83" d="M256.262 226.08C257.563 233.178 255.79 241.577 255.79 241.577C255.671 240.157 246.689 224.069 248.816 220.757C250.826 217.444 254.962 217.09 256.617 216.498C256.499 216.735 255.08 219.337 256.262 226.08Z" fill="url(#paint71_linear)"/>
<path opacity="0.2" d="M337.342 206.443C333.56 209.282 317.722 208.809 317.722 208.809C318.786 208.336 319.259 206.679 318.668 203.367C322.332 207.862 337.342 206.443 337.342 206.443Z" fill="#D73620"/>
<path opacity="0.2" d="M355.189 242.406C354.598 242.524 354.126 242.643 353.535 242.761C338.17 245.364 283.919 238.739 283.919 238.739C288.174 251.042 288.411 264.527 288.411 264.527C288.411 264.527 279.664 252.58 269.855 249.859C268.909 249.622 268.082 249.386 267.254 249.267C268.673 249.386 280.137 250.569 284.51 253.644C289.12 256.838 287.82 255.537 287.82 255.537C287.82 255.537 283.21 235.427 281.083 228.447C281.083 228.447 333.324 240.04 350.343 241.696C352.234 241.815 353.889 242.051 355.189 242.406Z" fill="#D73620"/>
<path d="M330.96 209.52C330.96 209.52 308.385 213.187 288.411 212.241C268.436 211.294 256.617 216.499 256.617 216.499C258.153 215.908 258.39 214.488 270.327 211.531C282.265 208.692 316.422 209.52 317.84 208.81C318.077 208.692 318.313 208.455 318.55 208.219L330.96 209.52Z" fill="white" fill-opacity="0.3"/>
<path opacity="0.3" d="M280.492 362.712C280.492 362.712 287.347 343.311 298.339 338.225L295.029 364.723H293.375C293.375 364.723 293.493 353.603 291.484 347.925C291.484 347.925 283.565 353.603 280.492 362.712Z" fill="url(#paint72_linear)"/>
<path d="M357.199 163.266C354.953 159.481 351.053 151.082 349.28 147.178L347.98 144.457C347.27 142.801 346.798 141.855 346.798 141.855C344.197 136.176 344.434 135.821 344.079 135.703C344.316 136.176 333.797 141.381 339.588 151.082C339.706 151.2 339.706 151.318 339.706 151.318C341.715 154.749 343.37 159.007 344.907 163.621C344.67 163.621 344.316 163.621 344.079 163.621C343.252 163.621 342.425 163.621 341.597 163.621C340.888 163.621 340.179 163.621 339.47 163.621C335.688 163.621 332.378 163.621 329.542 163.621C328.242 163.621 326.941 163.621 325.641 163.621C323.632 163.621 321.859 163.503 320.204 163.503C316.54 163.384 314.295 163.384 314.295 163.384C314.295 163.384 310.276 167.406 314.413 174.031C314.413 174.031 320.204 176.042 326.705 177.698C331.433 178.881 336.515 179.827 340.061 179.473C341.715 179.354 343.725 178.881 346.089 178.408C347.152 178.171 357.317 177.343 357.317 177.343C357.553 176.988 359.444 167.17 357.199 163.266Z" fill="#791640"/>
<path d="M360.744 197.217L358.735 194.733C334.978 192.012 319.141 204.197 319.141 204.197L318.195 207.154C318.195 206.917 317.486 205.261 317.013 203.014C316.777 202.186 316.659 201.239 316.54 200.293C316.54 199.938 316.422 199.583 316.422 199.228C316.422 198.755 316.304 198.282 316.422 197.809C316.422 196.389 316.895 193.313 317.368 189.528V189.41C318.313 182.43 319.613 173.558 319.495 169.536C319.495 169.418 319.495 169.299 319.495 169.063C319.495 168.353 319.377 167.762 319.259 167.052C319.141 166.224 318.904 165.396 318.668 164.568C318.55 163.976 318.313 163.503 318.077 163.03C317.368 161.137 316.304 159.363 315.24 157.588C314.295 156.05 313.231 154.512 312.167 152.856C312.167 152.738 312.049 152.738 312.049 152.62C311.931 152.383 311.813 152.265 311.695 152.028C311.576 151.91 311.576 151.792 311.458 151.555C311.34 151.318 311.222 151.082 310.985 150.727C309.922 148.834 308.74 146.35 307.558 143.511C304.839 136.768 302.121 128.251 301.648 122.099C301.53 121.035 301.53 120.207 301.648 119.379C301.766 118.432 301.885 117.486 302.239 116.658C302.357 116.066 302.594 115.593 302.83 115.12C304.367 111.808 306.849 109.915 308.74 108.969C310.04 108.259 310.985 108.022 310.985 108.022C312.64 107.786 317.25 108.141 322.095 108.85C328.005 109.797 334.269 111.216 335.806 112.754C338.524 115.593 345.734 130.262 344.316 139.371C343.961 141.737 343.37 144.812 342.779 148.006L342.661 148.716C342.425 150.017 342.188 151.437 341.952 152.856V153.093C341.715 154.749 341.361 156.523 341.124 158.18C340.652 161.847 340.297 165.277 340.533 167.998C340.652 169.654 341.006 171.074 341.479 172.02C343.961 176.042 353.535 181.72 358.026 185.861C358.971 186.689 359.681 187.517 360.035 188.227C362.517 192.249 360.744 197.217 360.744 197.217Z" fill="#A00031"/>
<path opacity="0.5" d="M308.858 108.968C308.858 108.968 315.358 109.914 318.904 115.119C322.45 120.325 321.977 140.553 326.469 151.2C330.842 161.965 341.952 153.92 341.952 153.92L343.843 143.392L337.933 116.421L322.332 108.85C322.332 108.85 312.995 107.667 308.858 108.968Z" fill="url(#paint73_linear)"/>
<path opacity="0.5" d="M317.368 189.528C325.523 178.172 356.844 185.506 358.262 185.861C353.771 181.721 344.197 176.042 341.715 172.02C341.124 171.074 340.888 169.773 340.77 167.998C327.178 163.385 321.623 167.289 319.613 169.418C319.613 173.44 318.313 182.43 317.486 189.292L317.368 189.528Z" fill="url(#paint74_linear)"/>
<path opacity="0.5" d="M311.458 151.672C311.931 152.5 311.813 152.382 312.167 152.855C313.231 154.393 314.295 155.931 315.359 157.587C316.895 153.092 316.895 138.896 316.895 138.896L311.458 151.672Z" fill="url(#paint75_linear)"/>
<path opacity="0.5" d="M317.013 203.133C317.486 206.682 318.195 207.273 318.195 207.273L319.141 204.316C319.141 204.316 334.979 192.013 358.735 194.852L360.744 197.336C360.744 197.336 362.517 192.368 360.272 188.346C359.917 187.636 359.208 186.808 358.262 185.98C353.771 181.84 344.198 176.161 341.715 172.139C341.125 171.193 340.888 169.892 340.77 168.117C340.652 165.397 340.888 161.966 341.361 158.299C341.361 158.299 339.47 166.343 340.415 171.075C341.479 175.807 355.308 188.228 356.253 191.54C356.253 191.422 328.478 189.766 317.013 203.133Z" fill="url(#paint76_linear)"/>
<path opacity="0.5" d="M322.686 180.183C322.095 182.194 321.505 184.323 320.795 186.453C318.786 193.077 316.54 199.347 316.54 199.347L316.422 199.229C316.422 198.755 316.304 198.282 316.422 197.809C316.422 196.39 316.895 193.314 317.368 189.528V189.41C318.313 182.431 319.613 173.558 319.495 169.536C319.495 169.418 319.495 169.3 319.495 169.063C319.495 168.353 319.377 167.762 319.259 167.052C319.141 166.224 318.904 165.396 318.668 164.568C318.55 163.976 318.313 163.503 318.077 163.03C317.368 161.137 316.304 159.363 315.24 157.589C315.24 157.589 315.24 157.589 315.359 157.47C315.831 156.642 318.077 152.62 319.85 154.868C320.677 156.051 321.859 159.836 322.686 164.331C322.805 164.686 322.805 165.041 322.923 165.396C323.041 165.988 323.041 166.461 323.159 167.052C323.632 171.547 323.75 176.516 322.686 180.183Z" fill="url(#paint77_linear)"/>
<path d="M317.013 138.898L316.777 139.371C316.659 139.49 316.659 139.608 316.54 139.844C316.068 141.027 315.122 143.157 313.94 145.759C313.822 145.878 313.822 146.114 313.704 146.232L313.586 146.469C313.113 147.77 312.404 149.781 311.576 152.147C310.749 154.631 309.804 157.589 308.858 160.546C307.794 164.095 306.612 167.644 305.785 170.483C305.076 172.967 301.53 180.775 301.294 180.893C300.348 181.13 298.575 181.366 296.566 181.603C295.384 181.721 294.084 181.84 293.02 181.84C292.193 181.84 291.366 181.958 290.656 181.958C290.538 181.958 290.42 181.958 290.42 181.958C289.829 181.958 289.356 181.958 288.765 182.076C285.929 182.194 282.856 182.194 279.901 182.076C278.01 182.076 276.237 181.958 274.582 181.84C274.228 181.84 273.873 181.84 273.519 181.84C271.509 181.721 269.736 181.603 268.318 181.366C268.082 181.366 267.845 181.366 267.609 181.248C260.517 180.302 255.081 179.119 255.081 179.119C250.235 175.452 251.062 168.709 252.835 168.117C253.189 167.999 255.081 167.762 257.917 167.526C258.035 167.526 258.154 167.526 258.272 167.526C259.454 167.407 260.636 167.289 262.054 167.171H262.408C269.027 166.579 278.246 165.633 287.111 164.332H287.229C290.065 163.859 292.902 163.385 295.62 162.912C296.33 160.191 296.802 158.062 297.039 156.642C297.393 155.105 297.748 153.449 297.984 151.792C298.103 151.083 298.221 150.373 298.339 149.663C298.575 148.48 298.693 147.179 298.93 145.996C299.048 145.404 299.048 144.931 299.166 144.34C299.284 143.512 299.403 142.684 299.521 141.856C299.639 140.791 299.757 139.726 299.994 138.662C300.23 137.005 300.348 135.468 300.585 133.93C300.703 132.747 300.821 131.564 300.939 130.381C301.057 129.316 301.175 128.37 301.294 127.423C301.294 127.069 301.412 126.714 301.412 126.359C301.53 125.531 301.53 124.703 301.648 123.993C301.648 123.401 301.766 122.928 301.766 122.455C301.766 122.455 301.766 122.455 301.766 122.337C301.766 122.218 301.766 122.1 301.766 121.864C301.766 121.39 301.885 121.035 301.885 120.562C302.003 119.616 302.003 118.788 302.121 118.078C302.121 117.96 302.121 117.96 302.121 117.841C302.121 117.605 302.121 117.368 302.239 117.25C302.239 117.013 302.239 116.895 302.357 116.777C302.357 116.777 302.357 116.777 302.357 116.659C302.476 116.185 302.594 115.712 302.948 115.239C303.185 114.766 303.539 114.293 303.894 113.938C305.667 111.808 308.74 110.389 311.695 112.518C318.55 117.368 317.013 138.898 317.013 138.898Z" fill="url(#paint78_linear)"/>
<path opacity="0.5" d="M290.775 181.958C290.656 181.958 290.538 181.958 290.538 181.958C289.947 181.958 289.474 181.958 288.883 182.076C286.047 182.195 282.974 182.195 280.019 182.076C278.128 182.076 276.355 181.958 274.7 181.84C274.346 181.84 273.991 181.84 273.637 181.84C271.627 181.722 269.855 181.603 268.436 181.367C268.2 181.367 267.963 181.367 267.727 181.248C261.581 176.871 260.399 173.204 260.517 170.72C260.517 170.602 260.517 170.602 260.517 170.483C260.754 168.354 262.054 167.171 262.054 167.171H262.408L287.111 164.332H287.229C285.338 169.655 286.047 173.914 287.229 176.99C287.229 176.99 287.229 176.99 287.229 177.108C288.293 179.711 289.829 181.367 290.538 181.958C290.656 181.84 290.656 181.84 290.775 181.958Z" fill="url(#paint79_linear)"/>
<path opacity="0.5" d="M297.039 156.406C297.039 156.406 312.522 141.146 313.94 129.789C315.359 118.433 311.458 114.647 308.031 113.937C306.731 113.583 305.312 113.583 303.894 113.819C303.067 114.766 302.594 115.712 302.357 116.658C302.003 118.788 300.703 139.371 297.039 156.406Z" fill="url(#paint80_linear)"/>
<path opacity="0.5" d="M316.069 140.908C315.596 142.091 314.887 143.629 314.059 145.522C313.941 145.64 313.941 145.877 313.823 145.995L313.705 146.232C313.468 146.705 313.232 147.296 312.996 148.006C312.641 148.952 312.286 149.899 311.932 151.082V151.2C311.814 151.318 311.814 151.555 311.696 151.673C311.696 151.791 311.696 151.791 311.577 151.91C311.577 151.91 311.577 151.91 311.577 152.028C310.75 154.276 310.041 156.523 309.45 158.889C309.332 159.362 309.213 159.836 308.977 160.309C307.795 163.858 306.731 167.406 305.786 170.364C305.077 172.848 301.531 180.774 301.295 180.774C300.349 181.01 298.576 181.247 296.685 181.484C296.449 181.484 296.094 181.484 295.858 181.602C294.912 181.72 293.967 181.72 293.139 181.839C292.312 181.839 291.485 181.957 290.776 181.957H290.657C290.539 181.957 290.421 181.957 290.421 181.957C289.948 181.957 289.475 181.957 289.003 182.075C286.166 182.193 283.093 182.193 280.138 182.075C278.247 182.075 276.474 181.957 274.82 181.839C274.465 181.839 274.11 181.839 273.756 181.839C271.747 181.72 269.974 181.602 268.555 181.365C268.319 181.365 268.083 181.365 267.846 181.247C260.755 180.301 255.318 179.118 255.318 179.118C250.472 175.451 251.299 168.708 253.072 168.116C253.427 167.998 255.318 167.761 258.154 167.525C258.391 167.88 258.982 168.944 260.4 170.364C260.518 170.482 260.636 170.6 260.755 170.719C263.591 173.44 269.265 176.988 278.956 177.343C281.793 177.462 284.63 177.225 287.23 176.87H287.348C289.003 176.634 290.657 176.279 292.194 175.805C294.558 175.214 297.04 174.622 298.931 173.558C300.822 172.493 307.322 158.179 308.741 154.276C309.213 152.974 309.923 151.555 310.75 150.017C310.75 150.017 310.75 149.899 310.868 149.899C312.405 146.586 314.65 143.038 316.069 140.908Z" fill="url(#paint81_linear)"/>
<path d="M332.969 79.9866C332.969 79.9866 331.905 81.1696 330.369 82.7074C328.596 84.6002 326.114 86.8478 324.223 88.149C323.987 88.3856 321.386 88.7405 321.268 88.9771C320.795 89.5686 302.239 59.4032 292.429 61.5325C291.956 61.6508 291.602 61.7691 291.129 61.8874L289.829 56.2092L289.12 53.3701L291.838 53.8433L292.902 53.9615L299.048 51.0042L315.24 43.3149L317.722 42.132L317.959 42.0137L318.55 42.3686L323.514 45.326L326.114 46.8638H326.232L326.705 47.1004L330.369 49.348L330.251 50.4127V50.531V51.1224L330.133 52.6603L330.014 53.9615L330.605 61.5325L328.005 78.0939V78.4488L332.024 79.3951L332.969 79.9866Z" fill="url(#paint82_linear)"/>
<path d="M328.242 50.1749L327.651 50.4115L324.696 51.831L303.658 61.8862C303.658 61.8862 303.067 61.8862 301.885 62.8325C301.53 63.1874 301.294 63.8972 301.057 64.7253C300.585 66.8546 299.639 71.5864 299.639 71.5864L295.739 70.5218L295.266 61.8862L294.084 70.0486L280.374 69.812C280.374 69.812 281.201 66.0265 281.319 65.1985C281.91 61.8862 283.565 53.014 286.047 49.5834C289.12 45.3248 297.748 49.82 297.748 49.82C297.748 49.82 308.858 39.5283 317.486 42.1308H317.604C317.841 42.2491 318.077 42.2491 318.313 42.3674C322.096 43.6686 324.459 45.4431 325.996 46.9809C326.232 47.2175 326.35 47.3358 326.587 47.5724C327.887 49.1102 328.242 50.1749 328.242 50.1749Z" fill="url(#paint83_linear)"/>
<path d="M318.313 42.4857C322.096 43.7869 324.459 45.5613 325.996 47.0992C325.996 47.0992 325.996 47.0992 325.878 47.0992C325.641 46.8626 324.696 46.2711 323.277 45.5613C321.977 44.8516 320.204 44.1418 318.077 43.432C317.25 43.1954 316.186 43.1954 315.004 43.432C308.622 44.4967 297.63 50.4115 297.63 50.4115C297.63 50.4115 292.193 47.809 288.293 49.2285C284.865 50.4115 282.028 61.8862 281.319 65.1984C281.91 61.8862 283.565 53.014 286.047 49.5834C289.12 45.3248 297.748 49.82 297.748 49.82C297.748 49.82 308.858 39.5283 317.486 42.1308L317.722 42.0125L318.313 42.4857Z" fill="url(#paint84_linear)"/>
<path d="M347.389 50.5301C347.152 50.2935 340.297 41.4213 336.042 40.5933C332.142 39.8835 327.414 45.4434 326.232 46.8629V46.7446C326.232 46.7446 329.542 39.1737 335.097 38.9371C339.352 38.8188 344.67 45.4434 347.389 50.5301Z" fill="url(#paint85_linear)"/>
<path d="M335.451 56.9179L334.742 56.2081C334.742 56.0898 334.86 55.8532 334.86 55.7349C335.451 53.369 335.688 51.7129 335.333 51.2397C334.151 49.4652 331.669 50.0567 330.014 50.8848C329.896 50.8848 329.896 50.8848 329.896 51.0031C329.896 51.0031 332.26 48.4006 335.451 50.2933C338.642 51.9495 335.451 56.9179 335.451 56.9179Z" fill="url(#paint86_linear)"/>
<path d="M301.175 74.5432C301.175 74.5432 296.566 68.7467 300.23 62.832C303.894 56.9172 326.114 48.873 326.114 48.873C326.114 48.873 306.494 59.8746 304.603 63.66C302.712 67.4455 301.175 74.5432 301.175 74.5432Z" fill="#423E80"/>
<path d="M338.524 63.0695C338.17 61.2951 336.988 59.284 335.688 57.3913C335.688 57.273 335.569 57.0364 335.569 56.9181C335.451 56.5632 335.215 56.09 334.979 55.7352C334.151 54.3156 332.969 53.1326 331.196 52.1863C330.842 51.9497 330.605 51.5948 330.251 51.3582H330.014L329.305 51.1216L327.651 50.6484H327.532C327.532 50.6484 327.532 50.6484 327.651 50.6484C327.769 50.7667 328.123 51.0033 328.478 51.4765C328.832 51.9497 329.305 52.6595 329.542 53.7241C329.542 53.7241 330.133 61.1768 328.951 68.2745C328.714 69.9307 325.641 72.06 324.932 74.1893C322.45 80.9322 320.795 88.3848 320.795 88.3848L323.514 88.858C323.514 88.858 323.514 88.858 323.632 88.858H323.868C324.459 88.0299 326.232 86.4921 328.36 84.481C333.324 79.6309 340.297 71.7051 338.524 63.0695Z" fill="#423E80"/>
<path d="M297.393 54.3163C297.393 54.3163 291.484 50.6491 289.238 51.5955C286.992 52.5419 284.51 69.2216 284.51 69.2216L287.583 68.985C287.583 68.985 286.874 53.6065 289.711 52.6602C292.547 51.8321 297.393 54.3163 297.393 54.3163Z" fill="#423E80"/>
<path d="M312.167 75.8452C312.758 75.8452 325.05 65.5535 326.469 61.1766C327.296 58.574 327.06 51.7129 327.06 51.7129C327.06 51.7129 326.587 58.3375 325.405 61.0583C324.105 63.7791 309.685 73.0061 309.685 73.0061L312.167 75.8452Z" fill="#423E80"/>
<path d="M332.615 51.004L331.078 52.187L328.36 49.7027L325.287 46.9819L326.35 43.9062L332.615 51.004Z" fill="url(#paint87_linear)"/>
<path opacity="0.45" d="M332.615 51.0036L331.078 52.1865L328.242 49.7023C328.596 49.4657 328.832 49.1108 328.832 48.8743C328.951 48.2828 328.478 47.0998 328.005 46.0352L332.615 51.0036Z" fill="#712B45"/>
<path d="M332.26 82.2341C332.26 82.2341 321.15 109.206 319.732 124.111C318.195 139.016 331.078 154.868 331.078 154.868C331.078 154.868 319.377 138.543 321.268 125.057C322.568 115.948 338.524 70.168 338.524 70.168L332.26 82.2341Z" fill="url(#paint88_linear)"/>
<path d="M334.86 76.6738C334.624 77.3836 329.069 92.4072 324.578 104.828C324.105 106.248 323.514 107.549 323.041 108.85C322.923 109.087 322.805 109.323 322.805 109.678C320.677 115.357 319.141 119.97 318.668 121.271C317.368 125.53 321.15 137.833 321.386 138.661C320.914 137.833 313.586 123.519 315.595 116.658C315.949 115.475 316.54 113.819 317.25 111.808C317.841 110.033 318.668 108.022 319.377 106.011C320.323 103.527 321.386 100.924 322.332 98.322C323.041 96.5475 323.632 94.8914 324.341 93.3535C326.35 88.5034 327.769 84.9545 327.769 84.9545L330.96 81.2874L334.86 76.6738Z" fill="url(#paint89_linear)"/>
<path d="M314.886 80.4584C314.886 80.4584 317.486 72.4143 322.45 72.7692C327.414 73.1241 330.251 81.5231 328.005 85.6635C325.759 89.9221 320.559 90.3953 318.077 88.7392C315.713 87.083 314.768 82.5878 314.886 80.4584Z" fill="url(#paint90_linear)"/>
<path d="M317.013 86.2558C317.013 86.2558 319.259 75.7275 324.577 76.3189C324.577 76.3189 321.741 77.2653 320.795 81.7606C320.795 81.7606 323.514 83.6533 323.868 86.8473C323.868 86.8473 322.332 84.1265 319.613 82.7069C319.613 82.7069 317.722 85.546 317.013 86.2558Z" fill="url(#paint91_linear)"/>
</g>
<g clip-path="url(#clip2)">
<path d="M111.296 323.385L116 241.65L49.5431 242.712L57.1295 324.598C57.2812 324.598 90.8131 327.934 111.296 323.385Z" fill="#1B2031"/>
<path opacity="0.47" d="M109.779 241.953L103.71 322.474L111.296 323.232C111.296 323.232 98.3995 328.237 57.2811 324.446C57.2811 324.446 80.9508 324.749 89.4475 322.474L91.5717 241.953H109.779Z" fill="url(#paint92_linear)"/>
<path opacity="0.5" d="M65.9298 241.953L69.2678 325.507L62.5918 325.052L53.1846 242.863L65.9298 241.953Z" fill="url(#paint93_linear)"/>
<path opacity="0.5" d="M108.869 324.143L114.179 241.65L109.779 241.954L103.255 324.749L108.869 324.143Z" fill="url(#paint94_linear)"/>
<path d="M79.4333 242.257L71.8469 194.945C71.8469 194.945 61.6812 194.187 56.6741 197.978L69.2676 242.56L79.4333 242.257Z" fill="url(#paint95_linear)"/>
<path d="M65.9297 241.953L43.4739 194.944C43.4739 194.944 33.6116 194.034 28.4528 200.706L54.2466 242.559L65.9297 241.953Z" fill="url(#paint96_linear)"/>
<path opacity="0.47" d="M43.4739 195.096L61.2261 237.252C61.2261 237.252 56.0674 238.01 53.1845 237.1C50.15 236.19 28.4528 200.858 28.4528 200.858L54.2466 242.711L65.9297 241.953L43.4739 195.096Z" fill="url(#paint97_linear)"/>
<path opacity="0.47" d="M56.6742 197.826L69.2677 237.859C69.2677 237.859 75.0334 236.949 75.792 232.855C76.5506 228.76 71.6953 194.793 71.6953 194.793L79.2817 242.105L69.116 242.256L56.6742 197.826Z" fill="url(#paint98_linear)"/>
<path d="M112.358 241.954L114.179 203.892C114.179 203.892 106.138 201.617 99.1581 203.892L96.5787 242.257L112.358 241.954Z" fill="url(#paint99_linear)"/>
<path opacity="0.47" d="M114.179 203.891C114.179 203.891 109.779 234.067 106.289 237.706C102.8 241.346 97.6408 240.436 97.6408 240.436L99.1581 203.891L96.5787 242.256L112.358 241.952L114.179 203.891Z" fill="url(#paint100_linear)"/>
</g>
<g clip-path="url(#clip3)">
<path opacity="0.2" d="M5.03396 55.1543L0 57.8901V101.445L14.2264 98.8185L5.03396 55.1543Z" fill="url(#paint101_linear)"/>
<path d="M7.22272 98.819L7.11328 54.0605H17.7284V97.7247L7.22272 98.819Z" fill="url(#paint102_linear)"/>
<path d="M7.11318 54.0605L5.03394 55.1549V98.819H7.22261L7.11318 54.0605Z" fill="#0A0A0A"/>
<path d="M10.9433 70.2559C10.9433 70.2559 8.53576 76.4936 10.9433 82.6219L25.9358 79.3389V71.7879L10.9433 70.2559Z" fill="url(#paint103_linear)"/>
<path d="M25.9358 79.4478L65.4414 21.8855H105.604L125.411 56.0289L126.724 55.2629L107.574 20.4629H64.7848L25.9358 71.8969V79.4478Z" fill="url(#paint104_linear)"/>
<path d="M62.1584 21.4488L65.1132 24.1846L68.5056 22.6526L67.6301 18.6035C67.6301 18.6035 64.0188 18.9318 62.1584 21.4488Z" fill="url(#paint105_linear)"/>
<path d="M104.291 22.4335L105.932 18.9316C105.932 18.9316 109.215 20.5732 109.543 22.6524L105.604 23.9656L104.291 22.4335Z" fill="url(#paint106_linear)"/>
<path d="M105.604 85.3574C105.604 85.3574 107.574 63.1423 126.725 55.263C145.657 47.4932 167.872 61.3913 167.872 61.3913C165.683 73.8668 133.181 92.0329 105.604 85.3574Z" fill="url(#paint107_linear)"/>
<path d="M121.69 57.891V51.4344L125.083 50.0117L129.789 54.2796C129.789 54.1702 129.898 56.9061 121.69 57.891Z" fill="url(#paint108_linear)"/>
<path opacity="0.74" d="M148.721 55.0449C148.721 55.0449 150.472 71.8978 124.426 83.8261L126.724 85.0298C126.724 85.0298 157.585 80.9808 166.121 61.3921C166.121 61.3921 159.336 57.2336 148.721 55.0449Z" fill="url(#paint109_linear)"/>
<path d="M138.215 54.0606C138.215 54.0606 153.098 53.9512 164.26 61.0644C164.26 61.0644 153.098 55.0455 138.215 54.0606Z" fill="white"/>
<path d="M125.192 50.7773L128.257 54.0604L129.351 54.3887L125.192 50.7773Z" fill="white"/>
<path opacity="0.74" d="M107.136 85.0304C107.136 85.0304 108.887 73.8682 115.562 64.7852C115.562 64.7852 112.826 75.838 113.155 85.687L107.136 85.0304Z" fill="url(#paint110_linear)"/>
<path d="M108.34 23.0898L123.223 50.7766L123.66 50.5578L108.34 23.0898Z" fill="white"/>
<path d="M106.151 19.4785C106.151 19.4785 108.121 20.2446 108.996 22.3238L108.449 22.6521C108.558 22.6521 108.449 21.4483 106.151 19.4785Z" fill="white"/>
<path d="M65.332 19.4789L67.6301 22.5431H68.0679L67.1924 18.7129L65.332 19.4789Z" fill="white"/>
<path d="M63.1434 23.9648L27.4679 74.195L26.7019 76.4931L63.1434 23.9648Z" fill="white"/>
</g>
<path d="M573.806 234.55L580 230.369V237.802L573.806 241.984V234.55Z" fill="url(#paint111_linear)"/>
<path d="M465.869 300.521L451.002 239.661H453.17L466.643 296.34L472.992 235.17L475.315 234.551L467.727 298.663L465.869 300.521Z" fill="url(#paint112_linear)"/>
<path d="M469.895 239.661L465.869 293.087L466.643 296.339L472.992 235.17L469.895 239.661Z" fill="#1B2031"/>
<path d="M448.679 239.66L512.017 302.378H520.224L573.806 241.983L565.598 241.518L516.043 300.365L456.732 239.815L448.679 239.66Z" fill="#1B2031"/>
<path d="M580 237.803L573.806 298.353L572.102 300.366L573.806 241.984L575.974 240.59L573.806 291.074L578.606 238.887L580 237.803Z" fill="url(#paint113_linear)"/>
<path d="M572.102 300.366H569.005L572.102 244.152L573.806 241.984L572.102 300.366Z" fill="#1B2031"/>
<path d="M575.974 240.59L573.806 291.074L578.606 238.887L575.974 240.59Z" fill="#1B2031"/>
<path d="M456.732 239.814H457.816L516.817 299.435L516.043 300.364L456.732 239.814Z" fill="url(#paint114_linear)"/>
<path d="M451.002 233.775L448.679 239.66L573.806 241.983V234.55L451.002 233.775Z" fill="#1B2031"/>
<path d="M451.002 233.776L473.921 230.369H580L573.806 234.55L451.002 233.776Z" fill="#594359"/>
<path d="M448.679 239.66L463.236 300.365L465.869 300.52L451.002 239.66H448.679Z" fill="#1B2031"/>
<path opacity="0.4" d="M485.226 194.904L475.625 201.873L467.262 226.65C467.262 226.65 487.084 241.052 533.232 232.535L485.226 194.904Z" fill="url(#paint115_linear)"/>
<path d="M513.256 191.033L513.875 141.943V138.691H514.804L513.565 87.8968L514.804 85.1094L516.353 140.859L515.579 142.407L516.663 184.839L518.211 187.007L518.056 191.033C518.056 191.033 515.424 191.498 513.256 191.033Z" fill="#432A00"/>
<path d="M518.676 162.229C518.676 162.229 535.246 157.118 538.807 154.331C548.409 146.743 546.241 138.535 546.241 138.535C546.241 138.535 536.175 137.916 532.148 140.703C528.277 143.336 521.308 149.84 520.379 153.247C519.45 156.654 518.676 162.229 518.676 162.229Z" fill="url(#paint116_linear)"/>
<path d="M515.269 104.001C515.269 104.001 512.017 89.1347 509.849 85.8827C503.809 77.0557 496.686 78.4494 496.686 78.4494C496.686 78.4494 495.447 87.1215 497.615 90.8382C499.628 94.3999 504.738 100.904 507.681 101.988C510.468 103.072 515.269 104.001 515.269 104.001Z" fill="url(#paint117_linear)"/>
<path d="M516.353 168.578L519.76 161.919L533.232 146.123L519.76 159.596L516.198 166.1L515.269 165.171L516.353 168.578Z" fill="#432A00"/>
<path d="M510.004 148.6C510.004 148.6 504.738 148.755 501.022 148.6C497.305 148.445 492.195 145.348 489.562 142.406C486.929 139.464 486.31 132.805 486.31 132.805C486.31 132.805 495.602 132.805 498.079 133.734C500.712 134.663 507.99 140.238 508.61 141.632C509.384 143.025 510.004 148.6 510.004 148.6Z" fill="url(#paint118_linear)"/>
<path d="M500.557 140.703L510.004 148.601L513.565 158.047L514.34 152.627L513.256 153.711L509.849 147.362L500.557 140.703Z" fill="#432A00"/>
<path d="M514.34 164.863L512.326 162.23L513.41 161.301L514.649 164.088L514.34 164.863Z" fill="#432A00"/>
<path d="M514.649 161.61C514.649 161.61 505.977 159.287 502.415 159.287C498.854 159.287 490.956 162.229 489.098 164.243C487.239 166.256 486.93 172.295 488.014 174.618C488.014 174.618 496.376 172.76 502.106 171.056C507.99 169.353 511.552 162.849 511.552 162.849L514.649 161.61Z" fill="url(#paint119_linear)"/>
<path d="M516.198 136.833L518.676 134.045L521.308 119.024L529.051 105.551L529.98 98.4277L528.587 105.551L520.844 117.63H519.915L518.211 132.807L516.043 134.2L516.198 136.833Z" fill="#432A00"/>
<path d="M514.494 127.385L510.004 121.811L514.494 124.598V127.385Z" fill="#432A00"/>
<path d="M513.101 124.286C513.101 124.286 506.906 126.764 504.429 126.764C501.796 126.764 495.292 125.216 492.659 123.048C490.027 120.879 488.478 113.446 488.478 113.446C488.478 113.446 494.363 113.137 499.009 113.446C503.654 113.756 512.791 117.627 513.101 118.557C513.411 119.486 513.101 124.286 513.101 124.286Z" fill="url(#paint120_linear)"/>
<path d="M520.689 130.794C520.689 130.794 524.405 125.219 527.658 124.6C530.91 124.135 540.666 127.232 542.214 128.316C543.763 129.401 545.621 134.666 545.621 134.666C545.621 134.666 540.975 136.214 537.104 135.905C533.387 135.595 524.405 131.878 523.321 131.723C522.392 131.569 520.689 130.794 520.689 130.794Z" fill="url(#paint121_linear)"/>
<path d="M523.476 127.387L519.14 131.723L518.676 134.046L523.476 128.161L527.348 127.851L535.091 130.019L527.348 127.387H523.476Z" fill="#432A00"/>
<path d="M512.636 169.818C512.636 169.818 512.636 175.393 516.508 177.406V179.884L518.831 176.942L512.636 169.818Z" fill="#432A00"/>
<path d="M512.636 169.817C512.636 169.817 518.831 170.746 519.76 170.746C520.689 170.901 525.954 168.578 525.954 168.578C525.954 168.578 529.671 172.604 529.826 174.772C529.98 176.941 527.503 181.277 527.503 181.277C527.503 181.277 523.012 180.502 519.605 178.954C516.353 177.405 512.636 169.817 512.636 169.817Z" fill="url(#paint122_linear)"/>
<path d="M519.76 170.746L522.547 173.379L520.844 170.746H519.76Z" fill="#432A00"/>
<path d="M522.083 109.578C522.083 109.578 519.295 105.551 518.676 102.145C518.056 98.7377 520.224 92.2336 522.083 89.601C523.941 86.9684 529.516 86.1941 530.6 86.3489C530.6 86.3489 531.839 90.9947 531.839 93.6273C531.684 96.2599 529.361 101.37 526.883 104.622C524.405 108.029 522.083 109.578 522.083 109.578Z" fill="url(#paint123_linear)"/>
<path d="M523.012 98.4277L522.237 104.312L519.915 117.63H520.844L522.083 109.578L523.012 104.003V98.4277Z" fill="#432A00"/>
<path d="M531.529 105.24C531.529 105.24 533.542 102.607 535.091 101.058C536.639 99.5098 545.466 100.439 547.325 101.058C549.028 101.678 553.829 105.549 553.829 105.549C553.829 105.549 547.325 109.266 545.621 109.576C543.918 109.731 535.4 109.576 534.007 108.027C533.232 107.098 531.529 105.24 531.529 105.24Z" fill="url(#paint124_linear)"/>
<path d="M542.524 104.932L532.458 104.158L529.051 105.552L528.432 106.791L532.148 104.932H542.524Z" fill="#432A00"/>
<path d="M515.269 85.5721C515.269 85.5721 516.353 80.3069 519.915 77.6743C523.476 75.0416 529.98 75.6611 529.98 75.6611C529.98 75.6611 523.012 78.9131 520.689 80.6166C518.521 82.32 515.269 85.5721 515.269 85.5721Z" fill="url(#paint125_linear)"/>
<path d="M514.494 84.9542C514.494 84.9542 511.088 76.437 509.694 75.5078C509.694 75.5078 513.875 76.7467 515.424 77.9856C516.972 79.3793 514.494 84.9542 514.494 84.9542Z" fill="url(#paint126_linear)"/>
<path d="M514.494 81.2383L513.565 87.8972L514.804 86.3486L514.494 81.2383Z" fill="#432A00"/>
<path d="M514.495 88.8238L517.437 83.5586L514.185 86.3461L514.495 88.8238Z" fill="#432A00"/>
<path d="M515.269 104.002L507.371 91.1484L514.804 101.679L515.269 104.002Z" fill="#432A00"/>
<path d="M514.649 161.61L507.836 160.836L499.783 162.849L508.3 161.301L514.34 162.23L514.649 161.61Z" fill="#432A00"/>
<path d="M543.298 231.143C543.298 231.143 550.112 211.166 547.015 189.641H484.916C484.916 189.641 483.213 212.56 488.633 231.298C510.313 234.395 522.392 234.395 543.298 231.143Z" fill="url(#paint127_linear)"/>
<path opacity="0.5" d="M512.946 190.879H545.466C545.466 190.879 545.312 211.32 533.542 229.284L524.56 229.594C524.56 229.594 517.901 201.254 512.946 190.879Z" fill="url(#paint128_linear)"/>
<path opacity="0.2" d="M547.17 189.641C547.17 189.641 547.944 215.812 540.046 222.626C532.148 229.439 494.363 228.665 490.336 224.639C486.31 220.613 485.226 211.476 485.226 211.476C485.226 211.476 486.62 226.807 488.788 231.298C509.849 234.085 521.928 234.55 543.453 231.143C543.298 231.143 551.196 209.617 547.17 189.641Z" fill="url(#paint129_linear)"/>
<defs>
<linearGradient id="paint0_linear" x1="473.273" y1="31.7441" x2="418.402" y2="31.7441" gradientUnits="userSpaceOnUse">
<stop stop-opacity="0"/>
<stop offset="1" stop-opacity="0.5"/>
</linearGradient>
<linearGradient id="paint1_linear" x1="242.612" y1="55.9076" x2="196.635" y2="55.9076" gradientUnits="userSpaceOnUse">
<stop stop-opacity="0"/>
<stop offset="1" stop-opacity="0.5"/>
</linearGradient>
<linearGradient id="paint2_linear" x1="390.871" y1="297.7" x2="390.871" y2="265.165" gradientUnits="userSpaceOnUse">
<stop offset="0.00540541" stop-color="#514853"/>
<stop offset="1" stop-color="#191E2F"/>
</linearGradient>
<linearGradient id="paint3_linear" x1="436.233" y1="207.43" x2="157.98" y2="207.43" gradientUnits="userSpaceOnUse">
<stop stop-color="#362C39"/>
<stop offset="1" stop-color="#191E2F"/>
</linearGradient>
<linearGradient id="paint4_linear" x1="159.079" y1="165.501" x2="121.76" y2="165.501" gradientUnits="userSpaceOnUse">
<stop stop-color="#534A55"/>
<stop offset="1" stop-color="#343947"/>
</linearGradient>
<linearGradient id="paint5_linear" x1="148.107" y1="296.047" x2="148.107" y2="268.962" gradientUnits="userSpaceOnUse">
<stop offset="0.00540541" stop-color="#514853"/>
<stop offset="1" stop-color="#191E2F"/>
</linearGradient>
<linearGradient id="paint6_linear" x1="436.233" y1="204.326" x2="159.079" y2="204.326" gradientUnits="userSpaceOnUse">
<stop stop-color="#534A55"/>
<stop offset="1" stop-color="#343947"/>
</linearGradient>
<linearGradient id="paint7_linear" x1="141.16" y1="212.712" x2="131.067" y2="212.712" gradientUnits="userSpaceOnUse">
<stop stop-color="#534A55"/>
<stop offset="1" stop-color="#343947"/>
</linearGradient>
<linearGradient id="paint8_linear" x1="148.107" y1="285.66" x2="132.342" y2="285.66" gradientUnits="userSpaceOnUse">
<stop stop-color="#534A55"/>
<stop offset="1" stop-color="#343947"/>
</linearGradient>
<linearGradient id="paint9_linear" x1="380.457" y1="198.449" x2="219.323" y2="198.449" gradientUnits="userSpaceOnUse">
<stop stop-color="#362C39"/>
<stop offset="1" stop-color="#191E2F"/>
</linearGradient>
<linearGradient id="paint10_linear" x1="380.457" y1="191.079" x2="226.548" y2="191.079" gradientUnits="userSpaceOnUse">
<stop stop-color="#534A55"/>
<stop offset="1" stop-color="#343947"/>
</linearGradient>
<linearGradient id="paint11_linear" x1="162.841" y1="289.275" x2="140.84" y2="289.275" gradientUnits="userSpaceOnUse">
<stop stop-color="#404D46"/>
<stop offset="1" stop-color="#2C2C2C"/>
</linearGradient>
<linearGradient id="paint12_linear" x1="424.772" y1="291.068" x2="387.731" y2="291.068" gradientUnits="userSpaceOnUse">
<stop stop-color="#404D46"/>
<stop offset="1" stop-color="#2C2C2C"/>
</linearGradient>
<linearGradient id="paint13_linear" x1="353.146" y1="232.074" x2="225.776" y2="232.074" gradientUnits="userSpaceOnUse">
<stop stop-color="#404D46"/>
<stop offset="1" stop-color="#2C2C2C"/>
</linearGradient>
<linearGradient id="paint14_linear" x1="378.569" y1="198.449" x2="219.323" y2="198.449" gradientUnits="userSpaceOnUse">
<stop stop-color="#FFDDCE"/>
<stop offset="1" stop-color="#D84057"/>
</linearGradient>
<linearGradient id="paint15_linear" x1="219.323" y1="210.074" x2="157.98" y2="210.074" gradientUnits="userSpaceOnUse">
<stop stop-color="#FFDDCE"/>
<stop offset="1" stop-color="#D84057"/>
</linearGradient>
<linearGradient id="paint16_linear" x1="418.962" y1="151.512" x2="135.098" y2="151.512" gradientUnits="userSpaceOnUse">
<stop stop-color="#F1A9A7"/>
<stop offset="1" stop-color="#F6CCB9"/>
</linearGradient>
<linearGradient id="paint17_linear" x1="383.387" y1="131.249" x2="135.098" y2="131.249" gradientUnits="userSpaceOnUse">
<stop stop-color="white" stop-opacity="0"/>
<stop offset="1" stop-color="white" stop-opacity="0.8"/>
</linearGradient>
<linearGradient id="paint18_linear" x1="286.294" y1="188.551" x2="286.294" y2="148.026" gradientUnits="userSpaceOnUse">
<stop stop-color="#FFDDCE"/>
<stop offset="1" stop-color="#D84057"/>
</linearGradient>
<linearGradient id="paint19_linear" x1="177.799" y1="188.552" x2="177.799" y2="175.925" gradientUnits="userSpaceOnUse">
<stop stop-color="#C7D7F6"/>
<stop offset="1" stop-color="#F7F9E8"/>
</linearGradient>
<linearGradient id="paint20_linear" x1="274.118" y1="127.063" x2="274.118" y2="162.628" gradientUnits="userSpaceOnUse">
<stop stop-color="#D71F27"/>
<stop offset="1" stop-color="#A00031"/>
</linearGradient>
<linearGradient id="paint21_linear" x1="281.071" y1="163.122" x2="317.663" y2="165.953" gradientUnits="userSpaceOnUse">
<stop stop-color="#8F4547"/>
<stop offset="1" stop-color="#AC5941"/>
</linearGradient>
<linearGradient id="paint22_linear" x1="365.392" y1="334.351" x2="404.28" y2="334.351" gradientUnits="userSpaceOnUse">
<stop offset="0.00540541" stop-color="#514853"/>
<stop offset="1" stop-color="#191E2F"/>
</linearGradient>
<linearGradient id="paint23_linear" x1="289.508" y1="336.261" x2="344.849" y2="336.261" gradientUnits="userSpaceOnUse">
<stop offset="0.00540541" stop-color="#514853"/>
<stop offset="1" stop-color="#191E2F"/>
</linearGradient>
<linearGradient id="paint24_linear" x1="390.303" y1="346.13" x2="404.772" y2="346.13" gradientUnits="userSpaceOnUse">
<stop offset="0.00540541" stop-color="#514853"/>
<stop offset="1" stop-color="#191E2F"/>
</linearGradient>
<linearGradient id="paint25_linear" x1="348.013" y1="303.354" x2="361.626" y2="303.354" gradientUnits="userSpaceOnUse">
<stop offset="0.00540541" stop-color="#514853"/>
<stop offset="1" stop-color="#191E2F"/>
</linearGradient>
<linearGradient id="paint26_linear" x1="361.301" y1="342.949" x2="415.603" y2="342.949" gradientUnits="userSpaceOnUse">
<stop offset="0.00540541" stop-color="#514853"/>
<stop offset="1" stop-color="#191E2F"/>
</linearGradient>
<linearGradient id="paint27_linear" x1="313.64" y1="344.03" x2="349.837" y2="344.03" gradientUnits="userSpaceOnUse">
<stop offset="0.00540541" stop-color="#514853"/>
<stop offset="1" stop-color="#191E2F"/>
</linearGradient>
<linearGradient id="paint28_linear" x1="405.815" y1="361.157" x2="420.285" y2="361.157" gradientUnits="userSpaceOnUse">
<stop offset="0.00540541" stop-color="#514853"/>
<stop offset="1" stop-color="#191E2F"/>
</linearGradient>
<linearGradient id="paint29_linear" x1="310.715" y1="361.157" x2="325.185" y2="361.157" gradientUnits="userSpaceOnUse">
<stop offset="0.00540541" stop-color="#514853"/>
<stop offset="1" stop-color="#191E2F"/>
</linearGradient>
<linearGradient id="paint30_linear" x1="348.6" y1="307.456" x2="351.094" y2="307.456" gradientUnits="userSpaceOnUse">
<stop offset="0.00540541" stop-color="#514853"/>
<stop offset="1" stop-color="#191E2F"/>
</linearGradient>
<linearGradient id="paint31_linear" x1="325.961" y1="336.439" x2="341.055" y2="336.439" gradientUnits="userSpaceOnUse">
<stop stop-color="white" stop-opacity="0"/>
<stop offset="1" stop-color="white" stop-opacity="0.5"/>
</linearGradient>
<linearGradient id="paint32_linear" x1="321.914" y1="342.027" x2="325.251" y2="342.027" gradientUnits="userSpaceOnUse">
<stop stop-color="white" stop-opacity="0"/>
<stop offset="1" stop-color="white" stop-opacity="0.5"/>
</linearGradient>
<linearGradient id="paint33_linear" x1="383.698" y1="338.928" x2="407.531" y2="338.928" gradientUnits="userSpaceOnUse">
<stop stop-color="white" stop-opacity="0"/>
<stop offset="1" stop-color="white" stop-opacity="0.5"/>
</linearGradient>
<linearGradient id="paint34_linear" x1="280.857" y1="182.178" x2="435.777" y2="182.178" gradientUnits="userSpaceOnUse">
<stop stop-color="#DD8897"/>
<stop offset="1" stop-color="#F1B5A4"/>
</linearGradient>
<linearGradient id="paint35_linear" x1="331.786" y1="276.937" x2="377.319" y2="276.937" gradientUnits="userSpaceOnUse">
<stop stop-color="#362C39"/>
<stop offset="1" stop-color="#0D1224"/>
</linearGradient>
<linearGradient id="paint36_linear" x1="296.769" y1="184.386" x2="448.643" y2="184.386" gradientUnits="userSpaceOnUse">
<stop stop-color="#F1A9A7"/>
<stop offset="1" stop-color="#F6CCB9"/>
</linearGradient>
<linearGradient id="paint37_linear" x1="316.363" y1="261.514" x2="400.689" y2="261.514" gradientUnits="userSpaceOnUse">
<stop stop-color="white" stop-opacity="0"/>
<stop offset="1" stop-color="white" stop-opacity="0.5"/>
</linearGradient>
<linearGradient id="paint38_linear" x1="337.964" y1="98.4533" x2="348.542" y2="98.4533" gradientUnits="userSpaceOnUse">
<stop stop-color="#4E33A9"/>
<stop offset="1" stop-color="#4A6EB3"/>
</linearGradient>
<linearGradient id="paint39_linear" x1="420.233" y1="168.677" x2="448.12" y2="168.677" gradientUnits="userSpaceOnUse">
<stop stop-color="white" stop-opacity="0.5"/>
<stop offset="1" stop-color="white" stop-opacity="0.5"/>
</linearGradient>
<linearGradient id="paint40_linear" x1="403.648" y1="105.381" x2="432.08" y2="105.381" gradientUnits="userSpaceOnUse">
<stop stop-color="white" stop-opacity="0.2"/>
<stop offset="1" stop-color="white" stop-opacity="0"/>
</linearGradient>
<linearGradient id="paint41_linear" x1="318.115" y1="79.6821" x2="349.16" y2="79.6821" gradientUnits="userSpaceOnUse">
<stop stop-color="#4E33A9"/>
<stop offset="1" stop-color="#4A6EB3"/>
</linearGradient>
<linearGradient id="paint42_linear" x1="285.033" y1="99.5398" x2="285.033" y2="98.1953" gradientUnits="userSpaceOnUse">
<stop stop-color="#4D1D1D"/>
<stop offset="1" stop-color="#D98C8B"/>
</linearGradient>
<linearGradient id="paint43_linear" x1="315.916" y1="100.859" x2="315.916" y2="79.5179" gradientUnits="userSpaceOnUse">
<stop stop-color="#964541"/>
<stop offset="1" stop-color="#8F2947"/>
</linearGradient>
<linearGradient id="paint44_linear" x1="321.448" y1="111.825" x2="321.448" y2="96.1386" gradientUnits="userSpaceOnUse">
<stop stop-color="#964541"/>
<stop offset="1" stop-color="#8F2947"/>
</linearGradient>
<linearGradient id="paint45_linear" x1="316.371" y1="100.859" x2="316.371" y2="84.913" gradientUnits="userSpaceOnUse">
<stop stop-opacity="0"/>
<stop offset="1" stop-opacity="0.5"/>
</linearGradient>
<linearGradient id="paint46_linear" x1="231.919" y1="160.817" x2="301.199" y2="160.817" gradientUnits="userSpaceOnUse">
<stop stop-color="#8F4547"/>
<stop offset="1" stop-color="#AC5941"/>
</linearGradient>
<linearGradient id="paint47_linear" x1="237.785" y1="145.53" x2="242.662" y2="145.53" gradientUnits="userSpaceOnUse">
<stop stop-opacity="0.5"/>
<stop offset="1" stop-opacity="0"/>
</linearGradient>
<linearGradient id="paint48_linear" x1="234.735" y1="159.408" x2="238.849" y2="159.408" gradientUnits="userSpaceOnUse">
<stop stop-opacity="0.5"/>
<stop offset="1" stop-opacity="0"/>
</linearGradient>
<linearGradient id="paint49_linear" x1="242.278" y1="161.945" x2="250.763" y2="161.945" gradientUnits="userSpaceOnUse">
<stop stop-opacity="0"/>
<stop offset="1" stop-opacity="0.5"/>
</linearGradient>
<radialGradient id="paint50_radial" cx="0" cy="0" r="1" gradientUnits="userSpaceOnUse" gradientTransform="translate(305.23 77.5967) scale(23.4081 23.4286)">
<stop stop-color="#AC5941"/>
<stop offset="1" stop-color="#8F4547"/>
</radialGradient>
<linearGradient id="paint51_linear" x1="314.894" y1="68.1893" x2="286.381" y2="68.1893" gradientUnits="userSpaceOnUse">
<stop stop-opacity="0"/>
<stop offset="1"/>
</linearGradient>
<linearGradient id="paint52_linear" x1="319.573" y1="93.0094" x2="309.585" y2="93.0094" gradientUnits="userSpaceOnUse">
<stop stop-opacity="0.2"/>
<stop offset="1" stop-opacity="0.4"/>
</linearGradient>
<linearGradient id="paint53_linear" x1="291.067" y1="68.3218" x2="300.091" y2="68.3218" gradientUnits="userSpaceOnUse">
<stop stop-color="#907AB8"/>
<stop offset="0.1426" stop-color="#726FAC"/>
<stop offset="0.2568" stop-color="#5E68A4"/>
<stop offset="0.2669" stop-color="#5D66A2"/>
<stop offset="0.4309" stop-color="#4D4E8B"/>
<stop offset="0.6027" stop-color="#413C7A"/>
<stop offset="0.7858" stop-color="#3A3170"/>
<stop offset="1" stop-color="#382E6D"/>
</linearGradient>
<linearGradient id="paint54_linear" x1="297.896" y1="87.2474" x2="297.896" y2="81.9815" gradientUnits="userSpaceOnUse">
<stop stop-opacity="0.5"/>
<stop offset="1" stop-opacity="0"/>
</linearGradient>
<linearGradient id="paint55_linear" x1="297.33" y1="82.0042" x2="297.33" y2="74.2549" gradientUnits="userSpaceOnUse">
<stop stop-opacity="0"/>
<stop offset="1" stop-opacity="0.5"/>
</linearGradient>
<linearGradient id="paint56_linear" x1="290.842" y1="79.083" x2="301.512" y2="79.083" gradientUnits="userSpaceOnUse">
<stop stop-color="#2E1538"/>
<stop offset="1" stop-color="#471F2C"/>
</linearGradient>
<radialGradient id="paint57_radial" cx="0" cy="0" r="1" gradientUnits="userSpaceOnUse" gradientTransform="translate(295.581 83.0494) scale(2.53711 2.53934)">
<stop offset="0.00558659" stop-color="#FFA457"/>
<stop offset="0.8427" stop-color="#9F3D3D"/>
<stop offset="1" stop-color="#721851"/>
</radialGradient>
<linearGradient id="paint58_linear" x1="288.372" y1="91.5614" x2="288.372" y2="88.2729" gradientUnits="userSpaceOnUse">
<stop stop-opacity="0"/>
<stop offset="1" stop-opacity="0.5"/>
</linearGradient>
<linearGradient id="paint59_linear" x1="287.477" y1="90.3616" x2="290.746" y2="90.3616" gradientUnits="userSpaceOnUse">
<stop stop-color="#2E1538"/>
<stop offset="1" stop-color="#471F2C"/>
</linearGradient>
<linearGradient id="paint60_linear" x1="296.859" y1="93.3249" x2="296.859" y2="91.7904" gradientUnits="userSpaceOnUse">
<stop stop-opacity="0"/>
<stop offset="1" stop-opacity="0.5"/>
</linearGradient>
<linearGradient id="paint61_linear" x1="294.453" y1="96.9276" x2="296.973" y2="96.9276" gradientUnits="userSpaceOnUse">
<stop stop-color="#CA0000"/>
<stop offset="1" stop-color="#A80009"/>
</linearGradient>
<linearGradient id="paint62_linear" x1="291.038" y1="94.8395" x2="296.62" y2="94.8395" gradientUnits="userSpaceOnUse">
<stop stop-color="#8D0000"/>
<stop offset="1" stop-color="#A80009"/>
</linearGradient>
<linearGradient id="paint63_linear" x1="313.34" y1="101.426" x2="321.731" y2="101.426" gradientUnits="userSpaceOnUse">
<stop stop-color="#964541"/>
<stop offset="1" stop-color="#8F2947"/>
</linearGradient>
<linearGradient id="paint64_linear" x1="321.518" y1="87.2243" x2="331.719" y2="87.2243" gradientUnits="userSpaceOnUse">
<stop stop-color="#FF51AA"/>
<stop offset="1" stop-color="#FE117E"/>
</linearGradient>
<linearGradient id="paint65_linear" x1="260.98" y1="303.095" x2="307.789" y2="303.095" gradientUnits="userSpaceOnUse">
<stop stop-color="#8F2947"/>
<stop offset="1" stop-color="#964541"/>
</linearGradient>
<radialGradient id="paint66_radial" cx="0" cy="0" r="1" gradientUnits="userSpaceOnUse" gradientTransform="translate(296.362 338.093) scale(20.111 20.1286)">
<stop offset="0.0189189" stop-color="#F22C39"/>
<stop offset="0.7332" stop-color="#F85A31"/>
<stop offset="0.9783" stop-color="#F88C31"/>
</radialGradient>
<linearGradient id="paint67_linear" x1="260.98" y1="279.368" x2="290.545" y2="279.368" gradientUnits="userSpaceOnUse">
<stop stop-opacity="0.5"/>
<stop offset="1" stop-opacity="0.1"/>
</linearGradient>
<linearGradient id="paint68_linear" x1="263.728" y1="263.691" x2="287.045" y2="263.691" gradientUnits="userSpaceOnUse">
<stop stop-opacity="0.4"/>
<stop offset="1" stop-opacity="0.1"/>
</linearGradient>
<linearGradient id="paint69_linear" x1="278.739" y1="338.093" x2="313.984" y2="338.093" gradientUnits="userSpaceOnUse">
<stop stop-color="#D71F27"/>
<stop offset="1" stop-color="#A00031"/>
</linearGradient>
<linearGradient id="paint70_linear" x1="259.07" y1="347.483" x2="298.357" y2="347.483" gradientUnits="userSpaceOnUse">
<stop stop-color="#D71F27"/>
<stop offset="1" stop-color="#A00031"/>
</linearGradient>
<linearGradient id="paint71_linear" x1="252.667" y1="241.602" x2="252.667" y2="216.495" gradientUnits="userSpaceOnUse">
<stop stop-opacity="0"/>
<stop offset="1" stop-opacity="0.5"/>
</linearGradient>
<linearGradient id="paint72_linear" x1="289.412" y1="364.72" x2="289.412" y2="338.22" gradientUnits="userSpaceOnUse">
<stop stop-opacity="0"/>
<stop offset="1"/>
</linearGradient>
<linearGradient id="paint73_linear" x1="329.692" y1="157.31" x2="324.171" y2="107.101" gradientUnits="userSpaceOnUse">
<stop stop-opacity="0"/>
<stop offset="1" stop-opacity="0.5"/>
</linearGradient>
<linearGradient id="paint74_linear" x1="356.885" y1="174.296" x2="316.123" y2="178.771" gradientUnits="userSpaceOnUse">
<stop stop-opacity="0.5"/>
<stop offset="1" stop-opacity="0.2"/>
</linearGradient>
<linearGradient id="paint75_linear" x1="315.505" y1="157.495" x2="313.495" y2="139.216" gradientUnits="userSpaceOnUse">
<stop stop-opacity="0.2"/>
<stop offset="1" stop-opacity="0.5"/>
</linearGradient>
<linearGradient id="paint76_linear" x1="339.895" y1="204.805" x2="334.835" y2="158.791" gradientUnits="userSpaceOnUse">
<stop stop-opacity="0"/>
<stop offset="1"/>
</linearGradient>
<linearGradient id="paint77_linear" x1="319.455" y1="199.352" x2="319.455" y2="154.066" gradientUnits="userSpaceOnUse">
<stop stop-color="white" stop-opacity="0.5"/>
<stop offset="1" stop-color="white" stop-opacity="0.2"/>
</linearGradient>
<linearGradient id="paint78_linear" x1="284.309" y1="182.059" x2="284.309" y2="111.335" gradientUnits="userSpaceOnUse">
<stop stop-color="#D71F27"/>
<stop offset="1" stop-color="#A00031"/>
</linearGradient>
<linearGradient id="paint79_linear" x1="275.616" y1="182.06" x2="275.616" y2="164.136" gradientUnits="userSpaceOnUse">
<stop stop-opacity="0.5"/>
<stop offset="1" stop-opacity="0.2"/>
</linearGradient>
<linearGradient id="paint80_linear" x1="307.23" y1="155.288" x2="302.678" y2="113.884" gradientUnits="userSpaceOnUse">
<stop stop-color="white" stop-opacity="0"/>
<stop offset="1" stop-color="white" stop-opacity="0.5"/>
</linearGradient>
<linearGradient id="paint81_linear" x1="283.743" y1="182.058" x2="283.743" y2="140.854" gradientUnits="userSpaceOnUse">
<stop stop-opacity="0.2"/>
<stop offset="1" stop-opacity="0.8"/>
</linearGradient>
<linearGradient id="paint82_linear" x1="289.048" y1="65.5433" x2="333.002" y2="65.5433" gradientUnits="userSpaceOnUse">
<stop stop-color="#5852B6"/>
<stop offset="1" stop-color="#596ED2"/>
</linearGradient>
<linearGradient id="paint83_linear" x1="280.341" y1="56.7522" x2="328.229" y2="56.7522" gradientUnits="userSpaceOnUse">
<stop stop-color="#5852B6"/>
<stop offset="1" stop-color="#596ED2"/>
</linearGradient>
<linearGradient id="paint84_linear" x1="281.321" y1="53.5602" x2="326.021" y2="53.5602" gradientUnits="userSpaceOnUse">
<stop stop-color="#FF51AA"/>
<stop offset="1" stop-color="#FE117E"/>
</linearGradient>
<linearGradient id="paint85_linear" x1="326.228" y1="44.7497" x2="347.419" y2="44.7497" gradientUnits="userSpaceOnUse">
<stop stop-color="#FF51AA"/>
<stop offset="1" stop-color="#FE117E"/>
</linearGradient>
<linearGradient id="paint86_linear" x1="329.853" y1="53.1383" x2="336.886" y2="53.1383" gradientUnits="userSpaceOnUse">
<stop stop-color="#FF51AA"/>
<stop offset="1" stop-color="#FE117E"/>
</linearGradient>
<linearGradient id="paint87_linear" x1="325.28" y1="48.0703" x2="332.617" y2="48.0703" gradientUnits="userSpaceOnUse">
<stop stop-color="#B31238"/>
<stop offset="1" stop-color="#FF4A57"/>
</linearGradient>
<linearGradient id="paint88_linear" x1="319.528" y1="112.466" x2="338.543" y2="112.466" gradientUnits="userSpaceOnUse">
<stop stop-color="#4E33A9"/>
<stop offset="1" stop-color="#4A6EB3"/>
</linearGradient>
<linearGradient id="paint89_linear" x1="315.322" y1="107.643" x2="334.91" y2="107.643" gradientUnits="userSpaceOnUse">
<stop stop-color="#4E33A9"/>
<stop offset="1" stop-color="#4A6EB3"/>
</linearGradient>
<linearGradient id="paint90_linear" x1="321.808" y1="89.618" x2="321.826" y2="72.7147" gradientUnits="userSpaceOnUse">
<stop stop-color="#8F2947"/>
<stop offset="1" stop-color="#964541"/>
</linearGradient>
<linearGradient id="paint91_linear" x1="320.359" y1="86.9246" x2="322.374" y2="75.9362" gradientUnits="userSpaceOnUse">
<stop stop-opacity="0.2"/>
<stop offset="1" stop-opacity="0.5"/>
</linearGradient>
<linearGradient id="paint92_linear" x1="84.2457" y1="326.057" x2="84.2457" y2="242.012" gradientUnits="userSpaceOnUse">
<stop stop-opacity="0"/>
<stop offset="1" stop-opacity="0.5"/>
</linearGradient>
<linearGradient id="paint93_linear" x1="61.2155" y1="325.452" x2="61.2155" y2="242.012" gradientUnits="userSpaceOnUse">
<stop stop-color="white" stop-opacity="0"/>
<stop offset="1" stop-color="white" stop-opacity="0.5"/>
</linearGradient>
<linearGradient id="paint94_linear" x1="108.715" y1="324.739" x2="108.715" y2="241.653" gradientUnits="userSpaceOnUse">
<stop stop-color="white" stop-opacity="0"/>
<stop offset="1" stop-color="white" stop-opacity="0.5"/>
</linearGradient>
<linearGradient id="paint95_linear" x1="68.0421" y1="242.366" x2="68.0421" y2="194.793" gradientUnits="userSpaceOnUse">
<stop stop-color="#C7D7F6"/>
<stop offset="1" stop-color="#F7F9E8"/>
</linearGradient>
<linearGradient id="paint96_linear" x1="47.2286" y1="242.733" x2="47.2286" y2="195.036" gradientUnits="userSpaceOnUse">
<stop stop-color="#C7D7F6"/>
<stop offset="1" stop-color="#F7F9E8"/>
</linearGradient>
<linearGradient id="paint97_linear" x1="47.2286" y1="242.733" x2="47.2286" y2="195.07" gradientUnits="userSpaceOnUse">
<stop stop-opacity="0.5"/>
<stop offset="1" stop-opacity="0"/>
</linearGradient>
<linearGradient id="paint98_linear" x1="68.0422" y1="242.365" x2="68.0422" y2="194.843" gradientUnits="userSpaceOnUse">
<stop stop-opacity="0.5"/>
<stop offset="1" stop-opacity="0"/>
</linearGradient>
<linearGradient id="paint99_linear" x1="105.412" y1="242.168" x2="105.412" y2="202.865" gradientUnits="userSpaceOnUse">
<stop stop-color="#DD8897"/>
<stop offset="1" stop-color="#F1B5A4"/>
</linearGradient>
<linearGradient id="paint100_linear" x1="105.412" y1="242.167" x2="105.412" y2="203.875" gradientUnits="userSpaceOnUse">
<stop stop-color="#974057"/>
<stop offset="1" stop-color="#FFFEFE"/>
</linearGradient>
<linearGradient id="paint101_linear" x1="7.11321" y1="101.404" x2="7.11321" y2="55.1044" gradientUnits="userSpaceOnUse">
<stop stop-color="#A24057"/>
<stop offset="1" stop-color="#FFDDCE"/>
</linearGradient>
<linearGradient id="paint102_linear" x1="12.3842" y1="98.8037" x2="12.3842" y2="54.1018" gradientUnits="userSpaceOnUse">
<stop stop-color="#362C39"/>
<stop offset="1" stop-color="#191E2F"/>
</linearGradient>
<linearGradient id="paint103_linear" x1="9.88957" y1="76.4519" x2="25.8993" y2="76.4519" gradientUnits="userSpaceOnUse">
<stop stop-color="#362C39"/>
<stop offset="1" stop-color="#191E2F"/>
</linearGradient>
<linearGradient id="paint104_linear" x1="25.8993" y1="49.9337" x2="126.729" y2="49.9337" gradientUnits="userSpaceOnUse">
<stop stop-color="#362C39"/>
<stop offset="1" stop-color="#191E2F"/>
</linearGradient>
<linearGradient id="paint105_linear" x1="62.1494" y1="21.4119" x2="68.4875" y2="21.4119" gradientUnits="userSpaceOnUse">
<stop stop-color="#362C39"/>
<stop offset="1" stop-color="#191E2F"/>
</linearGradient>
<linearGradient id="paint106_linear" x1="104.336" y1="21.4628" x2="109.616" y2="21.4628" gradientUnits="userSpaceOnUse">
<stop stop-color="#362C39"/>
<stop offset="1" stop-color="#191E2F"/>
</linearGradient>
<linearGradient id="paint107_linear" x1="105.57" y1="69.8703" x2="167.903" y2="69.8703" gradientUnits="userSpaceOnUse">
<stop stop-color="#362C39"/>
<stop offset="1" stop-color="#191E2F"/>
</linearGradient>
<linearGradient id="paint108_linear" x1="121.736" y1="53.9072" x2="129.832" y2="53.9072" gradientUnits="userSpaceOnUse">
<stop stop-color="#362C39"/>
<stop offset="1" stop-color="#191E2F"/>
</linearGradient>
<linearGradient id="paint109_linear" x1="145.258" y1="85.0246" x2="145.258" y2="55.0619" gradientUnits="userSpaceOnUse">
<stop/>
<stop offset="1" stop-color="#A1A7A4"/>
</linearGradient>
<linearGradient id="paint110_linear" x1="111.338" y1="85.7091" x2="111.338" y2="64.7799" gradientUnits="userSpaceOnUse">
<stop/>
<stop offset="1" stop-color="#A1A7A4"/>
</linearGradient>
<linearGradient id="paint111_linear" x1="573.857" y1="236.139" x2="580.051" y2="236.139" gradientUnits="userSpaceOnUse">
<stop stop-color="#534A55"/>
<stop offset="1" stop-color="#343947"/>
</linearGradient>
<linearGradient id="paint112_linear" x1="451.002" y1="267.539" x2="475.352" y2="267.539" gradientUnits="userSpaceOnUse">
<stop stop-color="#534A55"/>
<stop offset="1" stop-color="#343947"/>
</linearGradient>
<linearGradient id="paint113_linear" x1="572.05" y1="269.091" x2="580.051" y2="269.091" gradientUnits="userSpaceOnUse">
<stop stop-color="#534A55"/>
<stop offset="1" stop-color="#343947"/>
</linearGradient>
<linearGradient id="paint114_linear" x1="456.668" y1="270.027" x2="516.811" y2="270.027" gradientUnits="userSpaceOnUse">
<stop stop-color="#534A55"/>
<stop offset="1" stop-color="#343947"/>
</linearGradient>
<linearGradient id="paint115_linear" x1="500.219" y1="235.292" x2="500.219" y2="194.956" gradientUnits="userSpaceOnUse">
<stop stop-opacity="0"/>
<stop offset="1"/>
</linearGradient>
<linearGradient id="paint116_linear" x1="534.622" y1="157.135" x2="529.584" y2="141.238" gradientUnits="userSpaceOnUse">
<stop stop-color="#545C1E"/>
<stop offset="1" stop-color="#8A8706"/>
</linearGradient>
<linearGradient id="paint117_linear" x1="505.827" y1="103.999" x2="505.826" y2="78.3353" gradientUnits="userSpaceOnUse">
<stop stop-color="#72731E"/>
<stop offset="1" stop-color="#FFD849"/>
</linearGradient>
<linearGradient id="paint118_linear" x1="501.724" y1="151.268" x2="495.001" y2="130.055" gradientUnits="userSpaceOnUse">
<stop stop-color="#545C1E"/>
<stop offset="1" stop-color="#8A8706"/>
</linearGradient>
<linearGradient id="paint119_linear" x1="502.305" y1="171.177" x2="498.727" y2="159.889" gradientUnits="userSpaceOnUse">
<stop stop-color="#545C1E"/>
<stop offset="1" stop-color="#8A8706"/>
</linearGradient>
<linearGradient id="paint120_linear" x1="504.232" y1="127.233" x2="498.829" y2="110.188" gradientUnits="userSpaceOnUse">
<stop stop-color="#545C1E"/>
<stop offset="1" stop-color="#A69606"/>
</linearGradient>
<linearGradient id="paint121_linear" x1="534.924" y1="138.191" x2="530.342" y2="123.736" gradientUnits="userSpaceOnUse">
<stop stop-color="#545C1E"/>
<stop offset="1" stop-color="#A69606"/>
</linearGradient>
<linearGradient id="paint122_linear" x1="524.467" y1="182.337" x2="519.756" y2="167.472" gradientUnits="userSpaceOnUse">
<stop stop-color="#545C1E"/>
<stop offset="1" stop-color="#8A8706"/>
</linearGradient>
<linearGradient id="paint123_linear" x1="525.225" y1="109.55" x2="525.225" y2="86.3441" gradientUnits="userSpaceOnUse">
<stop stop-color="#72731E"/>
<stop offset="1" stop-color="#FFD849"/>
</linearGradient>
<linearGradient id="paint124_linear" x1="542.676" y1="109.619" x2="542.676" y2="100.26" gradientUnits="userSpaceOnUse">
<stop stop-color="#72731E"/>
<stop offset="1" stop-color="#FFD849"/>
</linearGradient>
<linearGradient id="paint125_linear" x1="522.63" y1="85.6297" x2="522.63" y2="75.7044" gradientUnits="userSpaceOnUse">
<stop stop-color="#72731E"/>
<stop offset="1" stop-color="#FFD849"/>
</linearGradient>
<linearGradient id="paint126_linear" x1="512.812" y1="85.0244" x2="512.811" y2="75.5076" gradientUnits="userSpaceOnUse">
<stop stop-color="#72731E"/>
<stop offset="1" stop-color="#FFD849"/>
</linearGradient>
<linearGradient id="paint127_linear" x1="516.283" y1="233.602" x2="516.283" y2="189.661" gradientUnits="userSpaceOnUse">
<stop stop-color="#191E2F"/>
<stop offset="0.9946" stop-color="#514853"/>
</linearGradient>
<linearGradient id="paint128_linear" x1="529.193" y1="229.555" x2="529.193" y2="190.81" gradientUnits="userSpaceOnUse">
<stop stop-opacity="0"/>
<stop offset="1" stop-color="#8E6146"/>
</linearGradient>
<linearGradient id="paint129_linear" x1="516.744" y1="233.613" x2="516.744" y2="189.697" gradientUnits="userSpaceOnUse">
<stop/>
<stop offset="0.996" stop-opacity="0"/>
</linearGradient>
<clipPath id="clip0">
<rect width="292.707" height="64.6236" fill="white" transform="matrix(-1 0 0 1 473.273 0)"/>
</clipPath>
<clipPath id="clip1">
<rect width="326.92" height="329.454" fill="white" transform="translate(121.76 38.9375)"/>
</clipPath>
<clipPath id="clip2">
<rect width="87.5472" height="131.321" fill="white" transform="matrix(-1 0 0 1 116 194.793)"/>
</clipPath>
<clipPath id="clip3">
<rect width="167.872" height="82.8415" fill="white" transform="translate(0 18.6035)"/>
</clipPath>
</defs>
</svg>
